<svg width="24" height="24" viewBox="0 0 24 24" fill="none" xmlns="http://www.w3.org/2000/svg">
<path fill-rule="evenodd" clip-rule="evenodd" d="M22.1999 6.88798L22.3458 6.95485L23.0884 7.29523L23.4049 7.44028C23.6382 7.54723 23.6382 7.87878 23.4049 7.98572L23.0884 8.13077L22.5253 8.38887V16.3879C23.0986 16.6312 23.5007 17.1994 23.5007 17.8614C23.5007 18.7451 22.7843 19.4614 21.9007 19.4614C21.017 19.4614 20.3007 18.7451 20.3007 17.8614C20.3007 17.1997 20.7024 16.6317 21.2753 16.3882V8.96178L19.5019 9.77461V12V13.6003V16.3285C19.5019 17.3649 18.7939 18.6588 17.5455 19.6615C16.3398 20.6298 14.5779 21.3792 12.2331 21.467V21.4756C12.1551 21.4756 12.0777 21.4749 12.0009 21.4735C11.9241 21.4749 11.8466 21.4756 11.7686 21.4756V21.467C9.42381 21.3792 7.66192 20.6298 6.45624 19.6615C5.20784 18.6588 4.4999 17.3649 4.4999 16.3285V13.6003V12V9.7755L1.79995 8.53803L1.65404 8.47115L0.9114 8.13077L0.594925 7.98572C0.361588 7.87878 0.361588 7.54723 0.594925 7.44028L0.9114 7.29523L1.65404 6.95485L1.79995 6.88798L11.8749 2.27029C11.9543 2.23392 12.0455 2.23392 12.1249 2.27029L22.1999 6.88798ZM5.9999 10.463V12V13.6003C5.9999 14.0745 6.37648 15.0286 7.40757 15.8925C8.37051 16.6994 9.86925 17.3883 12.0009 17.4352C14.1325 17.3883 15.6312 16.6994 16.5942 15.8925C17.6253 15.0286 18.0019 14.0745 18.0019 13.6003V12V10.4621L12.1249 13.1557C12.0455 13.1921 11.9543 13.1921 11.8749 13.1557L5.9999 10.463ZM11.9999 3.86305L20.3998 7.713L11.9999 11.563L3.6 7.713L11.9999 3.86305ZM7.39552 18.492C6.60209 17.8547 6.20406 17.1731 6.06219 16.6967C6.18305 16.8148 6.31044 16.9302 6.44419 17.0423C7.64976 18.0524 9.4158 18.837 11.7686 18.9287V18.9377C11.8466 18.9377 11.9241 18.937 12.0009 18.9355C12.0777 18.937 12.1551 18.9377 12.2331 18.9377V18.9287C14.586 18.837 16.352 18.0524 17.5576 17.0423C17.6913 16.9302 17.8187 16.8148 17.9396 16.6967C17.7977 17.1731 17.3997 17.8547 16.6062 18.492C15.6435 19.2651 14.1406 19.9283 12.0009 19.9732C9.86112 19.9283 8.35821 19.2651 7.39552 18.492Z" fill="#262B39"/>
</svg>
