<svg width="40" height="40" viewBox="0 0 40 40" fill="none" xmlns="http://www.w3.org/2000/svg">
<path fill-rule="evenodd" clip-rule="evenodd" d="M14.7507 13.2507L15.6933 14.1933L19.0573 17.5573L20 18.5L20.9427 17.5573L24.3067 14.1933L25.2493 13.2507L24.3067 12.3067L20.9427 8.94267L20 8L19.0573 8.94267L15.6933 12.3067L14.7507 13.2507ZM14.7507 26.7493L15.6933 27.6933L19.0573 31.0573L20 32L20.9427 31.0573L24.3067 27.6933L25.2493 26.7507L24.3067 25.8067L20.9427 22.4427L20 21.5L19.0573 22.4427L15.6933 25.8067L14.7507 26.7493ZM8.94267 20.9427L8 20L8.94267 19.0573L12.3067 15.6933L13.2507 14.7507L14.1933 15.6933L17.5573 19.0573L18.5 20L17.5573 20.9427L14.1933 24.3067L13.2507 25.2493L12.3067 24.3067L8.94267 20.9427ZM21.5 20L22.4427 20.9427L25.8067 24.3067L26.7493 25.2493L27.6933 24.3067L31.0573 20.9427L32 20L31.0573 19.0573L27.6933 15.6933L26.7507 14.7507L25.8067 15.6933L22.4427 19.0573L21.5 20Z" fill="#262B39"/>
</svg>
