<svg width="162" height="154" viewBox="0 0 162 154" fill="none" xmlns="http://www.w3.org/2000/svg">
<g clip-path="url(#clip0_1059_4758)">
<path d="M146.488 46.4337C145.391 34.9535 140.233 18.1141 125.12 8.96035C105.908 -2.67589 74.0646 -8.23016 46.6532 25.9876C42.3446 31.3653 35.419 33.4597 29.1654 35.1455C21.9272 37.0961 16.0807 39.8322 9.60997 46.5754C-2.7478 59.4446 -3.13827 76.3395 8.15611 92.4253C13.4076 99.9045 8.50815 109.541 12.5083 121.927C17.1742 136.369 29.5517 142.371 57.853 139.805C73.8455 138.355 80.2185 148.931 94.3697 152.394C133.349 161.934 132.312 126.625 150.153 108.761C177.736 81.1545 148.827 70.8889 146.488 46.4337Z" fill="#23A25D" fill-opacity="0.1"/>
<path d="M129.186 56.7018C117.221 48.2687 100.544 51.0233 92.0092 62.8618C83.474 74.7003 86.2852 91.1752 98.2504 99.6072C110.216 108.039 126.888 105.291 135.421 93.4564C143.954 81.6221 141.16 65.1379 129.186 56.7018Z" fill="white"/>
<path d="M130.746 54.5447C117.578 45.2647 99.2254 48.2954 89.8303 61.3269C80.4353 74.3584 83.532 92.4862 96.6998 101.766C109.868 111.046 128.216 108.022 137.607 94.9964C146.998 81.9711 143.921 63.8289 130.746 54.5447ZM98.9066 97.1083C88.3277 89.0171 86.3878 73.9508 94.5626 63.5055C102.737 53.0602 117.974 51.1208 128.552 59.212C139.13 67.3031 141.057 82.3602 132.882 92.8055C124.707 103.251 109.476 105.184 98.9066 97.1083Z" fill="#586470"/>
<path d="M114.17 55.5612H113.27V57.7397H114.17V55.5612Z" fill="#586470"/>
<path d="M114.17 98.5764H113.27V100.755H114.17V98.5764Z" fill="#586470"/>
<path d="M102.682 58.3651L101.902 58.8102L103.004 60.6969L103.784 60.2518L102.682 58.3651Z" fill="#586470"/>
<path d="M124.436 95.6169L123.656 96.062L124.758 97.9487L125.538 97.5037L124.436 95.6169Z" fill="#586470"/>
<path d="M94.1494 66.474L93.6992 67.2449L95.6076 68.3342L96.0578 67.5633L94.1494 66.474Z" fill="#586470"/>
<path d="M131.833 87.9825L131.383 88.7533L133.291 89.8426L133.741 89.0718L131.833 87.9825Z" fill="#586470"/>
<path d="M90.8633 77.7135V78.6037H93.0669V77.7135H90.8633Z" fill="#586470"/>
<path d="M134.371 77.7125V78.6026H136.575V77.7125H134.371Z" fill="#586470"/>
<path d="M93.6983 89.0715L94.1484 89.8424L96.0568 88.7531L95.6067 87.9822L93.6983 89.0715Z" fill="#586470"/>
<path d="M131.382 67.5637L131.832 68.3345L133.74 67.2452L133.29 66.4744L131.382 67.5637Z" fill="#586470"/>
<path d="M101.9 97.5047L102.68 97.9498L103.782 96.0631L103.002 95.618L101.9 97.5047Z" fill="#586470"/>
<path d="M123.654 60.2534L124.434 60.6984L125.535 58.8117L124.756 58.3666L123.654 60.2534Z" fill="#586470"/>
<path d="M112.648 77.3563L112.652 59.9799L113.722 59.4912L114.793 59.9799L114.79 77.3563H112.648Z" fill="#23A25D"/>
<path d="M112.992 79.0359L113.647 77.0195L128.187 81.6426L128.33 82.7996L127.533 83.659L112.992 79.0359Z" fill="#23A25D"/>
<path d="M113.719 80.2011C113.248 80.2011 112.79 80.042 112.422 79.75C112.055 79.458 111.799 79.0507 111.697 78.5954C111.595 78.1401 111.654 77.6641 111.863 77.2462C112.072 76.8282 112.419 76.4934 112.847 76.2971C113.275 76.1008 113.758 76.0547 114.216 76.1665C114.674 76.2783 115.079 76.5413 115.365 76.9119C115.651 77.2826 115.801 77.7387 115.789 78.2048C115.778 78.6709 115.605 79.1191 115.301 79.4753C115.107 79.7028 114.864 79.8857 114.591 80.0111C114.318 80.1365 114.02 80.2013 113.719 80.2011Z" fill="#23A25D"/>
<path d="M115.02 78.6894L117.668 76.5593L116.091 74.6434L113.443 76.7736L115.02 78.6894Z" fill="#23A25D"/>
<path d="M96.8143 91.7625L96.5547 90.9791L112.294 78.3141L113.274 79.5051L97.535 92.17L96.8143 91.7625Z" fill="#23A25D"/>
<path d="M113.722 50.4401C113.209 50.4401 112.718 50.2388 112.355 49.8805C111.993 49.5222 111.789 49.0362 111.789 48.5295V35.4128C111.789 34.9061 111.993 34.4201 112.355 34.0618C112.718 33.7035 113.209 33.5022 113.722 33.5022C114.234 33.5022 114.726 33.7035 115.088 34.0618C115.451 34.4201 115.654 34.9061 115.654 35.4128V48.5295C115.654 49.0362 115.451 49.5222 115.088 49.8805C114.726 50.2388 114.234 50.4401 113.722 50.4401Z" fill="#586470"/>
<path d="M113.722 122.815C113.209 122.815 112.718 122.614 112.355 122.255C111.993 121.897 111.789 121.411 111.789 120.904V107.787C111.789 107.28 111.993 106.794 112.355 106.436C112.718 106.077 113.209 105.876 113.722 105.876C114.234 105.876 114.726 106.077 115.088 106.436C115.451 106.794 115.654 107.28 115.654 107.787V120.904C115.654 121.155 115.604 121.404 115.507 121.636C115.41 121.867 115.268 122.078 115.088 122.255C114.909 122.433 114.696 122.574 114.461 122.67C114.227 122.766 113.975 122.815 113.722 122.815Z" fill="#586470"/>
<path d="M116.796 32.309C118.495 30.6299 118.495 27.9075 116.796 26.2284C115.098 24.5492 112.344 24.5492 110.646 26.2283C108.947 27.9075 108.947 30.6299 110.646 32.309C112.344 33.9881 115.098 33.9881 116.796 32.309Z" fill="white"/>
<path d="M116.796 130.087C118.495 128.408 118.495 125.686 116.796 124.006C115.098 122.327 112.344 122.327 110.646 124.006C108.947 125.686 108.947 128.408 110.646 130.087C112.344 131.766 115.098 131.766 116.796 130.087Z" fill="white"/>
<path d="M40.1259 41.7002L36.2617 41.6632L36.323 35.3913C36.3502 33.2553 37.2256 31.2155 38.7604 29.7118C40.2951 28.2082 42.3662 27.3612 44.5269 27.3535H107.895V31.1748H44.531C43.3875 31.1792 42.2915 31.6275 41.4791 32.4231C40.6666 33.2186 40.2026 34.2978 40.1871 35.4282L40.1259 41.7002Z" fill="#586470"/>
<path d="M113.72 35.9385C112.394 35.9383 111.099 35.5496 109.997 34.8215C108.895 34.0934 108.036 33.0586 107.529 31.848C107.022 30.6374 106.89 29.3054 107.148 28.0203C107.407 26.7352 108.045 25.5549 108.983 24.6284C109.92 23.702 111.114 23.0711 112.414 22.8156C113.714 22.56 115.061 22.6913 116.285 23.1928C117.51 23.6942 118.556 24.5434 119.293 25.6328C120.029 26.7223 120.422 28.0032 120.422 29.3134C120.42 31.0701 119.713 32.7543 118.457 33.9963C117.2 35.2384 115.497 35.9369 113.72 35.9385ZM113.72 26.5609C113.169 26.5611 112.63 26.7228 112.173 27.0256C111.715 27.3283 111.358 27.7585 111.147 28.2617C110.937 28.7649 110.882 29.3186 110.989 29.8527C111.097 30.3867 111.362 30.8773 111.752 31.2622C112.142 31.6472 112.638 31.9092 113.178 32.0153C113.719 32.1213 114.279 32.0666 114.788 31.858C115.296 31.6494 115.731 31.2963 116.037 30.8434C116.343 30.3905 116.506 29.858 116.506 29.3134C116.505 28.5833 116.211 27.8834 115.689 27.3673C115.166 26.8512 114.458 26.5612 113.72 26.5609Z" fill="#23A25D"/>
<path d="M107.895 128.963H44.5308C42.3701 128.955 40.299 128.108 38.7643 126.604C37.2295 125.101 36.3541 123.061 36.3269 120.925L36.2656 114.653L40.1298 114.615L40.191 120.888C40.2065 122.018 40.6705 123.098 41.483 123.893C42.2954 124.689 43.3914 125.137 44.5349 125.141H107.895V128.963Z" fill="#586470"/>
<path d="M113.72 133.628C112.394 133.628 111.099 133.239 109.997 132.511C108.895 131.783 108.036 130.748 107.529 129.537C107.022 128.327 106.89 126.995 107.148 125.71C107.407 124.425 108.045 123.244 108.983 122.318C109.92 121.391 111.114 120.76 112.414 120.505C113.714 120.249 115.061 120.381 116.285 120.882C117.51 121.384 118.556 122.233 119.293 123.322C120.029 124.412 120.422 125.693 120.422 127.003C120.42 128.759 119.713 130.444 118.457 131.686C117.2 132.928 115.497 133.626 113.72 133.628ZM113.72 124.249C113.169 124.249 112.631 124.411 112.173 124.714C111.715 125.016 111.358 125.447 111.147 125.95C110.937 126.453 110.882 127.007 110.989 127.541C111.097 128.075 111.362 128.565 111.752 128.95C112.141 129.335 112.638 129.597 113.178 129.703C113.718 129.81 114.278 129.755 114.787 129.547C115.296 129.338 115.731 128.985 116.037 128.532C116.343 128.08 116.506 127.547 116.506 127.003C116.505 126.273 116.211 125.573 115.689 125.056C115.167 124.54 114.458 124.25 113.72 124.249Z" fill="#23A25D"/>
<path d="M28.5399 37.6448C27.129 37.6467 25.7765 38.2017 24.779 39.188C23.7815 40.1744 23.2204 41.5116 23.2188 42.9064V113.41C23.2204 114.805 23.7815 116.142 24.779 117.128C25.7765 118.114 27.129 118.669 28.5399 118.671H86.3379C87.7489 118.67 89.1017 118.115 90.0994 117.128C91.0971 116.142 91.6584 114.805 91.66 113.41V42.9064C91.6584 41.5115 91.0971 40.1741 90.0994 39.1877C89.1017 38.2013 87.7489 37.6464 86.3379 37.6448H28.5399Z" fill="white"/>
<path d="M46.7471 54.1505C46.7471 52.4448 46.2354 50.7775 45.2769 49.3593C44.3184 47.941 42.9561 46.8357 41.3621 46.183C39.7682 45.5302 38.0142 45.3594 36.3221 45.6922C34.63 46.025 33.0757 46.8463 31.8557 48.0524C30.6358 49.2585 29.805 50.7951 29.4684 52.468C29.1318 54.1409 29.3046 55.8749 29.9648 57.4508C30.625 59.0266 31.7431 60.3735 33.1776 61.3211C34.6121 62.2687 36.2986 62.7745 38.0239 62.7745C40.3374 62.7745 42.5562 61.8659 44.1921 60.2486C45.828 58.6313 46.7471 56.4377 46.7471 54.1505Z" fill="#23A25D"/>
<path d="M43.4238 52.8908L37.1119 59.1196L32.875 54.9308L34.8429 52.9842L37.1119 55.2264L41.4444 50.9329L43.4238 52.8908Z" fill="white"/>
<path d="M46.7471 78.1581C46.7471 76.4524 46.2354 74.785 45.2769 73.3668C44.3184 71.9486 42.9561 70.8433 41.3621 70.1905C39.7682 69.5378 38.0142 69.367 36.3221 69.6998C34.63 70.0325 33.0757 70.8539 31.8557 72.06C30.6358 73.2661 29.805 74.8027 29.4684 76.4756C29.1318 78.1485 29.3046 79.8825 29.9648 81.4583C30.625 83.0342 31.7431 84.381 33.1776 85.3287C34.6121 86.2763 36.2986 86.7821 38.0239 86.7821C40.3374 86.7821 42.5562 85.8735 44.1921 84.2561C45.828 82.6388 46.7471 80.4453 46.7471 78.1581Z" fill="#23A25D"/>
<path d="M43.4238 76.8984L37.1119 83.1261L32.875 78.9384L34.8429 76.9908L37.1119 79.234L41.4444 74.9405L43.4238 76.8984Z" fill="white"/>
<path d="M46.7471 102.166C46.7471 100.46 46.2354 98.7926 45.2769 97.3744C44.3184 95.9562 42.9561 94.8508 41.3621 94.1981C39.7682 93.5454 38.0142 93.3746 36.3221 93.7073C34.63 94.0401 33.0757 94.8615 31.8557 96.0675C30.6358 97.2736 29.805 98.8103 29.4684 100.483C29.1318 102.156 29.3046 103.89 29.9648 105.466C30.625 107.042 31.7431 108.389 33.1776 109.336C34.6121 110.284 36.2986 110.79 38.0239 110.79C40.3374 110.79 42.5562 109.881 44.1921 108.264C45.828 106.646 46.7471 104.453 46.7471 102.166Z" fill="#23A25D"/>
<path d="M43.4238 100.906L37.1119 107.134L32.875 102.945L34.8429 100.998L37.1119 103.242L41.4444 98.9481L43.4238 100.906Z" fill="white"/>
<path d="M52.7166 52.6393C52.4219 52.6393 52.1393 52.5235 51.9309 52.3175C51.7225 52.1115 51.6055 51.8321 51.6055 51.5407C51.6055 51.2494 51.7225 50.97 51.9309 50.764C52.1393 50.5579 52.4219 50.4422 52.7166 50.4422H84.4751C84.7698 50.4422 85.0524 50.5579 85.2608 50.764C85.4692 50.97 85.5862 51.2494 85.5862 51.5407C85.5862 51.8321 85.4692 52.1115 85.2608 52.3175C85.0524 52.5235 84.7698 52.6393 84.4751 52.6393H52.7166Z" fill="#23A25D" fill-opacity="0.4"/>
<path d="M52.7139 57.8588C52.4252 57.8501 52.1513 57.7306 51.9503 57.5256C51.7492 57.3206 51.6367 57.0463 51.6367 56.7608C51.6367 56.4753 51.7492 56.2009 51.9503 55.996C52.1513 55.791 52.4252 55.6715 52.7139 55.6628H80.089C80.2377 55.6583 80.3858 55.6834 80.5245 55.7365C80.6632 55.7897 80.7897 55.8698 80.8965 55.9722C81.0033 56.0746 81.0883 56.1972 81.1462 56.3327C81.2042 56.4681 81.2341 56.6137 81.2341 56.7608C81.2341 56.9079 81.2042 57.0535 81.1462 57.1889C81.0883 57.3244 81.0033 57.447 80.8965 57.5494C80.7897 57.6518 80.6632 57.7319 80.5245 57.7851C80.3858 57.8382 80.2377 57.8633 80.089 57.8588H52.7139Z" fill="#23A25D" fill-opacity="0.4"/>
<path d="M52.7166 76.6468C52.4219 76.6468 52.1393 76.5311 51.9309 76.3251C51.7225 76.1191 51.6055 75.8397 51.6055 75.5483C51.6055 75.257 51.7225 74.9775 51.9309 74.7715C52.1393 74.5655 52.4219 74.4498 52.7166 74.4498H84.4751C84.7698 74.4498 85.0524 74.5655 85.2608 74.7715C85.4692 74.9775 85.5862 75.257 85.5862 75.5483C85.5862 75.8397 85.4692 76.1191 85.2608 76.3251C85.0524 76.5311 84.7698 76.6468 84.4751 76.6468H52.7166Z" fill="#23A25D" fill-opacity="0.4"/>
<path d="M52.7166 81.8664C52.4219 81.8664 52.1393 81.7506 51.9309 81.5446C51.7225 81.3386 51.6055 81.0592 51.6055 80.7678C51.6055 80.4765 51.7225 80.1971 51.9309 79.9911C52.1393 79.7851 52.4219 79.6693 52.7166 79.6693H80.0917C80.3864 79.6693 80.669 79.7851 80.8774 79.9911C81.0858 80.1971 81.2029 80.4765 81.2029 80.7678C81.2029 81.0592 81.0858 81.3386 80.8774 81.5446C80.669 81.7506 80.3864 81.8664 80.0917 81.8664H52.7166Z" fill="#23A25D" fill-opacity="0.4"/>
<path d="M52.7166 100.654C52.4219 100.654 52.1393 100.539 51.9309 100.333C51.7225 100.127 51.6055 99.8472 51.6055 99.5559C51.6055 99.2645 51.7225 98.9851 51.9309 98.7791C52.1393 98.5731 52.4219 98.4573 52.7166 98.4573H84.4751C84.7698 98.4573 85.0524 98.5731 85.2608 98.7791C85.4692 98.9851 85.5862 99.2645 85.5862 99.5559C85.5862 99.8472 85.4692 100.127 85.2608 100.333C85.0524 100.539 84.7698 100.654 84.4751 100.654H52.7166Z" fill="#23A25D" fill-opacity="0.4"/>
<path d="M52.7166 105.874C52.4219 105.874 52.1393 105.758 51.9309 105.552C51.7225 105.346 51.6055 105.067 51.6055 104.775C51.6055 104.484 51.7225 104.205 51.9309 103.999C52.1393 103.793 52.4219 103.677 52.7166 103.677H80.0917C80.3864 103.677 80.669 103.793 80.8774 103.999C81.0858 104.205 81.2029 104.484 81.2029 104.775C81.2029 105.067 81.0858 105.346 80.8774 105.552C80.669 105.758 80.3864 105.874 80.0917 105.874H52.7166Z" fill="#23A25D" fill-opacity="0.4"/>
</g>
<defs>
<clipPath id="clip0_1059_4758">
<rect width="162" height="154" fill="white"/>
</clipPath>
</defs>
</svg>
