<svg width="24" height="24" viewBox="0 0 24 24" fill="none" xmlns="http://www.w3.org/2000/svg">
<path d="M7 9.714V11M7 9.714C6.45643 9.71781 5.92006 9.58968 5.4369 9.34061C4.95374 9.09154 4.53822 8.72897 4.226 8.284M7 9.714C7.54357 9.71781 8.07994 9.58868 8.5631 9.33961C9.04626 9.09054 9.46178 8.72797 9.774 8.283M7 3.285C8.157 3.285 9.176 3.853 9.774 4.715M4.226 4.717C4.53822 4.27203 4.95374 3.90946 5.4369 3.66039C5.92006 3.41132 6.45643 3.28319 7 3.287V2M4.226 4.717L3 3.93M4.226 4.717C3.86165 5.24019 3.66633 5.86244 3.66633 6.5C3.66633 7.13756 3.86165 7.75981 4.226 8.283M11 3.929L9.774 4.717C10.1383 5.24019 10.3337 5.86144 10.3337 6.499C10.3337 7.13656 10.1383 7.75881 9.774 8.282L11 9.07M3 9.07L4.226 8.282" stroke="#23A25D" stroke-width="1.5" stroke-linecap="round" stroke-linejoin="round"/>
<path d="M13 2H13.273C16.533 2 18.165 2 19.297 2.798C19.621 3.026 19.909 3.298 20.152 3.603C21 4.669 21 6.203 21 9.273V11.818C21 14.781 21 16.263 20.531 17.446C19.777 19.349 18.183 20.849 16.161 21.559C14.904 22 13.331 22 10.181 22C8.383 22 7.483 22 6.765 21.748C5.61 21.342 4.699 20.485 4.268 19.398C4 18.722 4 17.875 4 16.182V13" stroke="#23A25D" stroke-width="1.5" stroke-linecap="round" stroke-linejoin="round"/>
<path d="M21 12C21 12.884 20.6488 13.7317 20.0238 14.3568C19.3987 14.9818 18.551 15.333 17.667 15.333C17.001 15.333 16.216 15.217 15.569 15.39C15.2864 15.466 15.0288 15.6149 14.8218 15.8218C14.6149 16.0288 14.466 16.2864 14.39 16.569C14.217 17.216 14.333 18.001 14.333 18.667C14.333 19.1047 14.2468 19.5381 14.0793 19.9425C13.9118 20.3469 13.6663 20.7143 13.3568 21.0238C13.0473 21.3333 12.6799 21.5788 12.2755 21.7463C11.8711 21.9138 11.4377 22 11 22" stroke="#23A25D" stroke-width="1.5" stroke-linecap="round" stroke-linejoin="round"/>
</svg>
