<svg width="24" height="24" viewBox="0 0 24 24" fill="none" xmlns="http://www.w3.org/2000/svg">
<path fill-rule="evenodd" clip-rule="evenodd" d="M11.8787 2.92545C11.9542 2.88351 12.046 2.88351 12.1215 2.92545L19.1217 6.81444C19.2011 6.85853 19.2503 6.94219 19.2503 7.03297V11.6721C19.2503 15.0313 17.4291 18.1264 14.4926 19.7578L12.1215 21.075C12.046 21.117 11.9542 21.117 11.8787 21.075L9.5076 19.7578C6.57114 18.1264 4.74995 15.0312 4.74995 11.6721V7.03297C4.74995 6.94219 4.79917 6.85853 4.87854 6.81444L11.8787 2.92545ZM12.85 1.61426C12.3214 1.32064 11.6788 1.32064 11.1503 1.61426L4.1501 5.50325C3.59455 5.81189 3.25 6.39745 3.25 7.03297V11.6721C3.25 15.576 5.36652 19.173 8.77916 21.0689L11.1503 22.3862C11.6788 22.6799 12.3214 22.6799 12.85 22.3862L15.2211 21.0689C18.6337 19.173 20.7502 15.576 20.7502 11.6721V7.03297C20.7502 6.39745 20.4057 5.81188 19.8501 5.50325L12.85 1.61426Z" fill="#262B39"/>
<path d="M11.3875 5.22932C11.5936 5.17087 11.8134 5.20039 11.9986 5.31138C12.1838 5.42237 12.3194 5.60575 12.3754 5.82121C12.6133 6.71604 12.6426 7.65749 12.4608 8.5666C12.279 9.47571 11.8914 10.326 11.3306 11.0461L10.0861 12.7072L10.0796 12.7151C9.39886 13.5799 9.46544 14.9041 10.2439 15.7812C11.0632 16.6292 12.3561 16.755 13.3644 16.0957C14.0634 15.5903 14.4264 14.7715 14.3877 13.9134C14.2281 14.0527 14.0233 14.1221 13.816 14.107C13.6086 14.092 13.4149 13.9937 13.2753 13.8327C13.1356 13.6717 13.0609 13.4605 13.0667 13.2432C13.0725 13.0259 13.1584 12.8194 13.3064 12.6668L13.7252 12.2299L14.0419 8.90985L15.6419 12.2579L15.6526 12.2804C16.4129 14.1392 15.9146 16.3125 14.2621 17.4963L14.2492 17.5053L14.2374 17.5131C12.6267 18.5767 10.4834 18.4139 9.09605 16.9628L9.08639 16.9538L9.0778 16.9426C7.79569 15.5128 7.58845 13.2384 8.83082 11.6526L10.0721 9.99144L10.0796 9.98358C10.4791 9.47105 10.755 8.86557 10.8839 8.21819C11.0129 7.57081 10.9911 6.90049 10.8206 6.26373C10.7647 6.04822 10.7929 5.81832 10.899 5.62457C11.0051 5.43081 11.1805 5.28905 11.3865 5.23044L11.3875 5.22932Z" fill="#262B39"/>
</svg>
