<svg width="24" height="24" viewBox="0 0 24 24" fill="none" xmlns="http://www.w3.org/2000/svg">
<path d="M17.7391 12.426C17.7152 9.8304 19.9158 8.56764 20.0164 8.50885C18.7701 6.73469 16.8385 6.49228 16.1597 6.47296C14.5373 6.30625 12.9636 7.42084 12.1371 7.42084C11.2942 7.42084 10.0215 6.48906 8.64991 6.51644C6.88485 6.54302 5.23361 7.54083 4.32799 9.0903C2.459 12.2496 3.85291 16.8924 5.64353 19.4461C6.53926 20.6968 7.58592 22.0933 8.95591 22.0441C10.2962 21.9902 10.7968 21.2098 12.4143 21.2098C14.0168 21.2098 14.487 22.0441 15.8842 22.0127C17.3226 21.9902 18.2282 20.7564 19.0926 19.4944C20.1277 18.0609 20.5434 16.6492 20.5599 16.5767C20.5261 16.5654 17.7664 15.537 17.7391 12.426Z" fill="white"/>
<path d="M15.0998 4.79302C15.8207 3.91279 16.3139 2.71525 16.177 1.5C15.1336 1.5451 13.8288 2.20467 13.0774 3.06558C12.4126 3.8242 11.8188 5.06764 11.9722 6.23699C13.1442 6.32236 14.3476 5.65956 15.0998 4.79302Z" fill="white"/>
</svg>
