<svg width="24" height="24" viewBox="0 0 24 24" fill="none" xmlns="http://www.w3.org/2000/svg">
<path fill-rule="evenodd" clip-rule="evenodd" d="M12 24C18.6274 24 24 18.6274 24 12C24 5.37258 18.6274 0 12 0C5.37258 0 0 5.37258 0 12C0 18.6274 5.37258 24 12 24ZM16.4419 17.9091V16.8508C15.8372 16.8177 15.3001 16.7041 14.8308 16.5103C14.2675 16.2764 13.8274 15.9301 13.5104 15.4716C13.1965 15.0099 13.0319 14.439 13.0165 13.7589H14.9508C14.9723 14.0758 15.0631 14.3405 15.2232 14.5529C15.3863 14.7622 15.6032 14.9207 15.8741 15.0284C16.0489 15.0952 16.2382 15.1407 16.4419 15.1648V12.7324L15.8418 12.5816C15.0447 12.3878 14.4153 12.0846 13.9536 11.6722C13.492 11.2598 13.2627 10.7043 13.2658 10.0057C13.2627 9.43321 13.415 8.93309 13.7228 8.5053C14.0336 8.07751 14.4599 7.74358 15.0016 7.50352C15.4345 7.31166 15.9146 7.19647 16.4419 7.15795V6.09088H17.199V7.15389C17.7559 7.18782 18.2514 7.30436 18.6855 7.50352C19.2118 7.74358 19.6211 8.07751 19.9135 8.5053C20.2059 8.93309 20.3567 9.42859 20.3659 9.99181H18.4501C18.4131 9.61941 18.2546 9.33011 17.9746 9.12391C17.7696 8.97301 17.5111 8.87732 17.199 8.83685V11.1371L17.6607 11.2475C18.0731 11.3398 18.4516 11.4629 18.7963 11.6168C19.141 11.7707 19.4395 11.96 19.6919 12.1846C19.9443 12.4093 20.1397 12.674 20.2782 12.9787C20.4198 13.2834 20.4921 13.6327 20.4952 14.0266C20.4921 14.6052 20.3444 15.1069 20.052 15.5316C19.7627 15.9532 19.3441 16.281 18.7963 16.5149C18.342 16.7074 17.8096 16.8196 17.199 16.8516V17.9091H16.4419ZM17.6837 15.0376C17.5375 15.0954 17.3759 15.1362 17.199 15.1601V12.9266C17.4044 12.9861 17.586 13.0496 17.7438 13.1172C17.9838 13.2187 18.1654 13.3418 18.2885 13.4865C18.4147 13.6311 18.4778 13.8096 18.4778 14.022C18.4778 14.2497 18.4085 14.4513 18.27 14.6267C18.1315 14.8022 17.9361 14.9391 17.6837 15.0376ZM16.4419 8.84017V10.9479C16.3693 10.926 16.2986 10.9027 16.2295 10.8782C16.048 10.8105 15.8879 10.732 15.7494 10.6427C15.6109 10.5504 15.5017 10.4411 15.4217 10.315C15.3447 10.1888 15.3093 10.041 15.3155 9.87178C15.3155 9.66865 15.374 9.48707 15.4909 9.32703C15.6109 9.16699 15.7833 9.04235 16.008 8.9531C16.1361 8.90044 16.2807 8.8628 16.4419 8.84017ZM5.44209 16.7273H3.30005L6.5639 7.27271H9.13989L12.3991 16.7273H10.2571L9.5571 14.5714H6.14344L5.44209 16.7273ZM7.88883 9.43322L9.05047 13.011H6.65106L7.81496 9.43322H7.88883Z" fill="#11C076"/>
</svg>
