<svg width="24" height="24" viewBox="0 0 24 24" fill="none" xmlns="http://www.w3.org/2000/svg">
<path d="M1.58105 18.1624C1.66586 17.9459 1.67494 17.7066 1.77489 17.4946C2.06109 16.8904 2.40635 16.3195 2.74101 15.7426C4.34163 12.9775 5.94527 10.2139 7.5474 7.44874C8.42873 5.92838 9.31005 4.40802 10.1899 2.88766C10.2292 2.81952 10.2625 2.75592 10.364 2.75592C11.6663 2.75895 12.9671 2.75743 14.3088 2.75743C14.1679 3.00578 14.0422 3.23444 13.912 3.46007C13.2427 4.62003 12.5719 5.77998 11.901 6.93994C11.4513 7.71829 11.003 8.49664 10.5533 9.27348C10.1247 10.014 9.69468 10.7545 9.26765 11.495C8.83002 12.2521 8.39541 13.0093 7.95778 13.7664C7.5368 14.4948 7.11431 15.2247 6.69334 15.9531C6.38896 16.48 6.08459 17.007 5.78324 17.534C5.75144 17.59 5.67573 17.6491 5.70904 17.7066C5.7469 17.7748 5.84079 17.7354 5.91044 17.7354C8.44841 17.7354 10.9864 17.7324 13.5228 17.7309C13.5652 17.7309 13.6076 17.7309 13.65 17.7309C13.7212 17.7293 13.7576 17.746 13.7121 17.8247C13.3911 18.3714 13.0595 18.912 12.7551 19.4678C12.428 20.0629 12.0479 20.6277 11.7602 21.244H4.01605C3.98879 21.2319 3.96457 21.2153 3.93579 21.2107C2.79552 21.0381 1.91572 20.2204 1.65071 19.1013C1.63103 19.018 1.65828 18.9181 1.58105 18.8514V18.1624Z" fill="#262B39"/>
<path d="M12.8838 21.244C13.17 20.7397 13.4547 20.2355 13.7424 19.7327C14.6813 18.1003 15.6202 16.4679 16.5605 14.837C17.1239 13.8587 17.6917 12.8835 18.2581 11.9068C18.2823 11.8659 18.3035 11.8235 18.3368 11.7599H10.252C10.4291 11.4495 10.5896 11.1678 10.7517 10.8892C11.2317 10.0594 11.7148 9.23103 12.1918 8.39817C12.2539 8.28914 12.322 8.25128 12.4477 8.25128C14.8827 8.25734 17.3162 8.2528 19.7512 8.26491C21.0853 8.27097 22.2649 9.33098 22.4042 10.712C22.4678 11.3435 22.3225 11.9159 22.006 12.4595C21.1322 13.9632 20.2675 15.473 19.3938 16.9767C18.67 18.2245 17.9355 19.4662 17.2177 20.717C17.1208 20.8851 16.9861 21.0411 16.9543 21.244H12.8838Z" fill="#262B39"/>
</svg>