<svg width="24" height="24" viewBox="0 0 24 24" fill="none" xmlns="http://www.w3.org/2000/svg">
<path fill-rule="evenodd" clip-rule="evenodd" d="M4.00011 11.25C3.5859 11.25 3.25011 11.5858 3.25011 12C3.25011 12.4142 3.5859 12.75 4.00011 12.75L11.2501 12.75L11.2501 20C11.2501 20.4142 11.5859 20.75 12.0001 20.75C12.4143 20.75 12.7501 20.4142 12.7501 20L12.7501 12.75H20.0001C20.4143 12.75 20.7501 12.4142 20.7501 12C20.7501 11.5858 20.4143 11.25 20.0001 11.25H12.7501L12.7501 4C12.7501 3.58578 12.4143 3.25 12.0001 3.25C11.5859 3.25 11.2501 3.58578 11.2501 4L11.2501 11.25L4.00011 11.25Z" fill="#262B39"/>
</svg>
