<svg width="238" height="48" viewBox="0 0 238 48" fill="none" xmlns="http://www.w3.org/2000/svg">
<g clip-path="url(#clip0_709_2886)">
<path d="M6.24475 6.19354H11.4404C16.1864 6.19354 18.2347 7.69199 18.2347 10.7388C18.2347 13.3861 16.1364 15.1842 11.9899 15.1842H6.29471V6.19354H6.24475ZM0 36.0125H12.6893C19.3338 36.0125 26.0281 33.615 26.0281 25.9729C26.0281 21.4277 22.8308 17.9813 18.4345 17.4818V17.3819C22.0814 16.283 24.5294 13.6358 24.5294 9.6899C24.5294 3.29656 19.084 0.849121 13.7385 0.849121H0V36.0125ZM6.24475 20.5286H12.2397C17.3354 20.5286 19.6835 21.8273 19.6835 25.5234C19.6835 30.1686 15.1872 30.718 11.9899 30.718H6.24475V20.5286Z" fill="#89898B"/>
<path d="M30.0742 0H36.0192V36.0125H30.0742V0Z" fill="#89898B"/>
<path d="M46.0114 24.075C46.0114 20.3289 48.6592 16.9325 53.0055 16.9325C57.4019 16.9325 59.9997 20.3789 59.9997 24.075C59.9997 27.8211 57.3519 31.2176 53.0055 31.2176C48.6592 31.2675 46.0114 27.8211 46.0114 24.075ZM40.0664 24.075C40.0664 31.5672 45.8116 36.612 53.0555 36.612C60.2494 36.612 66.0446 31.5672 66.0446 24.075C66.0446 16.5828 60.2994 11.5381 53.0555 11.5381C45.8116 11.588 40.0664 16.5828 40.0664 24.075Z" fill="#89898B"/>
<path d="M74.6864 24.075C74.6864 20.3289 77.3341 16.9325 81.6805 16.9325C86.0768 16.9325 88.6746 20.3789 88.6746 24.075C88.6746 27.8211 86.0268 31.2176 81.6805 31.2176C77.2842 31.2675 74.6864 27.8211 74.6864 24.075ZM68.6914 24.075C68.6914 31.5672 74.4366 36.612 81.6805 36.612C88.8744 36.612 94.6696 31.5672 94.6696 24.075C94.6696 16.5828 88.9244 11.5381 81.6805 11.5381C74.4865 11.588 68.6914 16.5828 68.6914 24.075Z" fill="#89898B"/>
<path d="M98.3156 12.1873H103.961V15.9334H104.061C105.11 13.6857 107.408 11.5879 111.355 11.5879C115.052 11.5879 117.549 13.0364 118.798 16.0333C120.547 12.9864 123.095 11.5879 126.642 11.5879C132.986 11.5879 135.235 16.1332 135.235 21.8272V36.0624H129.29V22.5265C129.29 19.5296 128.39 16.9823 124.843 16.9823C121.096 16.9823 119.698 20.079 119.698 23.1259V36.0624H113.753V21.8272C113.753 18.8803 112.554 16.9323 109.656 16.9323C105.709 16.9323 104.211 19.8293 104.211 22.976V36.0124H98.2656V12.1873H98.3156Z" fill="#89898B"/>
<path d="M159.916 24.0749C159.916 27.821 157.268 31.2175 152.922 31.2175C148.526 31.2175 145.928 27.7711 145.928 24.0749C145.928 20.3288 148.576 16.9324 152.922 16.9324C157.268 16.9324 159.916 20.3788 159.916 24.0749ZM140.133 36.0125H145.778V32.4162H145.878C147.627 35.3132 150.774 36.6119 154.071 36.6119C161.415 36.6119 165.861 31.1675 165.861 24.0749C165.861 17.0323 161.115 11.538 154.321 11.538C149.825 11.538 147.477 13.6358 146.228 15.1842H146.078V0H140.133V36.0125Z" fill="#89898B"/>
<path d="M174.554 21.7275C175.003 18.2811 177.201 16.0834 180.698 16.0834C184.445 16.0834 186.693 18.2811 186.743 21.7275H174.554ZM192.738 26.1729V24.5245C192.738 16.2332 188.192 11.5381 181.548 11.5381C174.354 11.5381 168.559 16.5828 168.559 24.075C168.559 31.5672 174.304 36.612 181.548 36.612C185.344 36.612 188.842 35.2634 191.639 31.817L187.343 28.5703C185.844 30.4184 183.896 31.817 180.948 31.817C177.601 31.817 174.953 29.6692 174.554 26.1729H192.738Z" fill="#89898B"/>
<path d="M196.633 12.1873H202.578V15.9833H202.678C203.977 13.2362 206.624 11.5879 209.722 11.5879C210.471 11.5879 211.171 11.7377 211.87 11.9375V17.6815C210.871 17.4318 209.922 17.232 208.972 17.232C203.377 17.232 202.578 21.9771 202.578 23.2258V36.0124H196.633V12.1873Z" fill="#89898B"/>
<path d="M225.262 16.9323C229.608 16.9323 232.306 19.8293 232.306 23.925C232.306 27.9209 229.608 30.9178 225.212 30.9178C221.165 30.9178 218.218 27.771 218.218 24.0249C218.218 19.8293 221.065 16.9323 225.262 16.9323ZM232.306 12.1873V15.7835H232.206C230.457 12.8865 227.31 11.5879 224.013 11.5879C216.669 11.5879 212.223 17.0822 212.223 24.1248C212.223 30.8678 216.969 36.3621 224.113 36.3621C227.11 36.3621 230.158 35.2133 231.906 32.8657H232.006V34.6139C232.006 39.3589 230.208 42.6056 224.462 42.6056C221.115 42.6056 218.667 41.3569 216.269 39.1592L212.672 44.0541C216.069 47.0509 220.066 47.9999 224.512 47.9999C233.805 47.9999 238.001 42.5556 238.001 33.9146V12.1873H232.306Z" fill="#89898B"/>
</g>
<defs>
<clipPath id="clip0_709_2886">
<rect width="238" height="48" fill="white"/>
</clipPath>
</defs>
</svg>
