<svg width="71" height="65" viewBox="0 0 71 65" fill="none" xmlns="http://www.w3.org/2000/svg">
<path d="M56.7754 50.0941V29.5347C66.0669 29.5347 70.1255 29.9356 70.1255 39.8144V39.8144C70.1255 49.6931 66.0669 50.0941 56.7754 50.0941Z" fill="white"/>
<path d="M13.4712 50.0941V29.5347C4.17963 29.5347 0.121094 29.9356 0.121094 39.8144V39.8144C0.121094 49.6931 4.17963 50.0941 13.4712 50.0941Z" fill="white"/>
<path d="M24.8438 26.5139L45.4032 26.5139C45.4032 17.2224 45.0022 13.1638 35.1235 13.1638H35.1235C25.2447 13.1638 24.8438 17.2223 24.8438 26.5139Z" fill="white"/>
<path d="M65.8255 39.815C65.8255 60.0473 55.354 64.378 35.1217 64.378C14.8894 64.378 4.41797 60.0473 4.41797 39.815C4.41797 19.5827 14.8894 15.252 35.1217 15.252C55.354 15.252 65.8255 19.5827 65.8255 39.815Z" fill="white"/>
<path d="M35.1239 57.0088C25.626 57.0088 19.6819 55.942 16.4177 53.6514C14.9707 52.6361 13.9534 51.303 13.2163 49.4563C12.2692 47.0839 11.7891 43.84 11.7891 39.8147C11.7891 35.7894 12.2692 32.5455 13.2163 30.1732C13.9534 28.3265 14.9707 26.9934 16.4177 25.978C19.682 23.6874 25.626 22.6206 35.1239 22.6206C44.6219 22.6206 50.5659 23.6874 53.8302 25.978C55.2771 26.9934 56.2944 28.3265 57.0317 30.1732C57.9787 32.5455 58.4588 35.7894 58.4588 39.8147C58.4588 43.84 57.9787 47.0839 57.0317 49.4563C56.2944 51.303 55.2771 52.6361 53.8302 53.6514C50.566 55.942 44.6219 57.0088 35.1239 57.0088Z" fill="#23A25D"/>
<path d="M24.8691 35.2563C22.4045 35.2563 21.877 37.5089 21.877 39.8145C21.877 42.1202 22.4045 44.3727 24.8691 44.3727C27.3338 44.3727 27.8613 42.1202 27.8613 39.8145C27.8613 37.5089 27.3338 35.2563 24.8691 35.2563Z" fill="white"/>
<path d="M45.3769 35.2563C42.9123 35.2563 42.3848 37.5089 42.3848 39.8145C42.3848 42.1202 42.9123 44.3727 45.3769 44.3727C47.8416 44.3727 48.3691 42.1202 48.3691 39.8145C48.3691 37.5089 47.8416 35.2563 45.3769 35.2563Z" fill="white"/>
<path d="M39.0679 4.92335C39.0679 7.10163 37.3021 8.86746 35.1238 8.86746C32.9455 8.86746 31.1797 7.10163 31.1797 4.92335C31.1797 2.74509 32.9455 0.979248 35.1238 0.979248C37.3021 0.979248 39.0679 2.74509 39.0679 4.92335Z" fill="white"/>
<path d="M32.9355 16.8986L34.2487 7.19873H35.9961L37.317 16.969L32.9355 16.8986Z" fill="white"/>
</svg>
