<svg width="41" height="38" viewBox="0 0 41 38" fill="none" xmlns="http://www.w3.org/2000/svg">
<path d="M32.4453 28.9106V17.1624C37.7548 17.1624 40.0739 17.3915 40.0739 23.0365V23.0365C40.0739 28.6815 37.7548 28.9106 32.4453 28.9106Z" fill="white"/>
<path d="M7.70283 28.9106V17.1624C2.39338 17.1624 0.0742188 17.3915 0.0742188 23.0365V23.0365C0.0742188 28.6815 2.39338 28.9106 7.70283 28.9106Z" fill="white"/>
<path d="M14.2031 15.4362L25.9514 15.4362C25.9514 10.1268 25.7222 7.80762 20.0773 7.80762H20.0772C14.4323 7.80761 14.2031 10.1268 14.2031 15.4362Z" fill="white"/>
<path d="M37.6174 23.0367C37.6174 34.598 31.6337 37.0727 20.0724 37.0727C8.51104 37.0727 2.52734 34.598 2.52734 23.0367C2.52734 11.4754 8.51104 9.00073 20.0724 9.00073C31.6337 9.00073 37.6174 11.4754 37.6174 23.0367Z" fill="white"/>
<path d="M20.0725 32.8621C14.6451 32.8621 11.2485 32.2525 9.38322 30.9436C8.55635 30.3634 7.97507 29.6016 7.55382 28.5463C7.01266 27.1907 6.73828 25.3371 6.73828 23.0369C6.73828 20.7367 7.01266 18.883 7.55382 17.5274C7.97507 16.4722 8.55635 15.7104 9.38322 15.1302C11.2485 13.8213 14.6451 13.2117 20.0725 13.2117C25.4999 13.2117 28.8965 13.8213 30.7618 15.1302C31.5886 15.7104 32.1699 16.4722 32.5912 17.5274C33.1323 18.883 33.4067 20.7367 33.4067 23.0369C33.4067 25.3371 33.1323 27.1907 32.5912 28.5463C32.1699 29.6016 31.5886 30.3634 30.7618 30.9436C28.8965 32.2525 25.4999 32.8621 20.0725 32.8621Z" fill="#23A25D"/>
<path d="M14.2176 20.4319C12.8093 20.4319 12.5078 21.7191 12.5078 23.0366C12.5078 24.3541 12.8093 25.6412 14.2176 25.6412C15.626 25.6412 15.9274 24.3541 15.9274 23.0366C15.9274 21.7191 15.626 20.4319 14.2176 20.4319Z" fill="white"/>
<path d="M25.9364 20.4319C24.528 20.4319 24.2266 21.7191 24.2266 23.0366C24.2266 24.3541 24.528 25.6412 25.9364 25.6412C27.3447 25.6412 27.6462 24.3541 27.6462 23.0366C27.6462 21.7191 27.3447 20.4319 25.9364 20.4319Z" fill="white"/>
<path d="M22.3279 3.09875C22.3279 4.34348 21.3188 5.35252 20.0741 5.35252C18.8294 5.35252 17.8203 4.34348 17.8203 3.09875C17.8203 1.85402 18.8294 0.844971 20.0741 0.844971C21.3188 0.844971 22.3279 1.85402 22.3279 3.09875Z" fill="white"/>
<path d="M18.8281 9.94171L19.5785 4.39893H20.577L21.3318 9.98193L18.8281 9.94171Z" fill="white"/>
</svg>
