<svg width="32" height="32" viewBox="0 0 32 32" fill="none" xmlns="http://www.w3.org/2000/svg">
<rect x="0.5" y="14" width="3" height="9" rx="1.5" fill="#0CB450" fill-opacity="0.3"/>
<rect x="28.5" y="14" width="3" height="9" rx="1.5" fill="#0CB450" fill-opacity="0.3"/>
<path fill-rule="evenodd" clip-rule="evenodd" d="M14.5625 3.5C14.5625 2.67157 15.2061 2 16 2C16.7939 2 17.4375 2.67157 17.4375 3.5V7H25.5833C26.6419 7 27.5 7.89543 27.5 9V28C27.5 29.1046 26.6419 30 25.5833 30H6.41667C5.35812 30 4.5 29.1046 4.5 28V9C4.5 7.89543 5.35812 7 6.41667 7H14.5625V3.5ZM11.5 18C12.8807 18 14 16.8807 14 15.5C14 14.1193 12.8807 13 11.5 13C10.1193 13 9 14.1193 9 15.5C9 16.8807 10.1193 18 11.5 18ZM20.5 18C21.8807 18 23 16.8807 23 15.5C23 14.1193 21.8807 13 20.5 13C19.1193 13 18 14.1193 18 15.5C18 16.8807 19.1193 18 20.5 18ZM10.136 21.5C9.29671 21.5 8.70507 22.3122 9.20384 22.9872C9.61377 23.542 10.1417 24.0242 10.7351 24.4198C12.1306 25.3502 13.9953 25.8899 16.0001 25.8899C18.0049 25.8899 19.8696 25.3502 21.2651 24.4198C21.8586 24.0242 22.3865 23.542 22.7964 22.9872C23.2952 22.3122 22.7035 21.5 21.8642 21.5C21.4237 21.5 21.0249 21.7404 20.714 22.0526C20.5278 22.2396 20.3063 22.421 20.0476 22.5935C19.0598 23.252 17.632 23.695 16.0001 23.695C14.3682 23.695 12.9404 23.252 11.9527 22.5935C11.6939 22.421 11.4724 22.2396 11.2862 22.0526C10.9754 21.7404 10.5766 21.5 10.136 21.5Z" fill="#0CB450"/>
</svg>
