<svg width="24" height="24" viewBox="0 0 24 24" fill="none" xmlns="http://www.w3.org/2000/svg">
<path d="M14.7059 3V11.3077L19.5629 17.6354C19.7995 17.9418 19.9468 18.3103 19.9881 18.6985C20.0294 19.0867 19.9628 19.479 19.7961 19.8303C19.6295 20.1816 19.3694 20.4777 19.0457 20.6846C18.7221 20.8915 18.348 21.0008 17.9664 21H6.03359C5.652 21.0008 5.27791 20.8915 4.95427 20.6846C4.63063 20.4777 4.37054 20.1816 4.20385 19.8303C4.03717 19.479 3.97064 19.0867 4.0119 18.6985C4.05316 18.3103 4.20054 17.9418 4.43713 17.6354L9.29414 11.3077V3M7.26475 3H16.7352" stroke="#262B39" stroke-width="1.5" stroke-linecap="round" stroke-linejoin="round"/>
</svg>
