<svg width="24" height="24" viewBox="0 0 24 24" fill="none" xmlns="http://www.w3.org/2000/svg">
<path d="M21.6094 9.86387C21.6081 10.525 21.4021 11.1695 21.0196 11.7088C20.6372 12.2481 20.097 12.6557 19.4735 12.8755C19.1324 13.0035 18.7709 13.0687 18.4066 13.0677C17.7455 13.0664 17.1009 12.8604 16.5616 12.478C16.0223 12.0955 15.6148 11.5553 15.395 10.9318C15.2668 10.5904 15.2017 10.2285 15.2028 9.86387C15.2059 10.2285 15.1404 10.5911 15.0106 10.9318C14.7908 11.5552 14.3834 12.0952 13.8443 12.4777C13.3053 12.8601 12.661 13.0662 12 13.0677C11.339 13.0662 10.6947 12.8601 10.1557 12.4777C9.61657 12.0952 9.20916 11.5552 8.98941 10.9318C8.86124 10.5904 8.79612 10.2285 8.79722 9.86387C8.7993 10.2285 8.73489 10.5911 8.60503 10.9318C8.38523 11.5553 7.97766 12.0955 7.43837 12.478C6.89908 12.8604 6.25455 13.0664 5.5934 13.0677C5.22981 13.0698 4.86621 13.0054 4.5265 12.8755C3.90297 12.6557 3.36283 12.2481 2.98036 11.7088C2.59789 11.1695 2.39187 10.525 2.39062 9.86387L2.87057 8.17782L4.0237 4.88881C4.17063 4.47073 4.44372 4.10856 4.80529 3.85233C5.16685 3.59609 5.59904 3.45842 6.04219 3.45831H17.9578C18.4008 3.45863 18.8327 3.5964 19.1941 3.85263C19.5555 4.10885 19.8284 4.47089 19.9753 4.88881L21.1284 8.17782L21.6094 9.86387Z" stroke="#262B39" stroke-width="1.5" stroke-linecap="round" stroke-linejoin="round"/>
<path d="M19.4745 12.8759V18.4067C19.4742 18.9728 19.2492 19.5157 18.8489 19.916C18.4486 20.3163 17.9057 20.5413 17.3396 20.5415H6.66127C6.38083 20.5417 6.10311 20.4866 5.84398 20.3793C5.58485 20.2721 5.34939 20.1149 5.15104 19.9166C4.95269 19.7184 4.79535 19.483 4.68799 19.2239C4.58064 18.9648 4.52539 18.6871 4.52539 18.4067V12.8759M8.79819 17.3388H15.2037" stroke="#262B39" stroke-width="1.5" stroke-linecap="round" stroke-linejoin="round"/>
</svg>
