<svg width="24" height="24" viewBox="0 0 24 24" fill="none" xmlns="http://www.w3.org/2000/svg">
<path d="M14.7065 4.31301H9.2945C8.64026 4.31275 7.99239 4.4414 7.38789 4.69161C6.78339 4.94183 6.23412 5.3087 5.77146 5.77127C5.3088 6.23383 4.94182 6.78303 4.69148 7.38748C4.44115 7.99193 4.31237 8.63978 4.3125 9.29401V14.706C4.31224 15.3603 4.44092 16.0083 4.6912 16.6129C4.94147 17.2174 5.30843 17.7667 5.77111 18.2294C6.23378 18.6921 6.7831 19.059 7.38766 19.3093C7.99222 19.5596 8.64018 19.6883 9.2945 19.688H14.7065C15.3608 19.6883 16.0088 19.5596 16.6133 19.3093C17.2179 19.059 17.7672 18.6921 18.2299 18.2294C18.6926 17.7667 19.0595 17.2174 19.3098 16.6129C19.5601 16.0083 19.6888 15.3603 19.6885 14.706V9.29401C19.6888 8.63969 19.5601 7.99174 19.3098 7.38717C19.0595 6.78261 18.6926 6.23329 18.2299 5.77062C17.7672 5.30795 17.2179 4.94098 16.6133 4.69071C16.0088 4.44043 15.3608 4.31175 14.7065 4.31201V4.31301Z" stroke="#262B39" stroke-width="1.5"/>
<path d="M19.606 15.5881H21.225C21.4968 15.5881 21.7576 15.4801 21.9498 15.2879C22.142 15.0957 22.25 14.835 22.25 14.5631V9.43812C22.25 9.16627 22.142 8.90556 21.9498 8.71333C21.7576 8.52111 21.4968 8.41312 21.225 8.41312H19.605M4.395 15.5881H2.775C2.6404 15.5881 2.50711 15.5616 2.38275 15.5101C2.25839 15.4586 2.1454 15.3831 2.05022 15.2879C1.95504 15.1927 1.87953 15.0797 1.82802 14.9554C1.77651 14.831 1.75 14.6977 1.75 14.5631V9.43812C1.75 9.16627 1.85799 8.90556 2.05022 8.71333C2.24244 8.52111 2.50315 8.41312 2.775 8.41312H4.395" stroke="#262B39" stroke-width="1.5"/>
<path d="M2.76562 8.41299V4.31299M21.2256 8.41299L21.2156 4.31299M9.94062 15.588H14.0406M7.88062 10.975L8.90362 9.94999L9.92862 10.975M14.0306 10.975L15.0556 9.94999L16.0796 10.975" stroke="#262B39" stroke-width="1.5" stroke-linecap="round" stroke-linejoin="round"/>
</svg>
