<svg width="24" height="24" viewBox="0 0 24 24" fill="none" xmlns="http://www.w3.org/2000/svg">
<path fill-rule="evenodd" clip-rule="evenodd" d="M24 12C24 18.6274 18.6274 24 12 24C5.37258 24 0 18.6274 0 12C0 5.37258 5.37258 0 12 0C18.6274 0 24 5.37258 24 12ZM12.5723 7.25H16.3204C17.0378 7.25 17.6501 7.37834 18.1573 7.63501C18.6675 7.88859 19.0556 8.24886 19.3216 8.71582C19.5906 9.17969 19.7252 9.7255 19.7252 10.3533C19.7252 10.9841 19.5891 11.5269 19.317 11.9814C19.0448 12.4329 18.6505 12.7793 18.1341 13.0205C18.1058 13.0338 18.0771 13.0468 18.0482 13.0593L20.0638 16.75H17.8465L16.047 13.3823H14.5809V16.75H12.5723V7.25ZM15.9446 11.7681H14.5809V8.89209H15.9354C16.3219 8.89209 16.642 8.9493 16.8956 9.06372C17.1522 9.17505 17.3424 9.33895 17.4661 9.55542C17.5929 9.77189 17.6563 10.0378 17.6563 10.3533C17.6563 10.6656 17.5929 10.9269 17.4661 11.1372C17.3424 11.3475 17.1538 11.5052 16.9002 11.6104C16.6466 11.7155 16.3281 11.7681 15.9446 11.7681ZM7.73999 7.25H3.93628V16.75H7.99512C8.70638 16.75 9.30477 16.6356 9.79028 16.4067C10.2758 16.1779 10.6423 15.8671 10.8896 15.4744C11.1401 15.0785 11.2654 14.6286 11.2654 14.1245C11.2654 13.6576 11.1664 13.2555 10.9685 12.9185C10.7706 12.5783 10.5124 12.3139 10.1938 12.1252C9.87842 11.9366 9.53979 11.8346 9.17798 11.8191V11.7263C9.50887 11.6521 9.80265 11.5269 10.0593 11.3506C10.3191 11.1712 10.5232 10.9424 10.6716 10.6641C10.8201 10.3827 10.8943 10.0564 10.8943 9.6853C10.8943 9.20907 10.7768 8.78849 10.5417 8.42358C10.3067 8.05558 9.95573 7.76799 9.48877 7.56079C9.02181 7.3536 8.43888 7.25 7.73999 7.25ZM7.58228 15.1079H5.94482V12.5845H7.62866C7.95028 12.5845 8.22705 12.6417 8.45898 12.7561C8.69401 12.8705 8.87492 13.0282 9.00171 13.2292C9.1285 13.4303 9.19189 13.6622 9.19189 13.925C9.19189 14.2838 9.06356 14.5714 8.80688 14.7878C8.55021 15.0012 8.14201 15.1079 7.58228 15.1079ZM7.43384 11.2253H5.94482V8.87354H7.47095C7.91626 8.87354 8.25952 8.97868 8.50073 9.18897C8.74504 9.39925 8.86719 9.67603 8.86719 10.0193C8.86719 10.2698 8.80379 10.4847 8.677 10.6641C8.5533 10.8434 8.38322 10.9826 8.16675 11.0815C7.95337 11.1774 7.70907 11.2253 7.43384 11.2253Z" fill="#00782E"/>
</svg>
