<svg width="33" height="33" viewBox="0 0 33 33" fill="none" xmlns="http://www.w3.org/2000/svg">
<g clip-path="url(#clip0_1801_1589)">
<path d="M32.5063 20.4917C30.3024 29.331 21.3485 34.7105 12.5071 32.5063C3.66937 30.3026 -1.7107 21.3491 0.494206 12.5105C2.69718 3.67016 11.651 -1.70971 20.4897 0.49398C29.3305 2.69767 34.7102 11.6521 32.5061 20.4918L32.5062 20.4917H32.5063Z" fill="#F7931A"/>
<path d="M23.7765 14.1491C24.1049 11.9533 22.433 10.773 20.1468 9.98559L20.8884 7.0112L19.0776 6.56004L18.3557 9.45612C17.8796 9.3374 17.3907 9.22554 16.9048 9.11464L17.6321 6.19945L15.8224 5.74829L15.0803 8.72171C14.6864 8.63203 14.2994 8.54339 13.9241 8.45L13.9262 8.44065L11.429 7.81714L10.9473 9.75098C10.9473 9.75098 12.2908 10.0589 12.2625 10.0779C12.9957 10.2608 13.1284 10.7462 13.1063 11.1309L12.2615 14.5194C12.312 14.5323 12.3775 14.5508 12.4498 14.5798C12.3893 14.5648 12.3251 14.5485 12.2584 14.5325L11.0742 19.2793C10.9846 19.5021 10.7571 19.8364 10.2445 19.7095C10.2626 19.7357 8.92833 19.381 8.92833 19.381L8.0293 21.4536L10.3858 22.041C10.8242 22.1509 11.2537 22.2659 11.6768 22.3741L10.9275 25.3826L12.7362 25.8337L13.4783 22.8572C13.9724 22.9913 14.4519 23.115 14.9213 23.2316L14.1818 26.1942L15.9927 26.6453L16.7419 23.6425C19.8297 24.2268 22.1515 23.9912 23.1288 21.1986C23.9162 18.9502 23.0896 17.6534 21.4651 16.8077C22.6483 16.5348 23.5395 15.7567 23.7771 14.1493L23.7765 14.1489L23.7765 14.1491ZM19.6392 19.95C19.0796 22.1983 15.2936 20.9829 14.0661 20.6781L15.0605 16.6924C16.2879 16.9988 20.2241 17.6051 19.6393 19.95H19.6392ZM20.1992 14.1165C19.6887 16.1616 16.5376 15.1226 15.5154 14.8678L16.4169 11.253C17.4391 11.5078 20.731 11.9833 20.1994 14.1165H20.1992Z" fill="white"/>
</g>
<defs>
<clipPath id="clip0_1801_1589">
<rect width="33" height="33" fill="white"/>
</clipPath>
</defs>
</svg>
