<svg width="220" height="76" viewBox="0 0 220 76" fill="none" xmlns="http://www.w3.org/2000/svg">
<g clip-path="url(#clip0_709_2901)">
<path fill-rule="evenodd" clip-rule="evenodd" d="M0.09375 0.73625H14.926C23.1819 0.73625 27.4873 5.01125 27.4873 10.2837C27.4873 13.9175 25.4529 16.3875 22.6142 17.67V17.765C26.2335 19.0713 28.2679 21.945 28.2679 25.6262C28.2679 30.875 24.2464 35.4825 15.5174 35.4825H0.09375V0.73625ZM14.4529 14.5112C16.9131 14.5112 18.0249 13.2525 18.0249 11.8513C18.0249 10.45 16.9131 9.14375 14.4529 9.14375H10.1002V14.4875H14.4529V14.5112ZM14.5948 27.075C17.197 27.075 18.4507 25.8162 18.4507 24.2013C18.4507 22.5863 17.1497 21.3275 14.6421 21.3275H10.1002V27.075H14.5948ZM30.397 21.3512V0.73625H40.4981V21.2563C40.4981 25.1275 42.3905 27.17 45.6314 27.17C48.8722 27.17 50.9067 25.1275 50.9067 21.2087V0.73625H61.055V21.3512C61.055 30.0912 55.212 36.385 45.6314 36.385C36.0507 36.385 30.397 30.0912 30.397 21.3512ZM86.7927 2.4225V11.3525C84.6163 9.80875 80.9024 8.74 77.898 8.74C75.154 8.74 73.7819 9.61875 73.7819 10.7825C73.7819 11.9462 75.3196 12.54 78.04 13.5375C82.6765 15.1762 88.969 17.3612 88.969 24.7475C88.969 31.35 84.0013 36.2425 75.2959 36.2425C70.8013 36.2425 66.6852 34.9362 64.1303 33.2262V23.8213C66.6378 25.8638 70.4228 27.5025 74.0895 27.5025C77.1884 27.5025 78.6314 26.3388 78.6314 25.0325C78.6314 23.3463 76.2658 22.61 73.4507 21.5888C69.7368 20.235 63.8701 17.8125 63.8701 11.0675C63.8464 4.9875 68.6249 0 77.1411 0C80.9024 0 84.2851 0.97375 86.7927 2.4225ZM91.5475 0.73625H101.649V35.4825H91.5475V0.73625ZM137.558 35.5062H127.93L115.464 16.8625H115.416V35.5062H105.836V0.73625H115.464L127.93 19.0713H127.978V0.73625H137.558V35.5062ZM141.745 0.73625H165.661V9.76125H151.846V13.9412H164.266V22.135H151.846V26.4575H165.661V35.4825H141.745V0.73625ZM190.997 2.4225V11.3525C188.821 9.80875 185.107 8.74 182.102 8.74C179.358 8.74 177.986 9.61875 177.986 10.7825C177.986 11.9462 179.524 12.54 182.244 13.5375C186.881 15.1762 193.173 17.3612 193.173 24.7475C193.173 31.35 188.206 36.2425 179.5 36.2425C175.006 36.2425 170.889 34.9362 168.335 33.2262V23.8213C170.842 25.8638 174.627 27.5025 178.294 27.5025C181.393 27.5025 182.836 26.3388 182.836 25.0325C182.836 23.3463 180.47 22.61 177.655 21.5888C173.941 20.235 168.074 17.8125 168.074 11.0675C168.051 4.9875 172.829 0 181.345 0C185.107 0 188.489 0.97375 190.997 2.4225ZM217.728 2.4225V11.3525C215.552 9.80875 211.838 8.74 208.834 8.74C206.089 8.74 204.717 9.61875 204.717 10.7825C204.717 11.9462 206.255 12.54 208.975 13.5375C213.612 15.1762 219.904 17.3612 219.904 24.7475C219.904 31.35 214.937 36.2425 206.231 36.2425C201.737 36.2425 197.621 34.9362 195.066 33.2262V23.8213C197.573 25.8638 201.358 27.5025 205.025 27.5025C208.124 27.5025 209.567 26.3388 209.567 25.0325C209.567 23.3463 207.201 22.61 204.386 21.5888C200.672 20.235 194.806 17.8125 194.806 11.0675C194.782 4.9875 199.56 0 208.077 0C211.838 0 215.221 0.97375 217.728 2.4225ZM22.2593 75.2637H32.3604V40.5175H22.2593V75.2637ZM68.2701 40.5175H58.6658V58.8525H58.6185L46.1518 40.5175H36.5239V75.2637H46.1282V56.62H46.1755L58.6421 75.2637H68.2701V40.5175ZM84.5454 39.7575C76.0292 39.7575 71.2507 44.745 71.2507 50.825C71.2507 57.57 77.1411 59.9925 80.8314 61.3462C83.6701 62.3675 86.012 63.1037 86.012 64.79C86.012 66.0962 84.569 67.26 81.4701 67.26C77.8034 67.26 74.0185 65.6213 71.511 63.5788V72.9837C74.0658 74.6937 78.1819 76 82.6765 76C91.3819 76 96.3497 71.1075 96.3497 64.505C96.3497 57.1188 90.0572 54.91 85.4206 53.295C82.6765 52.3212 81.1626 51.7513 81.1626 50.54C81.1626 49.3288 82.5583 48.4975 85.2787 48.4975C88.283 48.4975 91.997 49.5662 94.1733 51.11V42.18C91.6658 40.7313 88.283 39.7575 84.5454 39.7575ZM98.7153 75.2637H108.816V40.5175H98.7153V75.2637ZM123.081 66.0962H125.021C130.249 66.0962 133.631 63.1275 133.631 57.9025C133.631 52.6775 130.249 49.6613 125.021 49.6613H123.081V66.0962ZM143.851 57.9025C143.851 68.3763 135.973 75.2637 124.666 75.2637H112.98V40.5175H124.666C135.973 40.5175 143.851 47.4525 143.851 57.9025ZM146.571 75.2637H170.487V66.2387H156.672V61.9163H169.092V53.7225H156.672V49.5425H170.487V40.5175H146.571V75.2637ZM186.384 56.9287C188.939 56.9287 190.926 55.7175 190.926 53.295C190.926 50.8725 188.939 49.6613 186.337 49.6613H184.208V56.9287H186.384ZM202.92 75.2637H191.021L184.444 64.5288H184.208V75.2637H174.107V40.5175H186.431C195.089 40.5175 201.122 44.3887 201.122 52.6063C201.122 55.86 199.679 60.61 193.93 63.0325L202.92 75.2637Z" fill="#89898B"/>
</g>
<defs>
<clipPath id="clip0_709_2901">
<rect width="220" height="76" fill="white"/>
</clipPath>
</defs>
</svg>
