<svg width="24" height="24" viewBox="0 0 24 24" fill="none" xmlns="http://www.w3.org/2000/svg">
<path fill-rule="evenodd" clip-rule="evenodd" d="M24 12C24 18.6274 18.6274 24 12 24C5.37258 24 0 18.6274 0 12C0 5.37258 5.37258 0 12 0C18.6274 0 24 5.37258 24 12ZM16.7209 18.1061V16.9989C16.0674 16.9652 15.487 16.8461 14.9797 16.6416C14.3723 16.3967 13.9 16.0246 13.5629 15.5253C13.2258 15.026 13.0525 14.3947 13.0429 13.6315H15.3041C15.3232 13.9463 15.4075 14.2087 15.557 14.4186C15.7064 14.6285 15.9116 14.7875 16.1723 14.8956C16.3388 14.9638 16.5216 15.0105 16.7209 15.0357V12.8842L16.0197 12.7203C15.1737 12.5263 14.5075 12.2131 14.0209 11.7806C13.5343 11.3449 13.2926 10.7565 13.2958 10.0155C13.2926 9.41125 13.4548 8.88174 13.7824 8.42696C14.1099 7.97218 14.5631 7.61758 15.1419 7.36315C15.6143 7.15553 16.1406 7.03263 16.7209 6.99443V5.89386H17.5033V6.99295C18.1015 7.02963 18.631 7.15462 19.0918 7.36792C19.6516 7.62235 20.0857 7.98013 20.3942 8.44127C20.7026 8.90241 20.8601 9.4367 20.8664 10.0441H18.6053C18.5734 9.6943 18.4319 9.42238 18.1807 9.22839C18.0071 9.09039 17.7813 9.00068 17.5033 8.95926V10.9978L18.0089 11.1127C18.4923 11.2177 18.9185 11.3576 19.2874 11.5325C19.6595 11.7074 19.9712 11.9157 20.2224 12.1574C20.4768 12.3991 20.6693 12.6774 20.7996 12.9922C20.93 13.3071 20.9968 13.6601 21 14.0513C20.9968 14.6683 20.841 15.1978 20.5325 15.6398C20.224 16.0819 19.7804 16.4206 19.2016 16.6559C18.7192 16.8531 18.1531 16.9677 17.5033 16.9997V18.1061H16.7209ZM17.8992 14.929C17.7808 14.9747 17.6488 15.0083 17.5033 15.0296V13.0815C17.6593 13.1291 17.7976 13.1788 17.9183 13.2308C18.1505 13.3262 18.3222 13.4407 18.4335 13.5742C18.5448 13.7046 18.6021 13.8621 18.6053 14.0465C18.6021 14.2437 18.5401 14.4186 18.4192 14.5713C18.2984 14.7239 18.125 14.8432 17.8992 14.929ZM16.7209 8.95885V10.8058C16.6684 10.7894 16.6175 10.7725 16.5683 10.7549C16.3902 10.6913 16.2375 10.6182 16.1103 10.5355C15.9863 10.4496 15.8909 10.351 15.8241 10.2397C15.7605 10.1284 15.7319 9.9996 15.7382 9.85331C15.7414 9.67522 15.7939 9.51779 15.8957 9.38104C15.9974 9.24111 16.1501 9.13139 16.3536 9.05188C16.4617 9.00966 16.5841 8.97865 16.7209 8.95885ZM9.58795 10.6547H11.9732C11.9159 10.0695 11.768 9.54956 11.5295 9.09478C11.291 8.64 10.9809 8.25677 10.5993 7.94511C10.2176 7.63026 9.77558 7.39174 9.2731 7.22954C8.77062 7.06417 8.22361 6.98148 7.63208 6.98148C6.76386 6.98148 5.97992 7.17548 5.28026 7.56347C4.5806 7.95147 4.02564 8.51915 3.61538 9.26651C3.20513 10.0139 3 10.925 3 12C3 13.0717 3.20195 13.9813 3.60584 14.7286C4.00974 15.476 4.55993 16.0453 5.25641 16.4365C5.95607 16.8244 6.74796 17.0184 7.63208 17.0184C8.30311 17.0184 8.89783 16.9167 9.41621 16.7131C9.93778 16.5096 10.3798 16.2361 10.7424 15.8926C11.1049 15.546 11.3896 15.1628 11.5963 14.743C11.8062 14.3232 11.9318 13.897 11.9732 13.4645L9.58795 13.4502C9.5466 13.6855 9.47187 13.897 9.36374 14.0846C9.25879 14.2691 9.12363 14.4265 8.95825 14.5569C8.79606 14.6841 8.60683 14.7811 8.39057 14.8479C8.17749 14.9147 7.94056 14.9481 7.67978 14.9481C7.21546 14.9481 6.81315 14.8384 6.47286 14.6189C6.13576 14.3963 5.87338 14.0671 5.68575 13.6314C5.50129 13.1926 5.40906 12.6487 5.40906 12C5.40906 11.3766 5.4997 10.8455 5.68098 10.4066C5.86543 9.96776 6.1278 9.63225 6.46809 9.40008C6.81156 9.16792 7.22023 9.05184 7.69409 9.05184C7.96124 9.05184 8.20453 9.09001 8.42397 9.16633C8.64659 9.23948 8.83899 9.34602 9.00119 9.48595C9.16338 9.62588 9.29377 9.79444 9.39236 9.99162C9.49095 10.1888 9.55615 10.4098 9.58795 10.6547Z" fill="#EB5252"/>
</svg>
