<svg width="206" height="64" viewBox="0 0 206 64" fill="none" xmlns="http://www.w3.org/2000/svg">
<g clip-path="url(#clip0_1136_8506)">
<path fill-rule="evenodd" clip-rule="evenodd" d="M206.001 35.8643V63.7212H70.8021L55.7422 48.391L69.656 35.8643H206.001Z" fill="#F90606"/>
<path fill-rule="evenodd" clip-rule="evenodd" d="M64.5354 9.41357H206V33.6348H68.2801L61.7031 29.3194L64.5354 9.41357Z" fill="#231F20"/>
<path d="M70.8945 54.202H72.6255V50.3085L74.0992 52.8707H74.1288L75.6025 50.2885V54.202H77.3638V47.249H75.5238L74.1288 49.8113L72.7242 47.249H70.8945V54.202Z" fill="white"/>
<path d="M81.2316 52.9499H82.3196L82.7252 54.2015H84.5949L82.1513 47.209H81.2316V49.4837L81.8746 51.5201H81.2316V52.9499ZM77.918 54.2021H79.7482L80.1436 52.9505H81.2322V51.5207H80.5892L81.2322 49.4843V47.2096H80.3519L77.918 54.2021Z" fill="white"/>
<path d="M88.0044 54.1636C88.3211 54.1241 88.6147 54.0536 88.8829 53.9508C89.32 53.7873 89.6875 53.5539 89.9891 53.2487C90.2894 52.9454 90.5182 52.5849 90.6732 52.1649C90.8282 51.7448 90.9075 51.278 90.9075 50.7643V50.6452C90.9075 50.1321 90.83 49.6671 90.675 49.2513C90.52 48.8337 90.2942 48.478 89.9957 48.1784C89.6972 47.8805 89.3328 47.6525 88.9011 47.4914C88.6268 47.3899 88.3277 47.32 88.0044 47.2823V48.923C88.1104 48.954 88.2103 48.9948 88.3047 49.0458C88.5499 49.1783 88.7431 49.3801 88.8799 49.6519C89.0167 49.923 89.0857 50.2671 89.0876 50.6847V50.774C89.0857 51.1874 89.0167 51.529 88.8799 51.8008C88.7431 52.07 88.5499 52.2706 88.3047 52.4026C88.2109 52.453 88.111 52.4937 88.0044 52.5253V54.163V54.1636ZM85.1406 54.2019H87.3862C87.6018 54.2007 87.8076 54.1885 88.0044 54.1642V52.5266C87.8306 52.5776 87.6411 52.6032 87.4353 52.6032H86.9206V48.8482H87.4353C87.6405 48.8482 87.8306 48.8732 88.0044 48.9242V47.2836C87.8167 47.2611 87.6199 47.2501 87.4159 47.2495H85.1406V54.2019Z" fill="white"/>
<path d="M91.7383 54.202H96.5462V52.6325H93.4989V51.4404H96.2095V49.9608H93.4989V48.8186H96.5062V47.249H91.7383V54.202Z" fill="white"/>
<path d="M101.542 47.249H99.7617V54.2014H101.542V47.249Z" fill="white"/>
<path d="M102.609 54.202H104.36V50.5559L106.754 54.202H108.337V47.249H106.586V50.7456L104.281 47.249H102.609V54.202Z" fill="white"/>
<path d="M119.08 58.1017C119.969 58.0975 120.77 57.9789 121.474 57.7455C122.18 57.5115 122.813 57.1862 123.366 56.7729C123.919 56.3632 124.414 55.8848 124.845 55.3444L122.237 52.68C121.996 52.9675 121.737 53.2313 121.459 53.469C121.176 53.7061 120.863 53.8976 120.513 54.0435C120.166 54.1888 119.762 54.2617 119.308 54.2654C118.683 54.2654 118.126 54.0933 117.638 53.7487C117.147 53.4046 116.757 52.9025 116.472 52.2405C116.19 51.5785 116.045 50.767 116.037 49.8096V49.7178C116.042 48.8029 116.186 48.0175 116.468 47.3592C116.751 46.7008 117.136 46.1957 117.628 45.8431C118.115 45.4911 118.677 45.3112 119.309 45.307C119.728 45.3112 120.105 45.3793 120.445 45.5179C120.785 45.6522 121.093 45.8352 121.368 46.0613C121.642 46.2911 121.894 46.544 122.122 46.823L124.776 43.9982C124.345 43.4815 123.857 43.0371 123.32 42.6584C122.782 42.2827 122.176 41.9922 121.505 41.7855C120.83 41.5788 120.075 41.4754 119.24 41.4712C118.179 41.4754 117.204 41.6706 116.304 42.0535C115.4 42.4402 114.615 42.9909 113.944 43.7113C113.273 44.4304 112.75 45.2924 112.373 46.2948C111.999 47.302 111.813 48.4272 111.805 49.6716V49.9475C111.812 51.2028 111.999 52.3323 112.365 53.3353C112.735 54.3347 113.246 55.1918 113.906 55.9006C114.566 56.6124 115.336 57.1559 116.217 57.5309C117.098 57.906 118.051 58.0975 119.08 58.1017Z" fill="white"/>
<path d="M132.851 54.9315H135.368L136.306 57.8256H140.629L134.979 41.6553H132.851V46.9147L134.339 51.6234H132.851V54.9309V54.9315ZM125.188 57.8256H129.42L130.335 54.9315H132.851V51.624H131.365L132.851 46.9153V41.6559H130.815L125.188 57.8262V57.8256Z" fill="white"/>
<path d="M141.887 57.8255H145.936V49.396L151.472 57.8255H155.133V41.7476H151.083V49.8324L145.753 41.7476H141.887V57.8255Z" fill="white"/>
<path d="M164.054 54.9315H166.571L167.508 57.8256H171.832L166.182 41.6553H164.054V46.9147L165.541 51.6234H164.054V54.9309V54.9315ZM156.391 57.8256H160.622L161.538 54.9315H164.054V51.624H162.567L164.054 46.9153V41.6559H162.018L156.391 57.8262V57.8256Z" fill="white"/>
<path d="M179.717 57.7387C180.451 57.6475 181.128 57.484 181.749 57.2475C182.76 56.8688 183.61 56.329 184.307 55.6245C185.001 54.9236 185.532 54.0896 185.889 53.117C186.248 52.1443 186.431 51.0653 186.431 49.8781V49.6022C186.431 48.4156 186.252 47.3396 185.894 46.3785C185.535 45.4144 185.013 44.5908 184.322 43.8984C183.633 43.209 182.79 42.6808 181.791 42.31C181.157 42.0747 180.466 41.9136 179.717 41.8261V45.6205C179.963 45.6922 180.194 45.7871 180.411 45.905C180.979 46.2108 181.425 46.6782 181.742 47.3062C182.058 47.9341 182.218 48.7305 182.222 49.6952V49.9012C182.218 50.8587 182.059 51.6471 181.742 52.275C181.425 52.8987 180.979 53.3619 180.411 53.6677C180.194 53.7844 179.963 53.8786 179.717 53.9504V57.7381V57.7387ZM173.094 57.8256H178.287C178.785 57.8244 179.261 57.7952 179.717 57.7387V53.951C179.316 54.0689 178.877 54.1279 178.402 54.1279H177.211V45.4454H178.402C178.877 45.4454 179.316 45.5032 179.717 45.6205V41.8261C179.283 41.775 178.829 41.7489 178.356 41.7471H173.094V57.8256Z" fill="white"/>
<path d="M194.023 54.9315H196.54L197.478 57.8256H201.801L196.151 41.6553H194.023V46.9147L195.51 51.6234H194.023V54.9309V54.9315ZM186.359 57.8256H190.591L191.506 54.9315H194.023V51.624H192.536L194.023 46.9153V41.6559H191.987L186.359 57.8262V57.8256Z" fill="white"/>
<path fill-rule="evenodd" clip-rule="evenodd" d="M60.4063 34.9358L55.1395 31.9772L59.0531 9.4125L53.638 10.8386L48.4899 0C43.0293 7.97971 45.0806 10.2605 37.3514 5.61686C37.3187 28.8138 34.1135 17.3728 25.395 2.1896L23.4993 8.10007C22.6045 10.8599 12.4608 5.65698 10.4119 4.91658C10.0117 4.77251 10.0493 4.74029 10.1358 5.15791C10.582 7.29827 14.305 18.1065 11.4587 18.6128L5.3661 19.6779C17.1366 28.8922 28.0172 34.9571 7.08618 32.041C10.3841 39.8724 7.02382 38.819 0 42.3362L9.97539 48.9609L7.81696 54.1468L30.6176 53.3888L32.8045 59.036L45.3234 47.9834L58.7135 63.4438C59.2977 64.1185 60.3258 64.1903 60.9978 63.6043C61.6699 63.0171 61.7413 61.9855 61.1577 61.3101L47.7669 45.8498L60.4075 34.937L60.4063 34.9358Z" fill="#F90606"/>
<path d="M86.5014 23.4588C87.01 23.4491 87.4865 23.3762 87.9321 23.2412C88.4128 23.0959 88.8348 22.882 89.1993 22.5944C89.562 22.3093 89.8483 21.9525 90.0542 21.527C90.2582 21.1033 90.3642 20.6115 90.3672 20.0498V20.0212C90.3648 19.3459 90.211 18.7605 89.9052 18.2614C89.6001 17.7623 89.166 17.3769 88.6029 17.101C88.0392 16.825 87.369 16.687 86.5874 16.6821H86.502V18.2809C86.9161 18.2863 87.2764 18.3526 87.5821 18.4821C87.9042 18.6182 88.1506 18.8152 88.3256 19.0815C88.5006 19.3459 88.5884 19.6735 88.5908 20.0638V20.0924C88.5884 20.4419 88.5006 20.7513 88.3274 21.017C88.1543 21.2832 87.9085 21.4929 87.5882 21.6449C87.2824 21.7884 86.9198 21.8662 86.5008 21.8747V23.4582L86.5014 23.4588ZM82.6641 26.6709H84.412V23.4607H86.3876L86.5014 23.4594V21.8759H86.4445L84.4126 21.8765V18.2809H86.5014V16.6827H82.6641V26.6709Z" fill="white"/>
<path d="M91.957 26.6712H93.6765V23.8032C93.6814 23.1375 93.7903 22.5831 94.0059 22.1412C94.2214 21.7011 94.5199 21.371 94.9013 21.1497C95.2852 20.9309 95.7278 20.8215 96.2345 20.8215H96.3338V18.9948C95.8931 18.9778 95.5025 19.0446 95.1617 19.1966C94.8202 19.3467 94.5266 19.5631 94.2807 19.8434C94.0343 20.1267 93.8327 20.4573 93.6765 20.8348V19.137H91.957V26.6705V26.6712Z" fill="white"/>
<path d="M101.158 26.8413C101.732 26.8346 102.261 26.7319 102.743 26.53C103.231 26.3258 103.657 26.0425 104.017 25.6814C104.377 25.3222 104.657 24.9064 104.856 24.4328C105.055 23.9617 105.157 23.4578 105.158 22.918V22.8894C105.156 22.3472 105.057 21.8408 104.858 21.3697C104.661 20.8986 104.384 20.4846 104.026 20.126C103.667 19.7691 103.245 19.4889 102.761 19.2865C102.276 19.0865 101.743 18.9819 101.165 18.9795H101.158V20.4925C101.489 20.4974 101.792 20.5618 102.065 20.6852C102.347 20.8111 102.589 20.9849 102.795 21.2086C102.999 21.4299 103.157 21.6864 103.269 21.9788C103.383 22.2712 103.439 22.583 103.439 22.918V22.9466C103.439 23.2724 103.385 23.5794 103.28 23.8669C103.174 24.152 103.022 24.4067 102.826 24.6255C102.626 24.8444 102.388 25.0158 102.108 25.1392C101.829 25.2626 101.514 25.327 101.166 25.3295H101.159V26.8419L101.158 26.8413ZM101.137 26.8419H101.158V25.3295C100.825 25.3264 100.521 25.262 100.243 25.1368C99.9667 25.0109 99.7252 24.8371 99.5187 24.6158C99.3153 24.3945 99.1585 24.138 99.0477 23.8474C98.9338 23.5569 98.8794 23.2481 98.8769 22.9174V22.8888C98.8769 22.5587 98.9314 22.2493 99.0356 21.9618C99.1421 21.6712 99.2917 21.4171 99.4903 21.1983C99.6864 20.977 99.9238 20.8056 100.2 20.6822C100.48 20.5563 100.79 20.4943 101.136 20.4919H101.157V18.9795C100.582 18.9856 100.051 19.0871 99.5678 19.2907C99.0798 19.4956 98.6559 19.7783 98.2981 20.1393C97.9379 20.501 97.6588 20.9193 97.4596 21.3928C97.2604 21.8657 97.1587 22.3751 97.1562 22.9174V22.9459C97.1587 23.4833 97.2586 23.9873 97.4572 24.4584C97.6539 24.927 97.9312 25.338 98.2884 25.6948C98.6463 26.0516 99.0652 26.3319 99.549 26.5343C100.032 26.7343 100.56 26.8364 101.136 26.8413L101.137 26.8419Z" fill="white"/>
<path d="M109.495 26.8271C109.881 26.8246 110.223 26.7626 110.514 26.6417C110.805 26.5201 111.061 26.3608 111.277 26.1608C111.492 25.9614 111.682 25.7402 111.84 25.5001V26.6702H113.574V19.1367H111.84V23.3889C111.838 23.781 111.767 24.1141 111.622 24.3901C111.48 24.666 111.283 24.8776 111.03 25.0229C110.777 25.1706 110.483 25.2435 110.149 25.2435C109.635 25.2411 109.239 25.0818 108.962 24.7706C108.685 24.4569 108.545 24.0047 108.543 23.4174V19.1367H106.824V23.9311C106.827 24.5183 106.931 25.0296 107.141 25.4624C107.35 25.8952 107.652 26.2283 108.05 26.466C108.448 26.7043 108.929 26.8253 109.495 26.8277V26.8271Z" fill="white"/>
<path d="M119.237 26.8012C119.477 26.7708 119.698 26.7155 119.901 26.6346C120.218 26.5112 120.498 26.3423 120.74 26.1307C120.981 25.9167 121.194 25.679 121.377 25.4146V26.6705H123.096V16.2544H121.377V20.3066C121.199 20.0664 120.988 19.8452 120.749 19.6458C120.508 19.4458 120.23 19.2865 119.911 19.1656C119.705 19.0871 119.481 19.0336 119.238 19.0045V20.478C119.527 20.4786 119.799 20.5357 120.057 20.6494C120.315 20.7637 120.548 20.9248 120.749 21.1369C120.952 21.3485 121.111 21.6026 121.227 21.898C121.343 22.1953 121.402 22.5235 121.404 22.8895V22.918C121.402 23.2797 121.343 23.6074 121.227 23.9022C121.111 24.197 120.952 24.4517 120.749 24.6633C120.548 24.8772 120.315 25.0414 120.057 25.1551C119.799 25.2687 119.526 25.3253 119.238 25.3289V26.8012H119.237ZM118.818 26.8273C118.964 26.8267 119.103 26.8176 119.237 26.8012V25.3289H119.23C118.937 25.3289 118.659 25.2699 118.401 25.1575C118.14 25.0432 117.913 24.8815 117.712 24.67C117.513 24.4584 117.357 24.2043 117.242 23.9089C117.129 23.6116 117.072 23.2809 117.069 22.9174V22.8889C117.072 22.5132 117.128 22.1776 117.24 21.8804C117.353 21.5831 117.51 21.3284 117.707 21.1217C117.906 20.9126 118.136 20.7534 118.393 20.6433C118.654 20.5339 118.934 20.4768 119.23 20.4768H119.237V19.0033C119.102 18.9874 118.963 18.9789 118.818 18.9783C118.458 18.9783 118.107 19.0355 117.768 19.1449C117.427 19.2567 117.112 19.4184 116.819 19.6348C116.525 19.8513 116.267 20.1175 116.046 20.4336C115.823 20.7473 115.651 21.1114 115.525 21.5229C115.402 21.932 115.338 22.3886 115.336 22.8876V22.9162C115.338 23.4153 115.402 23.8724 115.53 24.2809C115.656 24.6925 115.831 25.0541 116.053 25.3702C116.278 25.6863 116.536 25.9526 116.83 26.1696C117.124 26.3836 117.441 26.5477 117.778 26.6596C118.116 26.769 118.462 26.8261 118.817 26.8261L118.818 26.8273Z" fill="white"/>
<path d="M127.075 16.2544H125.355V26.6705H127.075V16.2544Z" fill="white"/>
<path d="M132.574 24.7299L130.457 19.1367H128.609L131.736 26.6848C131.641 26.8988 131.544 27.0678 131.44 27.1912C131.338 27.317 131.224 27.4076 131.098 27.4623C130.973 27.517 130.831 27.5432 130.669 27.5407C130.492 27.5407 130.319 27.5146 130.148 27.4623C129.98 27.4125 129.817 27.3432 129.66 27.2556L129.077 28.5395C129.338 28.6823 129.61 28.7942 129.897 28.875C130.184 28.9535 130.501 28.9942 130.854 28.9966C131.254 28.9991 131.602 28.9298 131.898 28.7918C132.197 28.6513 132.459 28.4282 132.69 28.1164C132.917 27.807 133.13 27.3955 133.327 26.8842L136.311 19.1367H134.521L132.573 24.7299H132.574Z" fill="white"/>
<path d="M146.091 23.4588C146.6 23.4491 147.076 23.3762 147.521 23.2412C148.003 23.0959 148.424 22.882 148.789 22.5944C149.152 22.3093 149.438 21.9525 149.645 21.527C149.848 21.1033 149.955 20.6115 149.957 20.0498V20.0212C149.955 19.3459 149.801 18.7605 149.496 18.2614C149.19 17.7623 148.756 17.3769 148.193 17.101C147.629 16.825 146.959 16.687 146.177 16.6821H146.092V18.2809C146.507 18.2863 146.866 18.3526 147.172 18.4821C147.494 18.6182 147.74 18.8152 147.916 19.0815C148.091 19.3459 148.179 19.6735 148.181 20.0638V20.0924C148.179 20.4419 148.092 20.7513 147.918 21.017C147.745 21.2832 147.5 21.4929 147.179 21.6449C146.873 21.7884 146.511 21.8662 146.092 21.8747V23.4582L146.091 23.4588ZM142.254 26.6709H144.002V23.4607H145.977L146.091 23.4594V21.8759H146.034L144.002 21.8765V18.2809H146.091V16.6827H142.254V26.6709Z" fill="white"/>
<path d="M151.547 26.6712H153.266V23.8032C153.272 23.1375 153.38 22.5831 153.596 22.1412C153.811 21.7011 154.11 21.371 154.491 21.1497C154.875 20.9309 155.318 20.8215 155.824 20.8215H155.924V18.9948C155.483 18.9778 155.093 19.0446 154.752 19.1966C154.411 19.3467 154.116 19.5631 153.87 19.8434C153.624 20.1267 153.423 20.4573 153.266 20.8348V19.137H151.547V26.6705L151.547 26.6712Z" fill="white"/>
<path d="M160.6 26.8419C161.059 26.8395 161.476 26.7823 161.85 26.6662C162.225 26.5495 162.564 26.3878 162.864 26.1762C163.165 25.9647 163.432 25.7173 163.669 25.4298L162.66 24.5307C162.463 24.7258 162.26 24.89 162.054 25.0231C161.847 25.1562 161.627 25.2583 161.395 25.327C161.16 25.3933 160.905 25.4298 160.628 25.4298C160.543 25.4298 160.46 25.4255 160.379 25.4176V26.8358C160.451 26.8395 160.525 26.8413 160.599 26.8419H160.6ZM160.38 23.5174H163.982C163.989 23.4316 163.997 23.349 164.001 23.2699C164.008 23.1891 164.011 23.1107 164.011 23.0323C164.011 22.597 163.963 22.1788 163.866 21.7788C163.769 21.377 163.624 21.008 163.432 20.6682C163.241 20.3308 162.999 20.0336 162.712 19.7813C162.424 19.529 162.089 19.3315 161.706 19.1935C161.322 19.053 160.894 18.9819 160.415 18.9795H160.38V20.3928H160.401C160.78 20.3946 161.104 20.4852 161.374 20.6585C161.644 20.8323 161.858 21.07 162.014 21.3673C162.17 21.6651 162.267 22.0001 162.305 22.3757H160.379V23.5174H160.38ZM160.38 25.4176C160.105 25.3909 159.851 25.3197 159.617 25.2061C159.314 25.0583 159.062 24.8419 158.864 24.5593C158.664 24.2742 158.532 23.9265 158.468 23.518H160.38V22.3764H158.455C158.509 21.9837 158.623 21.6396 158.796 21.3417C158.97 21.0445 159.192 20.8135 159.464 20.6469C159.731 20.484 160.036 20.3989 160.381 20.3928V18.9801C159.857 18.9868 159.376 19.0913 158.938 19.2889C158.491 19.4932 158.104 19.774 157.777 20.1333C157.451 20.4925 157.2 20.9089 157.022 21.3819C156.842 21.8548 156.752 22.3618 156.75 22.904V22.9326C156.752 23.5149 156.852 24.048 157.046 24.5234C157.24 25.0012 157.512 25.4127 157.86 25.7598C158.209 26.1045 158.616 26.3714 159.083 26.5592C159.484 26.7197 159.917 26.8121 160.381 26.8364V25.4182L160.38 25.4176Z" fill="white"/>
<path d="M168.316 26.8132C168.71 26.8132 169.074 26.7627 169.411 26.6655C169.748 26.5676 170.043 26.4199 170.297 26.2229C170.547 26.0254 170.744 25.778 170.886 25.4831C171.029 25.1859 171.1 24.8388 171.101 24.4436V24.4151C171.099 24.0771 171.029 23.7896 170.891 23.547C170.756 23.3069 170.573 23.102 170.346 22.9355C170.121 22.7689 169.869 22.6285 169.597 22.5148C169.322 22.4005 169.048 22.3008 168.77 22.2176C168.548 22.1464 168.337 22.0771 168.135 22.0085C167.932 21.9398 167.752 21.8638 167.595 21.7854C167.437 21.7045 167.311 21.6115 167.219 21.5094C167.129 21.4073 167.082 21.2857 167.079 21.1477V21.1191C167.079 20.9738 167.122 20.848 167.202 20.7362C167.285 20.6243 167.406 20.5362 167.562 20.4742C167.718 20.4097 167.908 20.3769 168.13 20.3769C168.448 20.3793 168.787 20.4413 169.152 20.5672C169.516 20.693 169.881 20.8668 170.248 21.0905L170.931 19.8632C170.663 19.6875 170.376 19.535 170.071 19.4067C169.765 19.2784 169.45 19.1806 169.128 19.1119C168.805 19.0426 168.489 19.0073 168.173 19.0073C167.799 19.0073 167.449 19.0596 167.126 19.1666C166.804 19.2711 166.52 19.4207 166.278 19.6207C166.034 19.8207 165.845 20.0602 165.71 20.3435C165.573 20.6267 165.503 20.9477 165.501 21.3039V21.3325C165.506 21.6893 165.575 21.9933 165.712 22.2407C165.85 22.4905 166.032 22.6948 166.26 22.8613C166.487 23.0254 166.738 23.161 167.013 23.268C167.288 23.375 167.567 23.468 167.846 23.544C168.07 23.6108 168.28 23.6771 168.482 23.7415C168.681 23.806 168.861 23.8771 169.017 23.9531C169.173 24.0315 169.296 24.1221 169.386 24.2266C169.476 24.3312 169.521 24.4546 169.524 24.5999V24.6284C169.521 24.8807 169.419 25.0783 169.218 25.223C169.017 25.3658 168.73 25.4394 168.358 25.4418C167.972 25.4418 167.569 25.3634 167.15 25.209C166.731 25.0521 166.314 24.8211 165.9 24.5148L165.133 25.6849C165.448 25.9324 165.782 26.139 166.137 26.308C166.494 26.4746 166.857 26.6004 167.226 26.6837C167.595 26.7694 167.958 26.8126 168.315 26.8126L168.316 26.8132Z" fill="white"/>
<path d="M176.304 26.8419C176.764 26.8395 177.181 26.7823 177.555 26.6662C177.929 26.5495 178.268 26.3878 178.569 26.1762C178.87 25.9647 179.137 25.7173 179.374 25.4298L178.365 24.5307C178.168 24.7258 177.965 24.89 177.758 25.0231C177.552 25.1562 177.332 25.2583 177.099 25.327C176.865 25.3933 176.61 25.4298 176.332 25.4298C176.248 25.4298 176.165 25.4255 176.083 25.4176V26.8358C176.156 26.8395 176.23 26.8413 176.304 26.8419H176.304ZM176.084 23.5174H179.686C179.694 23.4316 179.701 23.349 179.706 23.2699C179.712 23.1891 179.715 23.1107 179.715 23.0323C179.715 22.597 179.668 22.1788 179.571 21.7788C179.474 21.377 179.329 21.008 179.137 20.6682C178.945 20.3308 178.704 20.0336 178.417 19.7813C178.128 19.529 177.794 19.3315 177.411 19.1935C177.027 19.053 176.598 18.9819 176.12 18.9795H176.084V20.3928H176.105C176.485 20.3946 176.809 20.4852 177.079 20.6585C177.349 20.8323 177.561 21.07 177.718 21.3673C177.874 21.6651 177.971 22.0001 178.009 22.3757H176.083V23.5174H176.084ZM176.084 25.4176C175.809 25.3909 175.555 25.3197 175.321 25.2061C175.018 25.0583 174.767 24.8419 174.568 24.5593C174.369 24.2742 174.236 23.9265 174.173 23.518H176.084V22.3764H174.159C174.214 21.9837 174.327 21.6396 174.5 21.3417C174.673 21.0445 174.895 20.8135 175.167 20.6469C175.434 20.484 175.74 20.3989 176.084 20.3928V18.9801C175.56 18.9868 175.08 19.0913 174.642 19.2889C174.194 19.4932 173.808 19.774 173.481 20.1333C173.154 20.4925 172.903 20.9089 172.726 21.3819C172.546 21.8548 172.456 22.3618 172.453 22.904V22.9326C172.456 23.5149 172.555 24.048 172.749 24.5234C172.944 25.0012 173.216 25.4127 173.564 25.7598C173.912 26.1045 174.32 26.3714 174.787 26.5592C175.188 26.7197 175.621 26.8121 176.084 26.8364V25.4182V25.4176Z" fill="white"/>
<path d="M181.449 26.6709H183.169V22.4188C183.172 22.0267 183.245 21.6911 183.387 21.4127C183.529 21.1349 183.726 20.9228 183.979 20.7732C184.232 20.6255 184.527 20.5501 184.86 20.5501C185.374 20.5526 185.77 20.7143 186.047 21.0304C186.324 21.3489 186.464 21.8006 186.466 22.3908V26.6716H188.185V21.8626C188.183 21.2778 188.079 20.7708 187.868 20.3404C187.66 19.91 187.357 19.5775 186.959 19.3392C186.561 19.104 186.08 18.9824 185.514 18.98C185.128 18.9824 184.787 19.0444 184.495 19.166C184.205 19.2845 183.948 19.4438 183.733 19.6414C183.517 19.8389 183.327 20.0578 183.169 20.293V19.1374H181.449V26.6709Z" fill="white"/>
<path d="M192.776 26.799C193.101 26.799 193.387 26.7632 193.636 26.6969C193.885 26.63 194.115 26.5352 194.325 26.4136V25.0009C194.154 25.0866 193.984 25.1504 193.808 25.1936C193.633 25.2368 193.451 25.258 193.259 25.258C192.966 25.2605 192.738 25.1869 192.579 25.0392C192.418 24.8897 192.338 24.6495 192.335 24.3164V20.6205H194.353V19.1366H192.335V17.0674H190.616V19.1366H189.664V20.6205H190.616V24.5875C190.619 25.1371 190.713 25.5717 190.896 25.8951C191.078 26.2209 191.331 26.4513 191.654 26.5942C191.978 26.7346 192.352 26.8008 192.776 26.799Z" fill="white"/>
</g>
<defs>
<clipPath id="clip0_1136_8506">
<rect width="206" height="64" fill="white"/>
</clipPath>
</defs>
</svg>
    