<svg width="28" height="28" viewBox="0 0 28 28" fill="none" xmlns="http://www.w3.org/2000/svg">
<path fill-rule="evenodd" clip-rule="evenodd" d="M21.7215 8.25949C21.7215 8.67895 21.3815 9.01899 20.962 9.01899H5.75949C5.34004 9.01899 5 8.67895 5 8.25949C5 7.84004 5.34004 7.5 5.75949 7.5H20.962C21.3815 7.5 21.7215 7.84004 21.7215 8.25949ZM10.5823 13.3354C10.5823 13.7549 10.2422 14.0949 9.82278 14.0949H5.75949C5.34004 14.0949 5 13.7549 5 13.3354C5 12.916 5.34004 12.5759 5.75949 12.5759H9.82278C10.2422 12.5759 10.5823 12.916 10.5823 13.3354ZM9.82278 19.1709C10.2422 19.1709 10.5823 18.8308 10.5823 18.4114C10.5823 17.9919 10.2422 17.6519 9.82278 17.6519H5.75949C5.34004 17.6519 5 17.9919 5 18.4114C5 18.8308 5.34004 19.1709 5.75949 19.1709H9.82278Z" fill="#23A25D"/>
<circle cx="17.9236" cy="16.4209" r="5.32595" stroke="#23A25D" stroke-width="1.5"/>
<path d="M15.7754 14.2732L20.0717 18.5695" stroke="#23A25D" stroke-width="1.5" stroke-linecap="round"/>
<path d="M15.7754 18.569L20.0717 14.2726" stroke="#23A25D" stroke-width="1.5" stroke-linecap="round"/>
</svg>
