<svg width="62" height="62" viewBox="0 0 62 62" fill="none" xmlns="http://www.w3.org/2000/svg">
<rect x="6" y="6" width="50" height="50" rx="25" fill="#FFD770"/>
<rect x="3" y="3" width="56" height="56" rx="28" stroke="#FFD770" stroke-opacity="0.4" stroke-width="6"/>
<path d="M33.8047 37.1914H28.1992L27.0078 17.9922H34.9961L33.8047 37.1914ZM28.2773 45.3555C27.5612 44.6654 27.2031 43.8125 27.2031 42.7969C27.2031 41.7812 27.5612 40.9284 28.2773 40.2383C28.9935 39.5482 29.8984 39.2031 30.9922 39.2031C32.0859 39.2031 32.9909 39.5482 33.707 40.2383C34.4362 40.9284 34.8008 41.7812 34.8008 42.7969C34.8008 43.8125 34.4362 44.6654 33.707 45.3555C32.9909 46.0456 32.0859 46.3906 30.9922 46.3906C29.8984 46.3906 28.9935 46.0456 28.2773 45.3555Z" fill="#F9F9F9"/>
</svg>
