<svg width="28" height="28" viewBox="0 0 28 28" fill="none" xmlns="http://www.w3.org/2000/svg">
<path fill-rule="evenodd" clip-rule="evenodd" d="M15.6332 3.60499C15.8636 3.52141 16.1089 3.48714 16.3534 3.50441C16.5979 3.52169 16.836 3.59012 17.0523 3.70527C17.2686 3.82042 17.4584 3.97973 17.6092 4.17288C17.7601 4.36603 17.8687 4.5887 17.928 4.82649L18.3492 6.50883L16.6517 6.93349L16.2317 5.25116L9.92467 7.54366L9.32617 5.89866L15.6332 3.60733V3.60499ZM15.7498 13.7212C15.7498 13.025 16.0264 12.3573 16.5187 11.865C17.011 11.3727 17.6786 11.0962 18.3748 11.0962H22.7498C23.446 11.0962 24.1137 11.3727 24.606 11.865C25.0983 12.3573 25.3748 13.025 25.3748 13.7212V15.4712C25.3748 16.1674 25.0983 16.835 24.606 17.3273C24.1137 17.8196 23.446 18.0962 22.7498 18.0962H18.3748C17.6786 18.0962 17.011 17.8196 16.5187 17.3273C16.0264 16.835 15.7498 16.1674 15.7498 15.4712V13.7212ZM18.3748 12.8462C18.1428 12.8462 17.9202 12.9383 17.7561 13.1024C17.592 13.2665 17.4998 13.4891 17.4998 13.7212V15.4712C17.4998 15.9553 17.8918 16.3462 18.3748 16.3462H22.7498C22.9819 16.3462 23.2045 16.254 23.3686 16.0899C23.5327 15.9258 23.6248 15.7032 23.6248 15.4712V13.7212C23.6248 13.4891 23.5327 13.2665 23.3686 13.1024C23.2045 12.9383 22.9819 12.8462 22.7498 12.8462H18.3748Z" fill="#4A5056"/>
<path fill-rule="evenodd" clip-rule="evenodd" d="M8.75 5.84616C7.82174 5.84616 6.9315 6.21491 6.27513 6.87129C5.61875 7.52766 5.25 8.4179 5.25 9.34616V11.9712C5.25 12.2032 5.34219 12.4258 5.50628 12.5899C5.67038 12.754 5.89294 12.8462 6.125 12.8462C6.35706 12.8462 6.57962 12.754 6.74372 12.5899C6.90781 12.4258 7 12.2032 7 11.9712V9.34616C7 8.88203 7.18437 8.43691 7.51256 8.10872C7.84075 7.78054 8.28587 7.59616 8.75 7.59616H19.25C19.7141 7.59616 20.1592 7.78054 20.4874 8.10872C20.8156 8.43691 21 8.88203 21 9.34616V11.0962H22.75V9.34616C22.75 8.4179 22.3813 7.52766 21.7249 6.87129C21.0685 6.21491 20.1783 5.84616 19.25 5.84616H8.75ZM22.75 18.0962H21V18.9712C21 19.4353 20.8156 19.8804 20.4874 20.2086C20.1592 20.5368 19.7141 20.7212 19.25 20.7212H15.75C15.5179 20.7212 15.2954 20.8133 15.1313 20.9774C14.9672 21.1415 14.875 21.3641 14.875 21.5962C14.875 21.8282 14.9672 22.0508 15.1313 22.2149C15.2954 22.379 15.5179 22.4712 15.75 22.4712H19.25C20.1783 22.4712 21.0685 22.1024 21.7249 21.446C22.3813 20.7897 22.75 19.8994 22.75 18.9712V18.0962Z" fill="#4A5056"/>
<path d="M20.125 14.5962C20.125 14.8282 20.0328 15.0508 19.8687 15.2149C19.7046 15.379 19.4821 15.4712 19.25 15.4712C19.0179 15.4712 18.7954 15.379 18.6313 15.2149C18.4672 15.0508 18.375 14.8282 18.375 14.5962C18.375 14.3641 18.4672 14.1415 18.6313 13.9774C18.7954 13.8133 19.0179 13.7212 19.25 13.7212C19.4821 13.7212 19.7046 13.8133 19.8687 13.9774C20.0328 14.1415 20.125 14.3641 20.125 14.5962Z" fill="black"/>
<path fill-rule="evenodd" clip-rule="evenodd" d="M8.3125 16.3462C7.91023 16.3462 7.5119 16.4254 7.14026 16.5794C6.76863 16.7334 6.43097 16.9591 6.14657 17.2436C5.86218 17.5281 5.63662 17.8658 5.48278 18.2375C5.32895 18.6092 5.24985 19.0076 5.25 19.4098H3.5C3.49998 18.332 3.86176 17.2854 4.52738 16.4377C5.193 15.59 6.12393 14.9902 7.17098 14.7346C8.21803 14.4789 9.3206 14.5821 10.302 15.0277C11.2834 15.4733 12.0868 16.2354 12.5835 17.1919C13.0802 18.1485 13.2414 19.2441 13.0413 20.3031C12.8413 21.3622 12.2914 22.3235 11.48 23.0329C10.6686 23.7423 9.64246 24.1587 8.56615 24.2155C7.48984 24.2723 6.42561 23.9662 5.544 23.3462C5.35786 23.2111 5.23238 23.0082 5.19469 22.7813C5.15701 22.5545 5.21015 22.3219 5.34263 22.1339C5.47511 21.9459 5.67627 21.8177 5.90259 21.7768C6.12892 21.736 6.36221 21.786 6.552 21.9158C6.94574 22.1924 7.39911 22.3723 7.87536 22.441C8.35162 22.5097 8.83735 22.4651 9.29318 22.311C9.74901 22.1569 10.1621 21.8976 10.499 21.554C10.8359 21.2105 11.0871 20.7923 11.2322 20.3336C11.3774 19.8748 11.4124 19.3883 11.3344 18.9135C11.2564 18.4387 11.0676 17.9889 10.7834 17.6007C10.4991 17.2124 10.1274 16.8966 9.69828 16.6789C9.2692 16.4611 8.79484 16.3475 8.31367 16.3473L8.3125 16.3462Z" fill="black"/>
<path fill-rule="evenodd" clip-rule="evenodd" d="M3.5 15.4712C3.73206 15.4712 3.95462 15.5634 4.11872 15.7274C4.28281 15.8915 4.375 16.1141 4.375 16.3462V18.9712H6.125C6.35706 18.9712 6.57962 19.0634 6.74372 19.2274C6.90781 19.3915 7 19.6141 7 19.8462C7 20.0782 6.90781 20.3008 6.74372 20.4649C6.57962 20.629 6.35706 20.7212 6.125 20.7212H3.9375C3.58961 20.7212 3.25594 20.583 3.00983 20.3372C2.76373 20.0913 2.62531 19.7577 2.625 19.4098V16.345C2.625 16.1129 2.71719 15.8904 2.88128 15.7263C3.04538 15.5622 3.26794 15.4712 3.5 15.4712Z" fill="black"/>
</svg>
