<svg width="40" height="42" viewBox="0 0 40 42" fill="none" xmlns="http://www.w3.org/2000/svg">
<path fill-rule="evenodd" clip-rule="evenodd" d="M26.0512 3.29562C26.0509 3.29572 26.0507 3.29581 26.0504 3.29591L9.85211 9.3858C9.85197 9.38587 9.85226 9.3858 9.85211 9.3858C9.08091 9.6761 8.4276 10.169 7.94462 10.7898C8.42331 10.6495 8.92993 10.5742 9.4543 10.5742H29.3331V5.55547C29.3331 3.86767 27.6397 2.70052 26.0512 3.29562ZM32.2422 10.5742V5.55547C32.2422 1.84051 28.5136 -0.722993 25.0251 0.585234L8.82411 6.67615C5.99507 7.74063 4.12097 10.4391 4.12097 13.4515V20.8412C1.73531 23.0454 0.242188 26.1942 0.242188 29.6895C0.242188 36.354 5.67014 41.7585 12.3634 41.7585C14.7891 41.7585 17.0481 41.0491 18.9429 39.8275H32.727C36.7304 39.8275 39.9998 36.5721 39.9998 32.5861V17.8156C39.9998 13.816 36.744 10.5742 32.727 10.5742H32.2422ZM30.7115 13.4707C30.7367 13.472 30.7621 13.4727 30.7877 13.4727C30.8132 13.4727 30.8386 13.472 30.8638 13.4707H32.727C35.1373 13.4707 37.0907 15.4157 37.0907 17.8156V32.5861C37.0907 34.9724 35.1237 36.9309 32.727 36.9309H22.0612C23.583 34.9136 24.4846 32.4062 24.4846 29.6895C24.4846 23.0253 19.0588 17.6206 12.3634 17.6206C10.4498 17.6206 8.63953 18.0623 7.03006 18.849V15.8846C7.03006 14.5506 8.11459 13.4707 9.4543 13.4707H30.7115ZM17.7048 37.1635C20.0478 35.5004 21.5755 32.7723 21.5755 29.6895C21.5755 24.6247 17.4518 20.5172 12.3634 20.5172C7.27677 20.5172 3.15128 24.6248 3.15128 29.6895C3.15128 34.7542 7.27677 38.862 12.3634 38.862C14.3154 38.862 16.1254 38.2575 17.6152 37.2264C17.6442 37.2043 17.6742 37.1833 17.7048 37.1635ZM18.1321 26.3057C18.7001 26.8713 18.7001 27.7883 18.1321 28.3539L12.2053 34.2552C11.9324 34.5269 11.5623 34.6794 11.1764 34.6793C10.7905 34.6792 10.4204 34.5264 10.1477 34.2546L6.59474 30.713C6.02701 30.1471 6.02752 29.2301 6.59586 28.6649C7.1642 28.0996 8.0852 28.1001 8.65291 28.666L11.1774 31.1823L16.075 26.3057C16.6431 25.7401 17.564 25.7401 18.1321 26.3057Z" fill="#23A25D"/>
</svg>
