<svg width="40" height="40" viewBox="0 0 40 40" fill="none" xmlns="http://www.w3.org/2000/svg">
<path fill-rule="evenodd" clip-rule="evenodd" d="M13.9171 17.5842C13.3528 17.4692 12.7671 17.5237 12.2337 17.7411C11.7004 17.9585 11.2434 18.3288 10.9203 18.8055C10.5974 19.2818 10.4227 19.843 10.418 20.4183C10.4162 20.8028 10.4902 21.184 10.6357 21.5399C10.7815 21.8963 10.9961 22.2203 11.2674 22.4937C11.5385 22.767 11.861 22.984 12.2163 23.1325C12.5711 23.2807 12.9516 23.3576 13.3361 23.3587C13.9115 23.3584 14.474 23.1879 14.9527 22.8687C15.4319 22.5491 15.8057 22.0949 16.0271 21.5633C16.2485 21.0316 16.3075 20.4463 16.1967 19.8812C16.086 19.316 15.8104 18.7962 15.4047 18.3875C14.999 17.9787 14.4814 17.6992 13.9171 17.5842ZM11.2902 15.426C12.2807 15.0223 13.3685 14.9209 14.4165 15.1345C15.4645 15.3482 16.4257 15.8673 17.1792 16.6264C17.9326 17.3856 18.4444 18.3508 18.6501 19.4003C18.8558 20.45 18.7461 21.5369 18.335 22.5243C17.9238 23.5117 17.2295 24.3552 16.3397 24.9486C15.4499 25.542 14.4042 25.8587 13.3347 25.8587H13.3317C12.6178 25.857 11.9112 25.7144 11.2525 25.4392C10.5937 25.164 9.99579 24.7614 9.49292 24.2547C8.98998 23.748 8.59204 23.147 8.32179 22.4862C8.05154 21.8254 7.91435 21.1178 7.91804 20.4039V20.4008C7.92617 19.3313 8.25079 18.2882 8.85085 17.4028C9.45098 16.5175 10.2998 15.8297 11.2902 15.426Z" fill="#23A25D"/>
<path fill-rule="evenodd" clip-rule="evenodd" d="M9.16666 27.4937H17.5036C18.9379 27.4978 20.3123 28.0695 21.3265 29.0837C22.3407 30.098 22.9123 31.4723 22.9165 32.9067L22.9166 32.9103V33.952L22.9165 33.9556C22.9148 34.5619 22.6732 35.1428 22.2445 35.5715C21.8158 36.0002 21.2348 36.2418 20.6286 36.2436H20.6249H6.03799C5.43173 36.2418 4.85081 36.0002 4.42211 35.5715C3.99341 35.1428 3.75179 34.5619 3.75001 33.9556L4.99999 33.952H3.75V32.9067C3.7542 31.4723 4.32585 30.098 5.34007 29.0837C6.35429 28.0695 7.72866 27.4978 9.16298 27.4937H9.16666ZM6.24998 33.7437H20.4166V32.9125C20.4139 32.1392 20.1056 31.3983 19.5587 30.8515C19.012 30.3047 18.2712 29.9963 17.498 29.9937H9.1686C8.39541 29.9963 7.6546 30.3047 7.10785 30.8515C6.56104 31.3983 6.25266 32.1391 6.24998 32.9123V33.7437Z" fill="#23A25D"/>
<path fill-rule="evenodd" clip-rule="evenodd" d="M28.049 7.38869C26.5675 6.63769 24.9278 6.25238 23.2669 6.26494C21.606 6.2775 19.9723 6.6875 18.5024 7.46082C17.0324 8.23407 15.769 9.34807 14.8178 10.7096C14.4224 11.2755 13.6431 11.4138 13.0772 11.0184C12.5113 10.623 12.373 9.84375 12.7684 9.27782C13.9482 7.58907 15.5153 6.20735 17.3384 5.24827C19.1617 4.28917 21.188 3.78058 23.248 3.76502C25.3081 3.74945 27.3418 4.22737 29.1793 5.1588C31.0168 6.09024 32.6046 7.44813 33.8098 9.11882C35.015 10.7896 35.8026 12.7246 36.1068 14.7621C36.4111 16.7996 36.223 18.8803 35.5584 20.8302C34.8937 22.7801 33.7719 24.5426 32.2866 25.9701C30.8013 27.3976 28.9958 28.4488 27.0211 29.0356C26.3594 29.2323 25.6635 28.8553 25.4668 28.1935C25.2701 27.5318 25.6472 26.8359 26.3089 26.6393C27.9011 26.1661 29.3567 25.3186 30.5542 24.1677C31.7517 23.0167 32.6562 21.5958 33.1921 20.0236C33.7279 18.4516 33.8795 16.774 33.6343 15.1313C33.389 13.4886 32.7539 11.9284 31.7823 10.5814C30.8106 9.23438 29.5304 8.13963 28.049 7.38869Z" fill="#23A25D"/>
<path d="M28.75 18.75C29.7855 18.75 30.625 17.9105 30.625 16.875C30.625 15.8395 29.7855 15 28.75 15C27.7145 15 26.875 15.8395 26.875 16.875C26.875 17.9105 27.7145 18.75 28.75 18.75Z" fill="#23A25D"/>
<path d="M23.125 18.75C24.1605 18.75 25 17.9105 25 16.875C25 15.8395 24.1605 15 23.125 15C22.0895 15 21.25 15.8395 21.25 16.875C21.25 17.9105 22.0895 18.75 23.125 18.75Z" fill="#23A25D"/>
</svg>
