<svg width="40" height="40" viewBox="0 0 40 40" fill="none" xmlns="http://www.w3.org/2000/svg">
<path fill-rule="evenodd" clip-rule="evenodd" d="M27.216 15.8967C27.7652 16.4459 27.7652 17.3363 27.216 17.8855L19.4385 25.663C18.8894 26.2121 17.999 26.2121 17.4499 25.663L12.783 20.9961C12.2338 20.4469 12.2338 19.5565 12.783 19.0073C13.3322 18.4581 14.2225 18.4581 14.7717 19.0073L18.4442 22.6798L25.2273 15.8967C25.7765 15.3476 26.6669 15.3476 27.216 15.8967Z" fill="#23A25D"/>
<path fill-rule="evenodd" clip-rule="evenodd" d="M17.3249 2.98735C18.9005 1.76985 21.0995 1.76984 22.6751 2.98735L23.7844 3.84458C26.1262 5.65417 28.9178 6.78988 31.8578 7.12906L33.4832 7.31663C35.0601 7.49856 36.25 8.83375 36.25 10.4211V18.5865C36.25 26.0426 31.9714 32.8373 25.2473 36.0592L22.1606 37.5382C20.7946 38.1928 19.2054 38.1928 17.8394 37.5382L14.7527 36.0592C8.02862 32.8373 3.75 26.0426 3.75 18.5865V10.4211C3.75 8.83375 4.93996 7.49856 6.51681 7.31663L8.14219 7.12906C11.0822 6.78988 13.8738 5.65417 16.2156 3.84458L17.3249 2.98735ZM21.1464 4.96556C20.4712 4.44377 19.5288 4.44377 18.8536 4.96556L17.7442 5.8228C15.0421 7.91075 11.8211 9.22119 8.42875 9.61263L6.80337 9.80019C6.488 9.83656 6.25 10.1036 6.25 10.4211V18.5865C6.25 25.0806 9.9765 30.9984 15.833 33.8046L18.9197 35.2837C19.6027 35.611 20.3973 35.611 21.0803 35.2837L24.167 33.8046C30.0235 30.9984 33.75 25.0806 33.75 18.5865V10.4211C33.75 10.1036 33.512 9.83656 33.1966 9.80019L31.5713 9.61263C28.1789 9.22119 24.9579 7.91075 22.2558 5.82279L21.1464 4.96556Z" fill="#23A25D"/>
</svg>
