<svg width="20" height="20" viewBox="0 0 20 20" fill="none" xmlns="http://www.w3.org/2000/svg">
<path fill-rule="evenodd" clip-rule="evenodd" d="M5.7271 4.8441C5.48302 4.60002 5.08729 4.60002 4.84321 4.8441C4.59914 5.08818 4.59914 5.48391 4.84321 5.72798L9.11532 10.0001L4.84322 14.2722C4.59914 14.5163 4.59914 14.912 4.84322 15.1561C5.0873 15.4002 5.48302 15.4002 5.7271 15.1561L9.9992 10.884L14.2713 15.1561C14.5154 15.4002 14.9111 15.4002 15.1552 15.1561C15.3993 14.912 15.3993 14.5163 15.1552 14.2722L10.8831 10.0001L15.1552 5.72798C15.3993 5.48391 15.3993 5.08818 15.1552 4.8441C14.9111 4.60002 14.5154 4.60002 14.2713 4.8441L9.9992 9.1162L5.7271 4.8441Z" fill="#d31d44"/>
</svg>
