    <svg width="24" height="24" viewBox="0 0 24 24" fill="none" xmlns="http://www.w3.org/2000/svg">
<path fill-rule="evenodd" clip-rule="evenodd" d="M6.87347 5.81244C6.58058 5.51955 6.1057 5.51955 5.81281 5.81244C5.51992 6.10534 5.51992 6.58021 5.81281 6.8731L10.9393 11.9996L5.81281 17.1262C5.51992 17.419 5.51992 17.8939 5.81281 18.1868C6.10571 18.4797 6.58058 18.4797 6.87347 18.1868L12 13.0603L17.1265 18.1868C17.4194 18.4797 17.8943 18.4797 18.1872 18.1868C18.4801 17.8939 18.4801 17.419 18.1872 17.1262L13.0607 11.9996L18.1872 6.8731C18.4801 6.58021 18.4801 6.10534 18.1872 5.81244C17.8943 5.51955 17.4194 5.51955 17.1265 5.81244L12 10.939L6.87347 5.81244Z" fill="#999999"/>
</svg>
