<svg width="24" height="24" viewBox="0 0 24 24" fill="none" xmlns="http://www.w3.org/2000/svg">
<path d="M3.7928 18.7929C3.40228 19.1834 3.40228 19.8166 3.7928 20.2071C4.18332 20.5976 4.81649 20.5976 5.20701 20.2071L12 13.4142L19.2929 20.7071C19.6834 21.0976 20.3166 21.0976 20.7071 20.7071C21.0976 20.3166 21.0976 19.6834 20.7071 19.2929L13.4142 12L20.707 4.70711C21.0975 4.31658 21.0975 3.68342 20.707 3.29289C20.3165 2.90237 19.6833 2.90237 19.2928 3.29289L12 10.5857L4.70711 3.29289C4.31658 2.90237 3.68342 2.90237 3.29289 3.29289C2.90237 3.68342 2.90237 4.31658 3.29289 4.70711L10.5857 12L3.7928 18.7929Z" fill="black"/>
</svg>
