<svg width="24" height="24" viewBox="0 0 24 24" fill="none" xmlns="http://www.w3.org/2000/svg">
<path fill-rule="evenodd" clip-rule="evenodd" d="M2.75 5.79412C2.75 5.71471 2.79297 5.53769 3.09868 5.27956C3.4009 5.02437 3.88271 4.76076 4.54371 4.52468C5.85919 4.05487 7.72582 3.75 9.82353 3.75C11.9212 3.75 13.7879 4.05487 15.1033 4.52468C15.7644 4.76076 16.2462 5.02437 16.5484 5.27956C16.8541 5.53769 16.8971 5.71471 16.8971 5.79412C16.8971 5.87352 16.8541 6.05054 16.5484 6.30867C16.2717 6.5423 15.8445 6.78298 15.2671 7.00313C15.3445 7.00105 15.4222 7 15.5001 7C16.5174 7 17.4929 7.1787 18.3971 7.50643V5.79412C18.3971 5.10195 18.0022 4.54392 17.5161 4.13348C17.0266 3.72011 16.3626 3.38163 15.6079 3.11207C14.0918 2.57061 12.0466 2.25 9.82353 2.25C7.60043 2.25 5.55529 2.57061 4.03921 3.11207C3.28443 3.38163 2.6205 3.72011 2.13095 4.13348C1.64487 4.54392 1.25 5.10195 1.25 5.79412V19.2059C1.25 19.8981 1.64487 20.4561 2.13095 20.8665C2.6205 21.2799 3.28443 21.6184 4.03921 21.8879C5.55529 22.4294 7.60043 22.75 9.82353 22.75C10.2258 22.75 10.6222 22.7395 11.0108 22.7191C10.3524 22.3088 9.75427 21.811 9.23261 21.2419C7.37637 21.1906 5.7343 20.9005 4.54371 20.4753C3.88271 20.2392 3.4009 19.9756 3.09868 19.7204C2.79297 19.4623 2.75 19.2853 2.75 19.2059V16.8292C3.13057 17.0532 3.56712 17.2487 4.03921 17.4173C4.98805 17.7562 6.14412 18.0086 7.42135 18.15C7.25753 17.6503 7.13879 17.1302 7.06993 16.5944C6.10348 16.4589 5.24522 16.2553 4.54371 16.0047C3.88271 15.7687 3.4009 15.505 3.09868 15.2499C2.79297 14.9917 2.75 14.8147 2.75 14.7353V12.3586C3.13057 12.5826 3.56712 12.7781 4.03921 12.9468C4.93323 13.266 6.01122 13.5085 7.20118 13.6538C7.31277 13.15 7.46906 12.663 7.66568 12.1971C6.45498 12.0683 5.38629 11.8351 4.54371 11.5341C3.88271 11.2981 3.4009 11.0345 3.09868 10.7793C2.79297 10.5211 2.75 10.3441 2.75 10.2647V7.88801C3.13057 8.112 3.56712 8.30756 4.03921 8.47616C5.51477 9.00315 7.49149 9.32094 9.64568 9.33755C10.3528 8.66551 11.1756 8.11393 12.081 7.71567C11.3728 7.79488 10.6146 7.83824 9.82353 7.83824C7.72582 7.83824 5.85919 7.53336 4.54371 7.06355C3.88271 6.82748 3.4009 6.56387 3.09868 6.30867C2.79297 6.05054 2.75 5.87352 2.75 5.79412Z" fill="#262B39"/>
<path fill-rule="evenodd" clip-rule="evenodd" d="M16 8.37143C12.3391 8.37143 9.37143 11.3391 9.37143 15C9.37143 18.6609 12.3391 21.6286 16 21.6286C19.6609 21.6286 22.6286 18.6609 22.6286 15C22.6286 11.3391 19.6609 8.37143 16 8.37143ZM8 15C8 10.5817 11.5817 7 16 7C20.4183 7 24 10.5817 24 15C24 19.4183 20.4183 23 16 23C11.5817 23 8 19.4183 8 15Z" fill="#262B39"/>
<path d="M12.8592 19.3629C12.5859 19.1163 12.5176 18.8962 12.6542 18.7026L13.047 18.1448C13.176 17.9627 13.3733 17.9817 13.639 18.2018C13.8439 18.3725 14.0867 18.5034 14.3675 18.5945C14.6521 18.6818 14.8969 18.7387 15.1018 18.7653V16.3576C14.802 16.2475 14.4814 16.0976 14.1398 15.9079C13.9653 15.8092 13.7737 15.6555 13.565 15.4468C13.36 15.2343 13.195 14.9896 13.0698 14.7126C12.9445 14.4356 12.8819 14.0922 12.8819 13.6823C12.8819 13.1435 13.0337 12.7014 13.3373 12.3561C13.6408 12.0108 13.9254 11.8002 14.1911 11.7243C14.4567 11.6446 14.7603 11.5915 15.1018 11.5649V10.9843C15.1018 10.7567 15.1967 10.6428 15.3864 10.6428H15.8417C16.0315 10.6428 16.1263 10.7567 16.1263 10.9843V11.5649C16.3996 11.5991 16.6842 11.675 16.9801 11.7926C17.2761 11.9102 17.5171 12.0374 17.703 12.174C17.9231 12.3371 17.9743 12.5079 17.8567 12.6862L17.4696 13.2782C17.333 13.4831 17.1699 13.4983 16.9801 13.3237C16.8359 13.1909 16.6879 13.0923 16.5362 13.0278C16.3844 12.9632 16.2478 12.9139 16.1263 12.8798V15.0996C16.4413 15.2097 16.7638 15.3501 17.094 15.5208C17.3368 15.6461 17.5455 15.7978 17.7201 15.9762C17.8946 16.1545 18.0407 16.3765 18.1584 16.6422C18.2798 16.9078 18.3405 17.2664 18.3405 17.7179C18.3405 18.2226 18.2286 18.6438 18.0047 18.9815C17.7846 19.3193 17.5247 19.5659 17.2249 19.7215C16.9251 19.8771 16.5589 19.9776 16.1263 20.0232V20.6948C16.1263 20.9225 16.0315 21.0363 15.8417 21.0363H15.3864C15.1967 21.0363 15.1018 20.9225 15.1018 20.6948V20.0232C14.7147 20.0042 14.3049 19.9454 13.8723 19.8467C13.4435 19.7519 13.1058 19.5906 12.8592 19.3629ZM14.3391 13.6709C14.3391 13.9442 14.396 14.151 14.5098 14.2914C14.6237 14.4318 14.7413 14.5304 14.8627 14.5874C14.9272 14.6177 15.0069 14.6519 15.1018 14.6898V12.8456C14.8931 12.8836 14.7128 12.9765 14.561 13.1245C14.4131 13.2687 14.3391 13.4509 14.3391 13.6709ZM16.1263 18.7482C16.2667 18.7064 16.4242 18.6211 16.5988 18.492C16.7733 18.3592 16.8606 18.1145 16.8606 17.7578C16.8606 17.5111 16.8208 17.3176 16.7411 17.1772C16.6652 17.033 16.5248 16.9116 16.3199 16.8129C16.2592 16.7826 16.1946 16.7522 16.1263 16.7218V18.7482Z" fill="#262B39"/>
</svg>
