<svg width="16" height="16" viewBox="0 0 16 16" fill="none" xmlns="http://www.w3.org/2000/svg">
<path d="M5.66732 12.6667H5.33398C2.66732 12.6667 1.33398 12 1.33398 8.66671V5.33337C1.33398 2.66671 2.66732 1.33337 5.33398 1.33337H10.6673C13.334 1.33337 14.6673 2.66671 14.6673 5.33337V8.66671C14.6673 11.3334 13.334 12.6667 10.6673 12.6667H10.334C10.1273 12.6667 9.92732 12.7667 9.80065 12.9334L8.80065 14.2667C8.36065 14.8534 7.64065 14.8534 7.20065 14.2667L6.20065 12.9334C6.09398 12.7867 5.84732 12.6667 5.66732 12.6667Z" stroke="#484848" stroke-miterlimit="10" stroke-linecap="round" stroke-linejoin="round"/>
<path d="M4.66602 5.33337H11.3327" stroke="#484848" stroke-linecap="round" stroke-linejoin="round"/>
<path d="M4.66602 8.66663H8.66602" stroke="#484848" stroke-linecap="round" stroke-linejoin="round"/>
</svg>
