<svg width="24" height="24" viewBox="0 0 24 24" fill="none" xmlns="http://www.w3.org/2000/svg">
<path fill-rule="evenodd" clip-rule="evenodd" d="M2.75 11.611C2.75 6.7172 6.7172 2.75 11.611 2.75C16.5048 2.75 20.472 6.7172 20.472 11.611C20.472 16.5048 16.5048 20.472 11.611 20.472C6.7172 20.472 2.75 16.5048 2.75 11.611ZM11.611 1.25C5.88877 1.25 1.25 5.88877 1.25 11.611C1.25 17.3332 5.88877 21.972 11.611 21.972C17.3332 21.972 21.972 17.3332 21.972 11.611C21.972 5.88877 17.3332 1.25 11.611 1.25ZM15.6677 8.49402C15.7511 8.22766 15.6796 7.93704 15.4823 7.73969C15.2849 7.54234 14.9943 7.47089 14.7279 7.55425L9.6387 9.14693C9.40409 9.22035 9.22035 9.40409 9.14693 9.6387L7.55425 14.7279C7.47089 14.9943 7.54234 15.2849 7.73969 15.4823C7.93704 15.6796 8.22766 15.7511 8.49402 15.6677L13.5833 14.075C13.8179 14.0016 14.0016 13.8179 14.075 13.5833L15.6677 8.49402ZM9.41385 13.8081L10.4612 10.4612L13.8081 9.41385L12.7607 12.7607L9.41385 13.8081Z" fill="#23A25D"/>
</svg>
