<svg width="16" height="16" viewBox="0 0 16 16" fill="none" xmlns="http://www.w3.org/2000/svg">
<path d="M3.38113 5.33317C3.87292 4.48136 4.59069 3.78214 5.45509 3.31281C6.31948 2.84349 7.29682 2.62234 8.27906 2.67381C9.2613 2.72529 10.2102 3.04739 11.0208 3.6045C11.8314 4.16161 12.4721 4.93203 12.8722 5.83058M2.15448 3.67675L2.64076 5.78311C2.72358 6.14186 3.08155 6.36555 3.4403 6.28272L5.54666 5.79645M12.6188 10.6664C12.127 11.5182 11.4092 12.2175 10.5448 12.6868C9.68041 13.1561 8.70307 13.3773 7.72083 13.3258C6.7386 13.2743 5.78973 12.9522 4.97913 12.3951C4.16853 11.838 3.52778 11.0676 3.12772 10.169M13.8454 12.3229L13.3591 10.2165C13.2763 9.85774 12.9183 9.63406 12.5596 9.71688L10.4532 10.2032" stroke="#23A25D" stroke-width="1.25" stroke-linecap="round"/>
</svg>
