<svg width="18" height="16" viewBox="0 0 18 16" fill="none" xmlns="http://www.w3.org/2000/svg">
<circle cx="2.57424" cy="2.57424" r="2.57424" transform="matrix(-1 0 0 1 11.7319 2.36877)" stroke="#262B39" stroke-width="1.25"/>
<path d="M4.65381 11.3366C4.65381 10.783 5.00188 10.289 5.52332 10.1028V10.1028C7.87421 9.2632 10.4433 9.2632 12.7942 10.1028V10.1028C13.3156 10.289 13.6637 10.783 13.6637 11.3366V12.1833C13.6637 12.9474 12.9868 13.5345 12.2303 13.4264L11.9781 13.3904C10.108 13.1232 8.20946 13.1232 6.33938 13.3904L6.08715 13.4264C5.33064 13.5345 4.65381 12.9474 4.65381 12.1833V11.3366Z" stroke="#262B39" stroke-width="1.25"/>
<path d="M13.0213 7.58845C14.1384 7.58845 15.0439 6.6829 15.0439 5.56583C15.0439 4.44877 14.1384 3.54321 13.0213 3.54321" stroke="#262B39" stroke-width="1.25" stroke-linecap="round"/>
<path d="M15.2362 12.2031L15.4344 12.2314C16.0288 12.3163 16.5606 11.8551 16.5606 11.2546V10.5894C16.5606 10.1544 16.2871 9.7663 15.8774 9.61998C15.4687 9.47403 15.0516 9.36036 14.6299 9.27899" stroke="#262B39" stroke-width="1.25" stroke-linecap="round"/>
<path d="M4.97868 7.58845C3.86161 7.58845 2.95605 6.6829 2.95605 5.56583C2.95605 4.44877 3.86161 3.54321 4.97868 3.54321" stroke="#262B39" stroke-width="1.25" stroke-linecap="round"/>
<path d="M2.76381 12.2032L2.56563 12.2315C1.97123 12.3164 1.43943 11.8552 1.43943 11.2547V10.5896C1.43943 10.1545 1.71292 9.76643 2.12262 9.62011C2.5313 9.47415 2.94837 9.36048 3.37012 9.27911" stroke="#262B39" stroke-width="1.25" stroke-linecap="round"/>
</svg>
