<svg width="20" height="20" viewBox="0 0 20 20" fill="none" xmlns="http://www.w3.org/2000/svg">
<path d="M18.3333 7.08366C18.3333 10.0753 15.9083 12.5003 12.9167 12.5003C12.775 12.5003 12.625 12.492 12.4833 12.4837C12.275 9.842 10.1583 7.72532 7.51666 7.51698C7.50832 7.37532 7.5 7.22533 7.5 7.08366C7.5 4.09199 9.925 1.66699 12.9167 1.66699C15.9083 1.66699 18.3333 4.09199 18.3333 7.08366Z" stroke="#121212" stroke-width="1.5" stroke-linecap="round" stroke-linejoin="round"/>
<path d="M12.4993 12.9167C12.4993 15.9083 10.0743 18.3333 7.08268 18.3333C4.09102 18.3333 1.66602 15.9083 1.66602 12.9167C1.66602 9.925 4.09102 7.5 7.08268 7.5C7.22435 7.5 7.37434 7.50832 7.51601 7.51666C10.1577 7.72499 12.2744 9.84168 12.4827 12.4833C12.491 12.625 12.4993 12.775 12.4993 12.9167Z" stroke="#121212" stroke-width="1.5" stroke-linecap="round" stroke-linejoin="round"/>
<path d="M4.65768 1.66699H2.49935C2.04102 1.66699 1.66602 2.04199 1.66602 2.50033V4.65866C1.66602 5.40032 2.56601 5.77532 3.09101 5.25032L5.24934 3.09199C5.76601 2.56699 5.39935 1.66699 4.65768 1.66699Z" stroke="#121212" stroke-width="1.5" stroke-linecap="round" stroke-linejoin="round"/>
<path d="M15.3408 18.3332H17.4991C17.9574 18.3332 18.3324 17.9582 18.3324 17.4999V15.3416C18.3324 14.5999 17.4325 14.2249 16.9075 14.7499L14.7491 16.9082C14.2325 17.4332 14.5991 18.3332 15.3408 18.3332Z" stroke="#121212" stroke-width="1.5" stroke-linecap="round" stroke-linejoin="round"/>
</svg>
