<svg width="32" height="32" viewBox="0 0 32 32" fill="none" xmlns="http://www.w3.org/2000/svg">
<path fill-rule="evenodd" clip-rule="evenodd" d="M12.9446 2C10.4899 2 8.5 3.98992 8.5 6.44461V8.28829C8.97799 8.11259 9.49453 8.01666 10.0335 8.01666H17.6025C20.0572 8.01666 22.0471 10.0066 22.0471 12.4613V23.578C22.0471 24.4714 21.7835 25.3033 21.3299 26H25.0554C27.5101 26 29.5 24.0101 29.5 21.5554V6.4446C29.5 3.98992 27.5101 2 25.0554 2H12.9446Z" fill="#0CB450" fill-opacity="0.2"/>
<path fill-rule="evenodd" clip-rule="evenodd" d="M6.9446 6C4.48992 6 2.5 7.98992 2.5 10.4446V25.5554C2.5 28.0101 4.48992 30 6.9446 30H20.0554C22.5101 30 24.5 28.0101 24.5 25.5554V10.4446C24.5 7.98992 22.5101 6 20.0554 6H6.9446ZM6.58345 20.9411C6.16227 21.488 6.26426 22.2729 6.81125 22.6941C7.35824 23.1153 8.1431 23.0133 8.56428 22.4663L11.8678 18.176L14.4181 20.5911C14.6749 20.8343 15.0227 20.9573 15.3753 20.9296C15.7278 20.902 16.0522 20.7263 16.268 20.4461L20.4161 15.0589C20.8373 14.5119 20.7353 13.727 20.1883 13.3059C19.6413 12.8847 18.8565 12.9867 18.4353 13.5336L15.1318 17.8239L12.5815 15.4088C12.3247 15.1657 11.9769 15.0427 11.6243 15.0703C11.2717 15.0979 10.9474 15.2736 10.7316 15.5539L6.58345 20.9411Z" fill="#0CB450"/>
</svg>
