<svg width="1920" height="1080" viewBox="0 0 1920 1080" fill="none" xmlns="http://www.w3.org/2000/svg">
<g clip-path="url(#clip0_6024_22054)">
<rect width="1920" height="1080" fill="url(#paint0_linear_6024_22054)"/>
<circle cx="960.5" cy="540.5" r="402.5" fill="#00311E"/>
<path d="M870.178 379.734H854.624C854.339 377.722 853.759 375.935 852.884 374.372C852.008 372.786 850.883 371.437 849.51 370.324C848.137 369.211 846.551 368.359 844.751 367.767C842.976 367.175 841.046 366.879 838.963 366.879C835.199 366.879 831.92 367.814 829.126 369.685C826.333 371.531 824.167 374.23 822.628 377.781C821.089 381.309 820.32 385.594 820.32 390.636C820.32 395.821 821.089 400.177 822.628 403.705C824.19 407.232 826.368 409.895 829.162 411.695C831.955 413.494 835.187 414.393 838.857 414.393C840.916 414.393 842.822 414.121 844.574 413.577C846.349 413.032 847.924 412.239 849.297 411.197C850.67 410.132 851.806 408.842 852.706 407.327C853.629 405.812 854.268 404.083 854.624 402.142L870.178 402.213C869.775 405.551 868.769 408.771 867.159 411.872C865.573 414.95 863.43 417.708 860.732 420.146C858.056 422.561 854.86 424.479 851.143 425.899C847.45 427.296 843.272 427.994 838.608 427.994C832.121 427.994 826.321 426.527 821.207 423.591C816.117 420.655 812.093 416.406 809.134 410.842C806.198 405.279 804.73 398.544 804.73 390.636C804.73 382.705 806.222 375.958 809.205 370.395C812.188 364.831 816.236 360.594 821.349 357.682C826.463 354.746 832.216 353.278 838.608 353.278C842.822 353.278 846.728 353.87 850.327 355.054C853.949 356.238 857.157 357.966 859.95 360.239C862.744 362.488 865.017 365.246 866.768 368.513C868.544 371.78 869.68 375.52 870.178 379.734ZM958.036 390.636C958.036 398.567 956.533 405.314 953.526 410.878C950.543 416.441 946.471 420.691 941.31 423.626C936.173 426.538 930.397 427.994 923.981 427.994C917.518 427.994 911.718 426.527 906.58 423.591C901.443 420.655 897.383 416.406 894.4 410.842C891.417 405.279 889.925 398.544 889.925 390.636C889.925 382.705 891.417 375.958 894.4 370.395C897.383 364.831 901.443 360.594 906.58 357.682C911.718 354.746 917.518 353.278 923.981 353.278C930.397 353.278 936.173 354.746 941.31 357.682C946.471 360.594 950.543 364.831 953.526 370.395C956.533 375.958 958.036 382.705 958.036 390.636ZM942.447 390.636C942.447 385.499 941.677 381.167 940.138 377.639C938.623 374.112 936.481 371.437 933.711 369.614C930.941 367.791 927.698 366.879 923.981 366.879C920.264 366.879 917.021 367.791 914.251 369.614C911.481 371.437 909.326 374.112 907.788 377.639C906.272 381.167 905.515 385.499 905.515 390.636C905.515 395.774 906.272 400.106 907.788 403.634C909.326 407.161 911.481 409.836 914.251 411.659C917.021 413.482 920.264 414.393 923.981 414.393C927.698 414.393 930.941 413.482 933.711 411.659C936.481 409.836 938.623 407.161 940.138 403.634C941.677 400.106 942.447 395.774 942.447 390.636ZM979.426 427V354.273H1008.12C1013.64 354.273 1018.34 355.326 1022.22 357.433C1026.1 359.517 1029.06 362.417 1031.1 366.134C1033.16 369.827 1034.19 374.088 1034.19 378.918C1034.19 383.747 1033.14 388.009 1031.06 391.702C1028.98 395.395 1025.96 398.271 1022 400.331C1018.07 402.391 1013.32 403.42 1007.73 403.42H989.441V391.098H1005.24C1008.2 391.098 1010.64 390.589 1012.56 389.571C1014.5 388.529 1015.94 387.097 1016.89 385.274C1017.86 383.428 1018.35 381.309 1018.35 378.918C1018.35 376.503 1017.86 374.396 1016.89 372.597C1015.94 370.774 1014.5 369.365 1012.56 368.371C1010.62 367.353 1008.16 366.844 1005.17 366.844H994.803V427H979.426ZM1049.91 354.273H1067.13L1083.72 385.594H1084.43L1101.01 354.273H1118.24L1091.71 401.29V427H1076.44V401.29L1049.91 354.273ZM704.743 466.95V454.273H764.473V466.95H742.207V527H727.008V466.95H704.743ZM784.309 527V454.273H813.002C818.495 454.273 823.182 455.255 827.065 457.22C830.971 459.161 833.942 461.92 835.978 465.494C838.038 469.045 839.068 473.224 839.068 478.03C839.068 482.859 838.026 487.014 835.943 490.494C833.859 493.951 830.841 496.602 826.887 498.449C822.958 500.295 818.199 501.219 812.612 501.219H793.4V488.861H810.126C813.062 488.861 815.5 488.458 817.441 487.653C819.383 486.848 820.827 485.641 821.774 484.031C822.744 482.421 823.23 480.421 823.23 478.03C823.23 475.615 822.744 473.579 821.774 471.922C820.827 470.265 819.371 469.01 817.406 468.158C815.465 467.282 813.014 466.844 810.055 466.844H799.686V527H784.309ZM823.585 493.903L841.66 527H824.686L807.001 493.903H823.585ZM872.47 527H855.993L881.099 454.273H900.914L925.985 527H909.508L891.291 470.892H890.723L872.47 527ZM871.44 498.413H910.36V510.416H871.44V498.413ZM970.52 527H944.739V454.273H970.733C978.049 454.273 984.346 455.729 989.625 458.641C994.905 461.529 998.965 465.684 1001.81 471.105C1004.67 476.527 1006.1 483.013 1006.1 490.565C1006.1 498.141 1004.67 504.652 1001.81 510.097C998.965 515.542 994.881 519.72 989.554 522.632C984.251 525.544 977.907 527 970.52 527ZM960.115 513.825H969.881C974.426 513.825 978.25 513.02 981.351 511.411C984.476 509.777 986.82 507.256 988.382 503.847C989.969 500.414 990.762 495.987 990.762 490.565C990.762 485.191 989.969 480.8 988.382 477.391C986.82 473.982 984.488 471.472 981.387 469.862C978.285 468.252 974.462 467.447 969.917 467.447H960.115V513.825ZM1042.87 454.273V527H1027.49V454.273H1042.87ZM1126.35 454.273V527H1113.07L1081.43 481.226H1080.9V527H1065.52V454.273H1079.01L1110.41 500.011H1111.05V454.273H1126.35ZM1197.28 477.781C1196.78 476.053 1196.08 474.526 1195.18 473.2C1194.29 471.851 1193.18 470.714 1191.88 469.791C1190.6 468.844 1189.14 468.122 1187.48 467.625C1185.85 467.128 1184.03 466.879 1182.05 466.879C1178.33 466.879 1175.06 467.803 1172.24 469.649C1169.45 471.496 1167.27 474.183 1165.71 477.71C1164.15 481.214 1163.37 485.499 1163.37 490.565C1163.37 495.632 1164.14 499.94 1165.67 503.491C1167.21 507.043 1169.39 509.753 1172.21 511.624C1175.03 513.47 1178.35 514.393 1182.19 514.393C1185.67 514.393 1188.64 513.778 1191.1 512.547C1193.59 511.292 1195.48 509.528 1196.78 507.256C1198.11 504.983 1198.77 502.296 1198.77 499.195L1201.9 499.656H1183.15V488.08H1213.58V497.241C1213.58 503.634 1212.23 509.126 1209.53 513.719C1206.83 518.288 1203.12 521.815 1198.38 524.301C1193.65 526.763 1188.22 527.994 1182.12 527.994C1175.3 527.994 1169.31 526.491 1164.15 523.484C1158.99 520.454 1154.96 516.157 1152.07 510.594C1149.21 505.007 1147.78 498.378 1147.78 490.707C1147.78 484.812 1148.63 479.557 1150.33 474.94C1152.06 470.3 1154.48 466.37 1157.58 463.151C1160.68 459.931 1164.29 457.481 1168.41 455.8C1172.53 454.119 1176.99 453.278 1181.8 453.278C1185.92 453.278 1189.75 453.882 1193.3 455.089C1196.85 456.273 1200 457.954 1202.75 460.132C1205.52 462.31 1207.78 464.902 1209.53 467.909C1211.28 470.892 1212.41 474.183 1212.9 477.781H1197.28Z" fill="white"/>
<path d="M883.345 1061.15C861.452 1061.15 843.312 1056.56 829.213 1047.42C815.843 1038.76 798.355 1020.45 770.06 950.398C755.66 914.756 745.124 882.011 744.682 880.634C739.134 863.344 748.657 844.833 765.947 839.285C783.234 833.74 801.748 843.256 807.293 860.543C807.391 860.842 816.999 890.677 829.883 922.915C851.766 977.676 863.505 990.632 865.423 992.505C868.979 994.446 879.419 996.775 898.508 994.341C913.755 992.396 926.177 988.531 926.299 988.493C943.603 983 962.09 992.57 967.587 1009.88C973.085 1027.18 963.508 1045.67 946.204 1051.17C944.382 1051.75 927.802 1056.89 906.83 1059.57C898.582 1060.62 890.75 1061.15 883.345 1061.15Z" fill="#FCB4A0"/>
<path d="M728.817 875.96C727.555 840.043 769.962 819.496 797.502 842.586C805.95 849.671 814.102 859.955 820.63 874.838C845.182 930.802 850.043 942.507 850.043 942.507L766.654 973.783C766.654 973.783 730.836 909.783 728.898 877.667C728.864 877.092 728.837 876.524 728.817 875.96Z" fill="#FFFFFD"/>
<path d="M661.461 773.728C661.461 773.728 594.25 785.079 568.832 802.685C534.462 826.493 544.096 953.318 536.784 1009.16C529.471 1065 512.055 1164.96 533.962 1207.45C545.854 1230.5 731.761 1216.31 771.366 1197.79C792.243 1188.04 763.802 1041.96 776.676 978.866C789.547 915.77 806.161 872.86 800.671 845.758C796.214 823.746 729.813 796.08 729.813 796.08L661.461 773.728Z" fill="#FFFFFD"/>
<path d="M782.169 962.263C782.05 962.263 781.934 962.252 781.815 962.232C780.636 962.038 779.837 960.923 780.034 959.747C787.52 914.43 799.938 869.181 800.064 868.733C800.377 867.58 801.57 866.904 802.723 867.22C803.875 867.539 804.552 868.729 804.232 869.882C804.11 870.33 791.749 915.365 784.3 960.451C784.127 961.511 783.209 962.263 782.169 962.263Z" fill="#EFDCD3"/>
<path d="M543.445 1187.9C542.282 1188.02 541.235 1187.18 541.099 1186.01C535.231 1136.28 538.546 1085.07 551.236 1029.44C565.59 966.502 562 873.734 561.962 872.806C561.915 871.616 562.829 870.609 564.029 870.565C565.219 870.518 566.222 871.442 566.27 872.632C566.31 873.567 569.921 966.893 555.435 1030.39C542.86 1085.54 539.569 1136.27 545.379 1185.51C545.518 1186.69 544.672 1187.76 543.492 1187.9C543.475 1187.9 543.462 1187.9 543.445 1187.9Z" fill="#EFDCD3"/>
<path d="M731.006 944.125C708.96 943.357 684.55 936.269 658.836 923.017C628.783 907.532 607.186 888.875 606.972 888.688C606.05 887.886 605.952 886.485 606.754 885.561C607.556 884.636 608.957 884.541 609.882 885.343C610.092 885.527 631.35 903.881 660.95 919.118C688.069 933.08 727.96 947.219 763.996 935.304C765.158 934.919 766.413 935.552 766.797 936.711C767.181 937.874 766.552 939.128 765.386 939.516C754.779 943.021 743.255 944.55 731.006 944.125Z" fill="#EFDCD3"/>
<path d="M688.447 831.279C708.063 829.375 722.548 815.138 723.211 814.478C724.078 813.615 724.078 812.211 723.215 811.344C722.348 810.477 720.944 810.477 720.077 811.34C719.842 811.575 703.354 827.689 682.909 827.033C671.221 826.659 660.37 820.9 650.66 809.919C649.848 809.005 648.447 808.917 647.529 809.729C646.612 810.538 646.527 811.942 647.339 812.86C657.898 824.803 669.831 831.062 682.804 831.466C684.724 831.527 686.608 831.456 688.447 831.279Z" fill="#EFDCD3"/>
<path d="M755.427 656.333C755.427 656.333 775.746 670.672 772.921 685.644C770.096 700.612 754.638 717.199 754.638 717.199C754.638 717.199 748.366 681.435 755.427 656.333Z" fill="#1E2144"/>
<path d="M755.926 708.061C755.926 708.061 762.535 709.342 762.929 717.991C763.32 726.639 757.551 740.401 749.116 737.753C740.685 735.111 755.926 708.061 755.926 708.061Z" fill="#CE5E63"/>
<path d="M724.213 804.201C719.96 808.084 714.99 811.225 709.765 813.401C704.207 815.729 698.692 816.504 693.212 816.042L690.486 815.78L687.627 815.168C684.608 814.468 681.589 813.418 678.591 812.075C669.585 808.043 662.857 801.774 657.561 793.533C654.61 788.937 651.696 783.562 650.078 777.984C651.183 775.665 652.24 773.285 653.274 770.855C657.907 760.006 661.977 748.193 666.019 736.328L665.788 735.336L666.77 733.075L667.62 731.113L669.701 732.68L672.781 734.985L726.185 775.016L725.583 783.889L725.267 788.556L724.73 796.586L724.727 796.596L724.213 804.201Z" fill="#FCB4A0"/>
<path d="M724.212 804.2C702.197 797.451 691.037 779.591 686.516 768.388C696.948 777.977 709.796 784.607 721.822 784.213C723.121 784.174 724.371 784.059 725.575 783.874L724.212 804.2Z" fill="#CE5E63"/>
<path d="M665.008 733.017H665.015L665.338 733.085C665.453 733.836 665.613 734.581 665.78 735.342C665.855 735.665 665.929 735.995 666.008 736.331C666.347 737.695 666.762 739.068 667.255 740.452C674.857 761.937 699.725 784.942 721.822 784.218C723.117 784.174 724.368 784.062 725.575 783.885C747.044 780.761 754.496 757.256 753.67 738.946C753.636 738.259 753.591 737.572 753.54 736.899C753.54 736.899 753.687 735.675 753.986 733.51C754.231 731.786 754.564 729.457 754.979 726.69C756.236 718.439 758.297 706.276 761.04 694.343C765.864 673.425 754.438 640.99 711.916 629.924C669.39 618.858 650.621 649.24 650.06 671.61C649.914 677.209 650.774 683.75 652.171 690.403C648.058 690.359 643.502 692.232 640.558 699.238C635.122 712.191 649.798 730.195 665.008 733.017Z" fill="#FCB4A0"/>
<path d="M735.554 659.997C720.079 648.945 703.319 649.261 695.286 652.426C690.632 654.262 682.643 663.366 685.57 672.096C688.5 680.827 679.953 681.279 677.472 685.151C674.993 689.026 683.285 702.751 683.285 702.751L673.093 708.374C673.093 708.374 671.431 704.233 668.701 698.851C665.974 693.473 652.172 690.403 652.172 690.403C652.172 690.403 646.998 678.644 646.79 663.829C646.58 649.017 673.13 618.158 716.176 623.761C716.176 623.761 726.912 602.207 739.531 603.9C752.154 605.593 752.117 617.56 752.117 617.56C752.117 617.56 767.119 606.94 774.343 618.036C781.571 629.136 769.336 641.888 769.336 641.888C769.336 641.888 788.683 639.1 788.081 651.1C787.476 663.101 763.563 669.367 763.563 669.367C763.563 669.367 753.466 672.79 735.554 659.997Z" fill="#1E2144"/>
<path d="M665.566 643.457C665.566 643.457 651.662 629.669 643.788 635.536C636.516 640.955 649.126 648.635 649.126 648.635C649.126 648.635 637.207 646.405 635.633 653.347C633.95 660.778 650.407 664.232 650.407 664.232L665.566 643.457Z" fill="#1E2144"/>
<g opacity="0.5">
<path d="M713.603 723.766C713.295 725.772 708.053 726.64 701.892 725.704C695.728 724.768 690.98 722.382 691.285 720.376C691.59 718.373 696.834 717.505 702.995 718.441C709.157 719.373 713.904 721.762 713.603 723.766Z" fill="#CE5E63"/>
</g>
<g opacity="0.5">
<path d="M753.99 733.51C749.774 732.357 746.909 730.556 747.147 728.982C747.391 727.418 750.631 726.548 754.983 726.687C754.565 729.454 754.235 731.786 753.99 733.51Z" fill="#CE5E63"/>
</g>
<path d="M676.51 732.109C675.378 733.432 674.093 734.346 672.777 734.989C670.377 736.151 667.862 736.383 666.009 736.325C665.927 735.998 665.852 735.665 665.784 735.342C665.611 734.584 665.458 733.829 665.339 733.078C665.237 733.061 665.125 733.037 665.02 733.02C665.492 733.061 666.087 733.099 666.76 733.082C667.644 733.068 668.654 732.963 669.691 732.677C671.217 732.262 672.791 731.463 674.056 730.002C674.64 729.322 675.664 729.247 676.333 729.838C677.013 730.42 677.092 731.436 676.51 732.109Z" fill="#CE5E63"/>
<path d="M667.262 740.452C674.863 761.938 699.731 784.946 721.829 784.219C723.124 784.174 724.375 784.066 725.582 783.885C747.05 780.765 754.502 757.26 753.676 738.949C745.643 732.786 731.708 736.009 731.708 736.009C724.144 730.427 705.014 731.28 696.879 729.233C688.754 727.183 683.291 702.754 683.291 702.754L673.099 708.373L672.779 734.986C669.536 735.679 667.962 737.933 667.262 740.452Z" fill="#1E2144"/>
<path d="M715.787 735.509C715.787 735.509 714.196 749.763 725.945 752.466C737.694 755.169 740.914 743.736 740.914 743.736L715.787 735.509Z" fill="#FFFFFD"/>
<path d="M722.673 757.399C720.446 756.542 719.477 754.713 719.422 754.608C719.147 754.074 719.355 753.421 719.888 753.149C720.419 752.874 721.068 753.078 721.343 753.608C721.404 753.724 722.679 755.995 725.817 755.628C726.415 755.56 726.949 755.985 727.021 756.58C727.089 757.175 726.664 757.712 726.069 757.783C724.709 757.939 723.584 757.752 722.673 757.399Z" fill="#565E90"/>
<path d="M662.837 721.68C662.215 721.465 661.763 720.881 661.746 720.184C661.511 708.717 649.082 701.652 648.956 701.581C648.178 701.149 647.896 700.163 648.327 699.385C648.762 698.606 649.745 698.324 650.523 698.756C651.105 699.079 664.707 706.776 664.979 720.119C664.996 721.01 664.288 721.751 663.398 721.768C663.201 721.771 663.01 721.741 662.837 721.68Z" fill="#CE5E63"/>
<path d="M650.039 713.121C649.846 713.053 649.665 712.951 649.502 712.808C648.829 712.223 648.761 711.2 649.349 710.53C649.509 710.347 653.351 706.046 659.776 707.41C660.646 707.6 661.207 708.453 661.02 709.327C660.837 710.201 659.98 710.758 659.106 710.571C654.517 709.599 651.811 712.625 651.783 712.655C651.338 713.165 650.641 713.328 650.039 713.121Z" fill="#CE5E63"/>
<path d="M734.878 732.81C734.507 732.684 734.181 732.422 733.984 732.052C733.559 731.266 733.848 730.287 734.633 729.862L744.138 724.715L736.805 721.285C736.377 721.084 736.061 720.707 735.932 720.255L730.438 700.394C730.2 699.534 730.703 698.644 731.563 698.406C732.423 698.168 733.314 698.671 733.552 699.531L738.849 718.674L748.408 723.145C748.962 723.403 749.323 723.95 749.34 724.559C749.36 725.171 749.034 725.738 748.493 726.027L736.173 732.704C735.758 732.929 735.289 732.952 734.878 732.81Z" fill="#CE5E63"/>
<path d="M707.753 695.567C707.09 695.339 706.475 694.951 705.961 694.407C704.282 692.616 704.37 689.804 706.162 688.125C706.587 687.724 716.731 678.402 728.497 684.232C730.697 685.32 731.594 687.989 730.507 690.185C729.415 692.385 726.75 693.279 724.55 692.194C718.244 689.07 712.302 694.55 712.244 694.605C711 695.774 709.262 696.083 707.753 695.567Z" fill="#1E2144"/>
<path d="M753.576 702.091C752.352 701.669 751.322 700.72 750.843 699.408C749.554 695.873 743.408 694.938 741.83 694.88C739.383 694.788 737.465 692.728 737.554 690.274C737.642 687.822 739.702 685.905 742.157 685.997C747.147 686.18 756.354 688.567 759.196 696.366C760.035 698.671 758.845 701.224 756.54 702.063C755.544 702.427 754.504 702.41 753.576 702.091Z" fill="#1E2144"/>
<path d="M721.893 709.439C721.282 712.43 719.534 714.604 717.978 714.288C716.422 713.969 715.659 711.289 716.262 708.296C716.869 705.304 718.624 703.135 720.177 703.45C721.733 703.766 722.5 706.447 721.893 709.439Z" fill="#1E2144"/>
<path d="M709.969 706.035C709.812 705.98 709.673 705.878 709.567 705.732C709.312 705.368 709.401 704.865 709.768 704.607C710.074 704.393 717.335 699.419 723.818 703.92C724.182 704.175 724.274 704.682 724.019 705.045C723.764 705.412 723.264 705.504 722.894 705.249C717.329 701.38 710.761 705.888 710.696 705.933C710.475 706.086 710.203 706.116 709.969 706.035Z" fill="#1E2144"/>
<path d="M748.393 713.878C747.782 716.869 746.034 719.043 744.474 718.726C742.922 718.408 742.159 715.728 742.762 712.735C743.369 709.743 745.124 707.574 746.677 707.889C748.233 708.205 749 710.886 748.393 713.878Z" fill="#1E2144"/>
<path d="M737.551 710.025C737.405 709.954 737.276 709.835 737.194 709.675C736.987 709.281 737.14 708.795 737.534 708.584C737.864 708.41 745.697 704.395 751.557 709.678C751.887 709.978 751.914 710.491 751.615 710.821C751.316 711.154 750.806 711.178 750.473 710.879C745.445 706.343 738.357 709.978 738.285 710.018C738.047 710.141 737.775 710.134 737.551 710.025Z" fill="#1E2144"/>
<path d="M958.381 1022.38C958.381 937.291 889.405 868.311 804.312 868.311C719.229 868.311 650.248 937.291 650.248 1022.38C650.248 1107.47 719.228 1176.45 804.312 1176.45C889.405 1176.45 958.381 1107.47 958.381 1022.38Z" fill="url(#paint1_linear_6024_22054)" stroke="#FFBC3F" stroke-width="19.5817"/>
<path d="M779.321 958.294V933.261H790.725V958.294H779.321ZM805.467 958.294V933.261H816.871V958.294H805.467ZM779.321 1111.28V1086.24H790.725V1111.28H779.321ZM805.467 1111.28V1086.24H816.871V1111.28H805.467ZM753.87 1093.47V951.062H808.388C818.679 951.062 827.232 952.685 834.047 955.93C840.908 959.129 846.03 963.509 849.415 969.072C852.845 974.635 854.56 980.94 854.56 987.987C854.56 993.781 853.448 998.742 851.223 1002.87C848.997 1006.95 846.007 1010.26 842.252 1012.81C838.497 1015.36 834.302 1017.19 829.666 1018.3V1019.7C834.719 1019.97 839.563 1021.53 844.199 1024.35C848.881 1027.14 852.706 1031.08 855.673 1036.18C858.64 1041.28 860.123 1047.44 860.123 1054.67C860.123 1062.04 858.339 1068.67 854.769 1074.56C851.199 1080.4 845.822 1085.01 838.636 1088.4C831.451 1091.78 822.411 1093.47 811.517 1093.47H753.87ZM779.669 1071.92H807.414C816.778 1071.92 823.524 1070.13 827.649 1066.56C831.822 1062.95 833.908 1058.31 833.908 1052.66C833.908 1048.44 832.865 1044.64 830.779 1041.25C828.692 1037.82 825.726 1035.13 821.878 1033.19C818.03 1031.19 813.441 1030.2 808.109 1030.2H779.669V1071.92ZM779.669 1011.63H805.189C809.639 1011.63 813.649 1010.82 817.219 1009.2C820.788 1007.53 823.593 1005.19 825.633 1002.17C827.719 999.113 828.762 995.497 828.762 991.324C828.762 985.808 826.815 981.265 822.921 977.695C819.073 974.126 813.348 972.341 805.745 972.341H779.669V1011.63Z" fill="#FFE5B5"/>
<path d="M964.473 985.645C964.473 985.645 977.878 987.293 977.987 996.503C978.092 1005.71 960.931 1019.07 954.591 1023.35C948.25 1027.63 953.217 1010.31 958.949 1004.72C964.677 999.134 964.069 994.861 964.069 994.861L964.473 985.645Z" fill="#FCB4A0"/>
<path d="M968.09 1015.71C968.09 1015.71 981.495 1017.36 981.604 1026.57C981.709 1035.78 964.548 1049.14 958.208 1053.42C951.868 1057.69 956.834 1040.37 962.566 1034.79C968.294 1029.2 967.686 1024.93 967.686 1024.93L968.09 1015.71Z" fill="#FCB4A0"/>
<path d="M971.718 1030.19C971.718 1030.19 983.559 1031.64 983.654 1039.78C983.749 1047.92 968.59 1059.71 962.988 1063.49C957.385 1067.27 961.777 1051.97 966.836 1047.04C971.898 1042.1 971.361 1038.33 971.361 1038.33L971.718 1030.19Z" fill="#FCB4A0"/>
<path d="M965.604 1000.55C965.604 1000.55 979.005 1002.2 979.114 1011.41C979.223 1020.62 962.061 1033.98 955.721 1038.26C949.377 1042.54 954.348 1025.21 960.079 1019.63C965.808 1014.04 965.199 1009.77 965.199 1009.77L965.604 1000.55Z" fill="#FCB4A0"/>
<path d="M618.255 1031.59C618.255 1031.59 621.44 1029.79 625.591 1027.84C629.603 1025.96 634.512 1023.95 638.289 1023.31C639.849 1023.04 639.223 1022.93 640.59 1023.09C640.808 1027.56 640.906 1032.61 645.666 1039.79C646.223 1040.63 645.982 1040.87 646.93 1040.85C650.459 1040.75 652.227 1039.56 656.422 1038.53C659.325 1037.56 664.445 1036.16 670.527 1035.86C680.022 1035.38 688.681 1040.27 693.576 1041.67C698.468 1043.07 693.11 1049.6 685.067 1049.46C677.024 1049.33 670.67 1050.54 667.671 1051.45C667.671 1051.45 677.415 1050.93 683.677 1052.89C686.318 1053.71 690.183 1054.65 693.811 1055.8C695.579 1056.36 697.292 1056.98 698.771 1057.65C701.48 1058.89 703.442 1060.34 703.632 1062.1C703.952 1065.07 699.186 1065.55 693.59 1065.58C691.329 1065.6 688.932 1065.54 686.685 1065.54C685.73 1065.55 684.805 1065.55 683.921 1065.59C675.813 1065.9 671.999 1064.88 665.458 1066.59C665.458 1066.59 673.553 1067.27 677.948 1069.47C678.686 1069.84 679.546 1070.25 680.474 1070.69C682.14 1071.48 684.023 1072.37 685.856 1073.29C689.024 1074.87 692.033 1076.54 693.444 1077.96C696.116 1080.66 688.011 1084.56 679.825 1082.76C676.888 1082.11 674.409 1081.15 672.22 1080.28C669.929 1079.37 667.943 1078.56 666.09 1078.31C665.859 1078.28 665.638 1078.26 665.417 1078.24C664.336 1078.19 663.289 1078.35 662.229 1078.81C662.229 1078.81 664.34 1079.85 666.842 1081.24C666.849 1081.25 666.859 1081.26 666.876 1081.26C667.012 1081.34 667.158 1081.42 667.294 1081.49C668.871 1082.38 670.561 1083.37 671.955 1084.32C674.348 1085.95 677.826 1090.35 679.216 1093.99C680.032 1096.1 680.141 1097.96 678.91 1098.87C677.574 1099.86 674.637 1098.94 671.152 1097.52C665.968 1095.4 659.584 1092.13 655.457 1092.25C648.562 1092.44 636.109 1092.33 618.615 1090.82C604.52 1089.6 594.978 1074.33 591.802 1068.44C591.792 1068.43 591.785 1068.41 591.779 1068.4C590.997 1066.96 590.704 1065.3 590.946 1063.69C593.24 1048.29 601.168 1036.78 618.255 1031.59Z" fill="#FCB4A0"/>
<path d="M525.122 993.868C525.179 993.943 525.264 994.093 525.329 994.188C524.639 993.508 524.496 993.107 525.122 993.868ZM618.927 1067.81C620.603 1052.59 624.618 1050.22 624.149 1034.95C617.74 1033.38 603.897 1029.65 597.662 1027.87C591.512 1026.1 571.407 1017.99 565.93 1015.12C559.981 1012 548.484 1006.96 543.265 1004.66C538.479 1002.54 534.052 1000.27 530.551 998.063C530.734 997.645 530.894 997.254 531.088 996.829C531.69 995.514 532.268 994.212 532.937 992.845C533.587 991.489 534.216 990.146 534.923 988.759C540.396 977.727 546.848 966.27 553.522 954.912C560.212 943.527 567.246 932.152 574.423 920.838C578.019 915.181 581.657 909.534 585.329 903.922L590.856 895.528L596.35 887.335L596.697 886.822C597.01 886.349 597.312 885.866 597.608 885.377C608.449 867.383 602.65 844.014 584.655 833.176C566.665 822.335 543.293 828.138 532.455 846.128L526.906 855.338L521.532 864.435C517.969 870.504 514.45 876.589 510.969 882.712C504.01 894.96 497.177 907.314 490.541 919.964C483.908 932.648 477.449 945.468 471.364 959.379C470.595 961.093 469.851 962.898 469.103 964.683C468.352 966.44 467.617 968.314 466.886 970.166C465.425 973.865 464 977.826 462.63 982.041C462.287 983.102 461.95 984.285 461.617 985.403L461.121 987.103L460.998 987.531L460.801 988.273L460.363 990.01C459.251 994.688 458.761 999.984 459.112 1005.21C459.441 1010.45 460.662 1015.55 462.348 1020.02C464.041 1024.52 466.183 1028.34 468.403 1031.62C472.897 1038.18 477.582 1042.59 481.96 1046.21C486.373 1049.82 490.571 1052.56 494.644 1054.97C502.779 1059.73 510.432 1063.1 517.928 1066.06C525.417 1068.99 532.733 1071.42 539.985 1073.59C547.229 1075.76 554.399 1077.66 561.538 1079.39C571.302 1081.75 606.386 1088.99 616.064 1090.82C616.554 1084.74 618.257 1073.88 618.927 1067.81Z" fill="#FCB4A0"/>
<path d="M528.137 998.543C527.757 998.387 527.372 998.237 526.995 998.095C525.938 997.697 524.897 997.35 523.878 997.044C516.412 994.79 510.153 994.729 510.082 994.729C509.936 994.729 509.796 994.702 509.671 994.651C509.219 994.484 508.899 994.049 508.902 993.542C508.909 992.883 509.44 992.356 510.089 992.359C510.436 992.363 518.108 992.427 526.856 995.531C527.573 995.779 528.297 996.058 529.025 996.351C529.293 996.459 529.501 996.653 529.62 996.888C529.783 997.183 529.81 997.554 529.677 997.894C529.429 998.499 528.77 998.795 528.137 998.543Z" fill="#CE5E63"/>
<path d="M515.901 1005.39C515.792 1005.48 515.673 1005.56 515.544 1005.6C515.091 1005.78 514.568 1005.68 514.228 1005.3C513.783 1004.82 513.823 1004.07 514.31 1003.63C514.514 1003.45 518.131 1000.19 523.873 997.044C524.74 996.571 525.651 996.098 526.609 995.646C526.762 995.572 526.942 995.561 527.102 995.619C527.738 995.844 528.381 996.092 529.023 996.35C529.288 996.459 529.499 996.653 529.618 996.887C528.707 997.268 527.83 997.676 526.99 998.091C520.327 1001.4 515.952 1005.34 515.901 1005.39Z" fill="#CE5E63"/>
<path d="M616.155 853.023C621.013 817.416 586.394 787.295 556.675 807.502C547.557 813.703 532.905 828.542 524.916 842.695C494.874 895.916 488.863 907.073 488.863 907.073L568.693 946.556C568.693 946.556 610.753 886.472 615.903 854.713C615.995 854.148 616.08 853.584 616.155 853.023Z" fill="#FFFFFD"/>
<path d="M571.982 946.359C571.54 946.359 571.095 946.223 570.711 945.944C569.745 945.241 569.531 943.888 570.235 942.922C570.575 942.453 604.601 895.382 614.678 858.439C614.991 857.283 616.18 856.606 617.333 856.919C618.485 857.235 619.165 858.422 618.853 859.574C608.565 897.293 575.151 943.517 573.733 945.469C573.311 946.05 572.652 946.359 571.982 946.359Z" fill="#EFDCD3"/>
<path d="M1316.88 1062.34C1316.88 1062.34 1381.08 1090.56 1393.19 1175.49C1405.3 1260.41 1433.14 1292.17 1414.27 1331.94C1395.4 1371.71 1263.89 1325.32 1154.01 1326.9C1044.13 1328.47 1068.55 1245.15 1089.29 1211.14C1110.04 1177.12 1131.8 1078.63 1165.56 1075.89C1199.32 1073.15 1316.88 1062.34 1316.88 1062.34Z" fill="#FE6849"/>
<path d="M1147.6 1101.42C1192.56 1113.45 1254.84 1118.62 1340.91 1114.33C1339.54 1064.54 1348.84 1010.11 1349.03 1008.88C1350.21 1001.01 1352.22 991.479 1354.92 980.998C1355.86 977.299 1356.89 973.478 1358 969.575C1359.09 965.737 1360.26 961.804 1361.49 957.819C1362.66 954.056 1363.88 950.242 1365.17 946.397C1365.98 943.942 1366.83 941.471 1367.69 938.999C1368.19 937.544 1368.7 936.096 1369.22 934.641C1369.32 934.389 1369.41 934.128 1369.5 933.876C1369.9 932.764 1370.3 931.656 1370.71 930.551C1371.62 928.103 1372.54 925.649 1373.47 923.218C1375.68 917.452 1377.99 911.745 1380.38 906.186C1395.2 871.656 1397.59 832.734 1361.95 820.86C1359.36 819.989 1356.8 819.16 1354.32 818.378C1337.46 813.054 1323.41 809.549 1319.5 808.597C1318.79 808.427 1318.43 808.339 1318.43 808.339L1243.6 814.55L1236.48 815.135C1226.03 816.304 1217.49 817.599 1210.49 819.136C1204.33 820.492 1199.35 822.019 1195.3 823.827C1177.57 831.687 1177.45 844.613 1172.87 869.256C1172.79 869.678 1172.71 870.103 1172.63 870.535C1172.61 870.671 1172.57 870.817 1172.55 870.956C1171.75 875.144 1170.78 879.282 1169.7 883.378C1168.49 887.964 1167.14 892.486 1165.73 896.909C1162.77 906.176 1159.53 915.022 1156.71 923.218C1155.34 927.186 1154.07 931.007 1152.97 934.641C1151.72 938.812 1150.69 942.746 1150.02 946.397C1149.26 950.602 1148.94 954.43 1149.3 957.819C1149.42 959.081 1149.64 960.284 1149.95 961.42C1150.73 964.211 1151.76 966.94 1152.96 969.575C1154.83 973.689 1157.11 977.557 1159.42 980.998C1163.57 987.192 1167.81 992.006 1169.99 994.355C1170.96 995.388 1171.52 995.942 1171.52 995.942C1171.52 996.014 1171.51 996.099 1171.5 996.177C1171.44 996.796 1171.36 997.438 1171.28 998.122C1170.96 1000.72 1170.51 1003.81 1169.93 1007.31C1169.69 1008.82 1162.05 1054.3 1147.6 1101.42Z" fill="#1E2144"/>
<path d="M1152.97 934.64H1349.24C1344.74 931.87 1340.43 927.957 1336.57 923.218H1156.71C1155.33 927.185 1154.07 931.006 1152.97 934.64Z" fill="#565E90"/>
<path d="M1149.29 957.819H1361.49C1362.65 954.056 1363.88 950.241 1365.17 946.396H1150.02C1149.25 950.598 1148.94 954.426 1149.29 957.819Z" fill="#565E90"/>
<path d="M1152.96 969.576C1154.83 973.69 1157.11 977.557 1159.42 980.998L1354.91 980.999C1355.86 977.3 1356.89 973.476 1358 969.576L1152.96 969.576Z" fill="#565E90"/>
<path d="M1158.7 1060.76C1158.7 1060.76 1136.08 1078.04 1147.59 1105.58C1147.59 1105.58 1270.31 1147.51 1342.17 1119.14C1342.17 1119.14 1349.26 1094.63 1340.9 1074.58C1340.9 1074.58 1229.3 1097.35 1158.7 1060.76Z" fill="#FE6849"/>
<path d="M1209.78 1103.05C1209.24 1096.68 1209.89 1090.23 1211.94 1084.17C1214.28 1077.27 1218.68 1069.88 1226.85 1069.38C1242.43 1068.43 1244.2 1080.53 1244.2 1080.53C1244.2 1080.53 1250.64 1067.71 1267.21 1074.72C1283.79 1081.73 1277.3 1129.32 1261.13 1134.87C1244.96 1140.42 1238.76 1127.21 1238.76 1127.21C1238.76 1127.21 1233.51 1137.09 1219.9 1130.27C1213.27 1126.95 1210.56 1112.26 1209.78 1103.05Z" fill="#FE6849"/>
<path d="M1255.69 859.86C1254.99 859.86 1254.3 859.819 1253.61 859.737C1247.2 858.969 1242.46 856.103 1239.52 851.221C1230.98 837.008 1241.02 810.589 1241.45 809.474C1241.8 808.583 1242.8 808.145 1243.69 808.485C1244.57 808.828 1245.02 809.828 1244.68 810.715C1244.57 810.977 1234.8 836.681 1242.48 849.447C1244.87 853.417 1248.65 855.665 1254.02 856.31C1276.5 859.01 1312.65 807.87 1313.01 807.353C1313.56 806.571 1314.64 806.384 1315.42 806.931C1316.2 807.479 1316.39 808.556 1315.84 809.335C1314.35 811.453 1280.09 859.86 1255.69 859.86Z" fill="#FFFFFD"/>
<path d="M1195.29 823.824C1193.47 840.332 1184.06 866.278 1169.7 883.381C1170.78 879.281 1171.74 875.141 1172.54 870.956C1172.57 870.816 1172.61 870.67 1172.63 870.531C1172.71 870.099 1172.79 869.678 1172.86 869.253C1177.45 844.616 1177.57 831.687 1195.29 823.824Z" fill="#FCB4A0"/>
<path d="M1316.18 873.241C1317.95 906.166 1345.83 942.718 1367.68 938.996C1368.28 937.289 1368.89 935.589 1369.5 933.879C1369.9 932.764 1370.3 931.663 1370.72 930.548C1373.74 922.307 1376.98 914.101 1380.38 906.183C1395.2 871.653 1397.59 832.741 1361.95 820.856C1359.36 819.993 1356.8 819.163 1354.32 818.378C1334.43 822.471 1314.14 835.328 1316.18 873.241Z" fill="#FCB4A0"/>
<path d="M1280.05 1006.29C1279.73 1006.85 1279.15 1007.16 1278.55 1007.16C1278.25 1007.16 1277.96 1007.09 1277.69 1006.93C1277.4 1006.77 1249.31 990.941 1215.01 997.638C1197.59 1001.04 1182.78 1000.69 1171.27 998.121C1171.36 997.441 1171.44 996.792 1171.5 996.176C1171.51 996.091 1171.52 996.013 1171.53 995.938C1171.53 995.938 1170.96 995.384 1170 994.358C1181.25 997.213 1196.3 997.767 1214.35 994.245C1249.95 987.3 1278.22 1003.25 1279.41 1003.94C1280.24 1004.41 1280.52 1005.46 1280.05 1006.29Z" fill="#565E90"/>
<path d="M1225.04 907.909C1203.15 907.909 1198.36 884.309 1198.31 884.071C1198.13 883.133 1198.75 882.229 1199.68 882.049C1200.62 881.868 1201.52 882.484 1201.7 883.419C1201.88 884.306 1206.04 904.455 1225.04 904.455C1244.97 904.455 1288.33 874.012 1288.77 873.703C1289.55 873.152 1290.62 873.339 1291.18 874.117C1291.73 874.899 1291.54 875.974 1290.76 876.524C1288.94 877.806 1246.06 907.909 1225.04 907.909Z" fill="#565E90"/>
<path d="M1277.78 627.316C1281.8 631.844 1292.49 641.628 1292.49 641.628L1307.84 652.153L1320.9 662.917C1320.9 662.917 1360.41 683.617 1368.48 677.185C1373.45 673.214 1372.73 666.449 1371.44 661.846C1370.63 659.004 1369.63 656.988 1369.63 656.988C1369.63 656.988 1370.66 657.426 1372.22 657.773C1376.12 658.633 1383.38 658.925 1386.75 650.457C1391.48 638.565 1376.02 625.524 1376.02 625.524C1376.02 625.524 1387.92 625.171 1393.03 615.023C1398.13 604.868 1376.98 587.228 1376.98 587.228C1376.98 587.228 1383.92 585.749 1380.23 573.47C1376.53 561.194 1363.14 564.767 1363.14 564.767C1363.14 564.767 1364.55 542.329 1348.32 541.054C1332.09 539.786 1320.64 561.075 1320.64 561.075C1320.64 561.075 1308.38 554.605 1295.6 562.758C1282.81 570.906 1291.2 595.363 1291.2 595.363C1291.2 595.363 1277.67 589.295 1268.48 600.68C1262.68 607.857 1270.9 619.609 1277.78 627.316Z" fill="#FE6849"/>
<path d="M1292.49 641.629C1292.49 641.629 1313.25 645.71 1320.9 662.913C1320.9 662.913 1318.24 666.815 1311.38 668.241C1311.38 668.241 1307.68 656.639 1291.46 650.361C1291.46 650.361 1288.89 644.866 1292.49 641.629Z" fill="#FE6849"/>
<path d="M1210.73 735.715C1210.73 735.715 1196.63 732.591 1192.79 712.632C1186.54 680.121 1208.15 650.055 1248.55 644.599C1301.48 637.453 1308.99 653.832 1319.39 674.355C1329.78 694.882 1327.14 725.55 1316.63 742.361C1306.46 758.638 1285.61 765.611 1285.61 765.611L1210.73 735.715Z" fill="#FE6849"/>
<path d="M1209.3 728.084C1209.3 728.084 1202.71 729.053 1201.93 737.589C1201.15 746.126 1206.24 759.999 1214.7 757.763C1223.16 755.526 1209.3 728.084 1209.3 728.084Z" fill="#FF9A7E"/>
<path d="M1219.58 759.575C1220.26 763.766 1217.42 767.718 1213.23 768.401C1209.04 769.08 1205.08 766.238 1204.4 762.046C1203.72 757.855 1206.56 753.903 1210.75 753.221C1214.95 752.542 1218.9 755.384 1219.58 759.575Z" fill="#FFFFFD"/>
<path d="M1308.1 811.728C1308.1 811.728 1297.84 834.21 1273.28 839.272C1242.08 845.697 1237.68 832.35 1237.68 832.35C1238.75 827.999 1239.3 823.722 1239.4 819.163C1239.44 817.433 1239.42 815.661 1239.33 813.836C1239.1 808.845 1238.44 803.416 1237.41 797.164C1237.17 795.699 1236.91 794.176 1236.63 792.612L1236.6 792.425C1258.08 785.956 1275.34 775.216 1286.58 758.402L1289.73 756.257L1291.85 754.802L1292.33 756.053L1292.16 760.126C1291.29 779.289 1296.53 794.808 1308.1 811.728Z" fill="#FCB4A0"/>
<path d="M1272.48 776.062C1268.5 786.744 1258.92 805.782 1239.33 813.835C1239.1 808.845 1238.43 803.416 1237.41 797.164C1237.17 795.699 1236.91 794.179 1236.63 792.612C1237.06 792.636 1237.5 792.646 1237.95 792.649C1249.87 792.721 1262.4 785.826 1272.48 776.062Z" fill="#E38269"/>
<path d="M1316.47 721.816C1317.92 733.582 1309.74 749.227 1294.41 751.552L1294.32 751.565H1294.32L1294 751.62C1293.83 752.327 1293.62 753.024 1293.41 753.741C1293.31 754.047 1293.22 754.363 1293.12 754.673C1293.11 754.7 1293.1 754.731 1293.09 754.758C1285.97 775.934 1258.94 791.218 1243.59 793.54C1238.1 794.363 1234.25 793.585 1233.04 793.476C1216.27 791.949 1210.49 770.263 1210.96 753.082C1211.04 750.586 1211.24 748.193 1211.56 745.966C1211.58 745.813 1211.6 745.66 1211.63 745.504C1211.63 745.504 1203.24 722.594 1200.68 712.46C1195.74 692.82 1204.68 671.138 1247.93 661.741C1291.18 652.345 1305.02 678.199 1309.88 692.222C1310.69 694.558 1311.97 708.917 1309.87 711.518C1314.28 713.119 1315.98 717.862 1316.47 721.816Z" fill="#FCB4A0"/>
<path d="M1254.01 689.536C1254.01 689.536 1253.97 702.023 1265.35 707.877C1265.44 707.928 1265.26 707.829 1265.35 707.877C1271.91 711.246 1277.1 714.516 1275.18 721.632C1272.64 730.991 1275.52 736.893 1280.91 736.791C1290.54 736.61 1290.13 714.924 1309.86 711.518C1309.86 711.518 1316.84 709.148 1314.59 696.719C1312.34 684.294 1286.68 651.291 1254.27 657.25C1221.86 663.21 1194.81 682.801 1196.45 705.885C1198.1 728.968 1202.49 723.875 1202.49 723.875C1202.49 723.875 1201.98 722.546 1202.93 703.75C1203.77 686.881 1256.09 678.464 1254.01 689.536Z" fill="#FE6849"/>
<path d="M1309.74 750.11C1310.43 754.301 1307.58 758.254 1303.39 758.936C1299.2 759.615 1295.25 756.773 1294.57 752.582C1293.89 748.391 1296.73 744.438 1300.92 743.756C1305.11 743.077 1309.06 745.919 1309.74 750.11Z" fill="#FFFFFD"/>
<g opacity="0.5">
<path d="M1219.49 748.598C1219.68 750.348 1216.01 752.211 1210.96 753.082C1211.04 750.586 1211.24 748.193 1211.56 745.966C1216.01 745.983 1219.33 747 1219.49 748.598Z" fill="#CE5E63"/>
</g>
<path d="M1237.64 771.188C1239.64 770.708 1240.67 769.263 1240.72 769.178C1241.02 768.757 1240.91 768.175 1240.49 767.883C1240.07 767.591 1239.5 767.693 1239.2 768.111C1239.13 768.203 1237.8 769.991 1235.16 769.325C1234.66 769.199 1234.16 769.501 1234.03 769.998C1233.91 770.497 1234.21 771.004 1234.71 771.13C1235.85 771.415 1236.83 771.385 1237.64 771.188Z" fill="#CE5E63"/>
<path d="M1235.44 765.106C1235.49 765.092 1235.54 765.079 1235.59 765.068C1242.16 763.42 1243.92 757.943 1244 757.708C1244.23 756.95 1243.81 756.141 1243.05 755.907C1242.29 755.675 1241.49 756.097 1241.25 756.852C1241.18 757.042 1239.83 761.037 1234.89 762.274C1234.85 762.284 1234.81 762.294 1234.76 762.305C1229.78 763.501 1227.11 761.166 1227.08 761.142C1226.49 760.615 1225.58 760.663 1225.05 761.254C1224.52 761.846 1224.57 762.757 1225.16 763.287C1225.32 763.426 1229.01 766.653 1235.44 765.106Z" fill="#CE5E63"/>
<path d="M1230.47 752.85C1230.22 752.888 1229.97 752.861 1229.72 752.759L1223.29 749.991C1222.85 749.804 1222.55 749.396 1222.49 748.927C1222.43 748.455 1222.63 747.986 1223 747.693C1227.38 744.321 1229.7 739.677 1230.31 733.075C1230.38 732.337 1231.03 731.79 1231.77 731.861C1232.51 731.929 1233.05 732.582 1232.98 733.32C1232.38 739.833 1230.26 744.678 1226.34 748.38L1230.79 750.29C1231.47 750.583 1231.78 751.372 1231.49 752.055C1231.3 752.493 1230.9 752.779 1230.47 752.85Z" fill="#CE5E63"/>
<path d="M1238.73 713.073C1235.29 714.083 1232.94 709.568 1235.78 707.389C1237.26 706.25 1239.33 705.434 1242.16 705.563C1254.45 706.111 1260.43 716.027 1260.43 716.027C1260.43 716.027 1248.58 711.839 1242.32 712.396C1240.87 712.526 1239.7 712.787 1238.73 713.073Z" fill="#FE6849"/>
<path d="M1220.04 716.705C1223.62 716.569 1224.42 711.541 1221.03 710.379C1219.26 709.77 1217.05 709.651 1214.4 710.671C1202.92 715.091 1203.53 723.705 1203.53 723.705C1203.53 723.705 1210.31 718.66 1216.42 717.202C1217.84 716.865 1219.03 716.743 1220.04 716.705Z" fill="#FE6849"/>
<g opacity="0.5">
<path d="M1246.7 745.463C1246.91 747.457 1252.06 748.555 1258.2 747.907C1264.33 747.256 1269.14 745.111 1268.92 743.117C1268.71 741.119 1263.57 740.025 1257.43 740.673C1251.29 741.317 1246.49 743.465 1246.7 745.463Z" fill="#CE5E63"/>
</g>
<path d="M1294.4 751.552L1294.32 751.565H1294.32L1293.99 751.62C1293.83 752.327 1293.62 753.027 1293.41 753.741C1293.31 754.047 1293.21 754.363 1293.11 754.673C1293.11 754.7 1293.1 754.73 1293.08 754.758C1291.29 754.696 1289.01 754.312 1286.84 753.143C1285.58 752.453 1284.35 751.487 1283.29 750.131C1282.74 749.437 1282.86 748.434 1283.56 747.89C1284.26 747.336 1285.26 747.455 1285.81 748.155C1286.99 749.658 1288.51 750.518 1290.01 751.001C1291.02 751.327 1292.02 751.48 1292.89 751.528C1293.46 751.569 1293.98 751.565 1294.4 751.552Z" fill="#CE5E63"/>
<path d="M1291.81 742.55C1292.44 742.366 1292.91 741.809 1292.96 741.118C1293.71 729.788 1306.32 723.359 1306.45 723.298C1307.24 722.903 1307.56 721.941 1307.17 721.153C1306.77 720.36 1305.81 720.037 1305.03 720.432C1304.44 720.724 1290.64 727.724 1289.76 740.908C1289.7 741.788 1290.37 742.55 1291.25 742.611C1291.45 742.621 1291.63 742.601 1291.81 742.55Z" fill="#CE5E63"/>
<path d="M1304.86 734.659C1305.06 734.601 1305.24 734.509 1305.41 734.377C1306.1 733.826 1306.21 732.816 1305.66 732.126C1305.51 731.939 1301.9 727.513 1295.49 728.57C1294.62 728.72 1294.02 729.539 1294.17 730.413C1294.31 731.283 1295.14 731.875 1296.01 731.732C1300.59 730.974 1303.13 734.088 1303.16 734.122C1303.57 734.645 1304.25 734.836 1304.86 734.659Z" fill="#CE5E63"/>
<path d="M1242.81 732.174C1243.27 735.16 1244.91 737.386 1246.46 737.147C1248.01 736.905 1248.89 734.286 1248.42 731.297C1247.96 728.31 1246.32 726.085 1244.77 726.328C1243.22 726.57 1242.34 729.188 1242.81 732.174Z" fill="#1E2144"/>
<path d="M1253.17 725.31C1253.31 725.221 1253.42 725.089 1253.48 724.922C1253.64 724.508 1253.42 724.049 1253.01 723.892C1252.66 723.763 1244.46 720.802 1239.37 726.731C1239.09 727.067 1239.12 727.571 1239.46 727.86C1239.8 728.149 1240.3 728.108 1240.59 727.775C1244.96 722.682 1252.38 725.368 1252.45 725.395C1252.7 725.487 1252.97 725.446 1253.17 725.31Z" fill="#1E2144"/>
<path d="M1215.47 736.421C1215.94 739.404 1217.58 741.629 1219.13 741.39C1220.68 741.148 1221.56 738.53 1221.1 735.543C1220.63 732.554 1218.99 730.332 1217.44 730.571C1215.89 730.813 1215.01 733.431 1215.47 736.421Z" fill="#1E2144"/>
<path d="M1225 729.349C1225.13 729.254 1225.23 729.115 1225.29 728.948C1225.42 728.526 1225.19 728.074 1224.77 727.942C1224.42 727.83 1216.09 725.259 1211.28 731.423C1211.01 731.773 1211.07 732.273 1211.42 732.545C1211.77 732.82 1212.27 732.752 1212.55 732.409C1216.67 727.116 1224.21 729.441 1224.28 729.468C1224.53 729.55 1224.8 729.495 1225 729.349Z" fill="#1E2144"/>
<path d="M1367.22 921.212C1366.65 921.583 1365.87 921.46 1365.45 920.913C1365.24 920.641 1344.34 893.492 1335.99 880.679C1335.6 880.067 1335.77 879.251 1336.38 878.853C1336.99 878.455 1337.81 878.629 1338.21 879.237C1346.5 891.962 1367.33 919.03 1367.54 919.302C1367.99 919.876 1367.88 920.706 1367.3 921.151C1367.28 921.171 1367.25 921.195 1367.22 921.212Z" fill="#E38269"/>
<path d="M1345.75 893.223C1345.42 893.434 1345.01 893.502 1344.61 893.369L1334.68 890.079C1333.99 889.851 1333.61 889.103 1333.84 888.409C1334.07 887.719 1334.82 887.345 1335.51 887.573L1345.44 890.867C1346.13 891.095 1346.51 891.843 1346.28 892.533C1346.18 892.829 1345.99 893.067 1345.75 893.223Z" fill="#E38269"/>
<path d="M1414.75 968.377C1414.3 968.673 1413.69 968.669 1413.24 968.322C1406.37 963.121 1393.17 962.278 1393.03 962.268C1392.31 962.223 1391.75 961.598 1391.8 960.87C1391.84 960.143 1392.47 959.592 1393.19 959.633C1393.76 959.667 1407.33 960.537 1414.83 966.218C1415.41 966.66 1415.52 967.486 1415.08 968.067C1414.99 968.193 1414.88 968.295 1414.75 968.377Z" fill="#E38269"/>
<path d="M1413.88 958.971C1413.58 959.165 1413.2 959.24 1412.83 959.148C1412.6 959.09 1407.47 957.924 1401.7 963.027C1401.15 963.51 1400.32 963.459 1399.83 962.915C1399.35 962.368 1399.4 961.535 1399.95 961.052C1406.84 954.963 1413.22 956.52 1413.49 956.588C1414.19 956.772 1414.62 957.489 1414.43 958.196C1414.35 958.529 1414.14 958.798 1413.88 958.971Z" fill="#E38269"/>
<path d="M1307.26 980.637C1307.26 895.547 1238.29 826.567 1153.19 826.566C1068.11 826.566 999.131 895.546 999.131 980.637C999.131 1065.72 1068.11 1134.7 1153.19 1134.7C1238.29 1134.7 1307.26 1065.72 1307.26 980.637Z" fill="url(#paint2_linear_6024_22054)" stroke="#01C685" stroke-width="19.5817"/>
<path d="M1148.34 1069.53V891.517H1159.74V1069.53H1148.34ZM1181.23 948.468C1180.58 942.395 1177.85 937.666 1173.02 934.282C1168.25 930.898 1162.04 929.206 1154.39 929.206C1149.01 929.206 1144.4 930.017 1140.55 931.64C1136.7 933.262 1133.76 935.464 1131.72 938.246C1129.68 941.027 1128.64 944.203 1128.59 947.772C1128.59 950.739 1129.26 953.312 1130.61 955.491C1132 957.67 1133.87 959.524 1136.24 961.054C1138.6 962.537 1141.22 963.789 1144.1 964.809C1146.97 965.829 1149.87 966.686 1152.79 967.382L1166.14 970.72C1171.52 971.971 1176.69 973.663 1181.65 975.796C1186.65 977.928 1191.13 980.617 1195.07 983.862C1199.05 987.107 1202.21 991.024 1204.52 995.614C1206.84 1000.2 1208 1005.58 1208 1011.75C1208 1020.09 1205.87 1027.44 1201.6 1033.79C1197.34 1040.09 1191.17 1045.03 1183.11 1048.6C1175.09 1052.12 1165.37 1053.89 1153.97 1053.89C1142.89 1053.89 1133.27 1052.17 1125.11 1048.74C1117 1045.31 1110.65 1040.3 1106.06 1033.72C1101.52 1027.14 1099.06 1019.12 1098.69 1009.66H1124.07C1124.44 1014.62 1125.97 1018.75 1128.66 1022.04C1131.35 1025.33 1134.85 1027.79 1139.16 1029.41C1143.52 1031.03 1148.38 1031.84 1153.76 1031.84C1159.37 1031.84 1164.29 1031.01 1168.5 1029.34C1172.77 1027.62 1176.11 1025.26 1178.52 1022.25C1180.93 1019.19 1182.16 1015.62 1182.2 1011.54C1182.16 1007.83 1181.07 1004.77 1178.93 1002.36C1176.8 999.902 1173.81 997.862 1169.96 996.24C1166.16 994.571 1161.71 993.087 1156.61 991.789L1140.41 987.617C1128.68 984.604 1119.41 980.038 1112.6 973.918C1105.83 967.753 1102.44 959.57 1102.44 949.372C1102.44 940.981 1104.72 933.633 1109.26 927.328C1113.85 921.024 1120.08 916.133 1127.96 912.656C1135.84 909.133 1144.77 907.371 1154.74 907.371C1164.84 907.371 1173.7 909.133 1181.3 912.656C1188.95 916.133 1194.95 920.977 1199.31 927.189C1203.67 933.355 1205.92 940.448 1206.05 948.468H1181.23Z" fill="#18FFC6"/>
<path d="M1014.41 892.887C1014.41 892.887 1000.96 891.583 998.857 900.551C996.749 909.515 1010.59 926.283 1015.86 931.838C1021.12 937.394 1020.03 919.405 1015.65 912.707C1011.27 906.01 1012.8 901.973 1012.8 901.973L1014.41 892.887Z" fill="#FCB4A0"/>
<path d="M1004.34 921.448C1004.34 921.448 990.897 920.144 988.79 929.112C986.683 938.076 1000.53 954.844 1005.79 960.402C1011.05 965.955 1009.96 947.966 1005.59 941.268C1001.21 934.571 1002.73 930.534 1002.73 930.534L1004.34 921.448Z" fill="#FCB4A0"/>
<path d="M997.653 934.785C997.653 934.785 985.778 933.637 983.918 941.554C982.056 949.473 994.287 964.285 998.933 969.195C1003.58 974.103 1002.62 958.212 998.756 952.296C994.887 946.379 996.232 942.81 996.232 942.81L997.653 934.785Z" fill="#FCB4A0"/>
<path d="M1010.07 907.198C1010.07 907.198 996.624 905.894 994.517 914.862C992.41 923.826 1006.26 940.596 1011.52 946.149C1016.78 951.705 1015.69 933.716 1011.31 927.018C1006.93 920.321 1008.46 916.284 1008.46 916.284L1010.07 907.198Z" fill="#FCB4A0"/>
<path d="M1321.58 930.194C1322.08 930.398 1322.78 930.724 1323.4 931.007L1325.32 931.904L1329.2 933.702L1336.98 937.33C1342.16 939.754 1347.34 942.127 1352.49 944.455C1362.79 949.099 1373.06 953.509 1383.02 957.221C1385.52 958.135 1387.97 959.046 1390.41 959.849C1392.84 960.651 1395.24 961.392 1397.56 962.072C1399.88 962.738 1402.14 963.313 1404.27 963.758C1406.39 964.221 1408.39 964.567 1410.11 964.741C1411.82 964.921 1413.25 964.907 1414.03 964.839C1414.37 964.782 1414.64 964.737 1414.54 964.683C1414.55 964.676 1414.39 964.649 1414.26 964.673C1414.21 964.686 1414.03 964.683 1413.93 964.707C1413.86 964.717 1413.8 964.734 1413.75 964.748L1413.21 964.894C1412.36 965.159 1411.19 965.58 1410 966.223C1408.79 966.866 1407.43 967.763 1406.2 968.865C1404.94 969.966 1403.79 971.244 1402.87 972.556C1401.95 973.869 1401.28 975.11 1400.8 976.252C1400.32 977.353 1400.03 978.292 1399.85 979.06C1399.66 979.777 1399.57 980.396 1399.51 980.773C1399.41 981.593 1399.42 981.834 1399.37 981.739C1399.28 981.542 1399.03 980.236 1398.54 978.666C1398.04 977.061 1397.36 975.15 1396.52 973.111C1394.84 969.024 1392.73 964.469 1390.34 959.879C1387.97 955.266 1385.39 950.544 1382.65 945.812C1379.96 941.049 1377.06 936.303 1374.18 931.503C1368.32 921.94 1362.22 912.309 1356.01 902.691L1346.65 888.25L1337.42 873.958L1337.15 873.533C1328.7 860.438 1332.46 842.97 1345.55 834.519C1357.38 826.884 1372.77 829.222 1381.87 839.397L1383.51 841.23L1385.05 842.987L1388.09 846.496C1390.09 848.835 1392.05 851.194 1393.99 853.57C1397.87 858.323 1401.66 863.137 1405.36 868.039C1412.77 877.837 1419.93 887.886 1426.72 898.391C1430.15 903.623 1433.43 909.008 1436.68 914.508C1439.89 920.036 1443.03 925.707 1446.03 931.669C1448.99 937.666 1451.89 943.871 1454.48 950.853C1455.77 954.345 1457 958.057 1458.1 962.16C1459.18 966.305 1460.18 970.823 1460.61 976.534C1460.82 979.393 1460.88 982.609 1460.5 986.383C1460.32 988.239 1459.99 990.323 1459.49 992.488C1458.97 994.701 1458.25 997.061 1457.22 999.536C1456.15 1002.04 1454.8 1004.61 1453.04 1007.14C1451.27 1009.66 1449.15 1012.07 1446.78 1014.17C1444.43 1016.24 1441.87 1018.02 1439.36 1019.37C1436.86 1020.71 1434.34 1021.74 1432.07 1022.44L1431.2 1022.71L1430.78 1022.83L1430.47 1022.91L1429.21 1023.23C1428.39 1023.43 1427.5 1023.66 1426.72 1023.79L1424.34 1024.21C1423.52 1024.35 1422.82 1024.41 1422.06 1024.5C1419.01 1024.85 1416.31 1024.89 1413.69 1024.85C1408.54 1024.73 1404.06 1024.05 1399.92 1023.22C1391.69 1021.53 1384.75 1019.11 1378.21 1016.47C1371.68 1013.84 1365.66 1010.88 1359.84 1007.82C1348.25 1001.64 1337.61 994.79 1327.4 987.505C1322.31 983.867 1317.35 980.08 1312.49 976.184C1310.07 974.226 1307.68 972.237 1305.31 970.201C1304.12 969.181 1302.95 968.134 1301.77 967.09L1300 965.502L1298.15 963.803C1289.77 956.085 1289.23 943.034 1296.94 934.651C1302.92 928.154 1312.11 926.366 1319.84 929.484L1321.58 930.194Z" fill="#FCB4A0"/>
<path d="M1321.28 929.854C1321.28 929.854 1318.94 927.498 1315.78 924.779C1312.73 922.154 1308.93 919.193 1305.79 917.711C1304.49 917.095 1305.06 917.146 1303.83 916.963C1301.61 920.798 1298.73 925.17 1295.31 930.313C1294.8 931.078 1294.76 931.19 1293.94 930.935C1290.88 929.987 1289.62 928.508 1286.21 926.587C1283.91 925.03 1279.77 922.552 1274.53 920.798C1266.34 918.058 1257.57 920.213 1252.95 920.247C1248.33 920.278 1251.42 927.291 1258.49 929.14C1265.55 930.986 1270.81 933.607 1273.21 935.134C1273.21 935.134 1264.82 932.295 1258.87 932.475C1256.35 932.55 1252.74 932.424 1249.29 932.54C1247.61 932.601 1245.96 932.723 1244.5 932.948C1241.83 933.369 1239.76 934.161 1239.16 935.651C1238.15 938.173 1242.2 939.757 1247.09 941.148C1249.06 941.719 1251.17 942.249 1253.14 942.807C1253.97 943.041 1254.78 943.272 1255.54 943.521C1262.56 945.778 1266.14 945.815 1271.44 948.912C1271.44 948.912 1264.2 947.529 1259.82 948.375C1259.08 948.521 1258.23 948.668 1257.31 948.824C1255.66 949.116 1253.79 949.429 1251.97 949.783C1248.81 950.391 1245.77 951.115 1244.19 952.009C1241.19 953.716 1247.32 959.111 1254.92 959.54C1257.65 959.692 1260.05 959.458 1262.18 959.23C1264.41 958.996 1266.34 958.775 1268.02 959.009C1268.23 959.043 1268.43 959.074 1268.63 959.111C1269.59 959.329 1270.47 959.726 1271.28 960.389C1271.28 960.389 1269.18 960.784 1266.65 961.389C1266.64 961.392 1266.63 961.396 1266.62 961.396C1266.48 961.43 1266.33 961.46 1266.19 961.498C1264.6 961.882 1262.87 962.341 1261.43 962.83C1258.93 963.667 1254.82 966.665 1252.71 969.511C1251.48 971.156 1250.93 972.757 1251.78 973.845C1252.71 975.042 1255.5 974.96 1258.9 974.566C1263.95 973.978 1270.33 972.686 1273.91 973.794C1279.9 975.654 1290.81 978.601 1306.48 981.559C1319.1 983.945 1331.18 972.92 1335.4 968.548C1335.41 968.538 1335.42 968.525 1335.43 968.518C1336.47 967.45 1337.12 966.07 1337.31 964.595C1339.07 950.568 1334.95 938.567 1321.28 929.854Z" fill="#FCB4A0"/>
</g>
<defs>
<linearGradient id="paint0_linear_6024_22054" x1="960" y1="0" x2="960" y2="1080" gradientUnits="userSpaceOnUse">
<stop stop-color="#0F0F0F"/>
<stop offset="1" stop-color="#005433"/>
</linearGradient>
<linearGradient id="paint1_linear_6024_22054" x1="804.314" y1="1186.24" x2="804.314" y2="858.52" gradientUnits="userSpaceOnUse">
<stop stop-color="#FFB52C"/>
<stop offset="1" stop-color="#D88C00"/>
</linearGradient>
<linearGradient id="paint2_linear_6024_22054" x1="1153.2" y1="816.776" x2="1153.2" y2="1144.49" gradientUnits="userSpaceOnUse">
<stop stop-color="#00A466"/>
<stop offset="1" stop-color="#017D4F"/>
</linearGradient>
<clipPath id="clip0_6024_22054">
<rect width="1920" height="1080" fill="white"/>
</clipPath>
</defs>
</svg>
