<svg width="40" height="40" viewBox="0 0 40 40" fill="none" xmlns="http://www.w3.org/2000/svg">
<rect width="20" height="20" fill="#D1D8E1"/>
<rect width="10" height="20" fill="#1E1E1E"/>
<rect width="10" height="20" fill="#1E1E1E"/>
<rect x="20" width="20" height="20" fill="#23A25D"/>
<path d="M20 -1.90735e-06C22.6264 -1.90735e-06 25.2272 0.517313 27.6537 1.52241C30.0802 2.5275 32.285 4.00069 34.1421 5.85786C35.9993 7.71503 37.4725 9.91982 38.4776 12.3463C39.4827 14.7728 40 17.3736 40 20L20 20L20 -1.90735e-06Z" fill="#D1D8E1"/>
<rect x="20" y="40" width="20" height="20" transform="rotate(-90 20 40)" fill="#1E1E1E"/>
<path fill-rule="evenodd" clip-rule="evenodd" d="M37.8786 20H39.2929L20 39.2929V37.8786L37.8786 20ZM22.1213 40H20.7071L40 20.7071V22.1213L22.1213 40ZM23.5355 40H24.9497L40 24.9497V23.5355L23.5355 40ZM27.7781 40H26.364L40 26.364V27.7781L27.7781 40ZM29.1923 40H30.6066L40 30.6066V29.1923L29.1923 40ZM33.4351 40H32.0208L40 32.0208V33.4351L33.4351 40ZM34.8493 40H36.2634L40 36.2634V34.8493L34.8493 40ZM39.0919 40H37.6777L40 37.6777V39.0919L39.0919 40ZM36.4644 20H35.0503L20 35.0503V36.4644L36.4644 20ZM32.2218 20H33.6361L20 33.6361V32.2218L32.2218 20ZM30.8076 20H29.3934L20 29.3934V30.8076L30.8076 20ZM26.565 20H27.9792L20 27.9792V26.565L26.565 20ZM25.1507 20H23.7366L20 23.7366V25.1507L25.1507 20ZM20.9081 20H22.3224L20 22.3224V20.9081L20.9081 20Z" fill="#23A25D"/>
<rect y="40" width="20" height="20" transform="rotate(-90 0 40)" fill="#23A25D"/>
<path d="M-1.90735e-06 40C-1.90735e-06 37.3736 0.517313 34.7728 1.52241 32.3463C2.5275 29.9198 4.00069 27.715 5.85786 25.8579C7.71503 24.0007 9.91982 22.5275 12.3463 21.5224C14.7728 20.5173 17.3736 20 20 20L20 40H-1.90735e-06Z" fill="#1E1E1E"/>
</svg>
