<svg width="40" height="40" viewBox="0 0 40 40" fill="none" xmlns="http://www.w3.org/2000/svg">
<rect x="40" y="20" width="20" height="20" transform="rotate(90 40 20)" fill="#23A25D"/>
<path d="M20 20V40L40 20H20Z" fill="#1E1E1E"/>
<rect x="40" width="20" height="20" transform="rotate(90 40 0)" fill="#23A25D"/>
<path d="M20 0V20L40 0L20 0Z" fill="#1E1E1E"/>
<rect width="20" height="20" fill="#D1D8E1"/>
<path d="M0 -1.90735e-06C2.62644 -1.90735e-06 5.22716 0.517313 7.65367 1.52241C10.0802 2.5275 12.285 4.00069 14.1421 5.85786C15.9993 7.71503 17.4725 9.91982 18.4776 12.3463C19.4827 14.7728 20 17.3736 20 20L0 20L0 -1.90735e-06Z" fill="#23A25D"/>
<rect y="40" width="20" height="20" transform="rotate(-90 0 40)" fill="#1E1E1E"/>
<path fill-rule="evenodd" clip-rule="evenodd" d="M17.8786 20H19.2929L0 39.2929V37.8786L17.8786 20ZM2.12128 40H0.707122L20 20.7071V22.1213L2.12128 40ZM3.53549 40H4.94974L20 24.9497V23.5355L3.53549 40ZM7.77812 40H6.36396L20 26.364V27.7781L7.77812 40ZM9.19234 40H10.6066L20 30.6066V29.1923L9.19234 40ZM13.4351 40H12.0208L20 32.0208V33.4351L13.4351 40ZM14.8493 40H16.2634L20 36.2634V34.8493L14.8493 40ZM19.0919 40H17.6777L20 37.6777V39.0919L19.0919 40ZM16.4644 20H15.0503L0 35.0503V36.4644L16.4644 20ZM12.2218 20H13.6361L0 33.6361V32.2218L12.2218 20ZM10.8076 20H9.39342L0 29.3934V30.8076L10.8076 20ZM6.56496 20H7.97921L0 27.9792V26.565L6.56496 20ZM5.15074 20H3.73658L0 23.7366V25.1507L5.15074 20ZM0.908122 20H2.32236L0 22.3224V20.9081L0.908122 20Z" fill="#929BAE"/>
</svg>
