<svg width="40" height="40" viewBox="0 0 40 40" fill="none" xmlns="http://www.w3.org/2000/svg">
<rect x="20" width="20" height="20" transform="rotate(90 20 0)" fill="#FFFDEE"/>
<path d="M0 0V20L20 0L0 0Z" fill="#1E1E1E"/>
<rect x="40" y="20" width="20" height="20" transform="rotate(90 40 20)" fill="#23A25D"/>
<circle cx="7.5" cy="7.5" r="7.5" transform="matrix(1 0 0 -1 22.5 37.5)" fill="#FFFDEE"/>
<rect width="20" height="20" transform="matrix(0 1 1 0 0 20)" fill="#929BAE"/>
<circle cx="1.60078" cy="21.5998" r="0.3" fill="#1E1E1E"/>
<circle cx="3.70234" cy="21.5998" r="0.3" fill="#1E1E1E"/>
<circle cx="5.8" cy="21.5998" r="0.3" fill="#1E1E1E"/>
<circle cx="7.90156" cy="21.5998" r="0.3" fill="#1E1E1E"/>
<circle cx="9.99922" cy="21.5998" r="0.3" fill="#1E1E1E"/>
<circle cx="12.1008" cy="21.5998" r="0.3" fill="#1E1E1E"/>
<circle cx="14.2023" cy="21.5998" r="0.3" fill="#1E1E1E"/>
<circle cx="16.3" cy="21.5998" r="0.3" fill="#1E1E1E"/>
<circle cx="18.4016" cy="21.5998" r="0.3" fill="#1E1E1E"/>
<circle cx="1.60078" cy="23.6999" r="0.3" fill="#1E1E1E"/>
<circle cx="3.70234" cy="23.6999" r="0.3" fill="#1E1E1E"/>
<circle cx="5.8" cy="23.6999" r="0.3" fill="#1E1E1E"/>
<circle cx="7.90156" cy="23.6999" r="0.3" fill="#1E1E1E"/>
<circle cx="9.99922" cy="23.6999" r="0.3" fill="#1E1E1E"/>
<circle cx="12.1008" cy="23.6999" r="0.3" fill="#1E1E1E"/>
<circle cx="14.2023" cy="23.6999" r="0.3" fill="#1E1E1E"/>
<circle cx="16.3" cy="23.6999" r="0.3" fill="#1E1E1E"/>
<circle cx="18.4016" cy="23.6999" r="0.3" fill="#1E1E1E"/>
<circle cx="1.60078" cy="25.8" r="0.3" fill="#1E1E1E"/>
<circle cx="3.70234" cy="25.8" r="0.3" fill="#1E1E1E"/>
<circle cx="5.8" cy="25.8" r="0.3" fill="#1E1E1E"/>
<circle cx="7.90156" cy="25.8" r="0.3" fill="#1E1E1E"/>
<circle cx="9.99922" cy="25.8" r="0.3" fill="#1E1E1E"/>
<circle cx="12.1008" cy="25.8" r="0.3" fill="#1E1E1E"/>
<circle cx="14.2023" cy="25.8" r="0.3" fill="#1E1E1E"/>
<circle cx="16.3" cy="25.8" r="0.3" fill="#1E1E1E"/>
<circle cx="18.4016" cy="25.8" r="0.3" fill="#1E1E1E"/>
<circle cx="1.60078" cy="27.8996" r="0.3" fill="#1E1E1E"/>
<circle cx="3.70234" cy="27.8996" r="0.3" fill="#1E1E1E"/>
<circle cx="5.8" cy="27.8996" r="0.3" fill="#1E1E1E"/>
<circle cx="7.90156" cy="27.8996" r="0.3" fill="#1E1E1E"/>
<circle cx="9.99922" cy="27.8996" r="0.3" fill="#1E1E1E"/>
<circle cx="12.1008" cy="27.8996" r="0.3" fill="#1E1E1E"/>
<circle cx="14.2023" cy="27.8996" r="0.3" fill="#1E1E1E"/>
<circle cx="16.3" cy="27.8996" r="0.3" fill="#1E1E1E"/>
<circle cx="18.4016" cy="27.8996" r="0.3" fill="#1E1E1E"/>
<circle cx="1.60078" cy="29.9997" r="0.3" fill="#1E1E1E"/>
<circle cx="3.70234" cy="29.9997" r="0.3" fill="#1E1E1E"/>
<circle cx="5.8" cy="29.9997" r="0.3" fill="#1E1E1E"/>
<circle cx="7.90156" cy="29.9997" r="0.3" fill="#1E1E1E"/>
<circle cx="9.99922" cy="29.9997" r="0.3" fill="#1E1E1E"/>
<circle cx="12.1008" cy="29.9997" r="0.3" fill="#1E1E1E"/>
<circle cx="14.2023" cy="29.9997" r="0.3" fill="#1E1E1E"/>
<circle cx="16.3" cy="29.9997" r="0.3" fill="#1E1E1E"/>
<circle cx="18.4016" cy="29.9997" r="0.3" fill="#1E1E1E"/>
<circle cx="1.60078" cy="32.0998" r="0.3" fill="#1E1E1E"/>
<circle cx="3.70234" cy="32.0998" r="0.3" fill="#1E1E1E"/>
<circle cx="5.8" cy="32.0998" r="0.3" fill="#1E1E1E"/>
<circle cx="7.90156" cy="32.0998" r="0.3" fill="#1E1E1E"/>
<circle cx="9.99922" cy="32.0998" r="0.3" fill="#1E1E1E"/>
<circle cx="12.1008" cy="32.0998" r="0.3" fill="#1E1E1E"/>
<circle cx="14.2023" cy="32.0998" r="0.3" fill="#1E1E1E"/>
<circle cx="16.3" cy="32.0998" r="0.3" fill="#1E1E1E"/>
<circle cx="18.4016" cy="32.0998" r="0.3" fill="#1E1E1E"/>
<circle cx="1.60078" cy="34.1999" r="0.3" fill="#1E1E1E"/>
<circle cx="3.70234" cy="34.1999" r="0.3" fill="#1E1E1E"/>
<circle cx="5.8" cy="34.1999" r="0.3" fill="#1E1E1E"/>
<circle cx="7.90156" cy="34.1999" r="0.3" fill="#1E1E1E"/>
<circle cx="9.99922" cy="34.1999" r="0.3" fill="#1E1E1E"/>
<circle cx="12.1008" cy="34.1999" r="0.3" fill="#1E1E1E"/>
<circle cx="14.2023" cy="34.1999" r="0.3" fill="#1E1E1E"/>
<circle cx="16.3" cy="34.1999" r="0.3" fill="#1E1E1E"/>
<circle cx="18.4016" cy="34.1999" r="0.3" fill="#1E1E1E"/>
<circle cx="1.60078" cy="36.3" r="0.3" fill="#1E1E1E"/>
<circle cx="3.70234" cy="36.3" r="0.3" fill="#1E1E1E"/>
<circle cx="5.8" cy="36.3" r="0.3" fill="#1E1E1E"/>
<circle cx="7.90156" cy="36.3" r="0.3" fill="#1E1E1E"/>
<circle cx="9.99922" cy="36.3" r="0.3" fill="#1E1E1E"/>
<circle cx="12.1008" cy="36.3" r="0.3" fill="#1E1E1E"/>
<circle cx="14.2023" cy="36.3" r="0.3" fill="#1E1E1E"/>
<circle cx="16.3" cy="36.3" r="0.3" fill="#1E1E1E"/>
<circle cx="18.4016" cy="36.3" r="0.3" fill="#1E1E1E"/>
<circle cx="1.60078" cy="38.3996" r="0.3" fill="#1E1E1E"/>
<circle cx="3.70234" cy="38.3996" r="0.3" fill="#1E1E1E"/>
<circle cx="5.8" cy="38.3996" r="0.3" fill="#1E1E1E"/>
<circle cx="7.90156" cy="38.3996" r="0.3" fill="#1E1E1E"/>
<circle cx="9.99922" cy="38.3996" r="0.3" fill="#1E1E1E"/>
<circle cx="12.1008" cy="38.3996" r="0.3" fill="#1E1E1E"/>
<circle cx="14.2023" cy="38.3996" r="0.3" fill="#1E1E1E"/>
<circle cx="16.3" cy="38.3996" r="0.3" fill="#1E1E1E"/>
<circle cx="18.4016" cy="38.3996" r="0.3" fill="#1E1E1E"/>
<rect width="20" height="20" transform="matrix(1 0 0 -1 20 20)" fill="#23A25D"/>
</svg>
