<svg width="40" height="40" viewBox="0 0 40 40" fill="none" xmlns="http://www.w3.org/2000/svg">
<rect x="40" y="20" width="20" height="20" transform="rotate(90 40 20)" fill="#23A25D"/>
<path d="M40 20C40 22.6264 39.4827 25.2272 38.4776 27.6537C37.4725 30.0802 35.9993 32.285 34.1421 34.1421C32.285 35.9993 30.0802 37.4725 27.6537 38.4776C25.2272 39.4827 22.6264 40 20 40L20 20H40Z" fill="#929BAE"/>
<rect width="20" height="20" transform="matrix(0 1 1 0 0 20)" fill="#23A25D"/>
<path d="M0 20C0 22.6264 0.517315 25.2272 1.52241 27.6537C2.5275 30.0802 4.00069 32.285 5.85786 34.1421C7.71504 35.9993 9.91982 37.4725 12.3463 38.4776C14.7728 39.4827 17.3736 40 20 40L20 20H0Z" fill="#1E1E1E"/>
<rect x="20" y="20" width="20" height="20" transform="rotate(-90 20 20)" fill="#1E1E1E"/>
<path fill-rule="evenodd" clip-rule="evenodd" d="M37.8787 0H39.2929L20 19.2929V17.8786L37.8787 0ZM22.1213 20H20.7071L40 0.707125V2.12128L22.1213 20ZM23.5355 20H24.9498L40 4.94976V3.53549L23.5355 20ZM27.7781 20H26.364L40 6.36397V7.77813L27.7781 20ZM29.1923 20H30.6066L40 10.6066V9.19234L29.1923 20ZM33.4351 20H32.0208L40 12.0208V13.4351L33.4351 20ZM34.8493 20H36.2634L40 16.2634V14.8493L34.8493 20ZM39.0919 20H37.6777L40 17.6777V19.0919L39.0919 20ZM36.4644 0H35.0503L20 15.0503V16.4644L36.4644 0ZM32.2218 0H33.6361L20 13.6361V12.2218L32.2218 0ZM30.8076 0H29.3934L20 9.39343V10.8076L30.8076 0ZM26.565 0H27.9792L20 7.97922V6.56496L26.565 0ZM25.1507 0H23.7366L20 3.73659V5.15075L25.1507 0ZM20.9081 0H22.3224L20 2.32238V0.908114L20.9081 0Z" fill="#929BAE"/>
<rect y="20" width="20" height="20" transform="rotate(-90 0 20)" fill="#23A25D"/>
<path d="M0 20C0 17.3736 0.517315 14.7728 1.52241 12.3463C2.5275 9.91982 4.00069 7.71503 5.85786 5.85786C7.71504 4.00069 9.91982 2.5275 12.3463 1.52241C14.7728 0.517315 17.3736 -1.14805e-07 20 0L20 20H0Z" fill="#1E1E1E"/>
</svg>
