<svg width="20" height="20" viewBox="0 0 20 20" fill="none" xmlns="http://www.w3.org/2000/svg">
<path d="M3.72516 9.51664L2.27517 8.06665L0.833496 9.51664" stroke="#121212" stroke-width="1.5" stroke-linecap="round" stroke-linejoin="round"/>
<path d="M16.2749 10.4834L17.7249 11.9334L19.1749 10.4834" stroke="#121212" stroke-width="1.5" stroke-linecap="round" stroke-linejoin="round"/>
<path d="M17.7168 11.9332V9.99988C17.7168 5.73321 14.2584 2.2832 10.0001 2.2832C7.56677 2.2832 5.39176 3.41656 3.9751 5.1749" stroke="#121212" stroke-width="1.5" stroke-linecap="round" stroke-linejoin="round"/>
<path d="M2.2832 8.06665V9.99999C2.2832 14.2667 5.74154 17.7167 9.99987 17.7167C12.4332 17.7167 14.6082 16.5833 16.0249 14.825" stroke="#121212" stroke-width="1.5" stroke-linecap="round" stroke-linejoin="round"/>
<path d="M7.5 7.08325H11.15C11.9583 7.08325 12.6083 7.81659 12.6083 8.54159C12.6083 9.34992 11.9583 9.99992 11.15 9.99992H7.5V7.08325Z" stroke="#121212" stroke-width="1.5" stroke-miterlimit="10" stroke-linecap="round" stroke-linejoin="round"/>
<path d="M7.5 10H11.6667C12.5833 10 13.3333 10.65 13.3333 11.4583C13.3333 12.2667 12.5833 12.9167 11.6667 12.9167H7.5V10Z" stroke="#121212" stroke-width="1.5" stroke-miterlimit="10" stroke-linecap="round" stroke-linejoin="round"/>
<path d="M9.8335 12.9167V14.3751" stroke="#121212" stroke-width="1.5" stroke-miterlimit="10" stroke-linecap="round" stroke-linejoin="round"/>
<path d="M9.8335 5.625V7.08333" stroke="#121212" stroke-width="1.5" stroke-miterlimit="10" stroke-linecap="round" stroke-linejoin="round"/>
</svg>
