<svg width="1920" height="1080" viewBox="0 0 1920 1080" fill="none" xmlns="http://www.w3.org/2000/svg">
<g clip-path="url(#clip0_5082_11073)">
<rect width="1920" height="1080" fill="#3AD07F"/>
<g clip-path="url(#clip1_5082_11073)">
<path d="M1974 -11H0V1100H1974V-11Z" fill="url(#paint0_radial_5082_11073)"/>
</g>
<g clip-path="url(#clip2_5082_11073)">
<rect width="1920" height="457" fill="url(#paint1_linear_5082_11073)"/>
<path d="M684.843 271.549H642.346V161.1H684.412C695.773 161.1 705.588 163.311 713.858 167.733C722.163 172.119 728.563 178.447 733.057 186.717C737.587 194.95 739.852 204.819 739.852 216.324C739.852 227.829 737.605 237.717 733.111 245.986C728.617 254.219 722.253 260.547 714.019 264.969C705.786 269.356 696.061 271.549 684.843 271.549ZM672.331 246.094H683.765C689.23 246.094 693.886 245.213 697.733 243.451C701.616 241.689 704.564 238.651 706.577 234.337C708.626 230.023 709.651 224.018 709.651 216.324C709.651 208.63 708.608 202.626 706.523 198.312C704.474 193.997 701.454 190.959 697.463 189.197C693.508 187.436 688.654 186.555 682.902 186.555H672.331V246.094ZM931.128 271.549H898.77L935.227 161.1H976.214L1012.67 271.549H980.313L956.152 191.516H955.289L931.128 271.549ZM925.088 227.973H985.921V250.408H925.088V227.973ZM1279.02 216.324C1279.02 228.62 1276.63 238.993 1271.85 247.442C1267.06 255.855 1260.61 262.237 1252.48 266.587C1244.36 270.902 1235.3 273.059 1225.3 273.059C1215.24 273.059 1206.14 270.884 1198.01 266.533C1189.93 262.147 1183.49 255.747 1178.71 247.334C1173.96 238.885 1171.59 228.548 1171.59 216.324C1171.59 204.028 1173.96 193.674 1178.71 185.26C1183.49 176.811 1189.93 170.43 1198.01 166.115C1206.14 161.765 1215.24 159.59 1225.3 159.59C1235.3 159.59 1244.36 161.765 1252.48 166.115C1260.61 170.43 1267.06 176.811 1271.85 185.26C1276.63 193.674 1279.02 204.028 1279.02 216.324ZM1248.17 216.324C1248.17 209.709 1247.29 204.136 1245.53 199.606C1243.8 195.04 1241.23 191.588 1237.82 189.251C1234.44 186.878 1230.26 185.692 1225.3 185.692C1220.34 185.692 1216.15 186.878 1212.74 189.251C1209.36 191.588 1206.79 195.04 1205.03 199.606C1203.3 204.136 1202.44 209.709 1202.44 216.324C1202.44 222.94 1203.3 228.53 1205.03 233.097C1206.79 237.627 1209.36 241.078 1212.74 243.451C1216.15 245.788 1220.34 246.957 1225.3 246.957C1230.26 246.957 1234.44 245.788 1237.82 243.451C1241.23 241.078 1243.8 237.627 1245.53 233.097C1247.29 228.53 1248.17 222.94 1248.17 216.324Z" fill="white"/>
<g opacity="0.1">
<rect width="178" height="64" transform="translate(-109 101)" fill="white"/>
<rect width="95" height="64" transform="translate(79 101)" fill="white"/>
<rect width="172" height="64" transform="translate(184 101)" fill="white"/>
<rect width="172" height="64" transform="translate(366 101)" fill="white"/>
</g>
<g opacity="0.1">
<rect width="178" height="64" transform="translate(1601 101)" fill="white"/>
<rect width="95" height="64" transform="translate(1789 101)" fill="white"/>
<rect width="172" height="64" transform="translate(1894 101)" fill="white"/>
</g>
<g opacity="0.1">
<rect width="127" height="64" transform="translate(713 101)" fill="white"/>
<rect width="68" height="64" transform="translate(850 101)" fill="white"/>
<rect width="122" height="64" transform="translate(928 101)" fill="white"/>
<rect width="123" height="64" transform="translate(1060 101)" fill="white"/>
</g>
<g opacity="0.1">
<rect width="127" height="64" transform="translate(675 185)" fill="white"/>
<rect width="68" height="64" transform="translate(812 185)" fill="white"/>
<rect width="122" height="64" transform="translate(890 185)" fill="white"/>
<rect width="123" height="64" transform="translate(1022 185)" fill="white"/>
</g>
<g opacity="0.1">
<rect width="127" height="64" transform="translate(730 269)" fill="white"/>
<rect width="68" height="64" transform="translate(867 269)" fill="white"/>
<rect width="122" height="64" transform="translate(945 269)" fill="white"/>
<rect width="123" height="64" transform="translate(1077 269)" fill="white"/>
</g>
<g opacity="0.1">
<rect width="178" height="64" transform="translate(-109 269)" fill="white"/>
<rect width="95" height="64" transform="translate(79 269)" fill="white"/>
<rect width="172" height="64" transform="translate(184 269)" fill="white"/>
<rect width="172" height="64" transform="translate(366 269)" fill="white"/>
</g>
<g opacity="0.1">
<rect width="178" height="64" transform="translate(1601 269)" fill="white"/>
<rect width="95" height="64" transform="translate(1789 269)" fill="white"/>
<rect width="172" height="64" transform="translate(1894 269)" fill="white"/>
</g>
<g opacity="0.1">
<rect width="95" height="64" transform="translate(9 185)" fill="white"/>
<rect width="172" height="64" transform="translate(114 185)" fill="white"/>
<rect width="172" height="64" transform="translate(296 185)" fill="white"/>
</g>
<g opacity="0.1">
<rect width="178" height="64" transform="translate(1531 185)" fill="white"/>
<rect width="95" height="64" transform="translate(1719 185)" fill="white"/>
<rect width="172" height="64" transform="translate(1824 185)" fill="white"/>
</g>
</g>
<rect width="1178" height="219" transform="translate(368 342)" fill="white"/>
<rect width="235" height="179" transform="translate(388 362)" fill="url(#paint2_linear_5082_11073)"/>
<rect width="155" height="99" transform="translate(428 402)" fill="#3AD07F"/>
<rect width="431.5" height="179" transform="translate(643 362)" fill="url(#paint3_linear_5082_11073)"/>
<rect width="351.5" height="99" transform="translate(683 402)" fill="#3AD07F"/>
<rect width="431.5" height="179" transform="translate(1094.5 362)" fill="url(#paint4_linear_5082_11073)"/>
<rect width="351.5" height="99" transform="translate(1134.5 402)" fill="#3AD07F"/>
<rect width="1178" height="219" transform="translate(368 750)" fill="white"/>
<rect width="235" height="179" transform="translate(388 770)" fill="url(#paint5_linear_5082_11073)"/>
<rect width="155" height="99" transform="translate(428 810)" fill="#3AD07F"/>
<rect width="431.5" height="179" transform="translate(643 770)" fill="url(#paint6_linear_5082_11073)"/>
<rect width="351.5" height="99" transform="translate(683 810)" fill="#3AD07F"/>
<rect width="431.5" height="179" transform="translate(1094.5 770)" fill="url(#paint7_linear_5082_11073)"/>
<rect width="351.5" height="99" transform="translate(1134.5 810)" fill="#3AD07F"/>
<rect width="1281" height="219" transform="translate(265 548)" fill="white"/>
<rect width="235" height="179" transform="translate(285 568)" fill="white"/>
<rect width="155" height="99" transform="translate(325 608)" fill="url(#paint8_linear_5082_11073)"/>
<rect width="483" height="179" transform="translate(540 568)" fill="white"/>
<rect width="403" height="99" transform="translate(580 608)" fill="url(#paint9_linear_5082_11073)"/>
<rect width="483" height="179" transform="translate(1043 568)" fill="white"/>
<rect width="403" height="99" transform="translate(1083 608)" fill="url(#paint10_linear_5082_11073)"/>
<g opacity="0.5">
<rect width="286" height="585" transform="translate(1140 368)" fill="url(#paint11_linear_5082_11073)"/>
</g>
<path d="M1710 919.616C1710 961.334 1614.19 995.154 1496 995.154C1377.81 995.154 1282 961.334 1282 919.616C1282 879.011 1282 763.104 1282 763.104C1282 763.104 1412.31 714.738 1496 714.738C1574.29 714.738 1710 763.104 1710 763.104C1710 763.104 1710 905.532 1710 919.616Z" fill="url(#paint12_linear_5082_11073)"/>
<ellipse cx="1496" cy="768.539" rx="214" ry="75.5385" fill="url(#paint13_linear_5082_11073)"/>
<path d="M1710 736.616C1710 778.334 1614.19 812.154 1496 812.154C1377.81 812.154 1282 778.334 1282 736.616C1282 696.011 1282 580.104 1282 580.104C1282 580.104 1412.31 531.738 1496 531.738C1574.29 531.738 1710 580.104 1710 580.104C1710 580.104 1710 722.532 1710 736.616Z" fill="url(#paint14_linear_5082_11073)"/>
<ellipse cx="1496" cy="585.539" rx="214" ry="75.5385" fill="url(#paint15_linear_5082_11073)"/>
<path d="M1710 546.616C1710 588.334 1614.19 622.154 1496 622.154C1377.81 622.154 1282 588.334 1282 546.616C1282 506.011 1282 390.104 1282 390.104C1282 390.104 1412.31 341.738 1496 341.738C1574.29 341.738 1710 390.104 1710 390.104C1710 390.104 1710 532.532 1710 546.616Z" fill="url(#paint16_linear_5082_11073)"/>
<ellipse cx="1496" cy="395.539" rx="214" ry="75.5385" fill="url(#paint17_linear_5082_11073)"/>
<circle cx="103.5" cy="1055.5" r="195.5" fill="url(#paint18_linear_5082_11073)"/>
<circle cx="229.5" cy="1164.5" r="195.5" fill="url(#paint19_linear_5082_11073)"/>
<path d="M49.0329 281.212C-54.1474 302.308 -68.9628 401.544 -63.473 448.526L-246 -66.0015L425.001 -274C401.403 -202.647 345.902 -33.7057 312.684 71.235C271.161 202.411 178.008 254.843 49.0329 281.212Z" fill="url(#paint20_linear_5082_11073)" fill-opacity="0.9"/>
<path d="M1664.52 -142.654C1647.44 -246.575 1548.85 -265.228 1501.7 -261.564L2022.91 -424L2204.73 254.563C2134.35 228.215 1967.69 166.204 1864.11 128.941C1734.65 82.3627 1685.87 -12.7532 1664.52 -142.654Z" fill="url(#paint21_linear_5082_11073)" fill-opacity="0.9"/>
<g clip-path="url(#clip3_5082_11073)">
<path d="M1840.1 962.215C1905.95 1004.53 1947.9 1067.05 1957.68 1127.59C1898.6 1143.78 1824.35 1131.59 1758.49 1089.27C1692.64 1046.95 1650.75 984.428 1640.91 923.895C1699.99 907.703 1774.24 919.895 1840.1 962.215Z" fill="url(#paint22_linear_5082_11073)"/>
<path d="M1918.8 875.386C1958.38 942.953 1967.52 1017.69 1948.97 1076.1C1888.96 1063.83 1828.24 1019.33 1788.67 951.76C1749.03 884.193 1739.89 809.454 1758.44 751.048C1818.45 763.315 1879.16 807.819 1918.74 875.386L1918.8 875.386Z" fill="url(#paint23_linear_5082_11073)"/>
</g>
</g>
<defs>
<radialGradient id="paint0_radial_5082_11073" cx="0" cy="0" r="1" gradientUnits="userSpaceOnUse" gradientTransform="translate(0 544.5) scale(1788.69 1780.92)">
<stop offset="0.01" stop-color="#00784D"/>
<stop offset="0.2" stop-color="#007249"/>
<stop offset="0.46" stop-color="#005135"/>
<stop offset="0.57" stop-color="#003927"/>
<stop offset="0.8" stop-color="#002A1E"/>
<stop offset="1" stop-color="#00261C"/>
</radialGradient>
<linearGradient id="paint1_linear_5082_11073" x1="0" y1="228.5" x2="1920" y2="228.5" gradientUnits="userSpaceOnUse">
<stop stop-color="#05110A"/>
<stop offset="1" stop-color="#237746"/>
</linearGradient>
<linearGradient id="paint2_linear_5082_11073" x1="117.5" y1="0" x2="117.5" y2="179" gradientUnits="userSpaceOnUse">
<stop stop-color="#01B682"/>
<stop offset="1" stop-color="#005039"/>
</linearGradient>
<linearGradient id="paint3_linear_5082_11073" x1="215.75" y1="0" x2="215.75" y2="179" gradientUnits="userSpaceOnUse">
<stop stop-color="#01B682"/>
<stop offset="1" stop-color="#005039"/>
</linearGradient>
<linearGradient id="paint4_linear_5082_11073" x1="215.75" y1="0" x2="215.75" y2="179" gradientUnits="userSpaceOnUse">
<stop stop-color="#01B682"/>
<stop offset="1" stop-color="#005039"/>
</linearGradient>
<linearGradient id="paint5_linear_5082_11073" x1="117.5" y1="0" x2="117.5" y2="179" gradientUnits="userSpaceOnUse">
<stop stop-color="#01B682"/>
<stop offset="1" stop-color="#005039"/>
</linearGradient>
<linearGradient id="paint6_linear_5082_11073" x1="215.75" y1="0" x2="215.75" y2="179" gradientUnits="userSpaceOnUse">
<stop stop-color="#01B682"/>
<stop offset="1" stop-color="#005039"/>
</linearGradient>
<linearGradient id="paint7_linear_5082_11073" x1="215.75" y1="0" x2="215.75" y2="179" gradientUnits="userSpaceOnUse">
<stop stop-color="#01B682"/>
<stop offset="1" stop-color="#005039"/>
</linearGradient>
<linearGradient id="paint8_linear_5082_11073" x1="168.161" y1="77.0773" x2="97.3811" y2="-12.4704" gradientUnits="userSpaceOnUse">
<stop offset="0.01" stop-color="#00613E"/>
<stop offset="0.15" stop-color="#007850"/>
<stop offset="0.74" stop-color="#00D89D"/>
<stop offset="1" stop-color="#00FFBC"/>
</linearGradient>
<linearGradient id="paint9_linear_5082_11073" x1="437.219" y1="77.0773" x2="396.73" y2="-56.1072" gradientUnits="userSpaceOnUse">
<stop offset="0.01" stop-color="#00613E"/>
<stop offset="0.15" stop-color="#007850"/>
<stop offset="0.74" stop-color="#00D89D"/>
<stop offset="1" stop-color="#00FFBC"/>
</linearGradient>
<linearGradient id="paint10_linear_5082_11073" x1="437.219" y1="77.0773" x2="396.73" y2="-56.1072" gradientUnits="userSpaceOnUse">
<stop offset="0.01" stop-color="#00613E"/>
<stop offset="0.15" stop-color="#007850"/>
<stop offset="0.74" stop-color="#00D89D"/>
<stop offset="1" stop-color="#00FFBC"/>
</linearGradient>
<linearGradient id="paint11_linear_5082_11073" x1="60" y1="217.744" x2="247.5" y2="217.744" gradientUnits="userSpaceOnUse">
<stop stop-opacity="0"/>
<stop offset="1"/>
</linearGradient>
<linearGradient id="paint12_linear_5082_11073" x1="1276.5" y1="863.691" x2="1693.47" y2="943.041" gradientUnits="userSpaceOnUse">
<stop stop-color="#00EE9A"/>
<stop offset="1" stop-color="#101010"/>
</linearGradient>
<linearGradient id="paint13_linear_5082_11073" x1="1781" y1="769" x2="1669.8" y2="569.998" gradientUnits="userSpaceOnUse">
<stop offset="0.01" stop-color="#00613E"/>
<stop offset="0.15" stop-color="#007850"/>
<stop offset="0.74" stop-color="#00D89D"/>
<stop offset="1" stop-color="#00FFBC"/>
</linearGradient>
<linearGradient id="paint14_linear_5082_11073" x1="1276.5" y1="680.691" x2="1693.47" y2="760.041" gradientUnits="userSpaceOnUse">
<stop stop-color="#00EE9A"/>
<stop offset="1" stop-color="#101010"/>
</linearGradient>
<linearGradient id="paint15_linear_5082_11073" x1="1781" y1="586" x2="1669.8" y2="386.998" gradientUnits="userSpaceOnUse">
<stop offset="0.01" stop-color="#00613E"/>
<stop offset="0.15" stop-color="#007850"/>
<stop offset="0.74" stop-color="#00D89D"/>
<stop offset="1" stop-color="#00FFBC"/>
</linearGradient>
<linearGradient id="paint16_linear_5082_11073" x1="1276.5" y1="490.691" x2="1693.47" y2="570.041" gradientUnits="userSpaceOnUse">
<stop stop-color="#00EE9A"/>
<stop offset="1" stop-color="#101010"/>
</linearGradient>
<linearGradient id="paint17_linear_5082_11073" x1="1781" y1="396" x2="1669.8" y2="196.998" gradientUnits="userSpaceOnUse">
<stop offset="0.01" stop-color="#00613E"/>
<stop offset="0.15" stop-color="#007850"/>
<stop offset="0.74" stop-color="#00D89D"/>
<stop offset="1" stop-color="#00FFBC"/>
</linearGradient>
<linearGradient id="paint18_linear_5082_11073" x1="103.5" y1="860" x2="103.5" y2="1251" gradientUnits="userSpaceOnUse">
<stop stop-color="#00F69E"/>
<stop offset="1" stop-color="#007050"/>
</linearGradient>
<linearGradient id="paint19_linear_5082_11073" x1="229.5" y1="969" x2="229.5" y2="1360" gradientUnits="userSpaceOnUse">
<stop stop-color="#00F69E"/>
<stop offset="1" stop-color="#007050"/>
</linearGradient>
<linearGradient id="paint20_linear_5082_11073" x1="89.5007" y1="-170.001" x2="251.014" y2="351.04" gradientUnits="userSpaceOnUse">
<stop stop-color="#00F69E"/>
<stop offset="1" stop-color="#007050"/>
</linearGradient>
<linearGradient id="paint21_linear_5082_11073" x1="2113.82" y1="-84.7186" x2="1586.91" y2="56.4672" gradientUnits="userSpaceOnUse">
<stop stop-color="#00F69E"/>
<stop offset="1" stop-color="#007050"/>
</linearGradient>
<linearGradient id="paint22_linear_5082_11073" x1="1781.74" y1="1019.81" x2="1924.73" y2="1068" gradientUnits="userSpaceOnUse">
<stop offset="0.01" stop-color="#00784D"/>
<stop offset="0.05" stop-color="#007249"/>
<stop offset="0.32" stop-color="#005135"/>
<stop offset="0.57" stop-color="#003927"/>
<stop offset="0.8" stop-color="#002A1E"/>
<stop offset="1" stop-color="#00261C"/>
</linearGradient>
<linearGradient id="paint23_linear_5082_11073" x1="1840.9" y1="900.404" x2="1946.66" y2="1008.15" gradientUnits="userSpaceOnUse">
<stop offset="0.01" stop-color="#00784D"/>
<stop offset="0.05" stop-color="#007249"/>
<stop offset="0.32" stop-color="#005135"/>
<stop offset="0.57" stop-color="#003927"/>
<stop offset="0.8" stop-color="#002A1E"/>
<stop offset="1" stop-color="#00261C"/>
</linearGradient>
<clipPath id="clip0_5082_11073">
<rect width="1920" height="1080" fill="white"/>
</clipPath>
<clipPath id="clip1_5082_11073">
<rect width="1920" height="1081" fill="white" transform="translate(0 -1)"/>
</clipPath>
<clipPath id="clip2_5082_11073">
<rect width="1920" height="457" fill="white"/>
</clipPath>
<clipPath id="clip3_5082_11073">
<rect width="316.829" height="384.239" fill="white" transform="translate(1640 751.673) rotate(-0.302597)"/>
</clipPath>
</defs>
</svg>
