<svg width="48" height="48" viewBox="0 0 48 48" fill="none" xmlns="http://www.w3.org/2000/svg">
<path d="M48 24C48 25.424 47.876 26.8189 47.6383 28.1746C45.6626 39.4394 35.8309 48 24 48C23.6366 48 23.2751 47.992 22.9157 47.976C10.164 47.4089 0 36.8914 0 24C0 11.1086 10.7451 0 24 0C37.2549 0 48 10.7451 48 24Z" fill="#23A25D" fill-opacity="0.08"/>
<path d="M34.0995 38.648C32.3235 39.3746 29.1418 40.2286 24.0006 40.2286C18.8595 40.2286 15.6778 39.3743 13.9018 38.648C12.7209 38.1651 12.0058 36.9583 12.1452 35.69C12.3781 33.5697 13.0504 31.4591 14.5864 30.5034C17.4169 28.742 20.2266 27.9914 20.2266 27.9914C20.3255 27.6834 20.4369 26.664 20.4952 25.6206C20.1366 25.2483 19.7815 24.8597 19.4066 24.4914C18.6932 23.7903 18.6132 22.7886 18.3584 21.496C17.8904 21.6288 17.7424 21.4063 17.6184 21.2168C17.5338 21.0874 17.5004 20.932 17.4686 20.7806C17.3546 20.236 17.2409 19.6911 17.1269 19.1466C17.0412 18.7374 16.9552 18.3183 17.0135 17.9043C17.0412 17.7086 17.1109 17.5034 17.2715 17.3883C17.4324 17.2734 17.7006 17.3011 17.7812 17.4817C17.7812 17.4817 17.5206 14.918 17.5206 15.134C17.3029 14.8923 17.1306 14.366 17.2029 13.9591C17.2749 13.5526 17.4041 13.1568 17.4686 12.7491C17.5392 12.3014 17.5318 11.8391 17.6604 11.4043C17.8418 10.7914 18.2752 10.2891 18.7161 9.82656C19.0286 9.49913 19.3518 9.18085 19.7041 8.89713C20.4101 8.3297 21.2515 7.90285 22.1515 7.80199C22.4404 7.7697 22.7318 7.77113 23.0224 7.77256C23.3484 7.77427 23.6744 7.7757 24.0004 7.77742C24.3264 7.7757 24.6526 7.77427 24.9784 7.77256C25.2689 7.77113 25.5604 7.7697 25.8492 7.80199C26.7495 7.90285 27.5909 8.3297 28.2966 8.89713C28.6492 9.18085 28.9723 9.49913 29.2846 9.82656C29.7258 10.2888 30.1592 10.7911 30.3404 11.4043C30.4689 11.8391 30.4615 12.3011 30.5321 12.7491C30.5966 13.1568 30.7258 13.5526 30.7978 13.9591C30.8701 14.366 30.6975 14.8923 30.4801 15.134C30.4801 14.9183 30.2195 17.4817 30.2195 17.4817C30.3001 17.3011 30.5686 17.2734 30.7292 17.3883C30.8901 17.5034 30.9595 17.7086 30.9872 17.9043C31.0452 18.3183 30.9592 18.7374 30.8738 19.1466C30.7601 19.6911 30.6461 20.236 30.5321 20.7806C30.5004 20.932 30.4672 21.0871 30.3824 21.2168C30.2581 21.4063 30.1101 21.6291 29.6423 21.496C29.3878 22.7886 29.3075 23.7903 28.5941 24.4914C28.2195 24.8597 27.8641 25.2483 27.5055 25.6206C27.5638 26.6643 27.6749 27.6834 27.7741 27.9914C27.7741 27.9914 30.5838 28.742 33.4144 30.5034C34.9503 31.4594 35.6224 33.57 35.8555 35.69C35.9946 36.9583 35.2795 38.1651 34.0989 38.648H34.0995Z" fill="#23A25D" fill-opacity="0.8"/>
</svg>
