<svg width="48" height="48" viewBox="0 0 48 48" fill="none" xmlns="http://www.w3.org/2000/svg">
<path d="M48 24C48 25.424 47.876 26.8189 47.6383 28.1746C45.6626 39.4394 35.8309 48 24 48C23.6366 48 23.2751 47.992 22.9157 47.976C10.164 47.4089 0 36.8914 0 24C0 11.1086 10.7451 0 24 0C37.2549 0 48 10.7451 48 24Z" fill="#23A25D" fill-opacity="0.08"/>
<path d="M34.1 38.6475C32.3239 39.3741 29.1422 40.2281 24.0011 40.2281C18.86 40.2281 15.6782 39.3738 13.9022 38.6475C12.7214 38.1646 12.0062 36.9578 12.1457 35.6895C12.3785 33.5692 13.0508 31.4586 14.5868 30.5029C17.4174 28.7415 20.2271 27.9909 20.2271 27.9909C20.326 27.6829 20.4374 26.6635 20.4957 25.6201C20.1371 25.2478 19.782 24.8592 19.4071 24.4909C18.6937 23.7898 18.6137 22.7881 18.3588 21.4955C17.8908 21.6284 17.7428 21.4058 17.6188 21.2164C17.5342 21.0869 17.5008 20.9315 17.4691 20.7801C17.3551 20.2355 17.2414 19.6906 17.1274 19.1461C17.0417 18.7369 16.9557 18.3178 17.014 17.9038C17.0417 17.7081 17.1114 17.5029 17.272 17.3878C17.4328 17.2729 17.7011 17.3006 17.7817 17.4812C17.7817 17.4812 17.5211 14.9175 17.5211 15.1335C17.3034 14.8918 17.1311 14.3655 17.2034 13.9586C17.2754 13.5521 17.4045 13.1564 17.4691 12.7486C17.5397 12.3009 17.5322 11.8386 17.6608 11.4038C17.8422 10.7909 18.2757 10.2886 18.7165 9.82607C19.0291 9.49864 19.3522 9.18036 19.7045 8.89664C20.4105 8.32922 21.252 7.90236 22.152 7.8015C22.4408 7.76922 22.7322 7.77064 23.0228 7.77207C23.3488 7.77379 23.6748 7.77522 24.0008 7.77693C24.3268 7.77522 24.6531 7.77379 24.9788 7.77207C25.2694 7.77064 25.5608 7.76922 25.8497 7.8015C26.75 7.90236 27.5914 8.32922 28.2971 8.89664C28.6497 9.18036 28.9728 9.49864 29.2851 9.82607C29.7262 10.2884 30.1597 10.7906 30.3408 11.4038C30.4694 11.8386 30.462 12.3006 30.5325 12.7486C30.5971 13.1564 30.7262 13.5521 30.7982 13.9586C30.8705 14.3655 30.698 14.8918 30.4805 15.1335C30.4805 14.9178 30.22 17.4812 30.22 17.4812C30.3005 17.3006 30.5691 17.2729 30.7297 17.3878C30.8905 17.5029 30.96 17.7081 30.9877 17.9038C31.0457 18.3178 30.9597 18.7369 30.8742 19.1461C30.7605 19.6906 30.6465 20.2355 30.5325 20.7801C30.5008 20.9315 30.4677 21.0866 30.3828 21.2164C30.2585 21.4058 30.1105 21.6286 29.6428 21.4955C29.3882 22.7881 29.308 23.7898 28.5945 24.4909C28.22 24.8592 27.8645 25.2478 27.506 25.6201C27.5642 26.6638 27.6754 27.6829 27.7745 27.9909C27.7745 27.9909 30.5842 28.7415 33.4148 30.5029C34.9508 31.4589 35.6228 33.5695 35.856 35.6895C35.9951 36.9578 35.2799 38.1646 34.0994 38.6475H34.1Z" fill="#23A25D" fill-opacity="0.8"/>
</svg>
