<svg width="48" height="48" viewBox="0 0 48 48" fill="none" xmlns="http://www.w3.org/2000/svg">
<path d="M48 24C48 25.424 47.876 26.8189 47.6383 28.1746C45.6626 39.4394 35.8309 48 24 48C23.6366 48 23.2751 47.992 22.9157 47.976C10.164 47.4089 0 36.8914 0 24C0 11.1086 10.7451 0 24 0C37.2549 0 48 10.7451 48 24Z" fill="#23A25D" fill-opacity="0.08"/>
<path d="M34.0997 38.6481C32.3237 39.3747 29.142 40.2287 24.0009 40.2287C18.8597 40.2287 15.678 39.3744 13.902 38.6481C12.7212 38.1653 12.006 36.9584 12.1455 35.6901C12.3783 33.5698 13.0506 31.4593 14.5866 30.5035C17.4172 28.7421 20.2269 27.9915 20.2269 27.9915C20.3257 27.6835 20.4372 26.6641 20.4955 25.6207C20.1369 25.2484 19.7817 24.8598 19.4069 24.4915C18.6935 23.7904 18.6135 22.7887 18.3586 21.4961C17.8906 21.629 17.7426 21.4064 17.6186 21.217C17.534 21.0875 17.5006 20.9321 17.4689 20.7807C17.3549 20.2361 17.2412 19.6913 17.1272 19.1467C17.0415 18.7375 16.9555 18.3184 17.0137 17.9044C17.0415 17.7087 17.1112 17.5035 17.2717 17.3884C17.4326 17.2735 17.7009 17.3013 17.7815 17.4818C17.7815 17.4818 17.5209 14.9181 17.5209 15.1341C17.3032 14.8924 17.1309 14.3661 17.2032 13.9593C17.2752 13.5527 17.4043 13.157 17.4689 12.7493C17.5395 12.3015 17.532 11.8393 17.6606 11.4044C17.842 10.7915 18.2755 10.2893 18.7163 9.82668C19.0289 9.49925 19.352 9.18097 19.7043 8.89726C20.4103 8.32983 21.2517 7.90297 22.1517 7.80211C22.4406 7.76983 22.732 7.77125 23.0226 7.77268C23.3486 7.7744 23.6746 7.77583 24.0006 7.77754C24.3266 7.77583 24.6529 7.7744 24.9786 7.77268C25.2692 7.77125 25.5606 7.76983 25.8495 7.80211C26.7497 7.90297 27.5912 8.32983 28.2969 8.89726C28.6495 9.18097 28.9726 9.49925 29.2849 9.82668C29.726 10.289 30.1595 10.7913 30.3406 11.4044C30.4692 11.8393 30.4617 12.3013 30.5323 12.7493C30.5969 13.157 30.726 13.5527 30.798 13.9593C30.8703 14.3661 30.6977 14.8924 30.4803 15.1341C30.4803 14.9184 30.2197 17.4818 30.2197 17.4818C30.3003 17.3013 30.5689 17.2735 30.7295 17.3884C30.8903 17.5035 30.9597 17.7087 30.9875 17.9044C31.0455 18.3184 30.9595 18.7375 30.874 19.1467C30.7603 19.6913 30.6463 20.2361 30.5323 20.7807C30.5006 20.9321 30.4675 21.0873 30.3826 21.217C30.2583 21.4064 30.1103 21.6293 29.6426 21.4961C29.388 22.7887 29.3077 23.7904 28.5943 24.4915C28.2197 24.8598 27.8643 25.2484 27.5057 25.6207C27.564 26.6644 27.6752 27.6835 27.7743 27.9915C27.7743 27.9915 30.584 28.7421 33.4146 30.5035C34.9506 31.4595 35.6226 33.5701 35.8557 35.6901C35.9949 36.9584 35.2797 38.1653 34.0992 38.6481H34.0997Z" fill="#23A25D" fill-opacity="0.8"/>
</svg>
