<svg width="21" height="20" viewBox="0 0 21 20" fill="none" xmlns="http://www.w3.org/2000/svg">
<path fill-rule="evenodd" clip-rule="evenodd" d="M15.5 17.3275C15.9142 17.3275 16.25 16.9917 16.25 16.5775C16.25 16.1632 15.9142 15.8275 15.5 15.8275H5.5C5.08579 15.8275 4.75 16.1632 4.75 16.5775C4.75 16.9917 5.08579 17.3275 5.5 17.3275H15.5ZM11.2501 3.42261C11.2501 3.00839 10.9143 2.67261 10.5001 2.67261C10.0859 2.67261 9.75008 3.00839 9.75008 3.42261L9.75008 12.1119L7.69708 10.0589C7.40419 9.76605 6.92931 9.76605 6.63642 10.0589C6.34352 10.3518 6.34352 10.8267 6.63642 11.1196L9.3805 13.8637C9.99883 14.482 11.0013 14.482 11.6197 13.8637L14.3637 11.1196C14.6566 10.8267 14.6566 10.3518 14.3637 10.0589C14.0709 9.76605 13.596 9.76605 13.3031 10.0589L11.2501 12.1119L11.2501 3.42261Z" fill="white"/>
</svg>
