<svg width="20" height="20" viewBox="0 0 20 20" fill="none" xmlns="http://www.w3.org/2000/svg">
<path fill-rule="evenodd" clip-rule="evenodd" d="M15 17.3275C15.4142 17.3275 15.75 16.9917 15.75 16.5775C15.75 16.1632 15.4142 15.8275 15 15.8275H5C4.58579 15.8275 4.25 16.1632 4.25 16.5775C4.25 16.9917 4.58579 17.3275 5 17.3275H15ZM10.7501 3.42261C10.7501 3.00839 10.4143 2.67261 10.0001 2.67261C9.58587 2.67261 9.25008 3.00839 9.25008 3.42261L9.25008 12.1119L7.19708 10.0589C6.90419 9.76605 6.42931 9.76605 6.13642 10.0589C5.84352 10.3518 5.84352 10.8267 6.13642 11.1196L8.8805 13.8637C9.49883 14.482 10.5013 14.482 11.1197 13.8637L13.8637 11.1196C14.1566 10.8267 14.1566 10.3518 13.8637 10.0589C13.5709 9.76605 13.096 9.76605 12.8031 10.0589L10.7501 12.1119L10.7501 3.42261Z" fill="#23A25D"/>
</svg>
