<svg width="16" height="16" viewBox="0 0 16 16" fill="none" xmlns="http://www.w3.org/2000/svg">
<path d="M12.6668 4.33332C12.6668 5.2538 10.5775 5.99999 8.00016 5.99999C5.42283 5.99999 3.3335 5.2538 3.3335 4.33332M12.6668 4.33332C12.6668 3.41285 10.5775 2.66666 8.00016 2.66666C5.42283 2.66666 3.3335 3.41285 3.3335 4.33332M12.6668 4.33332V12.3333C12.6668 13.2538 10.5775 14 8.00016 14C5.42283 14 3.3335 13.2538 3.3335 12.3333V4.33332M12.6668 6.99999C12.6668 7.92046 10.5775 8.66666 8.00016 8.66666C5.42283 8.66666 3.3335 7.92046 3.3335 6.99999M12.6668 9.66666C12.6668 10.5871 10.5775 11.3333 8.00016 11.3333C5.42283 11.3333 3.3335 10.5871 3.3335 9.66666" stroke="#262B39" stroke-width="1.25"/>
</svg>
