<svg width="28" height="28" viewBox="0 0 28 28" fill="none" xmlns="http://www.w3.org/2000/svg">
<path d="M11.1543 16.3333L12.3046 16.5247C12.3324 16.3576 12.3235 16.1865 12.2785 16.0232C12.2334 15.86 12.1534 15.7085 12.044 15.5793C11.9345 15.45 11.7982 15.3462 11.6446 15.2749C11.491 15.2037 11.3237 15.1667 11.1543 15.1667V16.3333ZM23.9876 16.3333V17.5C24.297 17.5 24.5938 17.3771 24.8126 17.1583C25.0314 16.9395 25.1543 16.6428 25.1543 16.3333H23.9876ZM21.6543 3.5H8.40096V5.83333H21.6543V3.5ZM7.00097 17.5H11.1543V15.1667H7.00097V17.5ZM10.0028 16.142L9.06363 21.7828L11.3643 22.1667L12.3046 16.5247L10.0028 16.142ZM11.3643 24.5H11.614V22.1667H11.3643V24.5ZM15.4978 22.4222L18.4308 18.0192L16.4895 16.7242L13.5541 21.1272L15.4978 22.4222ZM19.4026 17.5H23.9876V15.1667H19.4026V17.5ZM25.1543 16.3333V7H22.821V16.3333H25.1543ZM4.96863 6.314L3.56863 13.314L5.8553 13.7713L7.2553 6.77134L4.96863 6.314ZM18.4308 18.0192C18.5374 17.8594 18.6829 17.7285 18.8522 17.6379C19.0215 17.5473 19.2106 17.5 19.4026 17.5V15.1667C18.8265 15.1667 18.2592 15.309 17.7512 15.5809C17.2432 15.8528 16.8102 16.2459 16.4906 16.7253L18.4308 18.0192ZM9.06363 21.7828C9.00789 22.117 9.02561 22.4594 9.11555 22.786C9.20549 23.1127 9.36549 23.4159 9.58444 23.6744C9.80338 23.933 10.076 24.1408 10.3834 24.2834C10.6907 24.426 11.0255 24.4999 11.3643 24.5V22.1667L9.06363 21.7828ZM7.00097 15.1667C6.82833 15.1667 6.65783 15.1285 6.50176 15.0547C6.34569 14.9809 6.20795 14.8734 6.09846 14.7399C5.98898 14.6064 5.91048 14.4503 5.86863 14.2828C5.82678 14.1153 5.82146 13.9406 5.8553 13.7713L3.56863 13.314C3.46716 13.8217 3.47957 14.3455 3.60499 14.8478C3.7304 15.3501 3.96568 15.8184 4.29388 16.2188C4.62207 16.6192 5.03501 16.9418 5.50293 17.1633C5.97084 17.3849 6.48208 17.4999 6.9998 17.5L7.00097 15.1667ZM8.40096 3.5C7.59174 3.49995 6.8075 3.78031 6.18171 4.29337C5.55591 4.80642 5.12724 5.52047 4.96863 6.314L7.2553 6.77134C7.30822 6.50656 7.45134 6.26834 7.66026 6.09729C7.86918 5.92624 8.13095 5.83296 8.40096 5.83333V3.5ZM11.614 24.5C12.3822 24.5 13.1385 24.3103 13.8158 23.9479C14.4931 23.5854 15.0716 23.0613 15.4978 22.4222L13.5541 21.1272C13.3411 21.4469 13.0536 21.709 12.715 21.8903C12.3763 22.0717 11.9981 22.1666 11.614 22.1667V24.5ZM21.6543 5.83333C21.9637 5.83333 22.2605 5.95625 22.4793 6.17504C22.698 6.39384 22.821 6.69058 22.821 7H25.1543C25.1543 6.07174 24.7855 5.1815 24.1292 4.52513C23.4728 3.86875 22.5826 3.5 21.6543 3.5V5.83333Z" fill="#F0616D"/>
<path d="M19.3223 16.3333V4.66659" stroke="#F0616D" stroke-width="2.33333"/>
</svg>
