<svg width="20" height="20" viewBox="0 0 20 20" fill="none" xmlns="http://www.w3.org/2000/svg">
<path fill-rule="evenodd" clip-rule="evenodd" d="M7.5999 6.4C8.26262 6.4 8.7999 5.86274 8.7999 5.2C8.7999 4.53726 8.26262 4 7.5999 4C6.93716 4 6.3999 4.53726 6.3999 5.2C6.3999 5.86274 6.93716 6.4 7.5999 6.4ZM7.5999 11.2C8.26262 11.2 8.7999 10.6627 8.7999 10C8.7999 9.33728 8.26262 8.8 7.5999 8.8C6.93716 8.8 6.3999 9.33728 6.3999 10C6.3999 10.6627 6.93716 11.2 7.5999 11.2ZM8.7999 14.8C8.7999 15.4627 8.26262 16 7.5999 16C6.93716 16 6.3999 15.4627 6.3999 14.8C6.3999 14.1373 6.93716 13.6 7.5999 13.6C8.26262 13.6 8.7999 14.1373 8.7999 14.8ZM12.3999 6.4C13.0626 6.4 13.5999 5.86274 13.5999 5.2C13.5999 4.53726 13.0626 4 12.3999 4C11.7372 4 11.1999 4.53726 11.1999 5.2C11.1999 5.86274 11.7372 6.4 12.3999 6.4ZM13.5999 10C13.5999 10.6627 13.0626 11.2 12.3999 11.2C11.7372 11.2 11.1999 10.6627 11.1999 10C11.1999 9.33728 11.7372 8.8 12.3999 8.8C13.0626 8.8 13.5999 9.33728 13.5999 10ZM12.3999 16C13.0626 16 13.5999 15.4627 13.5999 14.8C13.5999 14.1373 13.0626 13.6 12.3999 13.6C11.7372 13.6 11.1999 14.1373 11.1999 14.8C11.1999 15.4627 11.7372 16 12.3999 16Z" fill="#999999" fill-opacity="0.6"/>
</svg>
