<svg width="20" height="20" viewBox="0 0 20 20" fill="none" xmlns="http://www.w3.org/2000/svg">
<path fill-rule="evenodd" clip-rule="evenodd" d="M11.173 3.08322C12.1161 2.13874 13.6456 2.13816 14.5894 3.08193L16.6659 5.15847C17.6017 6.09419 17.6114 7.60901 16.6877 8.55667L8.99345 16.451C8.38199 17.0784 7.54336 17.4322 6.66765 17.4321L4.37419 17.432C3.23708 17.432 2.32898 16.4841 2.37681 15.3471L2.47527 13.0063C2.5095 12.1924 2.84774 11.4211 3.42307 10.8449L11.173 3.08322ZM13.5295 4.14339C13.1716 3.78541 12.5914 3.78563 12.2337 4.14388L10.9361 5.44343L14.3247 8.83207L15.6143 7.50891C15.9647 7.14945 15.961 6.57486 15.6061 6.21993L13.5295 4.14339ZM4.48373 11.9056L9.87623 6.50489L13.2777 9.90634L7.92007 15.4033C7.59082 15.7411 7.13925 15.9316 6.66771 15.9316L4.37426 15.9315C4.08998 15.9314 3.86296 15.6945 3.87491 15.4102L3.97337 13.0694C3.99181 12.6312 4.17394 12.2158 4.48373 11.9056ZM17.0955 17.2458C17.4406 17.2458 17.7203 16.9659 17.7203 16.6206C17.7203 16.2753 17.4406 15.9954 17.0955 15.9954H11.9941C11.649 15.9954 11.3693 16.2753 11.3693 16.6206C11.3693 16.9659 11.649 17.2458 11.9941 17.2458H17.0955Z" fill="white"/>
</svg>
