<svg width="28" height="28" viewBox="0 0 28 28" fill="none" xmlns="http://www.w3.org/2000/svg">
<path fill-rule="evenodd" clip-rule="evenodd" d="M15.173 7.08322C16.1161 6.13874 17.6456 6.13816 18.5894 7.08193L20.6659 9.15847C21.6017 10.0942 21.6114 11.609 20.6877 12.5567L12.9935 20.451C12.382 21.0784 11.5434 21.4322 10.6676 21.4321L8.37419 21.432C7.23708 21.432 6.32898 20.4841 6.37681 19.3471L6.47527 17.0063C6.5095 16.1924 6.84774 15.4211 7.42307 14.8449L15.173 7.08322ZM17.5295 8.14339C17.1716 7.78541 16.5914 7.78563 16.2337 8.14388L14.9361 9.44343L18.3247 12.8321L19.6143 11.5089C19.9647 11.1494 19.961 10.5749 19.6061 10.2199L17.5295 8.14339ZM8.48373 15.9056L13.8762 10.5049L17.2777 13.9063L11.9201 19.4033C11.5908 19.7411 11.1392 19.9316 10.6677 19.9316L8.37426 19.9315C8.08998 19.9314 7.86296 19.6945 7.87491 19.4102L7.97337 17.0694C7.99181 16.6312 8.17394 16.2158 8.48373 15.9056ZM21.0955 21.2458C21.4406 21.2458 21.7203 20.9659 21.7203 20.6206C21.7203 20.2753 21.4406 19.9954 21.0955 19.9954H15.9941C15.649 19.9954 15.3693 20.2753 15.3693 20.6206C15.3693 20.9659 15.649 21.2458 15.9941 21.2458H21.0955Z" fill="#23A25D"/>
</svg>
