<svg width="21" height="20" viewBox="0 0 21 20" fill="none" xmlns="http://www.w3.org/2000/svg">
<path fill-rule="evenodd" clip-rule="evenodd" d="M3.8806 5.81717C4.00138 5.52378 4.29251 5.31461 4.62843 5.31461H16.3715C16.7074 5.31461 16.9985 5.52381 17.1193 5.81723L10.5 10.428L3.8806 5.81717ZM3.82109 7.3804V14.882C3.82109 15.3224 4.1859 15.6854 4.62843 15.6854H16.3715C16.814 15.6854 17.1788 15.3224 17.1788 14.882V7.38048L10.8788 11.7688C10.6514 11.9273 10.3486 11.9273 10.1212 11.7688L3.82109 7.3804ZM18.4999 6.12964V14.882C18.4999 16.0484 17.5436 17 16.3715 17H4.62843C3.45628 17 2.5 16.0484 2.5 14.882V6.11798C2.5 4.95159 3.45628 4 4.62843 4H16.3715C17.5384 4 18.4914 4.94317 18.4998 6.10247C18.5 6.11153 18.5001 6.12059 18.4999 6.12964Z" fill="#23A25D"/>
</svg>
