<svg width="24" height="24" viewBox="0 0 24 24" fill="none" xmlns="http://www.w3.org/2000/svg">
<path fill-rule="evenodd" clip-rule="evenodd" d="M12 24C18.6274 24 24 18.6274 24 12C24 5.37258 18.6274 0 12 0C5.37258 0 0 5.37258 0 12C0 18.6274 5.37258 24 12 24ZM14.3044 11.3823L14.9159 10.0296H10.5477C10.5831 9.9019 10.6226 9.78042 10.6662 9.66513C10.9009 9.05567 11.2304 8.60682 11.6545 8.31856C12.0787 8.03031 12.577 7.88618 13.1493 7.88618C13.5117 7.88618 13.8412 7.93559 14.1376 8.03442C14.4383 8.12914 14.7039 8.2465 14.9345 8.38651C15.1692 8.5224 15.3689 8.648 15.5336 8.7633L16.5219 6.6508C16.0648 6.28018 15.5542 5.99605 14.9901 5.79838C14.4259 5.60072 13.8123 5.50189 13.1493 5.50189C12.0704 5.50189 11.1151 5.76132 10.2833 6.28018C9.45555 6.79492 8.80698 7.53821 8.33753 8.51005C8.11424 8.9723 7.94405 9.47881 7.82697 10.0296H6.54623L6.0459 11.3823H7.65086C7.6392 11.5875 7.63336 11.7975 7.63336 12.0124C7.63336 12.2187 7.63871 12.4205 7.6494 12.6177H6.54623L6.0459 14.0013H7.82763C7.94469 14.5508 8.11466 15.0552 8.33753 15.5147C8.80698 16.4783 9.45555 17.2174 10.2833 17.7322C11.1151 18.2428 12.0704 18.4981 13.1493 18.4981C13.7876 18.4981 14.3909 18.4055 14.9592 18.2201C15.5275 18.0307 16.036 17.7507 16.4849 17.3801L15.4842 15.2676C15.3319 15.3788 15.1424 15.5002 14.9159 15.632C14.6936 15.7638 14.4341 15.877 14.1376 15.9718C13.8412 16.0665 13.5117 16.1138 13.1493 16.1138C12.577 16.1138 12.0787 15.9738 11.6545 15.6938C11.2304 15.4097 10.9009 14.967 10.6662 14.3658C10.6224 14.2507 10.5828 14.1293 10.5473 14.0013H13.0629L13.7361 12.6177H10.3368C10.3258 12.4244 10.3203 12.2227 10.3203 12.0124C10.3203 11.7932 10.3264 11.5832 10.3385 11.3823H14.3044Z" fill="#0F8FF8"/>
</svg>
