<svg width="20" height="20" viewBox="0 0 20 20" fill="none" xmlns="http://www.w3.org/2000/svg">
<path d="M10.7454 14.5592C10.8624 14.6764 10.9281 14.8352 10.9281 15.0008C10.9281 15.1665 10.8624 15.3253 10.7454 15.4425L9.96953 16.2242C9.14824 17.0449 8.03456 17.5058 6.87347 17.5054C5.71239 17.505 4.59901 17.0434 3.77828 16.2221C2.95754 15.4008 2.49668 14.2871 2.49707 13.126C2.49746 11.965 2.95907 10.8516 3.78036 10.0308L5.6637 8.14752C6.45253 7.35778 7.51338 6.89943 8.62911 6.86628C9.74483 6.83312 10.831 7.22768 11.6654 7.96918C11.7896 8.07947 11.8649 8.23458 11.8747 8.40039C11.8846 8.56621 11.8281 8.72914 11.7179 8.85335C11.6076 8.97756 11.4525 9.05287 11.2867 9.06272C11.1208 9.07256 10.9579 9.01614 10.8337 8.90585C10.2378 8.37678 9.46238 8.09531 8.66589 8.11901C7.86939 8.14271 7.11204 8.46979 6.5487 9.03335L4.66453 10.9167C4.0784 11.5028 3.74912 12.2978 3.74912 13.1267C3.74912 13.9556 4.0784 14.7506 4.66453 15.3367C5.25066 15.9228 6.04562 16.2521 6.87453 16.2521C7.70344 16.2521 8.4984 15.9228 9.08453 15.3367L9.8612 14.56C9.91913 14.5017 9.98801 14.4555 10.0639 14.4239C10.1397 14.3924 10.2211 14.3761 10.3033 14.3761C10.3855 14.3761 10.4668 14.3924 10.5427 14.4239C10.6186 14.4555 10.6874 14.5009 10.7454 14.5592ZM16.2204 3.77835C15.3991 2.95895 14.2863 2.49878 13.1262 2.49878C11.9661 2.49878 10.8533 2.95895 10.032 3.77835L9.25536 4.55585C9.19396 4.61307 9.1447 4.68207 9.11054 4.75873C9.07638 4.8354 9.05802 4.91816 9.05654 5.00208C9.05506 5.086 9.07049 5.16936 9.10193 5.24718C9.13336 5.325 9.18015 5.3957 9.2395 5.45505C9.29885 5.5144 9.36954 5.56118 9.44736 5.59262C9.52519 5.62405 9.60855 5.63949 9.69246 5.63801C9.77638 5.63653 9.85914 5.61816 9.93581 5.584C10.0125 5.54984 10.0815 5.50059 10.1387 5.43918L10.9162 4.66252C11.5023 4.07639 12.2973 3.7471 13.1262 3.7471C13.9551 3.7471 14.7501 4.07639 15.3362 4.66252C15.9223 5.24864 16.2516 6.0436 16.2516 6.87252C16.2516 7.70143 15.9223 8.49639 15.3362 9.08252L13.452 10.9692C12.8884 11.5324 12.1308 11.859 11.3343 11.8822C10.5379 11.9055 9.76257 11.6236 9.16703 11.0942C9.07461 11.011 8.9595 10.9573 8.8364 10.94C8.7133 10.9226 8.58782 10.9423 8.47599 10.9966C8.36416 11.0509 8.27107 11.1373 8.20861 11.2448C8.14615 11.3523 8.11717 11.476 8.12536 11.6C8.13028 11.6822 8.15136 11.7627 8.18739 11.8368C8.22342 11.9108 8.27371 11.9771 8.33536 12.0317C9.16944 12.7732 10.2553 13.1679 11.3709 13.135C12.4864 13.1022 13.5472 12.6443 14.3362 11.855L16.2204 9.97002C17.0401 9.14856 17.5004 8.03549 17.5004 6.87502C17.5004 5.71454 17.0401 4.60147 16.2204 3.78002V3.77835Z" fill="#262B39"/>
</svg>
