<svg width="24" height="24" viewBox="0 0 24 24" fill="none" xmlns="http://www.w3.org/2000/svg">
<path d="M8.00483 2.82995L7.70493 2.14252L8.00483 2.82995ZM8.00485 21.1702L8.30475 20.4827L8.00485 21.1702ZM15.9947 21.1702L15.6948 20.4828L15.9947 21.1702ZM21.3089 15.66L20.6109 15.3854L21.3089 15.66ZM21.3089 8.34011L20.6109 8.61472L21.3089 8.34011ZM15.6598 21.3091L15.9344 22.007L15.6598 21.3091ZM16.2947 2.14253C16.1757 2.09062 16.0556 2.04079 15.9344 1.99309L15.3851 3.38893C15.4893 3.42992 15.5926 3.47276 15.6949 3.51739L16.2947 2.14253ZM22.0068 8.06549C21.959 7.9441 21.9091 7.82379 21.8571 7.70461L20.4823 8.30449C20.527 8.40695 20.5699 8.51037 20.6109 8.61472L22.0068 8.06549ZM21.8575 16.2945C21.9094 16.1757 21.9591 16.0557 22.0068 15.9346L20.6109 15.3854C20.57 15.4895 20.5272 15.5926 20.4826 15.6948L21.8575 16.2945ZM15.9344 22.007C16.0556 21.9593 16.1756 21.9095 16.2946 21.8576L15.6948 20.4828C15.5925 20.5274 15.4893 20.5702 15.3852 20.6112L15.9344 22.007ZM7.70495 21.8576C7.82394 21.9095 7.94406 21.9593 8.06526 22.007L8.61448 20.6112C8.5103 20.5702 8.40705 20.5274 8.30475 20.4827L7.70495 21.8576ZM1.99285 15.9346C2.04053 16.0558 2.09035 16.1759 2.14226 16.2949L3.51712 15.6951C3.4725 15.5928 3.42967 15.4896 3.38869 15.3854L1.99285 15.9346ZM2.14239 7.70492C2.09044 7.82399 2.04058 7.9442 1.99285 8.06549L3.38869 8.61471C3.42971 8.51046 3.47257 8.40712 3.51723 8.30475L2.14239 7.70492ZM8.06523 1.9931C7.94404 2.04079 7.82392 2.09061 7.70493 2.14252L8.30473 3.51738C8.40703 3.47275 8.51028 3.42993 8.61446 3.38894L8.06523 1.9931ZM6.51973 6.51976C6.821 6.21848 7.02836 5.85688 7.18642 5.52546C7.33978 5.20391 7.47946 4.83554 7.59478 4.55747C7.86423 3.90775 8.06035 3.624 8.30473 3.51738L7.70493 2.14252C6.83935 2.52014 6.45591 3.38798 6.2092 3.98286C6.06645 4.32709 5.96391 4.60427 5.83253 4.87974C5.70585 5.14534 5.58595 5.33222 5.45907 5.4591L6.51973 6.51976ZM3.51723 8.30475C3.62386 8.06037 3.90763 7.86424 4.55738 7.5948C4.83546 7.47949 5.20384 7.33982 5.52541 7.18646C5.85683 7.02839 6.21845 6.82104 6.51973 6.51976L5.45907 5.4591C5.33219 5.58597 5.14531 5.70588 4.87971 5.83255C4.60424 5.96392 4.32704 6.06646 3.9828 6.20921C3.38791 6.45591 2.52004 6.83933 2.14239 7.70492L3.51723 8.30475ZM4.24981 12.0001C4.24981 11.5738 4.14063 11.1713 4.01795 10.8251C3.89893 10.4893 3.73707 10.1299 3.62194 9.85171C3.35288 9.20162 3.29115 8.8626 3.38869 8.61471L1.99285 8.06549C1.64683 8.9449 1.98962 9.83014 2.23596 10.4253C2.37854 10.7698 2.50211 11.0383 2.60409 11.3261C2.70241 11.6036 2.74981 11.8206 2.74981 12.0001H4.24981ZM3.38869 15.3854C3.29115 15.1375 3.35288 14.7985 3.62194 14.1484C3.73707 13.8702 3.89893 13.5108 4.01795 13.175C4.14063 12.8288 4.24981 12.4263 4.24981 12.0001H2.74981C2.74981 12.1795 2.70241 12.3965 2.60409 12.674C2.50211 12.9618 2.37854 13.2303 2.23596 13.5748C1.98961 14.17 1.64683 15.0552 1.99285 15.9346L3.38869 15.3854ZM6.51973 17.4801C6.21843 17.1788 5.8568 16.9715 5.52536 16.8134C5.20379 16.6601 4.83539 16.5204 4.55729 16.4051C3.90751 16.1356 3.62373 15.9395 3.51712 15.6951L2.14226 16.2949C2.51989 17.1605 3.3878 17.544 3.98272 17.7907C4.32698 17.9334 4.60419 18.0359 4.87968 18.1673C5.1453 18.294 5.33219 18.4139 5.45906 18.5408L6.51973 17.4801ZM8.30475 20.4827C8.06036 20.3761 7.86424 20.0924 7.59479 19.4426C7.47948 19.1645 7.3398 18.7961 7.18644 18.4745C7.02838 18.1431 6.82102 17.7814 6.51973 17.4801L5.45906 18.5408C5.58594 18.6677 5.70585 18.8546 5.83252 19.1202C5.9639 19.3957 6.06644 19.6729 6.2092 20.0171C6.45589 20.612 6.83932 21.48 7.70495 21.8576L8.30475 20.4827ZM17.4799 17.4799C17.1786 17.7812 16.9712 18.1428 16.8131 18.4743C16.6598 18.7959 16.5201 19.1644 16.4048 19.4425C16.1353 20.0924 15.9392 20.3761 15.6948 20.4828L16.2946 21.8576C17.1603 21.48 17.5437 20.612 17.7904 20.017C17.9332 19.6727 18.0357 19.3955 18.1671 19.12C18.2938 18.8543 18.4137 18.6674 18.5405 18.5405L17.4799 17.4799ZM20.4826 15.6948C20.376 15.9392 20.0923 16.1353 19.4424 16.4048C19.1643 16.5201 18.7959 16.6598 18.4743 16.8131C18.1428 16.9712 17.7812 17.1786 17.4799 17.4799L18.5405 18.5405C18.6674 18.4136 18.8543 18.2937 19.12 18.1671C19.3955 18.0357 19.6727 17.9331 20.017 17.7904C20.6119 17.5437 21.4799 17.1602 21.8575 16.2945L20.4826 15.6948ZM19.7498 12.0001C19.7498 12.4263 19.859 12.8288 19.9817 13.175C20.1007 13.5109 20.2626 13.8702 20.3777 14.1484C20.6467 14.7985 20.7085 15.1375 20.6109 15.3854L22.0068 15.9346C22.3528 15.0552 22.01 14.17 21.7637 13.5748C21.6211 13.2303 21.4975 12.9618 21.3955 12.674C21.2972 12.3965 21.2498 12.1795 21.2498 12.0001H19.7498ZM17.4799 6.51953C17.7812 6.82081 18.1428 7.02816 18.4742 7.18622C18.7957 7.33958 19.1641 7.47925 19.4422 7.59456C20.0919 7.86399 20.3756 8.0601 20.4823 8.30449L21.8571 7.70461C21.4794 6.83907 20.6116 6.45566 20.0167 6.20897C19.6725 6.06622 19.3953 5.96369 19.1199 5.83232C18.8543 5.70565 18.6674 5.58575 18.5405 5.45887L17.4799 6.51953ZM11.9998 19.7501C11.5736 19.7501 11.1711 19.8592 10.8249 19.9819C10.489 20.1009 10.1296 20.2628 9.85148 20.3779C9.20139 20.647 8.86237 20.7087 8.61448 20.6112L8.06526 22.007C8.94467 22.353 9.82992 22.0103 10.4251 21.7639C10.7696 21.6213 11.0381 21.4978 11.3259 21.3958C11.6034 21.2975 11.8204 21.2501 11.9998 21.2501V19.7501ZM15.6949 3.51739C15.9393 3.624 16.1354 3.90774 16.4049 4.5574C16.5202 4.83544 16.6599 5.20378 16.8132 5.52531C16.9713 5.8567 17.1786 6.21828 17.4799 6.51953L18.5405 5.45887C18.4137 5.332 18.2938 5.14513 18.1671 4.87955C18.0357 4.6041 17.9332 4.32695 17.7904 3.98274C17.5437 3.38789 17.1603 2.52014 16.2947 2.14253L15.6949 3.51739ZM11.9998 4.25006C12.426 4.25006 12.8285 4.14088 13.1747 4.0182C13.5106 3.89918 13.87 3.73732 14.1481 3.62219C14.7982 3.35312 15.1373 3.29139 15.3851 3.38893L15.9344 1.99309C15.055 1.64707 14.1697 1.98986 13.5745 2.23621C13.23 2.37879 12.9615 2.50236 12.6737 2.60434C12.3962 2.70266 12.1793 2.75006 11.9998 2.75006V4.25006ZM20.6109 8.61472C20.7085 8.86261 20.6467 9.20163 20.3777 9.85171C20.2626 10.1299 20.1007 10.4893 19.9817 10.8251C19.859 11.1713 19.7498 11.5738 19.7498 12.0001H21.2498C21.2498 11.8206 21.2972 11.6036 21.3955 11.3261C21.4975 11.0384 21.6211 10.7698 21.7637 10.4254C22.01 9.83015 22.3528 8.94491 22.0068 8.06549L20.6109 8.61472ZM15.3852 20.6112C15.1373 20.7087 14.7983 20.647 14.1482 20.3779C13.87 20.2628 13.5106 20.1009 13.1747 19.9819C12.8285 19.8592 12.4261 19.7501 11.9998 19.7501V21.2501C12.1793 21.2501 12.3963 21.2975 12.6737 21.3958C12.9615 21.4978 13.23 21.6213 13.5745 21.7639C14.1697 22.0103 15.055 22.353 15.9344 22.007L15.3852 20.6112ZM11.9998 2.75006C11.8203 2.75006 11.6034 2.70266 11.3259 2.60434C11.0381 2.50236 10.7696 2.37879 10.4251 2.23621C9.82988 1.98986 8.94464 1.64708 8.06523 1.9931L8.61446 3.38894C8.86235 3.2914 9.20137 3.35313 9.85145 3.62219C10.1296 3.73732 10.489 3.89918 10.8249 4.0182C11.1711 4.14088 11.5736 4.25006 11.9998 4.25006V2.75006Z" fill="#23A25D"/>
<circle cx="9.79834" cy="9.7986" r="0.791538" transform="rotate(45 9.79834 9.7986)" fill="#23A25D"/>
<circle cx="14.2017" cy="14.2016" r="0.791538" transform="rotate(45 14.2017 14.2016)" fill="#23A25D"/>
<path d="M9.76115 14.2387L14.2388 9.76111" stroke="#23A25D" stroke-width="1.5" stroke-linecap="round" stroke-linejoin="round"/>
</svg>
