<svg width="24" height="24" viewBox="0 0 24 24" fill="none" xmlns="http://www.w3.org/2000/svg">
<path fill-rule="evenodd" clip-rule="evenodd" d="M21.7505 6.5C21.7505 4.15279 19.8477 2.25 17.5005 2.25L7.50049 2.25C5.15328 2.25 3.25049 4.15279 3.25049 6.5L3.25049 16.5C3.25049 18.8472 5.15328 20.75 7.50049 20.75H15.5005C15.9147 20.75 16.2505 21.0858 16.2505 21.5C16.2505 21.9142 15.9147 22.25 15.5005 22.25H7.50049C4.32485 22.25 1.75049 19.6756 1.75049 16.5V6.5C1.75049 3.32436 4.32485 0.75 7.50049 0.75H17.5005C20.6761 0.75 23.2505 3.32436 23.2505 6.5V15.5C23.2505 15.9142 22.9147 16.25 22.5005 16.25C22.0863 16.25 21.7505 15.9142 21.7505 15.5V6.5ZM21.7505 20.5C21.7505 21.1904 21.1908 21.75 20.5005 21.75C19.8101 21.75 19.2505 21.1904 19.2505 20.5C19.2505 19.8096 19.8101 19.25 20.5005 19.25C21.1908 19.25 21.7505 19.8096 21.7505 20.5ZM20.5005 23.25C22.0193 23.25 23.2505 22.0188 23.2505 20.5C23.2505 18.9812 22.0193 17.75 20.5005 17.75C18.9817 17.75 17.7505 18.9812 17.7505 20.5C17.7505 22.0188 18.9817 23.25 20.5005 23.25ZM17.5646 14.2561C17.8374 14.5678 17.8058 15.0417 17.4941 15.3144C17.1823 15.5872 16.7085 15.5556 16.4357 15.2439L13.4179 11.7949L10.9803 13.8262C10.6675 14.0868 10.2039 14.0503 9.93575 13.7439L6.43575 9.74388C6.16299 9.43215 6.19457 8.95833 6.5063 8.68556C6.81803 8.4128 7.29185 8.44439 7.56461 8.75612L10.5825 12.2051L13.02 10.1738C13.3328 9.91316 13.7965 9.94969 14.0646 10.2561L17.5646 14.2561Z" fill="#23A25D"/>
</svg>
