<svg width="24" height="24" viewBox="0 0 24 24" fill="none" xmlns="http://www.w3.org/2000/svg">
<path fill-rule="evenodd" clip-rule="evenodd" d="M15.281 1.75988C14.2467 1.42877 13.1442 1.25 12 1.25C6.06294 1.25 1.25 6.06294 1.25 12C1.25 17.9371 6.06294 22.75 12 22.75C17.9371 22.75 22.75 17.9371 22.75 12C22.75 10.8558 22.5712 9.75334 22.2401 8.71904C21.7688 8.87612 21.2691 8.97113 20.7507 8.99439C21.0743 9.93674 21.25 10.9479 21.25 12C21.25 17.1086 17.1086 21.25 12 21.25C6.89137 21.25 2.75 17.1086 2.75 12C2.75 6.89137 6.89137 2.75 12 2.75C13.0521 2.75 14.0633 2.92567 15.0056 3.24927C15.0289 2.7309 15.1239 2.23121 15.281 1.75988ZM8.37982 16.4069C8 16.0984 7.90504 15.8231 8.09496 15.5811L8.64095 14.8833C8.82031 14.6555 9.09463 14.6793 9.4639 14.9545C9.74876 15.1681 10.0864 15.3319 10.4768 15.4458C10.8724 15.5549 11.2127 15.6261 11.4975 15.6594V12.6479C11.0808 12.5102 10.635 12.3227 10.1602 12.0854C9.91757 11.962 9.65117 11.7698 9.36103 11.5088C9.07616 11.243 8.84669 10.9368 8.6726 10.5904C8.49852 10.2439 8.41147 9.81435 8.41147 9.30175C8.41147 8.62778 8.62249 8.07484 9.04451 7.64293C9.46653 7.21102 9.86218 6.94761 10.2315 6.85268C10.6007 6.75301 11.0228 6.68656 11.4975 6.65334V5.92716C11.4975 5.64239 11.6294 5.5 11.8932 5.5H12.5262C12.79 5.5 12.9219 5.64239 12.9219 5.92716V6.65334C13.3017 6.69606 13.6973 6.79098 14.1088 6.93811C14.5203 7.08525 14.8553 7.24425 15.1138 7.41511C15.4197 7.6192 15.4909 7.83278 15.3274 8.05586L14.7893 8.79628C14.5994 9.05257 14.3726 9.07156 14.1088 8.85323C13.9083 8.68711 13.7026 8.56371 13.4916 8.48302C13.2806 8.40234 13.0907 8.34063 12.9219 8.29792V11.0745C13.3597 11.2121 13.8081 11.3877 14.2671 11.6013C14.6047 11.7579 14.8948 11.9478 15.1375 12.1709C15.3802 12.3939 15.5833 12.6716 15.7468 13.0038C15.9156 13.3361 16 13.7846 16 14.3494C16 14.9806 15.8444 15.5075 15.5331 15.9299C15.2272 16.3523 14.8658 16.6608 14.4491 16.8554C14.0323 17.05 13.5232 17.1758 12.9219 17.2327V18.0728C12.9219 18.3576 12.79 18.5 12.5262 18.5H11.8932C11.6294 18.5 11.4975 18.3576 11.4975 18.0728V17.2327C10.9594 17.209 10.3897 17.1354 9.78833 17.012C9.19222 16.8934 8.72272 16.6917 8.37982 16.4069ZM10.4372 9.28751C10.4372 9.62924 10.5163 9.88791 10.6746 10.0635C10.8328 10.2391 10.9964 10.3625 11.1652 10.4337C11.2549 10.4717 11.3656 10.5144 11.4975 10.5619V8.2552C11.2074 8.30266 10.9568 8.41895 10.7458 8.60405C10.5401 8.78441 10.4372 9.01223 10.4372 9.28751ZM12.9219 15.638C13.117 15.5858 13.336 15.479 13.5786 15.3176C13.8213 15.1515 13.9426 14.8454 13.9426 14.3992C13.9426 14.0907 13.8872 13.8487 13.7765 13.6731C13.671 13.4927 13.4758 13.3408 13.1909 13.2174C13.1065 13.1794 13.0168 13.1415 12.9219 13.1035V15.638Z" fill="#262B39"/>
<path fill-rule="evenodd" clip-rule="evenodd" d="M20.5714 0.3C20.5714 0.134315 20.4371 0 20.2714 0H19.7286C19.5629 0 19.4286 0.134314 19.4286 0.3V3.12857C19.4286 3.29426 19.2943 3.42857 19.1286 3.42857H16.3C16.1343 3.42857 16 3.56289 16 3.72857V4.27143C16 4.43711 16.1343 4.57143 16.3 4.57143H19.1286C19.2943 4.57143 19.4286 4.70574 19.4286 4.87143V7.7C19.4286 7.86569 19.5629 8 19.7286 8H20.2714C20.4371 8 20.5714 7.86569 20.5714 7.7V4.87143C20.5714 4.70574 20.7057 4.57143 20.8714 4.57143H23.7C23.8657 4.57143 24 4.43711 24 4.27143V3.72857C24 3.56289 23.8657 3.42857 23.7 3.42857H20.8714C20.7057 3.42857 20.5714 3.29426 20.5714 3.12857V0.3Z" fill="#262B39"/>
</svg>
