<svg width="32" height="32" viewBox="0 0 32 32" fill="none" xmlns="http://www.w3.org/2000/svg">
<path fill-rule="evenodd" clip-rule="evenodd" d="M12.4446 2C9.98992 2 8 3.98992 8 6.44461V8.2882C8.47792 8.11255 8.99438 8.01666 9.53323 8.01666H17.1023C19.557 8.01666 21.5469 10.0066 21.5469 12.4613V23.578C21.5469 24.4714 21.2833 25.3033 20.8296 26H25.5554C28.0101 26 30 24.0101 30 21.5554V6.4446C30 3.98992 28.0101 2 25.5554 2H12.4446Z" fill="#0CB450" fill-opacity="0.2"/>
<path fill-rule="evenodd" clip-rule="evenodd" d="M6.4446 6C3.98992 6 2 7.98992 2 10.4446V25.5554C2 28.0101 3.98992 30 6.4446 30H19.5554C22.0101 30 24 28.0101 24 25.5554V10.4446C24 7.98992 22.0101 6 19.5554 6H6.4446ZM6.0837 20.9411C5.66252 21.4881 5.7645 22.2729 6.31149 22.6941C6.85848 23.1153 7.64334 23.0133 8.06452 22.4663L11.368 18.1761L13.9183 20.5911C14.1751 20.8343 14.5229 20.9573 14.8755 20.9297C15.2281 20.902 15.5525 20.7263 15.7682 20.4461L19.9164 15.0589C20.3376 14.5119 20.2356 13.7271 19.6886 13.3059C19.1416 12.8847 18.3567 12.9867 17.9356 13.5337L14.6321 17.8239L12.0817 15.4089C11.825 15.1657 11.4772 15.0427 11.1246 15.0703C10.772 15.098 10.4476 15.2737 10.2318 15.5539L6.0837 20.9411Z" fill="#0CB450"/>
</svg>
