<svg width="24" height="24" viewBox="0 0 24 24" fill="none" xmlns="http://www.w3.org/2000/svg">
<path fill-rule="evenodd" clip-rule="evenodd" d="M12 24C18.6274 24 24 18.6274 24 12C24 5.37258 18.6274 0 12 0C5.37258 0 0 5.37258 0 12C0 18.6274 5.37258 24 12 24ZM7.32222 18.4046H16.6804V16.1594H10.988C11.0444 16.0941 11.095 16.027 11.1397 15.9581C11.3913 15.5724 11.5066 15.0923 11.4856 14.5179L11.439 13.279H14.1899V11.1344H11.3584L11.2844 9.16588C11.2802 8.79692 11.3389 8.49294 11.4605 8.25396C11.5862 8.01078 11.7539 7.83049 11.9636 7.71309C12.1774 7.5915 12.4164 7.53071 12.6805 7.53071C12.9531 7.53071 13.2025 7.57893 13.4289 7.67536C13.6553 7.77179 13.8356 7.92692 13.9698 8.14075C14.104 8.35458 14.1669 8.63969 14.1585 8.99607L16.7056 9.06525C16.7265 8.52439 16.6511 8.02755 16.4792 7.57473C16.3073 7.12192 16.0431 6.7299 15.6867 6.39867C15.3345 6.06325 14.9027 5.8054 14.3912 5.62511C13.8797 5.44063 13.2948 5.34839 12.6365 5.34839C11.8567 5.34839 11.1565 5.49723 10.536 5.79492C9.91543 6.08841 9.42907 6.52026 9.07688 7.09047C8.72888 7.65649 8.57165 8.34829 8.6052 9.16588L8.67269 11.1344H7.29077V13.279H8.74621L8.79387 14.6688C8.79806 14.8911 8.78339 15.1091 8.74984 15.3229C8.7205 15.5367 8.6576 15.7212 8.56117 15.8764C8.46893 16.0273 8.33057 16.1216 8.14609 16.1594H7.32222V18.4046Z" fill="#19D2C1"/>
</svg>
