<svg width="20" height="20" viewBox="0 0 20 20" fill="none" xmlns="http://www.w3.org/2000/svg">
<path fill-rule="evenodd" clip-rule="evenodd" d="M9.99784 1.875C8.06047 1.87894 6.19022 2.58506 4.73367 3.8625C3.25711 5.15834 2.28237 6.93145 1.9795 8.8725C1.66984 10.8209 2.0469 12.8164 3.04617 14.5175C4.03114 16.1991 5.58496 17.473 7.427 18.1092C7.83034 18.1867 7.98284 17.9292 7.98284 17.7092C7.98284 17.49 7.9745 16.8542 7.972 16.1592C5.71117 16.6625 5.23367 15.1758 5.23367 15.1758C4.867 14.21 4.33367 13.9558 4.33367 13.9558C3.59617 13.44 4.38867 13.45 4.38867 13.45C5.20534 13.5092 5.6345 14.3092 5.6345 14.3092C6.35784 15.5825 7.53534 15.2142 7.99867 14.9992C8.07117 14.46 8.282 14.0925 8.51534 13.8842C6.7095 13.675 4.812 12.96 4.812 9.7675C4.80029 8.94381 5.09965 8.146 5.65034 7.53333C5.567 7.32333 5.28784 6.47667 5.7295 5.32583C5.7295 5.32583 6.41117 5.1025 7.9645 6.18C9.29492 5.80668 10.7024 5.80668 12.0328 6.18C13.5837 5.1025 14.2645 5.32583 14.2645 5.32583C14.7078 6.47333 14.4295 7.32083 14.3453 7.53333C14.8953 8.14083 15.1953 8.9425 15.1837 9.77167C15.1837 12.9708 13.2828 13.6758 11.4745 13.8808C11.7653 14.1408 12.0245 14.6475 12.0245 15.425C12.0245 16.5392 12.0153 17.4358 12.0153 17.7108C12.0153 17.9325 12.162 18.1917 12.5737 18.1108C14.4158 17.4744 15.9697 16.2002 16.9545 14.5183C17.9542 12.8168 18.3312 10.8206 18.0212 8.87167C17.7179 6.93036 16.7426 5.1572 15.2653 3.86167C13.8085 2.58434 11.9379 1.87851 10.0003 1.875H9.99784Z" fill="#262B39"/>
<path d="M4.94877 13.8367C4.93127 13.8784 4.86627 13.89 4.81377 13.8617C4.76127 13.8325 4.72211 13.7784 4.74127 13.7359C4.76044 13.6925 4.82377 13.6817 4.87627 13.7109C4.92877 13.74 4.96877 13.795 4.94877 13.8367ZM5.27794 14.2125C5.25018 14.2272 5.21807 14.2314 5.18748 14.2244C5.15688 14.2173 5.12983 14.1995 5.11127 14.1742C5.05877 14.1159 5.04794 14.0359 5.08877 14C5.12877 13.9642 5.20127 13.9809 5.25377 14.0392C5.30627 14.0975 5.31794 14.1767 5.27794 14.2125ZM5.59877 14.6917C5.54877 14.7275 5.46377 14.6917 5.41711 14.62C5.40375 14.607 5.39317 14.5915 5.38601 14.5743C5.37885 14.5571 5.37525 14.5386 5.37544 14.52C5.37575 14.4828 5.39072 14.4471 5.41711 14.4209C5.46711 14.3867 5.55127 14.4209 5.59877 14.4917C5.64544 14.5617 5.64711 14.6559 5.59877 14.6917ZM6.03294 15.155C5.98877 15.2059 5.89877 15.1925 5.82461 15.1234C5.75044 15.0542 5.73294 14.9609 5.77711 14.9109C5.82211 14.8609 5.91211 14.875 5.98877 14.9425C6.06544 15.01 6.08044 15.105 6.03294 15.155ZM6.64294 15.425C6.62211 15.49 6.53044 15.5192 6.43961 15.4917C6.34794 15.4642 6.28711 15.3867 6.30461 15.3209C6.32211 15.2542 6.41544 15.2242 6.50794 15.2542C6.60044 15.285 6.66044 15.3575 6.64294 15.425ZM7.30711 15.4725C7.30711 15.5392 7.23211 15.5975 7.13461 15.5992C7.03794 15.6009 6.95877 15.545 6.95877 15.4775C6.95877 15.4109 7.03377 15.3525 7.13127 15.3509C7.22794 15.3492 7.30711 15.4034 7.30711 15.4725ZM7.92627 15.3667C7.93794 15.4334 7.87127 15.5042 7.77377 15.5209C7.67711 15.5375 7.59211 15.4967 7.58044 15.4309C7.56794 15.3642 7.63877 15.2934 7.73211 15.275C7.82627 15.2575 7.91377 15.2984 7.92627 15.3667Z" fill="#262B39"/>
</svg>
