<svg width="24" height="24" viewBox="0 0 24 24" fill="none" xmlns="http://www.w3.org/2000/svg">
<path fill-rule="evenodd" clip-rule="evenodd" d="M10.296 2.90665C6.24091 3.66177 3.11598 7.06246 2.77997 11.25H7.28229C7.48348 8.23409 8.53194 5.34328 10.296 2.90665ZM12 1.25003C6.06295 1.25003 1.25002 6.06295 1.25 12V12C1.25 17.9371 6.06294 22.75 12 22.75C17.9371 22.75 22.75 17.9371 22.75 12C22.75 6.06297 17.9371 1.25003 12 1.25003ZM13.704 2.90665C15.4681 5.34328 16.5165 8.23409 16.7177 11.25H21.22C20.884 7.06246 17.7591 3.66177 13.704 2.90665ZM15.214 11.25C14.9957 8.28427 13.8734 5.45654 12 3.14876C10.1266 5.45654 9.00432 8.28427 8.78597 11.25H15.214ZM8.78596 12.75H15.214C14.9957 15.7158 13.8734 18.5435 12 20.8513C10.1266 18.5435 9.0043 15.7158 8.78596 12.75ZM7.28228 12.75H2.77996C3.11595 16.9376 6.24089 20.3383 10.296 21.0934C8.53193 18.6568 7.48346 15.7659 7.28228 12.75ZM13.704 21.0934C15.4681 18.6568 16.5165 15.7659 16.7177 12.75H21.22C20.8841 16.9376 17.7591 20.3383 13.704 21.0934Z" fill="#262B39"/>
</svg>
