<svg width="83" height="24" viewBox="0 0 83 24" fill="none" xmlns="http://www.w3.org/2000/svg">
<g clip-path="url(#clip0_1_11967)">
<path d="M24.0012 12.2656C24.0012 11.2818 23.9195 10.5639 23.7427 9.81934H12.2461V14.2599H18.9943C18.8583 15.3634 18.1236 17.0253 16.491 18.1421L16.4681 18.2908L20.1031 21.0425L20.3549 21.0671C22.6678 18.9797 24.0012 15.9085 24.0012 12.2656Z" fill="#5A96F5"/>
<path d="M12.2435 23.9654C15.5496 23.9654 18.3251 22.9017 20.3523 21.067L16.4884 18.142C15.4544 18.8466 14.0666 19.3386 12.2435 19.3386C9.00542 19.3386 6.25714 17.2513 5.27746 14.3662L5.13386 14.3781L1.35412 17.2366L1.30469 17.3709C3.31827 21.2797 7.45434 23.9654 12.2435 23.9654Z" fill="#23A25D"/>
<path d="M5.27886 14.3664C5.02036 13.6219 4.87076 12.8241 4.87076 11.9998C4.87076 11.1755 5.02036 10.3778 5.26526 9.63328L5.25841 9.47471L1.43131 6.57031L1.30609 6.62851C0.476196 8.25055 0 10.072 0 11.9998C0 13.9276 0.476196 15.749 1.30609 17.3711L5.27886 14.3664Z" fill="#FBC41E"/>
<path d="M12.2435 4.66089C14.5428 4.66089 16.0938 5.63144 16.9782 6.4425L20.4339 3.14527C18.3115 1.21746 15.5496 0.0341797 12.2435 0.0341797C7.45434 0.0341797 3.31827 2.7198 1.30469 6.62857L5.26386 9.63333C6.25714 6.74827 9.00542 4.66089 12.2435 4.66089Z" fill="#ED5A4C"/>
</g>
<path d="M36.74 17.21C35.99 17.21 35.32 17.05 34.73 16.73C34.14 16.4 33.675 15.92 33.335 15.29C32.995 14.66 32.825 13.89 32.825 12.98V10.52C32.825 9.15 33.2 8.105 33.95 7.385C34.7 6.655 35.715 6.29 36.995 6.29C38.255 6.29 39.225 6.635 39.905 7.325C40.585 8.005 40.925 8.92 40.925 10.07V10.145H39.32V10.025C39.32 9.595 39.235 9.21 39.065 8.87C38.895 8.52 38.64 8.245 38.3 8.045C37.96 7.845 37.525 7.745 36.995 7.745C36.195 7.745 35.57 7.99 35.12 8.48C34.67 8.96 34.445 9.63 34.445 10.49V13.01C34.445 13.86 34.67 14.535 35.12 15.035C35.57 15.525 36.2 15.77 37.01 15.77C37.81 15.77 38.395 15.55 38.765 15.11C39.135 14.67 39.32 14.1 39.32 13.4V13.205H36.5V11.81H40.925V17H39.425V15.935H39.185C39.095 16.125 38.96 16.32 38.78 16.52C38.61 16.72 38.36 16.885 38.03 17.015C37.71 17.145 37.28 17.21 36.74 17.21ZM46.522 17.21C45.782 17.21 45.122 17.06 44.542 16.76C43.972 16.45 43.522 16.01 43.192 15.44C42.862 14.87 42.697 14.195 42.697 13.415V13.19C42.697 12.41 42.862 11.74 43.192 11.18C43.522 10.61 43.972 10.17 44.542 9.86C45.122 9.55 45.782 9.395 46.522 9.395C47.262 9.395 47.922 9.55 48.502 9.86C49.082 10.17 49.537 10.61 49.867 11.18C50.197 11.74 50.362 12.41 50.362 13.19V13.415C50.362 14.195 50.197 14.87 49.867 15.44C49.537 16.01 49.082 16.45 48.502 16.76C47.922 17.06 47.262 17.21 46.522 17.21ZM46.522 15.83C47.202 15.83 47.752 15.615 48.172 15.185C48.602 14.745 48.817 14.14 48.817 13.37V13.235C48.817 12.465 48.607 11.865 48.187 11.435C47.767 10.995 47.212 10.775 46.522 10.775C45.852 10.775 45.302 10.995 44.872 11.435C44.452 11.865 44.242 12.465 44.242 13.235V13.37C44.242 14.14 44.452 14.745 44.872 15.185C45.302 15.615 45.852 15.83 46.522 15.83ZM55.7505 17.21C55.0105 17.21 54.3505 17.06 53.7705 16.76C53.2005 16.45 52.7505 16.01 52.4205 15.44C52.0905 14.87 51.9255 14.195 51.9255 13.415V13.19C51.9255 12.41 52.0905 11.74 52.4205 11.18C52.7505 10.61 53.2005 10.17 53.7705 9.86C54.3505 9.55 55.0105 9.395 55.7505 9.395C56.4905 9.395 57.1505 9.55 57.7305 9.86C58.3105 10.17 58.7655 10.61 59.0955 11.18C59.4255 11.74 59.5905 12.41 59.5905 13.19V13.415C59.5905 14.195 59.4255 14.87 59.0955 15.44C58.7655 16.01 58.3105 16.45 57.7305 16.76C57.1505 17.06 56.4905 17.21 55.7505 17.21ZM55.7505 15.83C56.4305 15.83 56.9805 15.615 57.4005 15.185C57.8305 14.745 58.0455 14.14 58.0455 13.37V13.235C58.0455 12.465 57.8355 11.865 57.4155 11.435C56.9955 10.995 56.4405 10.775 55.7505 10.775C55.0805 10.775 54.5305 10.995 54.1005 11.435C53.6805 11.865 53.4705 12.465 53.4705 13.235V13.37C53.4705 14.14 53.6805 14.745 54.1005 15.185C54.5305 15.615 55.0805 15.83 55.7505 15.83ZM61.154 13.34V13.115C61.154 12.335 61.309 11.67 61.619 11.12C61.939 10.57 62.359 10.145 62.879 9.845C63.399 9.545 63.969 9.395 64.589 9.395C65.309 9.395 65.859 9.53 66.239 9.8C66.629 10.07 66.914 10.36 67.094 10.67H67.334V9.605H68.834V18.515C68.834 18.965 68.699 19.325 68.429 19.595C68.169 19.865 67.809 20 67.349 20H62.369V18.65H66.869C67.159 18.65 67.304 18.5 67.304 18.2V15.845H67.064C66.954 16.025 66.799 16.21 66.599 16.4C66.399 16.59 66.134 16.745 65.804 16.865C65.484 16.985 65.079 17.045 64.589 17.045C63.969 17.045 63.394 16.9 62.864 16.61C62.344 16.31 61.929 15.885 61.619 15.335C61.309 14.775 61.154 14.11 61.154 13.34ZM65.009 15.695C65.679 15.695 66.229 15.485 66.659 15.065C67.099 14.635 67.319 14.045 67.319 13.295V13.16C67.319 12.39 67.104 11.8 66.674 11.39C66.244 10.97 65.689 10.76 65.009 10.76C64.349 10.76 63.799 10.97 63.359 11.39C62.929 11.8 62.714 12.39 62.714 13.16V13.295C62.714 14.045 62.929 14.635 63.359 15.065C63.799 15.485 64.349 15.695 65.009 15.695ZM71.1088 17V6.5H72.6538V17H71.1088ZM78.3366 17.21C77.5866 17.21 76.9316 17.055 76.3716 16.745C75.8116 16.425 75.3716 15.98 75.0516 15.41C74.7416 14.83 74.5866 14.16 74.5866 13.4V13.22C74.5866 12.45 74.7416 11.78 75.0516 11.21C75.3616 10.63 75.7916 10.185 76.3416 9.875C76.9016 9.555 77.5466 9.395 78.2766 9.395C78.9866 9.395 79.6066 9.555 80.1366 9.875C80.6766 10.185 81.0966 10.62 81.3966 11.18C81.6966 11.74 81.8466 12.395 81.8466 13.145V13.73H76.1616C76.1816 14.38 76.3966 14.9 76.8066 15.29C77.2266 15.67 77.7466 15.86 78.3666 15.86C78.9466 15.86 79.3816 15.73 79.6716 15.47C79.9716 15.21 80.2016 14.91 80.3616 14.57L81.6366 15.23C81.4966 15.51 81.2916 15.805 81.0216 16.115C80.7616 16.425 80.4166 16.685 79.9866 16.895C79.5566 17.105 79.0066 17.21 78.3366 17.21ZM76.1766 12.545H80.2716C80.2316 11.985 80.0316 11.55 79.6716 11.24C79.3116 10.92 78.8416 10.76 78.2616 10.76C77.6816 10.76 77.2066 10.92 76.8366 11.24C76.4766 11.55 76.2566 11.985 76.1766 12.545Z" fill="white"/>
<defs>
<clipPath id="clip0_1_11967">
<rect width="24" height="24" fill="white"/>
</clipPath>
</defs>
</svg>
