<svg width="24" height="24" viewBox="0 0 24 24" fill="none" xmlns="http://www.w3.org/2000/svg">
<path d="M4.08136 3.29214C3.87147 3.50697 3.75 3.84143 3.75 4.27458V19.7246C3.75 20.1578 3.87147 20.4922 4.08136 20.7071L4.13316 20.7542L12.9878 12.1V11.8957L4.13316 3.24149L4.08136 3.29214Z" fill="url(#paint0_linear_1924_40834)"/>
<path d="M15.9366 14.9868L12.9883 12.1006V11.8962L15.9401 9.01004L16.0062 9.04759L19.502 10.9924C20.4996 11.5443 20.4996 12.4525 19.502 13.0079L16.0062 14.9492L15.9366 14.9868Z" fill="url(#paint1_linear_1924_40834)"/>
<path d="M16.0055 14.9491L12.9875 11.9983L4.08105 20.7075C4.41241 21.0481 4.95277 21.0891 5.56725 20.7485L16.0055 14.9491Z" fill="url(#paint2_linear_1924_40834)"/>
<path d="M16.0055 9.04773L5.56725 3.24829C4.95277 2.91121 4.41241 2.95225 4.08105 3.29283L12.9875 11.9985L16.0055 9.04773Z" fill="url(#paint3_linear_1924_40834)"/>
<defs>
<linearGradient id="paint0_linear_1924_40834" x1="12.2016" y1="19.8855" x2="0.480035" y2="7.89723" gradientUnits="userSpaceOnUse">
<stop stop-color="#00A0FF"/>
<stop offset="0.0066" stop-color="#00A1FF"/>
<stop offset="0.2601" stop-color="#00BEFF"/>
<stop offset="0.5122" stop-color="#00D2FF"/>
<stop offset="0.7604" stop-color="#00DFFF"/>
<stop offset="1" stop-color="#00E3FF"/>
</linearGradient>
<linearGradient id="paint1_linear_1924_40834" x1="20.8011" y1="11.9974" x2="3.51199" y2="11.9974" gradientUnits="userSpaceOnUse">
<stop stop-color="#FFE000"/>
<stop offset="0.4087" stop-color="#FFBD00"/>
<stop offset="0.7754" stop-color="#FFA500"/>
<stop offset="1" stop-color="#FF9C00"/>
</linearGradient>
<linearGradient id="paint2_linear_1924_40834" x1="14.3644" y1="10.3942" x2="-1.53105" y2="-5.8629" gradientUnits="userSpaceOnUse">
<stop stop-color="#FF3A44"/>
<stop offset="1" stop-color="#C31162"/>
</linearGradient>
<linearGradient id="paint3_linear_1924_40834" x1="1.83911" y1="25.8479" x2="8.93714" y2="18.5884" gradientUnits="userSpaceOnUse">
<stop stop-color="#32A071"/>
<stop offset="0.0685" stop-color="#2DA771"/>
<stop offset="0.4762" stop-color="#15CF74"/>
<stop offset="0.8009" stop-color="#06E775"/>
<stop offset="1" stop-color="#00F076"/>
</linearGradient>
</defs>
</svg>
