<svg width="20" height="20" viewBox="0 0 20 20" fill="none" xmlns="http://www.w3.org/2000/svg">
<g clip-path="url(#clip0_820_3225)">
<path d="M6.96721 0.65784C4.9689 1.35107 3.24556 2.66685 2.05032 4.41191C0.855082 6.15696 0.250946 8.23932 0.326651 10.3531C0.402355 12.4669 1.15391 14.5007 2.47092 16.1558C3.78794 17.8108 5.60099 19 7.64377 19.5485C9.2999 19.9758 11.035 19.9946 12.7 19.6032C14.2083 19.2644 15.6028 18.5397 16.7469 17.5C17.9376 16.3849 18.802 14.9664 19.2469 13.3969C19.7305 11.6901 19.8166 9.89524 19.4985 8.15003H10.1985V12.0078H15.5844C15.4768 12.6231 15.2461 13.2104 14.9062 13.7345C14.5663 14.2585 14.1242 14.7086 13.6063 15.0578C12.9486 15.4929 12.2072 15.7856 11.4297 15.9172C10.6499 16.0622 9.85011 16.0622 9.07033 15.9172C8.28 15.7538 7.53236 15.4276 6.87502 14.9594C5.819 14.2119 5.02608 13.1499 4.6094 11.925C4.18567 10.6772 4.18567 9.32441 4.6094 8.07659C4.906 7.20193 5.39632 6.40555 6.04377 5.7469C6.7847 4.97932 7.72273 4.43065 8.75495 4.16108C9.78718 3.89152 10.8737 3.91148 11.8953 4.21878C12.6934 4.46376 13.4232 4.8918 14.0266 5.46878C14.6339 4.86461 15.2401 4.25888 15.8453 3.65159C16.1578 3.32503 16.4985 3.01409 16.8063 2.67971C15.8853 1.82265 14.8042 1.15574 13.625 0.717215C11.4777 -0.0624883 9.12811 -0.0834421 6.96721 0.65784Z" fill="white"/>
<path d="M6.96563 0.657806C9.12635 -0.08398 11.4759 -0.0635778 13.6234 0.715618C14.8028 1.15712 15.8834 1.82724 16.8031 2.68749C16.4906 3.02187 16.1609 3.33437 15.8422 3.65937C15.2359 4.26458 14.6302 4.8677 14.025 5.46874C13.4216 4.89177 12.6918 4.46373 11.8937 4.21874C10.8725 3.91037 9.78597 3.88926 8.75347 4.15772C7.72097 4.42618 6.78236 4.97384 6.04062 5.74062C5.39318 6.39927 4.90285 7.19564 4.60625 8.07031L1.36719 5.56249C2.52658 3.26337 4.53398 1.50472 6.96563 0.657806Z" fill="#E33629"/>
<path d="M0.510152 8.04688C0.684247 7.18405 0.973283 6.34848 1.36953 5.5625L4.60859 8.07656C4.18486 9.32438 4.18486 10.6772 4.60859 11.925C3.52942 12.7583 2.44974 13.5958 1.36953 14.4375C0.377575 12.463 0.0750466 10.2133 0.510152 8.04688Z" fill="#F8BD00"/>
<path d="M10.1999 8.14844H19.4999C19.818 9.89365 19.732 11.6885 19.2484 13.3953C18.8034 14.9648 17.9391 16.3834 16.7484 17.4984C15.703 16.6828 14.653 15.8734 13.6077 15.0578C14.126 14.7082 14.5683 14.2576 14.9082 13.733C15.2481 13.2084 15.4786 12.6205 15.5859 12.0047H10.1999C10.1984 10.7203 10.1999 9.43437 10.1999 8.14844Z" fill="#587DBD"/>
<path d="M1.36719 14.4375C2.4474 13.6042 3.52708 12.7667 4.60625 11.925C5.02376 13.1503 5.81782 14.2123 6.875 14.9594C7.53439 15.4254 8.28364 15.7489 9.075 15.9094C9.85478 16.0544 10.6546 16.0544 11.4344 15.9094C12.2119 15.7778 12.9533 15.485 13.6109 15.05C14.6562 15.8656 15.7063 16.675 16.7516 17.4906C15.6076 18.5308 14.2132 19.2561 12.7047 19.5953C11.0397 19.9867 9.30457 19.9679 7.64844 19.5406C6.3386 19.1909 5.11512 18.5744 4.05469 17.7297C2.93228 16.8386 2.01556 15.7156 1.36719 14.4375Z" fill="#319F43"/>
</g>
<defs>
<clipPath id="clip0_820_3225">
<rect width="20" height="20" fill="white"/>
</clipPath>
</defs>
</svg>
