<svg width="24" height="24" viewBox="0 0 24 24" fill="none" xmlns="http://www.w3.org/2000/svg">
<path d="M4 11.25C3.58579 11.25 3.25 11.5858 3.25 12C3.25 12.4142 3.58579 12.75 4 12.75V11.25ZM21.0303 12.5303C21.3232 12.2374 21.3232 11.7626 21.0303 11.4697L16.2574 6.6967C15.9645 6.40381 15.4896 6.40381 15.1967 6.6967C14.9038 6.98959 14.9038 7.46447 15.1967 7.75736L19.4393 12L15.1967 16.2426C14.9038 16.5355 14.9038 17.0104 15.1967 17.3033C15.4896 17.5962 15.9645 17.5962 16.2574 17.3033L21.0303 12.5303ZM4 12.75H20.5V11.25H4V12.75Z" fill="#23A25D"/>
</svg>
