<svg width="24" height="24" viewBox="0 0 24 24" fill="none" xmlns="http://www.w3.org/2000/svg">
<path fill-rule="evenodd" clip-rule="evenodd" d="M16.75 6C16.75 3.37665 14.6234 1.25 12 1.25H7C4.37665 1.25 2.25 3.37665 2.25 6V18C2.25 20.6234 4.37665 22.75 7 22.75H12C14.6234 22.75 16.75 20.6234 16.75 18V16C16.75 15.5858 16.4142 15.25 16 15.25C15.5858 15.25 15.25 15.5858 15.25 16V18C15.25 19.7949 13.7949 21.25 12 21.25H7C5.20507 21.25 3.75 19.7949 3.75 18V6C3.75 4.20507 5.20507 2.75 7 2.75H12C13.7949 2.75 15.25 4.20507 15.25 6V8C15.25 8.41421 15.5858 8.75 16 8.75C16.4142 8.75 16.75 8.41421 16.75 8V6ZM20.1893 12.75L9 12.75C8.58579 12.75 8.25 12.4142 8.25 12C8.25 11.5858 8.58579 11.25 9 11.25L20.1893 11.25L18.4697 9.53033C18.1768 9.23744 18.1768 8.76256 18.4697 8.46967C18.7626 8.17678 19.2374 8.17678 19.5303 8.46967L21.8232 10.7626C22.5066 11.446 22.5066 12.554 21.8232 13.2374L19.5303 15.5303C19.2374 15.8232 18.7626 15.8232 18.4697 15.5303C18.1768 15.2374 18.1768 14.7626 18.4697 14.4697L20.1893 12.75Z" fill="#F0616D"/>
</svg>
