<svg width="18" height="12" viewBox="0 0 18 12" fill="none" xmlns="http://www.w3.org/2000/svg">
<path d="M17.9483 5.757C17.922 5.69775 17.2868 4.2885 15.8745 2.87625C13.9928 0.9945 11.616 0 9 0C6.384 0 4.00725 0.9945 2.12549 2.87625C0.713243 4.2885 0.0749929 5.7 0.0517429 5.757C0.0176277 5.83373 0 5.91677 0 6.00075C0 6.08473 0.0176277 6.16777 0.0517429 6.2445C0.0779929 6.30375 0.713243 7.71225 2.12549 9.1245C4.00725 11.0055 6.384 12 9 12C11.616 12 13.9928 11.0055 15.8745 9.1245C17.2868 7.71225 17.922 6.30375 17.9483 6.2445C17.9824 6.16777 18 6.08473 18 6.00075C18 5.91677 17.9824 5.83373 17.9483 5.757ZM9 10.8C6.6915 10.8 4.67475 9.96075 3.00524 8.30625C2.32023 7.62502 1.73743 6.84822 1.27499 6C1.73731 5.1517 2.32012 4.37488 3.00524 3.69375C4.67475 2.03925 6.6915 1.2 9 1.2C11.3085 1.2 13.3253 2.03925 14.9948 3.69375C15.6811 4.37472 16.2652 5.15154 16.7288 6C16.188 7.0095 13.8323 10.8 9 10.8ZM9 2.4C8.28799 2.4 7.59196 2.61114 6.99995 3.00671C6.40793 3.40228 5.94651 3.96453 5.67403 4.62234C5.40156 5.28015 5.33026 6.00399 5.46917 6.70233C5.60808 7.40066 5.95094 8.04212 6.45441 8.54559C6.95788 9.04905 7.59934 9.39192 8.29767 9.53083C8.99601 9.66973 9.71985 9.59844 10.3777 9.32597C11.0355 9.05349 11.5977 8.59207 11.9933 8.00005C12.3889 7.40804 12.6 6.71201 12.6 6C12.599 5.04553 12.2194 4.13043 11.5445 3.45551C10.8696 2.7806 9.95448 2.40099 9 2.4ZM9 8.4C8.52532 8.4 8.06131 8.25924 7.66663 7.99553C7.27195 7.73181 6.96434 7.35698 6.78269 6.91844C6.60104 6.4799 6.55351 5.99734 6.64611 5.53178C6.73872 5.06623 6.9673 4.63859 7.30294 4.30294C7.63859 3.9673 8.06623 3.73872 8.53178 3.64612C8.99734 3.55351 9.4799 3.60104 9.91844 3.78269C10.357 3.96434 10.7318 4.27195 10.9955 4.66663C11.2592 5.06131 11.4 5.52533 11.4 6C11.4 6.63652 11.1471 7.24697 10.6971 7.69706C10.247 8.14714 9.63652 8.4 9 8.4Z" fill="#4A5056"/>
</svg>
