<svg width="24" height="24" viewBox="0 0 24 24" fill="none" xmlns="http://www.w3.org/2000/svg">
<path fill-rule="evenodd" clip-rule="evenodd" d="M19.0204 5.19067C19.2746 5.4449 19.2746 5.85709 19.0204 6.11133L16.7702 8.36149C16.7512 8.38324 16.7309 8.40346 16.7096 8.42211L14.4298 10.7019C14.4083 10.7319 14.3839 10.7605 14.3567 10.7873C14.3321 10.8115 14.3061 10.8333 14.2789 10.8528L11.0604 14.0713C11.0414 14.0975 11.0202 14.1226 10.9968 14.1464C10.9709 14.1727 10.9433 14.1964 10.9143 14.2174L8.61436 16.5173C8.60534 16.5269 8.59608 16.5362 8.58659 16.5451L6.32239 18.8093C6.06816 19.0635 5.65597 19.0635 5.40173 18.8093C5.1475 18.5551 5.1475 18.1429 5.40173 17.8887L7.15246 16.1379C5.90567 15.1335 4.92865 13.9797 4.3477 13.2222C4.07675 12.8726 3.92969 12.4428 3.92969 12.0004C3.92969 11.5581 4.07671 11.1283 4.34759 10.7787C4.95783 9.98229 6.00292 8.75261 7.33678 7.7163C8.6642 6.68499 10.3442 5.79362 12.2097 5.79362C13.685 5.79362 15.0425 6.35091 16.1992 7.09118L18.0997 5.19067C18.354 4.93644 18.7661 4.93644 19.0204 5.19067ZM15.2535 8.03692C14.2979 7.46656 13.2676 7.09562 12.2097 7.09562C10.7563 7.09562 9.3555 7.79667 8.13558 8.74446C6.923 9.68655 5.95477 10.8217 5.37995 11.5721L5.37731 11.5756L5.3773 11.5755C5.28292 11.6971 5.23169 11.8465 5.23169 12.0004C5.23169 12.1543 5.28292 12.3037 5.3773 12.4252L5.37979 12.4285L5.37978 12.4285C5.94804 13.1696 6.8952 14.2804 8.07899 15.2114L9.65467 13.6357C9.55954 13.4882 9.47718 13.3323 9.4087 13.1698C9.25333 12.8009 9.17252 12.405 9.17094 12.0047C9.16936 11.6045 9.24703 11.2079 9.39948 10.8379C9.55194 10.4678 9.77615 10.1316 10.0592 9.84865C10.3422 9.56568 10.6785 9.34155 11.0486 9.18918C11.4187 9.03682 11.8153 8.95924 12.2155 8.96092C12.6157 8.96259 13.0117 9.04349 13.3805 9.19895C13.5428 9.26738 13.6984 9.34964 13.8458 9.44464L15.2535 8.03692ZM12.8866 10.4038C12.8827 10.4021 12.8787 10.4004 12.8747 10.3987C12.6643 10.31 12.4384 10.2639 12.21 10.2629C11.9817 10.2619 11.7554 10.3062 11.5442 10.3931C11.3331 10.4801 11.1412 10.608 10.9797 10.7694C10.8182 10.9309 10.6903 11.1227 10.6033 11.3338C10.5163 11.545 10.472 11.7712 10.4729 11.9996C10.4738 12.228 10.5199 12.4539 10.6086 12.6643C10.6103 12.6684 10.6121 12.6725 10.6138 12.6766L12.8866 10.4038ZM17.7671 9.1503C18.026 8.90085 18.4382 8.90853 18.6876 9.16745C19.179 9.67751 19.6413 10.2149 20.0723 10.7769C20.3434 11.1265 20.4906 11.5563 20.4908 11.9988C20.491 12.4412 20.3442 12.8712 20.0733 13.2211C19.4631 14.0175 18.418 15.2473 17.084 16.2837C15.7566 17.315 14.0766 18.2064 12.2111 18.2064H12.2081V18.2064C11.6086 18.2036 11.0126 18.1154 10.4381 17.9444C10.0935 17.8418 9.89729 17.4793 9.99986 17.1347C10.1024 16.7901 10.4649 16.5939 10.8095 16.6965C11.265 16.8321 11.7374 16.9021 12.2126 16.9044C13.6654 16.9039 15.0657 16.203 16.2852 15.2555C17.4978 14.3134 18.466 13.1783 19.0408 12.4279L19.0433 12.4247C19.1377 12.3031 19.1889 12.1534 19.1888 11.9994C19.1887 11.8454 19.1374 11.6958 19.0429 11.5742L19.0402 11.5707L19.0402 11.5707C18.6387 11.0469 18.2079 10.5461 17.75 10.0708C17.5005 9.81187 17.5082 9.39975 17.7671 9.1503Z" fill="#858585"/>
</svg>
