<svg width="24" height="24" viewBox="0 0 24 24" fill="none" xmlns="http://www.w3.org/2000/svg">
<path d="M11.9997 4.77433V20.2414M11.9997 4.77433L13.0081 4.39589C15.303 3.5347 17.863 3.5347 20.1579 4.39589C20.767 4.62445 21.1663 5.17788 21.1663 5.79332V18.4898C21.1663 19.3348 20.2566 19.9127 19.4202 19.5988C17.5989 18.9153 15.5671 18.9153 13.7458 19.5988L12.0122 20.2494C12.0062 20.2516 11.9997 20.2475 11.9997 20.2414M11.9997 4.77433L10.9912 4.39589C8.69636 3.5347 6.13633 3.5347 3.84147 4.39589C3.23239 4.62445 2.83301 5.17788 2.83301 5.79332V18.4898C2.83301 19.3348 3.74277 19.9127 4.57912 19.5988C6.40045 18.9153 8.43223 18.9153 10.2536 19.5988L11.9871 20.2494C11.9931 20.2516 11.9997 20.2475 11.9997 20.2414" stroke="#262B39" stroke-width="1.5"/>
</svg>
