<svg width="24" height="24" viewBox="0 0 24 24" fill="none" xmlns="http://www.w3.org/2000/svg">
<path fill-rule="evenodd" clip-rule="evenodd" d="M24 12C24 18.6274 18.6274 24 12 24C5.37258 24 0 18.6274 0 12C0 5.37258 5.37258 0 12 0C18.6274 0 24 5.37258 24 12ZM13.1943 19.1136V9.36364H15.1332V10.5547H15.2209C15.3071 10.3639 15.4317 10.17 15.5948 9.97301C15.761 9.77296 15.9765 9.60677 16.2411 9.47443C16.5089 9.33902 16.8413 9.27131 17.2383 9.27131C17.7553 9.27131 18.2324 9.40672 18.6694 9.67756C19.1064 9.94531 19.4558 10.35 19.7174 10.8917C19.979 11.4303 20.1098 12.1058 20.1098 12.9183C20.1098 13.7093 19.982 14.3771 19.7266 14.9219C19.4742 15.4635 19.1295 15.8744 18.6925 16.1545C18.2585 16.4315 17.7723 16.57 17.2337 16.57C16.8521 16.57 16.5274 16.5069 16.2596 16.3807C15.9949 16.2545 15.778 16.096 15.6087 15.9052C15.4394 15.7113 15.3102 15.5159 15.2209 15.3189H15.1609V19.1136H13.1943ZM15.1193 12.9091C15.1193 13.3307 15.1778 13.6985 15.2948 14.0124C15.4117 14.3263 15.581 14.571 15.8026 14.7464C16.0242 14.9188 16.2935 15.005 16.6105 15.005C16.9305 15.005 17.2014 14.9173 17.423 14.7418C17.6446 14.5633 17.8123 14.3171 17.9262 14.0032C18.0431 13.6862 18.1016 13.3215 18.1016 12.9091C18.1016 12.4998 18.0446 12.1397 17.9308 11.8288C17.8169 11.518 17.6492 11.2749 17.4276 11.0994C17.206 10.924 16.9336 10.8363 16.6105 10.8363C16.2904 10.8363 16.0196 10.9209 15.798 11.0902C15.5794 11.2595 15.4117 11.4995 15.2948 11.8104C15.1778 12.1212 15.1193 12.4875 15.1193 12.9091ZM4.69995 7V16.4545H6.69889V13.103H8.15803L9.94889 16.4545H12.1556L10.1496 12.7815C10.1784 12.769 10.2069 12.7561 10.2351 12.7429C10.7491 12.5028 11.1415 12.1581 11.4123 11.7088C11.6831 11.2564 11.8186 10.7163 11.8186 10.0884C11.8186 9.46366 11.6847 8.92045 11.4169 8.45881C11.1522 7.99408 10.766 7.63554 10.2582 7.38317C9.75346 7.12772 9.14408 7 8.43007 7H4.69995ZM6.69889 11.4964H8.05613C8.43776 11.4964 8.75476 11.4441 9.00712 11.3395C9.25949 11.2348 9.44723 11.0779 9.57034 10.8686C9.69652 10.6593 9.75961 10.3993 9.75961 10.0884C9.75961 9.7745 9.69652 9.50982 9.57034 9.29439C9.44723 9.07895 9.25795 8.91584 9.00251 8.80504C8.75014 8.69117 8.4316 8.63423 8.0469 8.63423H6.69889V11.4964Z" fill="#DC0020"/>
</svg>
