<svg width="24" height="24" viewBox="0 0 24 24" fill="none" xmlns="http://www.w3.org/2000/svg">
<path fill-rule="evenodd" clip-rule="evenodd" d="M12 24C18.6274 24 24 18.6274 24 12C24 5.37258 18.6274 0 12 0C5.37258 0 0 5.37258 0 12C0 18.6274 5.37258 24 12 24ZM16.125 10.2763L16.592 8.5527H14.723C14.6404 8.0607 14.4805 7.61335 14.2434 7.21063C14.2027 7.14055 14.1595 7.07227 14.1141 7.00579L16.125 7.01326L16.6052 5.26331H9.86852H9.52643H7.90804L7.3949 7.29615H9.86852C10.7369 7.29615 11.3685 7.50009 11.7632 7.90798C11.9444 8.09517 12.084 8.31008 12.182 8.5527H7.86857L7.3949 10.2763H12.2492C12.2031 10.4256 12.142 10.5659 12.0658 10.6974C11.8772 11.0263 11.5987 11.2829 11.2303 11.4671C10.8663 11.6469 10.4124 11.7368 9.86852 11.7368H7.59226L7.59884 13.1973L12.204 18.7367H14.9473V18.6183L10.7896 13.5197L10.8685 13.4934C11.7983 13.3706 12.5505 13.125 13.125 12.7565C13.6996 12.3881 14.1206 11.9167 14.3882 11.3421C14.5415 11.0128 14.6509 10.6575 14.7164 10.2763H16.125Z" fill="#6B11C0"/>
</svg>
