<svg width="40" height="40" viewBox="0 0 40 40" fill="none" xmlns="http://www.w3.org/2000/svg">
<path d="M10.3002 37.9166C10.1336 37.9166 9.95023 37.9 9.80023 37.8833L6.18356 37.3833C4.45023 37.15 2.88356 35.5999 2.61689 33.8333L2.11689 30.1833C1.95023 29.0166 2.45023 27.5 3.28356 26.65L10.6002 19.3333C9.41689 14.6 10.7836 9.59995 14.2669 6.14995C19.6669 0.76662 28.4502 0.749954 33.8669 6.14995C36.4836 8.76662 37.9169 12.25 37.9169 15.95C37.9169 19.65 36.4836 23.1333 33.8669 25.75C30.3669 29.2166 25.3836 30.5833 20.6836 29.3833L13.3502 36.7C12.6502 37.4333 11.4002 37.9166 10.3002 37.9166ZM24.0502 4.59995C21.1336 4.59995 18.2336 5.69995 16.0169 7.91662C13.0169 10.9 11.9336 15.2666 13.1836 19.3333C13.3169 19.7833 13.2002 20.25 12.8669 20.5833L5.03356 28.4166C4.75023 28.7 4.51689 29.4333 4.56689 29.8166L5.06689 33.4666C5.16689 34.1 5.85023 34.8166 6.48356 34.9L10.1169 35.4C10.5169 35.4666 11.2502 35.2333 11.5336 34.95L19.4002 27.1C19.7336 26.7666 20.2169 26.6666 20.6502 26.8C24.6669 28.0666 29.0502 26.9833 32.0502 23.9833C34.1836 21.85 35.3669 18.9833 35.3669 15.95C35.3669 12.9 34.1836 10.05 32.0502 7.91662C29.8836 5.71662 26.9669 4.59995 24.0502 4.59995Z" fill="url(#paint0_linear_1691_536)"/>
<path d="M15.3165 34.2333C14.9998 34.2333 14.6831 34.1167 14.4331 33.8667L10.5998 30.0333C10.1165 29.55 10.1165 28.75 10.5998 28.2667C11.0831 27.7833 11.8831 27.7833 12.3665 28.2667L16.1998 32.1C16.6831 32.5833 16.6831 33.3833 16.1998 33.8667C15.9498 34.1167 15.6331 34.2333 15.3165 34.2333Z" fill="url(#paint1_linear_1691_536)"/>
<path d="M24.167 19.5834C22.1003 19.5834 20.417 17.9 20.417 15.8334C20.417 13.7667 22.1003 12.0834 24.167 12.0834C26.2337 12.0834 27.917 13.7667 27.917 15.8334C27.917 17.9 26.2337 19.5834 24.167 19.5834ZM24.167 14.5834C23.4837 14.5834 22.917 15.15 22.917 15.8334C22.917 16.5167 23.4837 17.0834 24.167 17.0834C24.8503 17.0834 25.417 16.5167 25.417 15.8334C25.417 15.15 24.8503 14.5834 24.167 14.5834Z" fill="url(#paint2_linear_1691_536)"/>
<defs>
<linearGradient id="paint0_linear_1691_536" x1="1.43039" y1="32.701" x2="40.9225" y2="35.4202" gradientUnits="userSpaceOnUse">
<stop stop-color="#2CC8AE"/>
<stop offset="1" stop-color="#23A25D"/>
</linearGradient>
<linearGradient id="paint1_linear_1691_536" x1="10.1218" y1="33.3115" x2="17.0929" y2="33.7909" gradientUnits="userSpaceOnUse">
<stop stop-color="#2CC8AE"/>
<stop offset="1" stop-color="#23A25D"/>
</linearGradient>
<linearGradient id="paint2_linear_1691_536" x1="20.28" y1="18.491" x2="28.5461" y2="19.0598" gradientUnits="userSpaceOnUse">
<stop stop-color="#2CC8AE"/>
<stop offset="1" stop-color="#23A25D"/>
</linearGradient>
</defs>
</svg>
