<svg width="24" height="24" viewBox="0 0 24 24" fill="none" xmlns="http://www.w3.org/2000/svg">
<path d="M12 0C18.6274 0 24 5.37258 24 12C24 18.6274 18.6274 24 12 24C5.37258 24 0 18.6274 0 12C0 5.37258 5.37258 0 12 0Z" fill="#B65B00"/>
<path d="M8.42321 17.5C7.70098 17.5 7.08276 17.2458 6.56854 16.7373C6.06009 16.2231 5.80587 15.6049 5.80587 14.8827V14.12C5.80587 14.0796 5.80587 14.0362 5.80587 13.99C5.80587 13.9438 5.81454 13.834 5.83187 13.6607C5.85498 13.4816 5.88387 13.314 5.91854 13.158C5.95898 13.002 6.01965 12.8142 6.10054 12.5947C6.18721 12.3693 6.28543 12.1642 6.39521 11.9793C6.51076 11.7944 6.66098 11.6096 6.84587 11.4247C7.03076 11.2398 7.23876 11.0838 7.46987 10.9567L8.39721 11.6673L8.19787 11.8147C8.07076 11.9129 7.94076 12.0689 7.80787 12.2827C7.68076 12.4964 7.61721 12.7189 7.61721 12.95C7.61721 12.9789 7.61721 13.0078 7.61721 13.0367C7.65187 13.4931 7.96098 13.7213 8.54454 13.7213H15.3912C15.7437 13.7213 15.969 13.6549 16.0672 13.522C16.1654 13.3833 16.1712 13.1811 16.0845 12.9153L14.8279 9.11933C14.6777 8.64556 14.7845 8.25556 15.1485 7.94933L17.8352 5.696L18.7539 8.868L17.8699 9.492V15.186C17.8699 15.8216 17.6445 16.3676 17.1939 16.824C16.7432 17.2747 16.2001 17.5 15.5645 17.5H8.42321ZM10.9972 12.586L10.2865 11.6413H12.7652L12.7479 11.5373C12.7421 11.4738 12.7017 11.4073 12.6265 11.338C12.5572 11.2687 12.4619 11.234 12.3405 11.234H11.6039C11.3785 11.234 11.2254 11.1936 11.1445 11.1127C11.0637 11.0318 11.0232 10.9364 11.0232 10.8267V10.272L12.7912 9.69133V10.428L12.0199 10.6793C12.2105 10.6736 12.3752 10.6851 12.5139 10.714C12.6525 10.7371 12.7854 10.7891 12.9125 10.87C13.0397 10.9451 13.135 11.0664 13.1985 11.234C13.2679 11.3958 13.3025 11.6009 13.3025 11.8493V11.936C13.3025 12.1093 13.2505 12.2624 13.1465 12.3953C13.0425 12.5224 12.8981 12.586 12.7132 12.586H10.9972Z" fill="white"/>
</svg>
