<svg width="24" height="24" viewBox="0 0 24 24" fill="none" xmlns="http://www.w3.org/2000/svg">
<path d="M9 2.4578C9.94704 2.16035 10.9548 2 12 2C17.5228 2 22 6.47715 22 12C22 17.5228 17.5228 22 12 22C6.47715 22 2 17.5228 2 12C2 9.61233 2.8368 7.42011 4.23314 5.70061C4.35438 5.55131 4.47983 5.40557 4.60933 5.26358" stroke="#262B39" stroke-width="1.425" stroke-linecap="round" stroke-linejoin="round"/>
<path d="M15.059 7.45869C15.3372 7.18044 15.7883 7.18044 16.0666 7.45869L18.2448 9.63693C18.8945 10.105 19.1172 10.665 18.7811 11.2185C18.6504 11.4338 18.3943 11.525 18.1423 11.525L16.6926 11.525L6.06277 11.525C5.66927 11.525 5.35027 11.206 5.35027 10.8125C5.35027 10.419 5.66927 10.1 6.06277 10.1L16.6926 10.1L15.059 8.46631C14.7807 8.18806 14.7807 7.73693 15.059 7.45869Z" fill="#262B39"/>
<path d="M9.22717 16.8818C8.94893 17.16 8.4978 17.16 8.21955 16.8818L6.0413 14.7035C5.39161 14.2355 5.16895 13.6755 5.505 13.122C5.63575 12.9066 5.89187 12.8155 6.14382 12.8155L7.59349 12.8155L18.2234 12.8155C18.6169 12.8155 18.9359 13.1345 18.9359 13.528C18.9359 13.9215 18.6169 14.2405 18.2234 14.2405L7.59349 14.2405L9.22717 15.8742C9.50542 16.1524 9.50542 16.6035 9.22717 16.8818Z" fill="#262B39"/>
</svg>
