<svg width="20" height="20" viewBox="0 0 20 20" fill="none" xmlns="http://www.w3.org/2000/svg">
<path fill-rule="evenodd" clip-rule="evenodd" d="M5.7271 4.84401C5.48302 4.59993 5.08729 4.59993 4.84321 4.84401C4.59914 5.08809 4.59914 5.48381 4.84321 5.72789L9.11532 10L4.84322 14.2721C4.59914 14.5162 4.59914 14.9119 4.84322 15.156C5.0873 15.4001 5.48302 15.4001 5.7271 15.156L9.9992 10.8839L14.2713 15.156C14.5154 15.4001 14.9111 15.4001 15.1552 15.156C15.3993 14.9119 15.3993 14.5162 15.1552 14.2721L10.8831 10L15.1552 5.72789C15.3993 5.48381 15.3993 5.08809 15.1552 4.84401C14.9111 4.59993 14.5154 4.59993 14.2713 4.84401L9.9992 9.11611L5.7271 4.84401Z" fill="#999999"/>
</svg>
