<svg width="28" height="28" viewBox="0 0 28 28" fill="none" xmlns="http://www.w3.org/2000/svg">
<path d="M17.5 11.6667L16.3497 11.4753C16.3219 11.6424 16.3308 11.8135 16.3758 11.9768C16.4208 12.14 16.5009 12.2915 16.6103 12.4207C16.7198 12.55 16.8561 12.6538 17.0097 12.7251C17.1633 12.7963 17.3306 12.8333 17.5 12.8333V11.6667ZM4.66667 11.6667V10.5C4.35725 10.5 4.0605 10.6229 3.84171 10.8417C3.62292 11.0605 3.5 11.3572 3.5 11.6667H4.66667ZM7 24.5H20.2533V22.1667H7V24.5ZM21.6533 10.5H17.5V12.8333H21.6533V10.5ZM18.6515 11.858L19.5907 6.21717L17.29 5.83333L16.3497 11.4753L18.6515 11.858ZM17.29 3.5H17.0403V5.83333H17.29V3.5ZM13.1565 5.57783L10.2235 9.98083L12.1648 11.2758L15.1002 6.87283L13.1565 5.57783ZM9.25167 10.5H4.66667V12.8333H9.25167V10.5ZM3.5 11.6667V21H5.83333V11.6667H3.5ZM23.6857 21.686L25.0857 14.686L22.799 14.2287L21.399 21.2287L23.6857 21.686ZM10.2235 9.98083C10.1169 10.1406 9.97141 10.2715 9.80208 10.3621C9.63275 10.4527 9.44369 10.5 9.25167 10.5V12.8333C9.82785 12.8333 10.3951 12.691 10.9031 12.4191C11.4111 12.1472 11.8441 11.7541 12.1637 11.2747L10.2235 9.98083ZM19.5907 6.21717C19.6464 5.88296 19.6287 5.54063 19.5387 5.21396C19.4488 4.88729 19.2888 4.58413 19.0699 4.32555C18.8509 4.06697 18.5783 3.85918 18.2709 3.71661C17.9636 3.57404 17.6288 3.50013 17.29 3.5V5.83333L19.5907 6.21717ZM21.6533 12.8333C21.826 12.8333 21.9965 12.8715 22.1525 12.9453C22.3086 13.0191 22.4464 13.1266 22.5558 13.2601C22.6653 13.3936 22.7438 13.5497 22.7857 13.7172C22.8275 13.8847 22.8328 14.0594 22.799 14.2287L25.0857 14.686C25.1871 14.1783 25.1747 13.6545 25.0493 13.1522C24.9239 12.6499 24.6886 12.1816 24.3604 11.7812C24.0322 11.3808 23.6193 11.0582 23.1514 10.8367C22.6835 10.6151 22.1722 10.5001 21.6545 10.5L21.6533 12.8333ZM20.2533 24.5C21.0626 24.5 21.8468 24.2197 22.4726 23.7066C23.0984 23.1936 23.5271 22.4795 23.6857 21.686L21.399 21.2287C21.3461 21.4934 21.203 21.7317 20.994 21.9027C20.7851 22.0738 20.5233 22.167 20.2533 22.1667V24.5ZM17.0403 3.5C16.2721 3.50001 15.5158 3.68967 14.8385 4.05214C14.1612 4.41461 13.5827 4.93868 13.1565 5.57783L15.1002 6.87283C15.3132 6.55315 15.6007 6.291 15.9393 6.10966C16.278 5.92832 16.6562 5.8334 17.0403 5.83333V3.5ZM7 22.1667C6.69058 22.1667 6.39383 22.0438 6.17504 21.825C5.95625 21.6062 5.83333 21.3094 5.83333 21H3.5C3.5 21.9283 3.86875 22.8185 4.52513 23.4749C5.1815 24.1313 6.07174 24.5 7 24.5V22.1667Z" fill="#23A25D"/>
<path d="M9.33203 11.6667V23.3334" stroke="#23A25D" stroke-width="2.33333"/>
</svg>
