<svg width="24" height="24" viewBox="0 0 24 24" fill="none" xmlns="http://www.w3.org/2000/svg">
<path fill-rule="evenodd" clip-rule="evenodd" d="M8.37203 7.3777C8.37203 5.37418 9.99621 3.75 11.9997 3.75C14.0033 3.75 15.6274 5.37418 15.6274 7.3777C15.6274 9.38122 14.0033 11.0054 11.9997 11.0054C9.99621 11.0054 8.37203 9.38122 8.37203 7.3777ZM11.9997 2.25C9.16778 2.25 6.87203 4.54575 6.87203 7.3777C6.87203 10.2096 9.16778 12.5054 11.9997 12.5054C14.8317 12.5054 17.1274 10.2096 17.1274 7.3777C17.1274 4.54575 14.8317 2.25 11.9997 2.25ZM11.9998 15.3831C9.95367 15.3831 7.94888 15.8888 6.29584 16.8401C4.64349 17.7911 3.40567 19.1526 2.83674 20.7481C2.69762 21.1382 2.90112 21.5673 3.29127 21.7064C3.68142 21.8455 4.11048 21.642 4.2496 21.2519C4.6766 20.0544 5.63857 18.9491 7.04405 18.1402C8.44883 17.3317 10.1914 16.8831 11.9998 16.8831C13.8082 16.8831 15.5508 17.3317 16.9555 18.1402C18.361 18.9491 19.323 20.0544 19.75 21.2519C19.8891 21.642 20.3182 21.8455 20.7083 21.7064C21.0985 21.5673 21.302 21.1382 21.1628 20.7481C20.5939 19.1526 19.3561 17.7911 17.7037 16.8401C16.0507 15.8888 14.0459 15.3831 11.9998 15.3831Z" fill="#262B39"/>
</svg>
