<svg width="1920" height="1080" viewBox="0 0 1920 1080" fill="none" xmlns="http://www.w3.org/2000/svg">
<g clip-path="url(#clip0_5082_11161)">
<rect width="1920" height="1080" fill="url(#paint0_linear_5082_11161)"/>
<g clip-path="url(#clip1_5082_11161)">
<path d="M909 567.5C909 659.461 834.674 734 743 734C651.326 734 577 659.461 577 567.5C577 475.539 651.326 401 743 401C834.674 401 909 475.539 909 567.5Z" stroke="white" stroke-width="4"/>
<path d="M1595.5 763.5C1595.5 856.285 1520.51 931.5 1428 931.5C1335.49 931.5 1260.5 856.285 1260.5 763.5C1260.5 670.715 1335.49 595.5 1428 595.5C1520.51 595.5 1595.5 670.715 1595.5 763.5Z" stroke="white"/>
<ellipse cx="1428" cy="763.5" rx="168" ry="168.5" fill="white"/>
<path d="M1428 932C1520.78 932 1596 856.56 1596 763.5H1260C1260 856.56 1335.22 932 1428 932Z" fill="url(#paint1_linear_5082_11161)"/>
<ellipse cx="481" cy="778.5" rx="168" ry="168.5" fill="url(#paint2_linear_5082_11161)"/>
<path d="M481 947.5C573.784 947.5 649 872.06 649 779H313C313 872.06 388.216 947.5 481 947.5Z" fill="url(#paint3_radial_5082_11161)"/>
<circle cx="792" cy="904" r="166" stroke="white" stroke-width="4"/>
<path d="M1801 226C1801 288.408 1750.41 339 1688 339C1625.59 339 1575 288.408 1575 226C1575 163.592 1625.59 113 1688 113C1750.41 113 1801 163.592 1801 226Z" fill="url(#paint4_linear_5082_11161)"/>
<path d="M1736.22 343H1738.38L1738.21 340.844C1735.08 300.921 1701.69 269.5 1660.96 269.5C1658.32 269.5 1655.72 269.633 1653.15 269.894C1630.69 242.199 1596.18 224.5 1557.96 224.5C1519.7 224.5 1485.54 242.036 1463.09 269.506C1462.65 269.5 1462.23 269.5 1461.82 269.5H1461.8C1441.43 269.5 1422.9 277.355 1409.07 290.205C1395.24 303.043 1386.11 320.875 1384.55 340.844L1384.38 343H1386.54H1736.22Z" fill="#3A3A3A" stroke="white" stroke-width="4"/>
<path d="M1179.86 392.604C1488.48 486.674 1713 773.617 1713 1113C1713 1528.87 1375.87 1866 960 1866C544.13 1866 207 1528.87 207 1113C207 697.13 544.13 360 960 360C963.338 360 966.672 360.022 970 360.065" stroke="white" stroke-width="4"/>
<circle cx="1545" cy="1079" r="168" fill="url(#paint5_linear_5082_11161)"/>
<path fill-rule="evenodd" clip-rule="evenodd" d="M969 298.049C966.004 298.016 963.004 298 960 298C509.888 298 145 662.888 145 1113C145 1563.11 509.888 1928 960 1928C1410.11 1928 1775 1563.11 1775 1113C1775 739.119 1523.24 424.039 1180 328.039V332.195C1521 428.081 1771 741.346 1771 1113C1771 1560.9 1407.9 1924 960 1924C512.097 1924 149 1560.9 149 1113C149 665.097 512.097 302 960 302C963.004 302 966.004 302.016 969 302.049V298.049Z" fill="white"/>
<path d="M970 217V764M1180 217V764" stroke="white" stroke-width="4"/>
<path d="M970 696H1180" stroke="white" stroke-width="2"/>
<path d="M970 592H1180" stroke="white" stroke-width="4"/>
<path d="M970 488H1180" stroke="white" stroke-width="4"/>
<path d="M970 384H1180" stroke="white" stroke-width="4"/>
<path d="M970 280H1180" stroke="white" stroke-width="4"/>
</g>
</g>
<defs>
<linearGradient id="paint0_linear_5082_11161" x1="0" y1="629.174" x2="1920" y2="629.174" gradientUnits="userSpaceOnUse">
<stop stop-color="#303030"/>
<stop offset="1" stop-color="#0F0F0F"/>
</linearGradient>
<linearGradient id="paint1_linear_5082_11161" x1="1624.53" y1="894.687" x2="1513.58" y2="715.91" gradientUnits="userSpaceOnUse">
<stop offset="0.01" stop-color="#00613E"/>
<stop offset="0.15" stop-color="#007850"/>
<stop offset="0.74" stop-color="#00D89D"/>
<stop offset="1" stop-color="#00FFBC"/>
</linearGradient>
<linearGradient id="paint2_linear_5082_11161" x1="677.53" y1="872.374" x2="435.568" y2="677.433" gradientUnits="userSpaceOnUse">
<stop offset="0.01" stop-color="#00613E"/>
<stop offset="0.15" stop-color="#007850"/>
<stop offset="0.74" stop-color="#00D89D"/>
<stop offset="1" stop-color="#00FFBC"/>
</linearGradient>
<radialGradient id="paint3_radial_5082_11161" cx="0" cy="0" r="1" gradientUnits="userSpaceOnUse" gradientTransform="translate(481 863) rotate(90) scale(147.5 294.125)">
<stop stop-color="#8B8B8B"/>
<stop offset="1" stop-color="#3C3C3C"/>
</radialGradient>
<linearGradient id="paint4_linear_5082_11161" x1="1820.19" y1="288.954" x2="1657.82" y2="157.751" gradientUnits="userSpaceOnUse">
<stop offset="0.01" stop-color="#00613E"/>
<stop offset="0.15" stop-color="#007850"/>
<stop offset="0.74" stop-color="#00D89D"/>
<stop offset="1" stop-color="#00FFBC"/>
</linearGradient>
<linearGradient id="paint5_linear_5082_11161" x1="1741.53" y1="1172.6" x2="1500.13" y2="977.532" gradientUnits="userSpaceOnUse">
<stop offset="0.01" stop-color="#00613E"/>
<stop offset="0.15" stop-color="#007850"/>
<stop offset="0.74" stop-color="#00D89D"/>
<stop offset="1" stop-color="#00FFBC"/>
</linearGradient>
<clipPath id="clip0_5082_11161">
<rect width="1920" height="1080" fill="white"/>
</clipPath>
<clipPath id="clip1_5082_11161">
<rect width="1920" height="1080" fill="white"/>
</clipPath>
</defs>
</svg>
