<svg width="24" height="24" viewBox="0 0 24 24" fill="none" xmlns="http://www.w3.org/2000/svg">
<path fill-rule="evenodd" clip-rule="evenodd" d="M3.5 5.75018C3.5 3.95525 4.95507 2.50018 6.75 2.50018H10.374H12.295C12.3584 2.50018 12.4212 2.505 12.483 2.5144V5.4804C12.483 6.99918 13.7142 8.2304 15.233 8.2304H17.248V9.69206C17.7697 9.76404 18.2721 9.89645 18.748 10.082V8.20332C18.748 7.56099 18.5232 6.93892 18.1125 6.44503L14.4094 1.99189C13.887 1.36359 13.1121 1.00018 12.295 1.00018H10.374H6.75C4.12665 1.00018 2 3.12683 2 5.75018V16.8509C2 19.4743 4.12665 21.6009 6.75 21.6009H12.232C13.362 22.4778 14.7812 22.9998 16.3223 22.9998C20.0105 22.9998 23.0004 20.0099 23.0004 16.3216C23.0004 12.6334 20.0105 9.64351 16.3223 9.64351C14.5043 9.64351 12.856 10.3699 11.6518 11.5484C12.0404 11.1653 12.4756 10.8296 12.9482 10.5505H6.56218C6.14797 10.5505 5.81218 10.8863 5.81218 11.3005C5.81218 11.7148 6.14797 12.0505 6.56218 12.0505H11.1883C10.425 12.9671 9.9025 14.0912 9.71791 15.3257H6.56218C6.14797 15.3257 5.81218 15.6615 5.81218 16.0757C5.81218 16.49 6.14797 16.8257 6.56218 16.8257H9.66289C9.75321 18.0359 10.166 19.1562 10.8157 20.1009H6.75C4.95508 20.1009 3.5 18.6459 3.5 16.8509V5.75018ZM16.3989 6.7304L13.983 3.82512V5.4804C13.983 6.17075 14.5427 6.7304 15.233 6.7304H16.3989ZM16.3223 21.4998C19.1821 21.4998 21.5004 19.1814 21.5004 16.3216C21.5004 13.4618 19.1821 11.1435 16.3223 11.1435C13.4625 11.1435 11.1442 13.4618 11.1442 16.3216C11.1442 19.1814 13.4625 21.4998 16.3223 21.4998ZM14.15 19.2628C13.9219 19.0569 13.8649 18.8732 13.979 18.7116L14.3068 18.246C14.4145 18.0939 14.5792 18.1098 14.801 18.2935C14.972 18.436 15.1747 18.5453 15.4091 18.6214C15.6467 18.6942 15.851 18.7417 16.0221 18.7639V16.754C15.7718 16.6622 15.5042 16.537 15.2191 16.3787C15.0734 16.2963 14.9134 16.168 14.7392 15.9938C14.5681 15.8164 14.4303 15.6121 14.3258 15.3809C14.2213 15.1496 14.169 14.8629 14.169 14.5208C14.169 14.071 14.2957 13.702 14.5491 13.4138C14.8025 13.1255 15.0401 12.9497 15.2618 12.8863C15.4836 12.8198 15.737 12.7755 16.0221 12.7533V12.2686C16.0221 12.0786 16.1013 11.9836 16.2597 11.9836H16.6398C16.7982 11.9836 16.8773 12.0786 16.8773 12.2686V12.7533C17.1054 12.7818 17.343 12.8452 17.5901 12.9434C17.8371 13.0416 18.0383 13.1477 18.1935 13.2617C18.3772 13.3979 18.42 13.5405 18.3218 13.6893L17.9987 14.1835C17.8847 14.3545 17.7484 14.3672 17.5901 14.2215C17.4697 14.1106 17.3462 14.0283 17.2195 13.9744C17.0927 13.9206 16.9787 13.8794 16.8773 13.8509V15.704C17.1403 15.7958 17.4095 15.913 17.6851 16.0556C17.8878 16.1601 18.062 16.2868 18.2078 16.4357C18.3535 16.5846 18.4754 16.7699 18.5736 16.9916C18.675 17.2133 18.7257 17.5127 18.7257 17.8896C18.7257 18.3109 18.6322 18.6625 18.4453 18.9445C18.2616 19.2264 18.0446 19.4323 17.7944 19.5621C17.5441 19.692 17.2385 19.776 16.8773 19.814V20.3746C16.8773 20.5647 16.7982 20.6597 16.6398 20.6597H16.2597C16.1013 20.6597 16.0221 20.5647 16.0221 20.3746V19.814C15.699 19.7981 15.3569 19.749 14.9958 19.6667C14.6378 19.5875 14.3559 19.4529 14.15 19.2628ZM15.3854 14.5113C15.3854 14.7394 15.4329 14.912 15.5279 15.0292C15.623 15.1465 15.7212 15.2288 15.8225 15.2763C15.8764 15.3017 15.9429 15.3302 16.0221 15.3618V13.8224C15.8479 13.8541 15.6974 13.9317 15.5707 14.0552C15.4472 14.1756 15.3854 14.3276 15.3854 14.5113ZM16.8773 18.7496C16.9945 18.7148 17.126 18.6435 17.2717 18.5358C17.4174 18.425 17.4903 18.2206 17.4903 17.9229C17.4903 17.717 17.457 17.5554 17.3905 17.4382C17.3272 17.3179 17.2099 17.2165 17.0389 17.1341C16.9882 17.1088 16.9344 17.0835 16.8773 17.0581V18.7496Z" fill="#262B39"/>
</svg>
