<svg width="20" height="20" viewBox="0 0 20 20" fill="none" xmlns="http://www.w3.org/2000/svg">
<path fill-rule="evenodd" clip-rule="evenodd" d="M2.91699 4.79183C2.91699 3.29606 4.12955 2.0835 5.62533 2.0835H8.64534H10.2461C10.299 2.0835 10.3513 2.08751 10.4028 2.09534V4.56701C10.4028 5.83266 11.4289 6.85868 12.6945 6.85868H14.3737V8.07673C14.8084 8.13671 15.2271 8.24706 15.6237 8.40171V6.83611C15.6237 6.30083 15.4363 5.78244 15.0941 5.37087L12.0082 1.65992C11.5728 1.13633 10.9271 0.833496 10.2461 0.833496H8.64534H5.62533C3.4392 0.833496 1.66699 2.6057 1.66699 4.79183V14.0425C1.66699 16.2286 3.4392 18.0008 5.62533 18.0008H10.1936C11.1354 18.7315 12.318 19.1665 13.6022 19.1665C16.6758 19.1665 19.1673 16.6749 19.1673 13.6014C19.1673 10.5278 16.6758 8.03626 13.6022 8.03626C12.0872 8.03626 10.7136 8.64163 9.71014 9.62367C10.034 9.30442 10.3967 9.02465 10.7905 8.79212H5.46881C5.12363 8.79212 4.84381 9.07195 4.84381 9.41712C4.84381 9.7623 5.12363 10.0421 5.46881 10.0421H9.32394C8.68784 10.8059 8.25241 11.7426 8.09858 12.7715H5.46881C5.12363 12.7715 4.84381 13.0513 4.84381 13.3965C4.84381 13.7416 5.12363 14.0215 5.46881 14.0215H8.05274C8.128 15.0299 8.47201 15.9635 9.01339 16.7508H5.62533C4.12956 16.7508 2.91699 15.5382 2.91699 14.0425V4.79183ZM13.6661 5.60868L11.6528 3.18761V4.56701C11.6528 5.1423 12.1192 5.60868 12.6945 5.60868H13.6661ZM13.6022 17.9165C15.9854 17.9165 17.9173 15.9845 17.9173 13.6014C17.9173 11.2182 15.9854 9.28626 13.6022 9.28626C11.2191 9.28626 9.28712 11.2182 9.28712 13.6014C9.28712 15.9845 11.2191 17.9165 13.6022 17.9165ZM11.792 16.0523C11.6019 15.8808 11.5544 15.7277 11.6495 15.593L11.9227 15.205C12.0124 15.0783 12.1497 15.0915 12.3345 15.2446C12.477 15.3634 12.6459 15.4545 12.8413 15.5178C13.0393 15.5785 13.2095 15.6181 13.3521 15.6366V13.9617C13.1435 13.8851 12.9205 13.7809 12.6829 13.6489C12.5615 13.5803 12.4282 13.4734 12.283 13.3282C12.1404 13.1804 12.0256 13.0101 11.9385 12.8174C11.8514 12.6247 11.8078 12.3858 11.8078 12.1007C11.8078 11.7259 11.9134 11.4183 12.1246 11.1781C12.3358 10.9379 12.5338 10.7914 12.7185 10.7386C12.9033 10.6832 13.1145 10.6462 13.3521 10.6278V10.2239C13.3521 10.0655 13.4181 9.98631 13.55 9.98631H13.8668C13.9988 9.98631 14.0648 10.0655 14.0648 10.2239V10.6278C14.2548 10.6515 14.4528 10.7043 14.6587 10.7861C14.8646 10.868 15.0322 10.9564 15.1616 11.0514C15.3147 11.1649 15.3503 11.2837 15.2685 11.4078L14.9992 11.8196C14.9042 11.9621 14.7907 11.9727 14.6587 11.8513C14.5584 11.7589 14.4555 11.6902 14.3499 11.6454C14.2443 11.6005 14.1493 11.5662 14.0648 11.5424V13.0866C14.2839 13.1632 14.5083 13.2609 14.7379 13.3796C14.9068 13.4668 15.052 13.5723 15.1735 13.6964C15.2949 13.8205 15.3965 13.9749 15.4783 14.1597C15.5628 14.3445 15.605 14.5939 15.605 14.908C15.605 15.2591 15.5272 15.5521 15.3714 15.7871C15.2183 16.022 15.0375 16.1936 14.829 16.3018C14.6204 16.41 14.3657 16.48 14.0648 16.5117V16.9789C14.0648 17.1373 13.9988 17.2165 13.8668 17.2165H13.55C13.4181 17.2165 13.3521 17.1373 13.3521 16.9789V16.5117C13.0828 16.4985 12.7977 16.4575 12.4968 16.3889C12.1985 16.3229 11.9636 16.2107 11.792 16.0523ZM12.8215 12.0928C12.8215 12.2829 12.8611 12.4267 12.9403 12.5244C13.0195 12.6221 13.1013 12.6907 13.1858 12.7303C13.2306 12.7514 13.2861 12.7752 13.3521 12.8016V11.5187C13.2069 11.5451 13.0815 11.6097 12.9759 11.7127C12.873 11.813 12.8215 11.9397 12.8215 12.0928ZM14.0648 15.6247C14.1624 15.5957 14.272 15.5363 14.3934 15.4465C14.5149 15.3541 14.5756 15.1839 14.5756 14.9358C14.5756 14.7642 14.5478 14.6295 14.4924 14.5319C14.4396 14.4316 14.3419 14.3471 14.1994 14.2785C14.1572 14.2573 14.1123 14.2362 14.0648 14.2151V15.6247Z" fill="#23a25d"/>
</svg>
