<svg width="40" height="40" viewBox="0 0 40 40" fill="none" xmlns="http://www.w3.org/2000/svg">
<path d="M30 17.9167C29.3167 17.9167 28.75 17.35 28.75 16.6667V13.3334C28.75 8.08337 27.2667 4.58337 20 4.58337C12.7333 4.58337 11.25 8.08337 11.25 13.3334V16.6667C11.25 17.35 10.6833 17.9167 10 17.9167C9.31667 17.9167 8.75 17.35 8.75 16.6667V13.3334C8.75 8.50004 9.91667 2.08337 20 2.08337C30.0833 2.08337 31.25 8.50004 31.25 13.3334V16.6667C31.25 17.35 30.6833 17.9167 30 17.9167Z" fill="url(#paint0_linear_1545_15735)"/>
<path d="M19.9997 32.0833C17.0163 32.0833 14.583 29.65 14.583 26.6667C14.583 23.6833 17.0163 21.25 19.9997 21.25C22.983 21.25 25.4163 23.6833 25.4163 26.6667C25.4163 29.65 22.983 32.0833 19.9997 32.0833ZM19.9997 23.75C18.3997 23.75 17.083 25.0667 17.083 26.6667C17.083 28.2667 18.3997 29.5833 19.9997 29.5833C21.5997 29.5833 22.9163 28.2667 22.9163 26.6667C22.9163 25.0667 21.5997 23.75 19.9997 23.75Z" fill="url(#paint1_linear_1545_15735)"/>
<path d="M28.333 37.9166H11.6663C4.31634 37.9166 2.08301 35.6833 2.08301 28.3333V25C2.08301 17.65 4.31634 15.4166 11.6663 15.4166H28.333C35.683 15.4166 37.9163 17.65 37.9163 25V28.3333C37.9163 35.6833 35.683 37.9166 28.333 37.9166ZM11.6663 17.9166C5.69967 17.9166 4.58301 19.05 4.58301 25V28.3333C4.58301 34.2833 5.69967 35.4166 11.6663 35.4166H28.333C34.2997 35.4166 35.4163 34.2833 35.4163 28.3333V25C35.4163 19.05 34.2997 17.9166 28.333 17.9166H11.6663Z" fill="url(#paint2_linear_1545_15735)"/>
<defs>
<linearGradient id="paint0_linear_1545_15735" x1="8.33897" y1="15.6107" x2="33.0189" y2="18.024" gradientUnits="userSpaceOnUse">
<stop stop-color="#2CC8AE"/>
<stop offset="1" stop-color="#23A25D"/>
</linearGradient>
<linearGradient id="paint1_linear_1545_15735" x1="14.3851" y1="30.5055" x2="26.3251" y2="31.3271" gradientUnits="userSpaceOnUse">
<stop stop-color="#2CC8AE"/>
<stop offset="1" stop-color="#23A25D"/>
</linearGradient>
<linearGradient id="paint2_linear_1545_15735" x1="1.42841" y1="34.6396" x2="40.6384" y2="38.9366" gradientUnits="userSpaceOnUse">
<stop stop-color="#2CC8AE"/>
<stop offset="1" stop-color="#23A25D"/>
</linearGradient>
</defs>
</svg>
