<svg width="20" height="20" viewBox="0 0 20 20" fill="none" xmlns="http://www.w3.org/2000/svg">
<path d="M2.5 2.36115C2.5 1.51782 3.171 0.833374 3.99777 0.833374H8.70505C8.87529 0.833374 9.03856 0.902358 9.15894 1.02515C9.27932 1.14794 9.34695 1.31448 9.34695 1.48814C9.34695 1.66179 9.27932 1.82833 9.15894 1.95112C9.03856 2.07391 8.87529 2.1429 8.70505 2.1429H3.99777C3.94102 2.1429 3.8866 2.16589 3.84647 2.20682C3.80635 2.24775 3.7838 2.30327 3.7838 2.36115V17.6389C3.7838 17.7594 3.87966 17.8572 3.99777 17.8572H8.70505C8.87529 17.8572 9.03856 17.9262 9.15894 18.049C9.27932 18.1717 9.34695 18.3383 9.34695 18.5119C9.34695 18.6856 9.27932 18.8521 9.15894 18.9749C9.03856 19.0977 8.87529 19.1667 8.70505 19.1667H3.99777C3.60054 19.1667 3.21957 19.0057 2.93869 18.7192C2.6578 18.4327 2.5 18.0441 2.5 17.6389V2.36115ZM16.199 10.6548H9.13298C8.96274 10.6548 8.79947 10.5858 8.67909 10.463C8.55871 10.3402 8.49108 10.1737 8.49108 10C8.49108 9.82639 8.55871 9.65985 8.67909 9.53705C8.79947 9.41426 8.96274 9.34528 9.13298 9.34528H16.199L13.3747 6.30369C13.2622 6.17691 13.2028 6.01026 13.2092 5.83938C13.2156 5.66851 13.2872 5.50696 13.4089 5.38928C13.5305 5.2716 13.6924 5.20713 13.86 5.20964C14.0277 5.21215 14.1877 5.28146 14.3059 5.40274L18.1573 9.54956C18.2703 9.6712 18.3333 9.83243 18.3333 10C18.3333 10.1677 18.2703 10.3289 18.1573 10.4505L14.3059 14.5973C14.1877 14.7186 14.0277 14.7879 13.86 14.7904C13.6924 14.793 13.5305 14.7285 13.4089 14.6108C13.2872 14.4931 13.2156 14.3316 13.2092 14.1607C13.2028 13.9898 13.2622 13.8232 13.3747 13.6964L16.199 10.6548Z" fill="#4A5056"/>
</svg>
