<svg width="32" height="32" viewBox="0 0 32 32" fill="none" xmlns="http://www.w3.org/2000/svg">
<path d="M19 11.5C19 16.1944 15.1944 20 10.5 20C5.80558 20 2 16.1944 2 11.5C2 6.80558 5.80558 3 10.5 3C15.1944 3 19 6.80558 19 11.5Z" fill="#0CB450"/>
<path d="M30 15C30 17.7614 27.7614 20 25 20C22.2386 20 20 17.7614 20 15C20 12.2386 22.2386 10 25 10C27.7614 10 30 12.2386 30 15Z" fill="#0CB450" fill-opacity="0.3"/>
<rect x="2" y="22" width="28" height="3" rx="0.6" fill="#0CB450"/>
<path d="M15.5491 22.1867C15.7981 21.9378 16.2017 21.9378 16.4507 22.1867L23.2397 28.9757C23.6177 29.3537 23.35 30 22.8154 30H9.18437C8.64982 30 8.38213 29.3537 8.7601 28.9757L15.5491 22.1867Z" fill="#0CB450" fill-opacity="0.3"/>
</svg>
