<svg width="24" height="24" viewBox="0 0 24 24" fill="none" xmlns="http://www.w3.org/2000/svg">
<rect x="2" y="2" width="20" height="20" rx="10" stroke="#262B39" stroke-width="1.5"/>
<path d="M10.182 7.5V6M10.182 7.5H9.45467M10.182 7.5H13.0907M9.45467 7.5H8M9.45467 7.5V12M13.0907 7.5V6M13.0907 7.5C14.296 7.5 15.2727 8.50733 15.2727 9.75C15.2727 10.9927 14.296 12 13.0907 12H9.45467M10.182 18V16.5M10.182 16.5H9.45467M10.182 16.5H13.0907M9.45467 16.5H8M9.45467 16.5V12M13.0907 16.5V18M13.0907 16.5H13.818C15.0233 16.5 16 15.4927 16 14.25C16 13.0073 15.0233 12 13.818 12H13.0913" stroke="#262B39" stroke-width="1.5" stroke-linecap="round" stroke-linejoin="round"/>
</svg>
