<svg width="41" height="26" viewBox="0 0 41 26" fill="none" xmlns="http://www.w3.org/2000/svg">
<path d="M25.9618 22.959H15.0078V3.04213H25.9618V22.959Z" fill="#F1511B"/>
<path d="M15.7037 13.0003C15.7037 8.95966 17.5735 5.36116 20.4852 3.04183C18.3558 1.34566 15.6688 0.33366 12.7485 0.33366C5.83502 0.33366 0.230469 6.00467 0.230469 13.0003C0.230469 19.9957 5.83502 25.667 12.7485 25.667C15.6688 25.667 18.3558 24.655 20.4852 22.9587C17.5735 20.6393 15.7037 17.0407 15.7037 13.0003Z" fill="#E71B25"/>
<path d="M40.7388 13.0003C40.7388 19.9957 35.1342 25.667 28.2209 25.667C25.3007 25.667 22.6138 24.655 20.4844 22.9587C23.3959 20.6393 25.2656 17.0407 25.2656 13.0003C25.2656 8.95966 23.3959 5.36116 20.4844 3.04183C22.6138 1.34566 25.3007 0.33366 28.2209 0.33366C35.1342 0.33366 40.7388 6.00467 40.7388 13.0003Z" fill="#F79410"/>
<path d="M40.348 20.8496V20.358H40.2211L40.075 20.6961L39.9293 20.358H39.8024V20.8496H39.8918V20.4789L40.0288 20.7985H40.1216L40.2587 20.478V20.8496H40.348ZM39.5444 20.8496V20.4418H39.7071V20.3591H39.293V20.4418H39.4557V20.8496H39.5444Z" fill="#231F20"/>
</svg>
