<svg width="24" height="24" viewBox="0 0 24 24" fill="none" xmlns="http://www.w3.org/2000/svg">
<path d="M22.9209 1L12.8516 8.45057L14.724 4.05974L22.9209 1Z" fill="#E17726"/>
<path d="M0.569025 1.00879L8.74395 4.06028L10.5219 8.50868L0.569025 1.00879ZM18.872 16.8453L23.3225 16.93L21.7671 22.2139L16.3365 20.7187L18.872 16.8453ZM4.59759 16.8453L7.12365 20.7187L1.70221 22.2139L0.15625 16.93L4.59759 16.8453Z" fill="#E27625"/>
<path d="M10.28 7.3756L10.4619 13.2499L5.01953 13.0023L6.5676 10.6668L6.58721 10.6443L10.28 7.3756ZM13.1329 7.31006L16.8821 10.6445L16.9015 10.6669L18.4496 13.0024L13.0085 13.2499L13.1329 7.31006ZM7.28287 16.8624L10.2545 19.1778L6.80254 20.8444L7.28287 16.8624ZM16.187 16.862L16.6573 20.8445L13.215 19.1776L16.187 16.862Z" fill="#E27625"/>
<path d="M13.2911 18.9595L16.7842 20.651L13.5349 22.1952L13.5687 21.1746L13.2911 18.9595ZM10.1774 18.9603L9.91079 21.1579L9.9327 22.194L6.67578 20.651L10.1774 18.9603Z" fill="#D5BFB2"/>
<path d="M9.16762 14.0166L10.0804 15.935L6.97266 15.0246L9.16762 14.0166ZM14.2996 14.0168L16.5049 15.0246L13.3869 15.9347L14.2996 14.0168Z" fill="#233447"/>
<path d="M7.51908 16.8427L7.01674 20.9714L4.32422 16.933L7.51908 16.8427ZM15.9478 16.8428L19.1428 16.933L16.4402 20.9716L15.9478 16.8428ZM18.527 12.7688L16.2018 15.1385L14.4091 14.3192L13.5508 16.1236L12.9882 13.0208L18.527 12.7688ZM4.93857 12.7688L10.4784 13.0208L9.9157 16.1236L9.05724 14.3195L7.27405 15.1386L4.93857 12.7688Z" fill="#CC6228"/>
<path d="M4.78125 12.2825L7.4119 14.952L7.50302 17.5873L4.78125 12.2825ZM18.6868 12.2778L15.9601 17.592L16.0628 14.952L18.6868 12.2778ZM10.3492 12.4452L10.455 13.1116L10.7167 14.7717L10.5485 19.8707L9.75325 15.7746L9.75297 15.7322L10.3492 12.4452ZM13.1149 12.4359L13.7126 15.7322L13.7123 15.7746L12.9151 19.881L12.8836 18.8538L12.7592 14.7415L13.1149 12.4359Z" fill="#E27525"/>
<path d="M16.2979 14.8459L16.2089 17.1355L13.4337 19.2977L12.8727 18.9013L13.5016 15.6623L16.2979 14.8459ZM7.17969 14.8459L9.96626 15.6623L10.5951 18.9013L10.0341 19.2977L7.25889 17.1354L7.17969 14.8459Z" fill="#F5841F"/>
<path d="M6.14453 20.1453L9.69496 21.8276L9.67993 21.1092L9.97702 20.8484H13.491L13.7988 21.1083L13.7761 21.8261L17.304 20.1495L15.5873 21.5682L13.5115 22.9939H9.94851L7.8741 21.5623L6.14453 20.1453Z" fill="#C0AC9D"/>
<path d="M13.0354 18.7356L13.5373 19.0903L13.8315 21.4373L13.4058 21.0779H10.0622L9.64453 21.4445L9.92906 19.0904L10.4312 18.7356H13.0354Z" fill="#161616"/>
<path d="M22.2579 1.20624L23.4667 4.8323L22.7118 8.49869L23.2493 8.9133L22.5219 9.46825L23.0687 9.89046L22.3448 10.5496L22.7892 10.8715L21.6098 12.2489L16.7725 10.8404L16.7306 10.8179L13.2448 7.87746L22.2579 1.20624ZM1.20872 1.20624L10.2219 7.87746L6.73603 10.8179L6.69414 10.8404L1.85689 12.2489L0.677508 10.8715L1.12154 10.5499L0.398108 9.89046L0.943708 9.46871L0.205425 8.9122L0.763217 8.49731L0 4.83248L1.20872 1.20624Z" fill="#763E1A"/>
<path d="M16.5349 10.5324L21.6602 12.0247L23.3253 17.1567H18.9323L15.9055 17.1949L18.1068 12.9041L16.5349 10.5324ZM6.92966 10.5324L5.35749 12.9041L7.55905 17.1949L4.53359 17.1567H0.148438L1.80421 12.0248L6.92966 10.5324ZM14.9758 4.03528L13.5422 7.90719L13.238 13.1377L13.1216 14.7771L13.1123 18.9652H10.3521L10.3431 14.785L10.2264 13.1363L9.92203 7.90719L8.48864 4.03528H14.9758Z" fill="#F5841F"/>
</svg>
