<svg width="24" height="24" viewBox="0 0 24 24" fill="none" xmlns="http://www.w3.org/2000/svg">
<path fill-rule="evenodd" clip-rule="evenodd" d="M11.9069 2.60721C12.0617 2.88192 12.0407 3.22194 11.8533 3.47552C10.9706 4.6697 10.5459 6.14103 10.6563 7.62192C10.7667 9.1028 11.405 10.4949 12.4551 11.5449C13.5051 12.595 14.8972 13.2332 16.3781 13.3437C17.8589 13.4541 19.3303 13.0294 20.5244 12.1467C20.778 11.9592 21.118 11.9382 21.3928 12.0931C21.6675 12.2479 21.8256 12.5496 21.7966 12.8636C21.6253 14.7171 20.9297 16.4835 19.7911 17.9561C18.6526 19.4287 17.1182 20.5466 15.3675 21.179C13.6168 21.8113 11.7222 21.932 9.90537 21.5269C8.08858 21.1218 6.42473 20.2077 5.10851 18.8915C3.7923 17.5752 2.87816 15.9114 2.47306 14.0946C2.06796 12.2778 2.18865 10.3832 2.82101 8.63251C3.45338 6.88181 4.57126 5.34741 6.04386 4.20885C7.51645 3.0703 9.28285 2.37468 11.1364 2.20339C11.4503 2.17437 11.7521 2.33251 11.9069 2.60721ZM9.65852 4.11469C8.70886 4.40268 7.81486 4.86203 7.02252 5.47464C5.79035 6.42731 4.85498 7.7112 4.32585 9.17607C3.79673 10.6409 3.69574 12.2262 4.03471 13.7464C4.37367 15.2666 5.13856 16.6588 6.23989 17.7601C7.34121 18.8614 8.73341 19.6263 10.2536 19.9653C11.7738 20.3042 13.359 20.2032 14.8239 19.6741C16.2888 19.145 17.5727 18.2096 18.5253 16.9775C19.1379 16.1851 19.5973 15.2911 19.8853 14.3415C18.7494 14.8233 17.5069 15.0323 16.2591 14.9392C14.396 14.8003 12.6447 13.9973 11.3237 12.6763C10.0027 11.3552 9.19965 9.60395 9.06072 7.7409C8.96767 6.49305 9.17667 5.25059 9.65852 4.11469Z" fill="#262B39"/>
</svg>
