<svg width="271" height="61" viewBox="0 0 271 61" fill="none" xmlns="http://www.w3.org/2000/svg">
<path d="M150.179 1.98071H145.004V58.9137H150.179V1.98071Z" fill="#89898B"/>
<path d="M216.273 1.98071H232.784V6.72621H227.168V58.9137H221.971V6.72621H216.273V1.98071Z" fill="#89898B"/>
<path d="M140.274 1.98071V58.9137H134.854L127.105 24.3385V58.9137H122.02V1.98071H126.697L135.189 39.6974V1.98071H140.274Z" fill="#89898B"/>
<path d="M27.7424 1.98071V58.9137H22.6572V10.1128L16.3818 58.9137H12.1473L5.97289 10.1128V58.9137H0.855469V1.98071H9.51341L14.4719 36.3044L19.1467 1.98071H27.7424Z" fill="#89898B"/>
<path d="M90.7718 58.9308C94.3771 54.0221 96.552 48.2091 97.055 42.1377C97.5579 36.0663 96.3692 29.9742 93.6208 24.5383C90.8725 19.1023 86.6721 14.5355 81.4865 11.345C76.3008 8.15462 70.333 6.46558 64.2459 6.46558C58.1588 6.46558 52.1909 8.15462 47.0053 11.345C41.8196 14.5355 37.6193 19.1023 34.871 24.5383C32.1226 29.9742 30.9339 36.0663 31.4368 42.1377C31.9397 48.2091 34.1147 54.0221 37.7199 58.9308H44.5668C40.7179 55.041 38.1052 50.0982 37.0577 44.7251C36.0102 39.3519 36.5748 33.7887 38.6803 28.736C40.7858 23.6834 44.3381 19.3673 48.8898 16.3314C53.4415 13.2955 58.789 11.6755 64.2588 11.6755C69.7286 11.6755 75.0761 13.2955 79.6278 16.3314C84.1795 19.3673 87.7318 23.6834 89.8373 28.736C91.9428 33.7887 92.5073 39.3519 91.4598 44.7251C90.4123 50.0982 87.7996 55.041 83.9508 58.9308H90.7718Z" fill="#89898B"/>
<path d="M251.517 58.9136H246.458L245.119 46.0898H237.549L236.324 58.9136H231.168L236.988 1.98486H244.881L251.517 58.9136ZM244.643 40.9487L241.205 9.55572L238.03 40.9487H244.647H244.643Z" fill="#89898B"/>
<path d="M189.707 51.6825C189.794 52.1568 189.776 52.6444 189.653 53.1107C189.531 53.5771 189.307 54.0108 188.999 54.3812C188.691 54.7516 188.304 55.0496 187.868 55.2541C187.432 55.4585 186.956 55.5645 186.474 55.5645C185.992 55.5645 185.516 55.4585 185.08 55.2541C184.644 55.0496 184.258 54.7516 183.949 54.3812C183.641 54.0108 183.417 53.5771 183.295 53.1107C183.173 52.6444 183.154 52.1568 183.241 51.6825V8.67843C183.154 8.20412 183.173 7.71653 183.295 7.25016C183.417 6.7838 183.641 6.35008 183.949 5.97969C184.258 5.60931 184.644 5.31133 185.08 5.10684C185.516 4.90234 185.992 4.79635 186.474 4.79635C186.956 4.79635 187.432 4.90234 187.868 5.10684C188.304 5.31133 188.691 5.60931 188.999 5.97969C189.307 6.35008 189.531 6.7838 189.653 7.25016C189.776 7.71653 189.794 8.20412 189.707 8.67843L189.695 10.734V21.4678H194.898V13.196V10.8028C194.861 3.70717 192.088 0.322754 186.304 0.322754C181.148 0.322754 177.797 3.9781 177.797 9.59872V11.6887V47.3261V49.6333C177.797 56.929 180.624 60.4854 186.427 60.4854C192.23 60.4854 194.907 56.9935 194.907 49.4828V28.7699H185.336V33.7562H189.686V49.7946L189.707 51.6825Z" fill="#89898B"/>
<path d="M211.028 50.3193V35.5173L199.176 26.6499V10.1062C199.176 3.604 202.1 0.279785 207.823 0.279785C213.639 0.279785 216.283 3.57819 216.316 10.8889L216.331 13.1573V21.5517H211.028V10.2933L211.018 8.68062C211.108 8.20889 211.093 7.72307 210.974 7.25784C210.854 6.79261 210.634 6.35947 210.328 5.98934C210.022 5.61921 209.639 5.32123 209.205 5.11669C208.77 4.91215 208.296 4.80609 207.817 4.80609C207.337 4.80609 206.863 4.91215 206.429 5.11669C205.994 5.32123 205.611 5.61921 205.305 5.98934C204.999 6.35947 204.779 6.79261 204.66 7.25784C204.54 7.72307 204.525 8.20889 204.615 8.68062V24.175L216.328 33.0317V50.1494C216.328 56.8408 213.351 60.4252 207.789 60.4252C202.153 60.4252 199.223 57.0472 199.195 50.5192V48.268V37.1256H204.618V51.6846C204.527 52.1564 204.543 52.6422 204.662 53.1074C204.781 53.5727 205.001 54.0058 205.307 54.3759C205.613 54.7461 205.997 55.044 206.431 55.2486C206.865 55.4531 207.339 55.5592 207.819 55.5592C208.299 55.5592 208.773 55.4531 209.207 55.2486C209.641 55.044 210.025 54.7461 210.33 54.3759C210.636 54.0058 210.856 53.5727 210.976 53.1074C211.095 52.6422 211.11 52.1564 211.02 51.6846L211.028 50.3193Z" fill="#89898B"/>
<path d="M118.874 58.9136H113.688C112.97 56.9543 112.614 54.8809 112.636 52.7941L112.593 49.8827L112.578 48.4034V37.289C112.633 36.8584 112.595 36.4209 112.466 36.0065C112.337 35.592 112.119 35.2105 111.829 34.888C111.539 34.5654 111.182 34.3096 110.783 34.138C110.385 33.9664 109.954 33.8831 109.52 33.8938H105.819V58.9136H100.742V1.98486H107.368C114.81 1.98486 117.68 4.70917 117.68 11.9919V22.6849C117.68 27.4755 116.881 29.4838 113.134 30.8664C113.188 30.8814 113.239 30.9051 113.291 30.9201C116.829 31.9522 117.622 33.2853 117.663 37.7879L117.68 39.8564V50.2461C117.558 53.1835 117.963 56.119 118.874 58.9136ZM105.819 6.46373V29.0107H107.636C108.299 29.1271 108.98 29.0844 109.623 28.8861C110.265 28.6879 110.852 28.3399 111.334 27.8705C111.817 27.4012 112.181 26.8241 112.397 26.1865C112.613 25.5489 112.675 24.8691 112.578 24.2029V12.5918C112.578 7.91727 111.503 6.45513 108.04 6.45513H105.819V6.46373Z" fill="#89898B"/>
<path d="M271.002 58.9136H265.811C265.093 56.9544 264.737 54.8808 264.761 52.7941L264.718 49.8827L264.698 48.4056V37.289C264.754 36.8586 264.716 36.4213 264.587 36.007C264.458 35.5927 264.241 35.2113 263.95 34.8888C263.66 34.5663 263.304 34.3104 262.906 34.1387C262.507 33.967 262.077 33.8834 261.643 33.8938H257.946V58.9136H252.867V1.98486H259.495C266.937 1.98486 269.807 4.70917 269.807 11.9919V22.6849C269.807 27.4755 269.006 29.4838 265.268 30.8664C265.317 30.8814 265.369 30.9051 265.424 30.9201C268.961 31.9522 269.756 33.2853 269.796 37.7879L269.809 39.8564V50.2461C269.685 53.1834 270.089 56.1191 271.002 58.9136ZM257.946 6.46373V29.0107H259.77C260.432 29.1247 261.111 29.0803 261.752 28.881C262.393 28.6818 262.978 28.3334 263.459 27.8644C263.94 27.3953 264.303 26.819 264.518 26.1826C264.733 25.5462 264.795 24.8678 264.698 24.2029V12.5918C264.698 7.91727 263.624 6.45513 260.161 6.45513H257.946V6.46373Z" fill="#89898B"/>
<path d="M173.085 1.98071V58.9137H167.666L159.917 24.3385V58.9137H154.832V1.98071H159.509L167.999 39.6974V1.98071H173.085Z" fill="#89898B"/>
</svg>
