<svg width="24" height="24" viewBox="0 0 24 24" fill="none" xmlns="http://www.w3.org/2000/svg">
<rect width="24" height="24" fill="none"/>
<path fill-rule="evenodd" clip-rule="evenodd" d="M24 12C24 18.6274 18.6274 24 12 24C5.37258 24 0 18.6274 0 12C0 5.37258 5.37258 0 12 0C18.6274 0 24 5.37258 24 12ZM17.0865 17.2678V16.3244C16.5474 16.2948 16.0687 16.1936 15.6502 16.0208C15.1481 15.8123 14.7558 15.5036 14.4732 15.0948C14.1933 14.6833 14.0466 14.1743 14.0328 13.568H15.7572C15.7764 13.8506 15.8574 14.0865 16 14.2758C16.1455 14.4624 16.3389 14.6037 16.5803 14.6997C16.7362 14.7593 16.9049 14.7998 17.0865 14.8214V12.6529L16.5515 12.5185C15.8409 12.3457 15.2798 12.0754 14.8683 11.7078C14.4567 11.3401 14.2523 10.8449 14.2551 10.2221C14.2523 9.71178 14.3881 9.26594 14.6625 8.88457C14.9396 8.50321 15.3196 8.20552 15.8025 7.99151C16.1884 7.82047 16.6165 7.71778 17.0865 7.68344V6.73218H17.7615V7.67982C18.258 7.71007 18.6997 7.81397 19.0867 7.99151C19.5558 8.20552 19.9207 8.50321 20.1814 8.88457C20.442 9.26594 20.5765 9.70767 20.5847 10.2098H18.8768C18.8438 9.87777 18.7025 9.61987 18.4529 9.43605C18.2702 9.30152 18.0397 9.21622 17.7615 9.18014V11.2308L18.173 11.3292C18.5407 11.4115 18.8781 11.5212 19.1854 11.6584C19.4927 11.7956 19.7588 11.9643 19.9838 12.1646C20.2088 12.3649 20.383 12.6008 20.5065 12.8725C20.6327 13.1441 20.6972 13.4555 20.6999 13.8067C20.6972 14.3225 20.5655 14.7697 20.3048 15.1483C20.0469 15.5242 19.6738 15.8164 19.1854 16.0249C18.7804 16.1965 18.3058 16.2966 17.7615 16.3251V17.2678H17.0865ZM18.1936 14.708C18.0632 14.7595 17.9192 14.7959 17.7615 14.8172V12.8261C17.9446 12.8791 18.1065 12.9357 18.2471 12.9959C18.4611 13.0865 18.623 13.1962 18.7327 13.3252C18.8452 13.4541 18.9015 13.6133 18.9015 13.8026C18.9015 14.0056 18.8397 14.1853 18.7163 14.3417C18.5928 14.4981 18.4186 14.6202 18.1936 14.708ZM17.0865 9.1831V11.062C17.0218 11.0425 16.9587 11.0218 16.8972 10.9999C16.7353 10.9396 16.5927 10.8696 16.4692 10.79C16.3457 10.7077 16.2483 10.6103 16.177 10.4978C16.1084 10.3854 16.0769 10.2537 16.0824 10.1028C16.0824 9.92167 16.1345 9.7598 16.2387 9.61713C16.3457 9.47446 16.4994 9.36334 16.6997 9.28377C16.8139 9.23683 16.9429 9.20327 17.0865 9.1831ZM5.89761 7.78571H3.69995V16.2142H5.42845V10.7077H5.49841L7.67962 16.173H8.85664L11.0378 10.7283H11.1078V16.2142H12.8363V7.78571H10.6386L8.31752 13.4486H8.21874L5.89761 7.78571Z" fill="#6946FF"/>
</svg>
