<svg width="20" height="20" viewBox="0 0 20 20" fill="none" xmlns="http://www.w3.org/2000/svg">
<path fill-rule="evenodd" clip-rule="evenodd" d="M2.05373 12.887C2.83513 12.1056 3.89494 11.6666 5.00001 11.6666H10C11.1051 11.6666 12.1649 12.1056 12.9463 12.887C13.7277 13.6684 14.1667 14.7282 14.1667 15.8333V17.5C14.1667 17.9602 13.7936 18.3333 13.3333 18.3333C12.8731 18.3333 12.5 17.9602 12.5 17.5V15.8333C12.5 15.1703 12.2366 14.5344 11.7678 14.0655C11.2989 13.5967 10.6631 13.3333 10 13.3333H5.00001C4.33697 13.3333 3.70108 13.5967 3.23224 14.0655C2.7634 14.5344 2.50001 15.1703 2.50001 15.8333V17.5C2.50001 17.9602 2.12691 18.3333 1.66668 18.3333C1.20644 18.3333 0.833344 17.9602 0.833344 17.5V15.8333C0.833344 14.7282 1.27233 13.6684 2.05373 12.887Z" fill="#4A5056"/>
<path fill-rule="evenodd" clip-rule="evenodd" d="M7.50001 3.33329C6.1193 3.33329 5.00001 4.45258 5.00001 5.83329C5.00001 7.214 6.1193 8.33329 7.50001 8.33329C8.88072 8.33329 10 7.214 10 5.83329C10 4.45258 8.88072 3.33329 7.50001 3.33329ZM3.33334 5.83329C3.33334 3.53211 5.19882 1.66663 7.50001 1.66663C9.8012 1.66663 11.6667 3.53211 11.6667 5.83329C11.6667 8.13448 9.8012 9.99996 7.50001 9.99996C5.19882 9.99996 3.33334 8.13448 3.33334 5.83329Z" fill="#4A5056"/>
<path fill-rule="evenodd" clip-rule="evenodd" d="M12.5261 2.40161C12.6402 1.95576 13.0942 1.68687 13.5401 1.80102C14.4363 2.0305 15.2307 2.55175 15.798 3.2826C16.3653 4.01344 16.6732 4.9123 16.6732 5.83748C16.6732 6.76266 16.3653 7.66152 15.798 8.39237C15.2307 9.12321 14.4363 9.64446 13.5401 9.87394C13.0942 9.9881 12.6402 9.7192 12.5261 9.27335C12.4119 8.82749 12.6808 8.37351 13.1267 8.25936C13.6644 8.12167 14.141 7.80892 14.4814 7.37041C14.8218 6.93191 15.0066 6.39259 15.0066 5.83748C15.0066 5.28237 14.8218 4.74306 14.4814 4.30455C14.141 3.86604 13.6644 3.55329 13.1267 3.41561C12.6808 3.30145 12.4119 2.84747 12.5261 2.40161ZM15.0265 12.4C15.1415 11.9544 15.5961 11.6864 16.0417 11.8014C16.9356 12.0322 17.7275 12.5534 18.2931 13.283C18.8587 14.0127 19.166 14.9095 19.1667 15.8327L19.1667 15.8333L19.1667 17.5C19.1667 17.9602 18.7936 18.3333 18.3334 18.3333C17.8731 18.3333 17.5 17.9602 17.5 17.5L17.5 15.8339C17.5 15.8338 17.5 15.8336 17.5 15.8335C17.5 15.8334 17.5 15.8334 17.5 15.8333C17.4995 15.2796 17.3151 14.7418 16.9759 14.3041C16.6365 13.8663 16.1613 13.5537 15.625 13.4152C15.1794 13.3001 14.9114 12.8456 15.0265 12.4Z" fill="#4A5056"/>
</svg>
