<svg width="24" height="24" viewBox="0 0 24 24" fill="none" xmlns="http://www.w3.org/2000/svg">
<rect x="5.30859" y="13.8845" width="13.3828" height="7.36548" rx="2.25" stroke="#262B39" stroke-width="1.5"/>
<rect x="7.24414" y="4.22241" width="9.51225" height="7.02759" rx="2.25" stroke="#262B39" stroke-width="1.5"/>
<path fill-rule="evenodd" clip-rule="evenodd" d="M5.79081 4.53424C5.51599 4.90602 5.35352 5.36589 5.35352 5.8637V6.03088H4.59961C3.77118 6.03088 3.09961 6.70246 3.09961 7.53088V8.57504C3.09961 9.40346 3.77118 10.075 4.59961 10.075H5.35352V10.0779C5.35352 10.6478 5.56641 11.1679 5.917 11.5631C5.82826 11.571 5.73841 11.575 5.64762 11.575H4.59961C2.94276 11.575 1.59961 10.2319 1.59961 8.57504V7.53088C1.59961 5.87403 2.94275 4.53088 4.59961 4.53088H5.64762C5.69562 4.53088 5.74336 4.53201 5.79081 4.53424Z" fill="#262B39"/>
<path fill-rule="evenodd" clip-rule="evenodd" d="M18.2092 4.53424C18.484 4.90602 18.6465 5.36589 18.6465 5.8637V6.03088H19.4004C20.2288 6.03088 20.9004 6.70246 20.9004 7.53088V8.57504C20.9004 9.40346 20.2288 10.075 19.4004 10.075H18.6465V10.0779C18.6465 10.6478 18.4336 11.1679 18.083 11.5631C18.1717 11.571 18.2616 11.575 18.3524 11.575H19.4004C21.0572 11.575 22.4004 10.2319 22.4004 8.57504V7.53088C22.4004 5.87403 21.0572 4.53088 19.4004 4.53088H18.3524C18.3044 4.53088 18.2566 4.53201 18.2092 4.53424Z" fill="#262B39"/>
<path fill-rule="evenodd" clip-rule="evenodd" d="M4.08008 14.2594H3C2.72386 14.2594 2.5 14.4833 2.5 14.7594V16.4059C2.5 16.682 2.72386 16.9059 3 16.9059H4.08008V18.4059H3C1.89543 18.4059 1 17.5105 1 16.4059V14.7594C1 13.6548 1.89543 12.7594 3 12.7594H4.78743C4.93337 12.7594 5.07566 12.775 5.21272 12.8047C4.56189 12.9686 4.08008 13.5577 4.08008 14.2594Z" fill="#262B39"/>
<path fill-rule="evenodd" clip-rule="evenodd" d="M19.9199 14.2594H21C21.2761 14.2594 21.5 14.4833 21.5 14.7594V16.4059C21.5 16.682 21.2761 16.9059 21 16.9059H19.9199V18.4059H21C22.1046 18.4059 23 17.5105 23 16.4059V14.7594C23 13.6548 22.1046 12.7594 21 12.7594H19.2126C19.0666 12.7594 18.9243 12.775 18.7873 12.8047C19.4381 12.9686 19.9199 13.5577 19.9199 14.2594Z" fill="#262B39"/>
</svg>
