<svg width="22" height="22" viewBox="0 0 22 22" fill="none" xmlns="http://www.w3.org/2000/svg">
<path d="M16.4112 15.2788C15.8364 14.6133 14.7604 13.6123 14.7604 10.3334C14.7615 9.15675 14.3817 8.01649 13.6864 7.10882C12.9911 6.20114 12.0238 5.58281 10.9509 5.3602V4.69239C10.9509 4.5577 10.9263 4.42433 10.8784 4.29989C10.8306 4.17546 10.7604 4.06239 10.672 3.96715C10.5835 3.87191 10.4786 3.79636 10.363 3.74482C10.2475 3.69328 10.1236 3.66675 9.99855 3.66675C9.87348 3.66675 9.74964 3.69328 9.63409 3.74482C9.51854 3.79636 9.41356 3.87191 9.32512 3.96715C9.23668 4.06239 9.16653 4.17546 9.11867 4.29989C9.07081 4.42433 9.04617 4.5577 9.04617 4.69239V5.3602C7.9733 5.58281 7.006 6.20114 6.31072 7.10882C5.61544 8.01649 5.23564 9.15675 5.23667 10.3334C5.23667 13.6123 4.16069 14.6133 3.58588 15.2788C3.42192 15.4671 3.33171 15.7163 3.33403 15.9744C3.33414 16.1094 3.35895 16.2429 3.40703 16.3675C3.45512 16.4921 3.52554 16.6053 3.61427 16.7005C3.703 16.7958 3.80829 16.8713 3.92413 16.9227C4.03997 16.9741 4.16408 17.0004 4.28937 17.0001H15.712C15.8373 17.0004 15.9614 16.9741 16.0772 16.9227C16.193 16.8713 16.2983 16.7958 16.3871 16.7005C16.4758 16.6053 16.5462 16.4921 16.5943 16.3675C16.6424 16.2429 16.6672 16.1094 16.6673 15.9744C16.6685 15.7157 16.5767 15.4664 16.4112 15.2788Z" stroke="#121212" stroke-width="1.5"/>
<path d="M9.16602 4.5H10.8327V5.57527L10.416 6.16667H9.99935H9.58268L9.16602 5.57527V4.5Z" fill="#121212"/>
<path d="M12.5 18.2501C12.5 18.8026 12.2366 19.3325 11.7678 19.7232C11.2989 20.1139 10.663 20.3334 10 20.3334C9.33696 20.3334 8.70107 20.1139 8.23223 19.7232C7.76339 19.3325 7.5 18.8026 7.5 18.2501L10 18.2501H12.5Z" fill="#121212"/>
<circle cx="19.166" cy="3.25" r="2.5" fill="#23A25D"/>
</svg>
