<svg width="24" height="24" viewBox="0 0 24 24" fill="none" xmlns="http://www.w3.org/2000/svg">
<path fill-rule="evenodd" clip-rule="evenodd" d="M6.66107 8.33695C6.66107 5.38943 9.05051 3 11.998 3C14.9455 3 17.335 5.38944 17.335 8.33696V10.4296C17.335 11.1424 17.565 11.7778 17.8389 12.3266C18.0308 12.7111 18.2712 13.1007 18.486 13.4488C18.5667 13.5797 18.6439 13.7047 18.7134 13.8214C18.9423 14.2052 19.074 14.6537 19.074 15.1351C19.074 16.3813 18.1878 17.4242 16.9881 17.5905C15.4175 17.8083 13.4899 18.0219 11.998 18.0219C10.506 18.0219 8.57839 17.8083 7.0078 17.5905C5.80816 17.4242 4.92188 16.3813 4.92188 15.1351C4.92188 14.6536 5.05358 14.2052 5.2825 13.8214C5.35209 13.7047 5.42922 13.5797 5.50997 13.4488L5.50998 13.4488C5.72478 13.1006 5.96516 12.711 6.15711 12.3265C6.43104 11.7777 6.66107 11.1423 6.66107 10.4294V8.33695ZM11.998 1.5C8.22208 1.5 5.16107 4.56101 5.16107 8.33695V10.4294C5.16107 10.8169 5.03655 11.2128 4.81502 11.6566C4.65492 11.9773 4.47124 12.2749 4.27091 12.5994L4.27091 12.5994C4.18177 12.7438 4.08933 12.8936 3.9942 13.0531C3.63058 13.6628 3.42188 14.3757 3.42188 15.1351C3.42188 17.0948 4.82599 18.8024 6.80177 19.0763C8.38455 19.2958 10.3972 19.5219 11.998 19.5219C13.5987 19.5219 15.6114 19.2958 17.1942 19.0763C19.1699 18.8024 20.574 17.0948 20.574 15.1351C20.574 14.3758 20.3654 13.6628 20.0018 13.0531C19.9067 12.8938 19.8144 12.7441 19.7253 12.5998L19.7251 12.5995C19.5248 12.275 19.3411 11.9774 19.181 11.6567C18.9595 11.2129 18.835 10.8171 18.835 10.4296V8.33696C18.835 4.56101 15.774 1.5 11.998 1.5ZM13.5473 20.6688C13.7767 20.3239 14.2422 20.2302 14.5871 20.4595C14.9321 20.6888 15.0258 21.1544 14.7964 21.4993C14.196 22.4024 13.1669 23.0002 11.998 23.0002C10.829 23.0002 9.79997 22.4024 9.19951 21.4993C8.97017 21.1544 9.06387 20.6888 9.4088 20.4595C9.75373 20.2302 10.2193 20.3239 10.4486 20.6688C10.7829 21.1715 11.3522 21.5002 11.998 21.5002C12.6437 21.5002 13.2131 21.1715 13.5473 20.6688Z" fill="#262B39"/>
</svg>
