<svg width="26" height="26" viewBox="0 0 26 26" fill="none" xmlns="http://www.w3.org/2000/svg">
<path fill-rule="evenodd" clip-rule="evenodd" d="M6.66303 10.337C6.66303 7.38943 9.05246 5 12 5C14.9475 5 17.3369 7.38944 17.3369 10.337V12.4296C17.3369 13.1424 17.5669 13.7778 17.8409 14.3266C18.0328 14.7111 18.2732 15.1007 18.4879 15.4488C18.5687 15.5797 18.6458 15.7047 18.7154 15.8214C18.9443 16.2052 19.076 16.6537 19.076 17.1351C19.076 18.3813 18.1897 19.4242 16.9901 19.5905C15.4195 19.8083 13.4919 20.0219 11.9999 20.0219C10.5079 20.0219 8.58035 19.8083 7.00975 19.5905C5.81011 19.4242 4.92383 18.3813 4.92383 17.1351C4.92383 16.6536 5.05554 16.2052 5.28445 15.8214C5.35404 15.7047 5.43117 15.5797 5.51192 15.4488L5.51193 15.4488C5.72673 15.1006 5.96711 14.711 6.15906 14.3265C6.433 13.7777 6.66303 13.1423 6.66303 12.4294V10.337ZM12 3.5C8.22404 3.5 5.16303 6.56101 5.16303 10.337V12.4294C5.16303 12.8169 5.0385 13.2128 4.81698 13.6566C4.65687 13.9773 4.47319 14.2749 4.27287 14.5994L4.27286 14.5994C4.18372 14.7438 4.09128 14.8936 3.99615 15.0531C3.63253 15.6628 3.42383 16.3757 3.42383 17.1351C3.42383 19.0948 4.82794 20.8024 6.80373 21.0763C8.3865 21.2958 10.3992 21.5219 11.9999 21.5219C13.6006 21.5219 15.6133 21.2958 17.1961 21.0763C19.1719 20.8024 20.576 19.0948 20.576 17.1351C20.576 16.3758 20.3673 15.6628 20.0037 15.0531C19.9087 14.8938 19.8163 14.7441 19.7272 14.5998L19.727 14.5995C19.5267 14.275 19.3431 13.9774 19.183 13.6567C18.9615 13.2129 18.8369 12.8171 18.8369 12.4296V10.337C18.8369 6.56101 15.7759 3.5 12 3.5ZM13.5493 22.6688C13.7786 22.3239 14.2442 22.2302 14.5891 22.4595C14.934 22.6888 15.0277 23.1544 14.7984 23.4993C14.1979 24.4024 13.1689 25.0002 11.9999 25.0002C10.8309 25.0002 9.80192 24.4024 9.20146 23.4993C8.97212 23.1544 9.06582 22.6888 9.41075 22.4595C9.75568 22.2302 10.2212 22.3239 10.4506 22.6688C10.7848 23.1715 11.3541 23.5002 11.9999 23.5002C12.6457 23.5002 13.215 23.1715 13.5493 22.6688Z" fill="#262B39"/>
<rect x="15.25" y="1.25001" width="9.5" height="9.5" rx="4.75" fill="#23A25D"/>
<rect x="15.25" y="1.25001" width="9.5" height="9.5" rx="4.75" stroke="#F8F8FA" stroke-width="1.5"/>
</svg>
