<svg width="24" height="24" viewBox="0 0 24 24" fill="none" xmlns="http://www.w3.org/2000/svg">
<path d="M22 5.5C22 6.42826 21.6313 7.3185 20.9749 7.97487C20.3185 8.63125 19.4283 9 18.5 9C17.5717 9 16.6815 8.63125 16.0251 7.97487C15.3687 7.3185 15 6.42826 15 5.5C15 4.57174 15.3687 3.6815 16.0251 3.02513C16.6815 2.36875 17.5717 2 18.5 2C19.4283 2 20.3185 2.36875 20.9749 3.02513C21.6313 3.6815 22 4.57174 22 5.5Z" stroke="#262B39" stroke-width="1.5" stroke-linecap="round" stroke-linejoin="round"/>
<path d="M21.95 11C21.9833 11.3287 22 11.662 22 12C22 17.523 17.523 22 12 22C6.477 22 2 17.523 2 12C2 6.477 6.477 2 12 2C12.338 2 12.6713 2.01667 13 2.05M8 10H12M8 15H16" stroke="#262B39" stroke-width="1.5" stroke-linecap="round" stroke-linejoin="round"/>
</svg>
