<svg width="26" height="24" viewBox="0 0 26 24" fill="none" xmlns="http://www.w3.org/2000/svg">
<path d="M15.9955 19.5869C15.9255 20.2801 15.6254 20.7566 15.0051 20.9407C14.685 21.0382 14.3648 20.9949 14.0747 20.8216C13.7545 20.6266 13.4344 20.4317 13.1143 20.2259C13.0242 20.1718 12.9642 20.1609 12.8742 20.2259C12.574 20.4317 12.2639 20.6158 11.9537 20.8107C11.1134 21.3089 10.1429 20.7782 10.0129 19.7494C9.99287 19.5653 9.91284 19.6411 9.8328 19.6627C8.97242 19.9552 8.11204 19.4028 7.92195 18.4606C7.89194 18.2982 7.89194 18.1249 7.91195 17.9624C7.92195 17.8649 7.89194 17.8325 7.8019 17.8325C6.87149 17.8325 6.21119 16.9444 6.33125 16.0238C6.35126 15.8939 6.28123 15.9155 6.21119 15.9047C5.80101 15.883 5.44085 15.7206 5.15072 15.3849C4.6505 14.8 4.63049 13.8361 5.13072 13.2513C5.25077 13.1105 5.22076 13.0456 5.13072 12.9264C4.68052 12.3741 4.16029 11.93 3.59003 11.5293C3.47998 11.4535 3.42996 11.4535 3.33992 11.5618C2.97976 12.0167 2.51956 12.1683 1.99933 12.0275C1.46909 11.8867 1.14895 11.4968 1.0289 10.9228C0.958866 10.5655 1.01889 10.2297 1.17896 9.91565C2.26945 7.83627 3.36993 5.76772 4.48043 3.69917C4.83058 3.04936 5.57091 2.82193 6.20119 3.14683C6.80146 3.4609 7.10159 4.22984 6.86148 4.91214C6.80146 5.08542 6.86148 5.12874 6.97153 5.19372C8.01199 5.74606 9.12249 5.88685 10.263 5.77855C10.7832 5.7244 11.3035 5.64859 11.8337 5.65942C12.1538 5.65942 12.464 5.71357 12.7541 5.85436C12.8041 5.87602 12.8541 5.89768 12.9142 5.88685C13.7145 5.80021 14.4949 5.93017 15.2852 6.02764C16.4858 6.17926 17.6163 5.93017 18.6967 5.367C18.7167 5.35617 18.7468 5.34534 18.7768 5.32368C18.8968 5.2587 19.0669 5.21538 19.1369 5.10708C19.207 4.99878 19.0769 4.84716 19.0569 4.7172C18.9368 4.04573 19.287 3.3526 19.8873 3.10351C20.5075 2.85442 21.1878 3.10351 21.518 3.73166C22.5785 5.71357 23.6389 7.70631 24.6994 9.68822C24.8595 9.99146 25.0095 10.2947 24.9995 10.6629C24.9895 11.2586 24.6694 11.7676 24.1592 11.9842C23.6589 12.2008 23.0787 12.0708 22.7185 11.6268C22.5785 11.4535 22.4884 11.4644 22.3383 11.5835C21.7881 11.9842 21.2779 12.4282 20.8477 12.9697C20.7677 13.0672 20.7576 13.1214 20.8477 13.2188C21.2479 13.6954 21.3479 14.2585 21.1378 14.865C20.9277 15.4607 20.5175 15.7964 19.9373 15.883C19.8773 15.883 19.8272 15.9047 19.7672 15.9047C19.6772 15.9047 19.6672 15.9372 19.6772 16.0238C19.7472 17.0419 19.1569 17.7891 18.2265 17.8216C18.0564 17.8216 18.0965 17.9299 18.1065 18.0274C18.1365 18.818 17.7163 19.4678 17.036 19.6736C16.6858 19.7819 16.3457 19.7494 16.0055 19.5869H15.9955ZM10.9633 6.45001C10.7732 6.45001 10.6031 6.42835 10.4331 6.45001C9.09247 6.60164 7.8019 6.42835 6.60137 5.75689C6.50132 5.70274 6.46131 5.7244 6.41128 5.82187C5.5509 7.43555 4.69052 9.04924 3.83014 10.6521C3.76011 10.7929 3.79012 10.8362 3.90017 10.9012C4.58047 11.3669 5.20075 11.8976 5.71097 12.5799C5.781 12.6773 5.83103 12.6882 5.93107 12.6232C6.39127 12.3199 6.86148 12.0492 7.33169 11.7459C7.88194 11.3885 8.44218 11.3669 8.97242 11.7459C9.50265 12.1358 9.71275 12.699 9.59269 13.3813C9.56268 13.5546 9.62271 13.5654 9.73276 13.5871C10.5631 13.782 11.0533 14.5834 10.8933 15.4932C10.8733 15.6339 10.8733 15.6664 11.0133 15.6989C11.7436 15.8614 12.2339 16.5545 12.1938 17.3668C12.1938 17.4859 12.2039 17.5184 12.3139 17.5292C13.2243 17.6159 13.7545 18.4931 13.4644 19.4353C13.4244 19.5653 13.4644 19.6086 13.5545 19.6627C13.8146 19.8144 14.0747 19.9877 14.3348 20.1501C14.4148 20.2043 14.5049 20.2476 14.6049 20.2584C14.9351 20.2909 15.2052 20.1176 15.3152 19.7819C15.4153 19.457 15.3052 19.1321 15.0051 18.948C14.4549 18.6014 13.9046 18.2548 13.3544 17.9083C13.1843 17.8 13.1243 17.5942 13.2143 17.4209C13.2943 17.2585 13.4844 17.2043 13.6545 17.291C13.7145 17.3234 13.7745 17.3668 13.8346 17.3993C14.6049 17.8866 15.3853 18.3631 16.1556 18.8505C16.4457 19.0346 16.7359 19.0671 17.036 18.883C17.6062 18.5256 17.6062 17.67 17.016 17.3018C16.3457 16.8794 15.6754 16.457 15.0051 16.0455C14.805 15.9264 14.745 15.7422 14.835 15.5581C14.9251 15.374 15.1251 15.3199 15.3252 15.439C15.5854 15.5906 15.8355 15.7531 16.0856 15.9155C16.6558 16.2729 17.2161 16.6303 17.7963 16.9769C18.2065 17.226 18.6967 17.0744 18.9268 16.652C19.1569 16.2188 19.0369 15.6989 18.6367 15.4282C18.5267 15.3524 18.4066 15.2874 18.2966 15.2116C17.7963 14.8975 17.3061 14.5943 16.8059 14.2802C16.6358 14.1719 16.5858 13.9553 16.6758 13.7928C16.7659 13.6304 16.946 13.5871 17.116 13.6737C17.156 13.6954 17.1861 13.717 17.2261 13.7495C17.9264 14.1827 18.6267 14.6376 19.337 15.06C19.8873 15.3957 20.5476 15.0166 20.5876 14.3343C20.6176 13.8686 20.3575 13.6087 20.0073 13.3921C18.6767 12.569 17.3561 11.7351 16.0255 10.912C15.4553 10.5546 14.885 10.1972 14.2348 10.0239C13.2743 9.77486 12.3339 9.88316 11.3835 10.0998C10.8533 10.2189 10.323 10.3813 9.76277 10.3489C9.19252 10.3164 8.76233 9.89399 8.68229 9.27667C8.58225 8.45358 8.9324 7.83627 9.50266 7.35974C9.94285 6.99152 10.4331 6.70994 10.9633 6.43918V6.45001ZM13.3544 6.54748C13.1743 6.54748 12.8241 6.57998 12.474 6.64496C11.5236 6.85073 10.7032 7.32725 9.91284 7.91208C9.58269 8.16117 9.36259 8.4969 9.31257 8.94094C9.26255 9.38497 9.48265 9.65573 9.89283 9.66656C10.173 9.66656 10.4331 9.61241 10.7032 9.54743C11.3235 9.40663 11.9437 9.26584 12.574 9.21169C13.8646 9.10339 15.0451 9.47161 16.1556 10.1972C17.4362 11.0311 18.7468 11.8217 20.0373 12.634C20.1274 12.6882 20.1874 12.7315 20.2674 12.6015C20.7677 11.9192 21.3979 11.3777 22.0782 10.9228C22.2083 10.8362 22.2083 10.7712 22.1383 10.6521C21.3079 9.10339 20.4775 7.54385 19.6472 5.99515C19.5471 5.81104 19.407 5.76772 19.227 5.86519C18.0064 6.55832 16.7259 6.89405 15.3352 6.7316C14.725 6.66662 14.1247 6.56915 13.3444 6.55832L13.3544 6.54748ZM20.3675 3.69917C19.8272 3.69917 19.5071 4.28399 19.7772 4.81467C20.3375 5.87602 20.8977 6.92654 21.458 7.97706C21.9882 8.9626 22.5184 9.95897 23.0387 10.9445C23.1987 11.2369 23.4188 11.4102 23.739 11.3669C24.2592 11.3019 24.4893 10.7279 24.2092 10.2081C23.6289 9.12505 23.0587 8.04204 22.4784 6.96986C21.9682 6.01681 21.468 5.07459 20.9577 4.12154C20.8177 3.87245 20.6376 3.71 20.3575 3.69917H20.3675ZM6.29123 4.45727C6.29123 4.12154 6.11115 3.83996 5.83103 3.73166C5.5509 3.63419 5.25077 3.73166 5.07069 4.01324C4.96064 4.19735 4.8606 4.39229 4.76055 4.57641C3.7501 6.46084 2.74966 8.34528 1.73921 10.2297C1.63917 10.4247 1.58915 10.6196 1.65918 10.8362C1.74922 11.1395 1.9393 11.3236 2.22943 11.3561C2.53957 11.3994 2.76967 11.2369 2.91974 10.9445C4.01022 8.89762 5.11071 6.8399 6.20119 4.79301C6.26122 4.68471 6.30123 4.56558 6.29123 4.43561V4.45727ZM6.2212 15.2007C6.38127 15.2007 6.52133 15.1574 6.66139 15.0708C7.11159 14.7892 7.5718 14.5076 8.022 14.226C8.2421 14.0852 8.46219 13.9769 8.66228 13.7928C8.98242 13.5004 9.06246 13.0022 8.84236 12.6232C8.61226 12.2333 8.14205 12.0708 7.77189 12.2983C7.09159 12.7098 6.43129 13.1322 5.761 13.5654C5.45086 13.7712 5.3208 14.1827 5.42084 14.5618C5.52089 14.9408 5.85104 15.2116 6.2212 15.2116V15.2007ZM10.263 15.2116C10.253 14.8542 10.1129 14.5943 9.8428 14.4101C9.56268 14.2369 9.28256 14.226 9.00243 14.4101C8.4722 14.7459 7.94196 15.0816 7.41173 15.4173C6.95152 15.7098 6.80146 16.2404 7.06157 16.6953C7.30168 17.1393 7.8119 17.2585 8.2521 16.9769C8.78234 16.652 9.30257 16.3162 9.8328 15.9913C10.1129 15.8181 10.243 15.5473 10.263 15.2224V15.2116ZM8.52222 18.1249C8.52222 18.2115 8.52222 18.309 8.55223 18.3956C8.72231 18.9588 9.28256 19.2079 9.77277 18.9046C10.263 18.6014 10.7432 18.2657 11.2234 17.9516C11.3335 17.8758 11.4035 17.7675 11.4535 17.6375C11.6036 17.2801 11.5236 16.8902 11.2534 16.6195C10.9933 16.3596 10.6232 16.2946 10.303 16.4895C9.8428 16.7711 9.3826 17.0527 8.9224 17.3451C8.65228 17.5184 8.51222 17.7783 8.51222 18.114L8.52222 18.1249ZM11.3135 20.2801C11.3135 20.2801 11.4135 20.2801 11.4635 20.2584C11.8837 20.0201 12.3139 19.8035 12.6841 19.4786C12.9442 19.2404 12.9642 18.8505 12.7741 18.5581C12.574 18.2548 12.2039 18.1574 11.9037 18.3415C11.5736 18.5472 11.2434 18.7638 10.9233 18.9913C10.6832 19.1537 10.5731 19.4895 10.6532 19.7927C10.7332 20.096 10.9933 20.2909 11.3135 20.2909V20.2801Z" fill="#060606" stroke="black" stroke-width="0.5" stroke-miterlimit="10"/>
</svg>
