<svg width="32" height="32" viewBox="0 0 32 32" fill="none" xmlns="http://www.w3.org/2000/svg">
<path d="M12 20C12 24.4183 15.5817 28 20 28C24.4183 28 28 24.4183 28 20C28 15.5817 24.4183 12 20 12C15.5817 12 12 15.5817 12 20Z" fill="#0CB450" fill-opacity="0.3"/>
<path fill-rule="evenodd" clip-rule="evenodd" d="M10.5585 20C6.82397 19.2921 4 16.0112 4 12.0707C4 7.61339 7.61339 4 12.0707 4C16.0112 4 19.2921 6.82397 20 10.5585C14.8192 10.6334 10.6334 14.8192 10.5585 20Z" fill="#0CB450"/>
<path d="M29 3.6C29 3.26863 28.7314 3 28.4 3H17L23 9L29 15V3.6Z" fill="#0CB450"/>
<path d="M3 28.4C3 28.7314 3.26863 29 3.6 29H15L9 23L3 17V28.4Z" fill="#0CB450" fill-opacity="0.3"/>
</svg>
