<svg width="24" height="24" viewBox="0 0 24 24" fill="none" xmlns="http://www.w3.org/2000/svg">
<path fill-rule="evenodd" clip-rule="evenodd" d="M15.9487 5.91973C14.8274 5.19151 13.5265 4.78757 12.1899 4.75257C10.8533 4.71757 9.53301 5.05287 8.37508 5.7214C8.30397 5.76246 8.22894 5.79054 8.15271 5.8064L10.685 6.58062C11.0811 6.70172 11.3041 7.12101 11.183 7.51713C11.0618 7.91324 10.6426 8.13618 10.2464 8.01507L7.1455 7.06699C6.22123 6.78441 5.70104 5.80606 5.98363 4.8818L6.93171 1.78085C7.05281 1.38474 7.4721 1.1618 7.86822 1.28291C8.26433 1.40402 8.48727 1.82331 8.36616 2.21942L7.7069 4.37571C9.08461 3.59993 10.6474 3.21167 12.2291 3.25309C13.8423 3.29533 15.4123 3.78284 16.7657 4.66172C18.119 5.5406 19.203 6.77662 19.8977 8.23312C19.9463 8.33496 19.9928 8.4376 20.0373 8.54098C21.7152 8.79949 23 10.2497 23 12C23 13.933 21.433 15.5 19.5 15.5C17.567 15.5 16 13.933 16 12C16 10.4376 17.0238 9.11427 18.4371 8.6643C17.86 7.55061 17.003 6.60438 15.9487 5.91973ZM16.8548 16.9331C17.779 17.2157 18.2992 18.194 18.0166 19.1183L17.0685 22.2192C16.9474 22.6154 16.5281 22.8383 16.132 22.7172C15.7359 22.5961 15.513 22.1768 15.6341 21.7807L16.2934 19.6244C14.9156 20.4002 13.3529 20.7884 11.7711 20.747C10.158 20.7048 8.58794 20.2173 7.23458 19.3384C5.88122 18.4595 4.79726 17.2235 4.10255 15.767C4.05396 15.6651 4.00741 15.5624 3.9629 15.459C2.28488 15.2006 1 13.7503 1 12C1 10.067 2.567 8.49999 4.5 8.49999C6.433 8.49999 8 10.067 8 12C8 13.5623 6.9763 14.8856 5.56307 15.3356C6.1402 16.4494 6.9972 17.3957 8.05154 18.0804C9.17289 18.8086 10.4738 19.2125 11.8104 19.2475C13.147 19.2825 14.4672 18.9472 15.6252 18.2787C15.6963 18.2376 15.7713 18.2096 15.8475 18.1937L13.3152 17.4195C12.9191 17.2984 12.6962 16.8791 12.8173 16.483C12.9384 16.0869 13.3577 15.8639 13.7538 15.985L16.8548 16.9331Z" fill="#262B39"/>
</svg>
