<svg width="28" height="28" viewBox="0 0 28 28" fill="none" xmlns="http://www.w3.org/2000/svg">
<path fill-rule="evenodd" clip-rule="evenodd" d="M14 3.79167C13.0717 3.79167 12.1815 4.16042 11.5251 4.81679C10.8687 5.47317 10.5 6.36341 10.5 7.29167V9.91667H22.75C23.2141 9.91667 23.6592 10.101 23.9874 10.4292C24.3156 10.7574 24.5 11.2025 24.5 11.6667V23.9167C24.5 24.3808 24.3156 24.8259 23.9874 25.1541C23.6592 25.4823 23.2141 25.6667 22.75 25.6667H5.25C4.78587 25.6667 4.34075 25.4823 4.01256 25.1541C3.68437 24.8259 3.5 24.3808 3.5 23.9167V11.6667C3.5 11.2025 3.68437 10.7574 4.01256 10.4292C4.34075 10.101 4.78587 9.91667 5.25 9.91667H8.75V7.29167C8.75 5.89928 9.30312 4.56392 10.2877 3.57936C11.2723 2.59479 12.6076 2.04167 14 2.04167C16.52 2.04167 18.7413 3.8255 19.2325 6.24167C19.2555 6.35428 19.2561 6.47031 19.2342 6.58314C19.2123 6.69597 19.1685 6.80339 19.1051 6.89927C19.0417 6.99514 18.9601 7.0776 18.8648 7.14192C18.7696 7.20625 18.6626 7.25119 18.55 7.27417C18.4374 7.29715 18.3214 7.29773 18.2085 7.27586C18.0957 7.254 17.9883 7.21013 17.8924 7.14676C17.7965 7.08338 17.7141 7.00174 17.6497 6.9065C17.5854 6.81126 17.5405 6.70428 17.5175 6.59167C17.1967 5.01433 15.7127 3.79167 14 3.79167ZM5.25 11.6667H22.75V23.9167H5.25V11.6667ZM19.2652 15.8048C19.4305 15.6452 19.5263 15.4269 19.532 15.1971C19.5377 14.9673 19.4527 14.7446 19.2955 14.5769C19.1383 14.4093 18.9214 14.3102 18.6918 14.3012C18.4621 14.2921 18.2381 14.3738 18.0682 14.5285L12.4448 19.8007L9.93183 17.444C9.84795 17.3654 9.74941 17.3041 9.64184 17.2636C9.53426 17.2231 9.41976 17.2041 9.30487 17.2079C9.18998 17.2116 9.07695 17.238 8.97224 17.2854C8.86753 17.3328 8.77318 17.4004 8.69458 17.4843C8.61599 17.5681 8.55468 17.6667 8.51417 17.7742C8.47366 17.8818 8.45473 17.9963 8.45847 18.1112C8.4622 18.2261 8.48853 18.3391 8.53595 18.4438C8.58337 18.5486 8.65095 18.6429 8.73483 18.7215L11.8463 21.6382C12.0085 21.7902 12.2225 21.8749 12.4448 21.8749C12.6672 21.8749 12.8812 21.7902 13.0433 21.6382L19.2652 15.8048Z" fill="#4A5056"/>
</svg>
