<svg width="16" height="16" viewBox="0 0 16 16" fill="none" xmlns="http://www.w3.org/2000/svg">
<rect width="16" height="16" rx="8" fill="#23A25D"/>
<path d="M4.57081 7.59591C4.34763 7.59591 4.16671 7.77682 4.16671 8C4.16671 8.22318 4.34763 8.40409 4.57081 8.40409L7.59557 8.40407L7.59557 11.4289C7.59557 11.652 7.77649 11.833 7.99966 11.833C8.22284 11.833 8.40376 11.652 8.40376 11.4289L8.40376 8.40407L11.4285 8.40407C11.6517 8.40407 11.8326 8.22315 11.8326 7.99997C11.8326 7.7768 11.6517 7.59588 11.4285 7.59588L8.40376 7.59588L8.40376 4.57114C8.40376 4.34797 8.22284 4.16705 7.99966 4.16705C7.77649 4.16705 7.59557 4.34797 7.59557 4.57114L7.59557 7.59588L4.57081 7.59591Z" fill="white"/>
</svg>
