<svg width="24" height="24" viewBox="0 0 24 24" fill="none" xmlns="http://www.w3.org/2000/svg">
<path fill-rule="evenodd" clip-rule="evenodd" d="M13.5509 2.38425C14.1371 2.14162 15.0089 1.80402 15.875 2.14481C15.9944 2.19178 16.1127 2.24086 16.2299 2.29199C17.0824 2.66388 17.46 3.51851 17.703 4.10435C17.7464 4.20908 17.7861 4.30751 17.824 4.40153C17.9087 4.61181 17.9846 4.80015 18.074 4.98759C18.1987 5.24916 18.3168 5.4332 18.4418 5.55815C18.5667 5.68311 18.7508 5.80119 19.0123 5.92594C19.1998 6.01536 19.3881 6.09121 19.5985 6.17594C19.6924 6.2138 19.791 6.2535 19.8956 6.2969C20.4815 6.53986 21.3362 6.91746 21.7081 7.76991C21.7594 7.88729 21.8085 8.00578 21.8556 8.12533C22.1963 8.99144 21.8587 9.86329 21.6161 10.4495C21.5727 10.5543 21.5311 10.652 21.4914 10.7452C21.4026 10.9538 21.3229 11.1409 21.2536 11.3367C21.1567 11.6099 21.11 11.8236 21.11 12.0004C21.11 12.1771 21.1567 12.3908 21.2536 12.6641C21.3229 12.8599 21.4024 13.0466 21.4913 13.2551C21.531 13.3484 21.5728 13.4465 21.6161 13.5512C21.8587 14.1374 22.1963 15.0093 21.8556 15.8754C21.8086 15.9946 21.7596 16.1128 21.7086 16.2299C21.3366 17.0825 20.4818 17.4601 19.8959 17.7031C19.7912 17.7465 19.6929 17.7861 19.599 17.8239C19.3887 17.9086 19.1999 17.9846 19.0124 18.0741C18.7508 18.1988 18.5667 18.3169 18.4418 18.4419C18.3168 18.5668 18.1987 18.7509 18.074 19.0125C17.9846 19.2 17.9087 19.3882 17.8241 19.5985C17.7862 19.6925 17.7464 19.7913 17.703 19.896C17.46 20.482 17.0824 21.3368 16.2298 21.7088C16.1127 21.7599 15.9944 21.809 15.875 21.8559C15.0089 22.1967 14.1371 21.8591 13.5509 21.6165C13.446 21.5731 13.3483 21.5315 13.255 21.4917C13.0464 21.4029 12.8595 21.3233 12.6637 21.2539C12.3905 21.1571 12.1768 21.1104 12 21.1104C11.8233 21.1104 11.6096 21.1571 11.3363 21.2539C11.1406 21.3233 10.954 21.4028 10.7455 21.4915C10.6521 21.5313 10.5541 21.5731 10.4491 21.6165C9.86293 21.8591 8.99109 22.1967 8.12498 21.8559C8.00562 21.809 7.88732 21.7599 7.77012 21.7088C6.91759 21.3368 6.53996 20.4821 6.297 19.8961C6.25356 19.7914 6.21391 19.6929 6.17603 19.5989C6.09129 19.3886 6.01544 19.2003 5.92602 19.0128C5.80126 18.7512 5.68317 18.5671 5.55821 18.4421C5.43325 18.3172 5.24919 18.1991 4.98759 18.0743C4.80015 17.9849 4.61191 17.9091 4.40164 17.8244C4.30776 17.7866 4.20876 17.7467 4.10421 17.7033C3.51829 17.4604 2.66351 17.0827 2.29159 16.2302C2.24047 16.113 2.19141 15.9947 2.14444 15.8754C1.80366 15.0093 2.14126 14.1374 2.38388 13.5512C2.42729 13.4464 2.46892 13.3486 2.50867 13.2553C2.59749 13.0467 2.67707 12.8598 2.74644 12.6641C2.84327 12.3908 2.88995 12.1771 2.88995 12.0004C2.88995 11.8236 2.84327 11.6099 2.74644 11.3366C2.67707 11.1409 2.59755 10.9542 2.50873 10.7456C2.46895 10.6522 2.42731 10.5544 2.38388 10.4495C2.14126 9.86328 1.80366 8.99143 2.14445 8.12532C2.19145 8.00587 2.24056 7.88749 2.29172 7.77021C2.66366 6.91772 3.51839 6.5401 4.10429 6.29714C4.209 6.25371 4.30742 6.21407 4.40144 6.1762C4.61176 6.09147 4.80014 6.01558 4.98762 5.92617C5.24921 5.80142 5.43326 5.68333 5.55822 5.55837C5.68318 5.43341 5.80127 5.24936 5.92602 4.98778C6.01543 4.80031 6.09128 4.61204 6.17601 4.40172C6.21389 4.30769 6.25356 4.20922 6.297 4.10447C6.53997 3.51859 6.91761 2.66389 7.7701 2.29198C7.88729 2.24085 8.00559 2.19178 8.12495 2.14482C8.99105 1.80403 9.8629 2.14163 10.4491 2.38425C10.554 2.42768 10.6518 2.46932 10.7452 2.5091C10.9538 2.59792 11.1405 2.67744 11.3363 2.74681C11.6095 2.84364 11.8232 2.89032 12 2.89032C12.1767 2.89032 12.3904 2.84364 12.6637 2.74681C12.8595 2.67743 13.0462 2.59792 13.2548 2.5091C13.3481 2.46932 13.4459 2.42768 13.5509 2.38425Z" stroke="#262B39" stroke-width="1.5"/>
<path fill-rule="evenodd" clip-rule="evenodd" d="M10.47 14.531C10.7629 14.8239 11.2377 14.8239 11.5306 14.531L15.5313 10.5304C15.8241 10.2375 15.8241 9.76261 15.5313 9.46972C15.2384 9.17684 14.7635 9.17684 14.4706 9.46972L11.0003 12.9401L9.53029 11.47C9.2374 11.1772 8.76255 11.1772 8.46966 11.47C8.17678 11.7629 8.17678 12.2378 8.46966 12.5307L10.47 14.531Z" fill="#262B39"/>
</svg>
