<svg width="16" height="16" viewBox="0 0 16 16" fill="none" xmlns="http://www.w3.org/2000/svg">
<path fill-rule="evenodd" clip-rule="evenodd" d="M10.841 0.772674C10.2059 0.522762 9.56653 0.770338 9.13665 0.948261C9.0597 0.980109 8.98799 1.01065 8.9195 1.03982C8.76655 1.10495 8.62963 1.16326 8.48606 1.21414C8.28567 1.28515 8.12896 1.31938 7.99934 1.31938C7.86972 1.31938 7.71301 1.28515 7.51262 1.21414C7.36905 1.16327 7.23213 1.10495 7.07918 1.03982C7.01069 1.01065 6.93898 0.980113 6.86203 0.948263C6.43215 0.770341 5.79279 0.522767 5.15765 0.77268C5.07011 0.807121 4.98336 0.843105 4.89742 0.880597C4.27227 1.15333 3.99533 1.78011 3.81715 2.20976C3.7853 2.28657 3.75621 2.35878 3.72842 2.42774C3.66629 2.58197 3.61067 2.72004 3.5451 2.85752C3.45361 3.04935 3.36701 3.18432 3.27538 3.27595C3.18374 3.36759 3.04877 3.45419 2.85694 3.54567C2.71946 3.61124 2.58131 3.66689 2.42707 3.72902L2.42707 3.72902C2.35813 3.7568 2.28595 3.78587 2.20916 3.81772C1.7795 3.99589 1.1527 4.27281 0.879945 4.89797C0.842423 4.98397 0.806411 5.07079 0.771944 5.15839C0.522031 5.79353 0.769605 6.43289 0.947527 6.86277C0.979378 6.93972 1.00992 7.01143 1.03908 7.07992C1.10422 7.23287 1.16253 7.36979 1.2134 7.51336C1.28442 7.71375 1.31865 7.87046 1.31865 8.00008C1.31865 8.1297 1.28442 8.28641 1.2134 8.4868C1.16253 8.63036 1.10418 8.76738 1.03905 8.92032L1.03904 8.92033L1.03903 8.92036C1.00988 8.98881 0.979359 9.06048 0.947527 9.13739C0.769604 9.56727 0.522029 10.2066 0.771942 10.8418C0.80638 10.9293 0.84236 11.016 0.879847 11.102C1.15259 11.7272 1.77943 12.0041 2.2091 12.1823C2.28578 12.2141 2.35837 12.2433 2.42722 12.271L2.4274 12.2711C2.58152 12.3332 2.71952 12.3888 2.85692 12.4543C3.04876 12.5458 3.18374 12.6324 3.27537 12.724C3.36701 12.8157 3.45361 12.9507 3.5451 13.1425C3.61067 13.28 3.6663 13.4181 3.72844 13.5723C3.75621 13.6413 3.78529 13.7135 3.81715 13.7903C3.99532 14.22 4.27225 14.8468 4.89744 15.1196C4.98338 15.1571 5.07014 15.1931 5.15767 15.2275C5.79281 15.4774 6.43217 15.2298 6.86205 15.0519C6.93873 15.0202 7.01037 14.9897 7.07865 14.9606L7.07937 14.9603C7.23225 14.8952 7.36913 14.8369 7.51264 14.786C7.71303 14.715 7.86974 14.6808 7.99936 14.6808C8.12898 14.6808 8.28569 14.715 8.48608 14.786C8.62963 14.8369 8.76673 14.8953 8.91966 14.9604L8.91987 14.9605C8.98826 14.9896 9.05985 15.0201 9.13667 15.0519C9.56655 15.2298 10.2059 15.4774 10.841 15.2275C10.9286 15.1931 11.0153 15.1571 11.1012 15.1196C11.7265 14.8468 12.0034 14.2199 12.1815 13.7902C12.2134 13.7134 12.2425 13.641 12.2703 13.5721C12.3324 13.4179 12.388 13.2798 12.4536 13.1423C12.5451 12.9505 12.6317 12.8155 12.7233 12.7239C12.815 12.6322 12.9499 12.5456 13.1418 12.4541C13.2793 12.3886 13.4177 12.3328 13.572 12.2707C13.6408 12.2429 13.7129 12.2139 13.7896 12.1821C14.2193 12.0039 14.8462 11.727 15.119 11.1017C15.1564 11.0159 15.1924 10.9292 15.2268 10.8418C15.4767 10.2066 15.2291 9.56727 15.0512 9.13739C15.0195 9.06088 14.989 8.98923 14.96 8.92109L14.9596 8.92025C14.8945 8.7673 14.8362 8.63037 14.7853 8.4868C14.7143 8.28641 14.68 8.1297 14.68 8.00008C14.68 7.87046 14.7143 7.71376 14.7853 7.51336C14.8362 7.36979 14.8946 7.23261 14.9597 7.07966L14.9599 7.07931C14.989 7.011 15.0194 6.9395 15.0512 6.86277C15.2291 6.43289 15.4767 5.79354 15.2268 5.15839C15.1923 5.07072 15.1562 4.98383 15.1187 4.89775C14.8459 4.27262 14.2191 3.99571 13.7895 3.81754C13.7127 3.78571 13.6405 3.7566 13.5716 3.72884C13.4173 3.6667 13.2792 3.61108 13.1417 3.54551C12.9499 3.45402 12.8149 3.36743 12.7233 3.27579C12.6317 3.18416 12.5451 3.04919 12.4536 2.85738C12.388 2.71992 12.3324 2.58181 12.2703 2.4276C12.2425 2.35865 12.2134 2.28647 12.1815 2.20967C12.0034 1.78005 11.7264 1.15332 11.1013 0.880604C11.0153 0.843108 10.9286 0.80712 10.841 0.772674ZM11.4638 6.47852C11.7281 6.22221 11.7346 5.80015 11.4783 5.53582C11.222 5.2715 10.7999 5.26501 10.5356 5.52132L6.87467 9.07129L5.46377 7.70314C5.19945 7.44682 4.77739 7.45332 4.52107 7.71764C4.26476 7.98196 4.27125 8.40402 4.53558 8.66034L6.41058 10.4785C6.66917 10.7293 7.08018 10.7293 7.33877 10.4785L11.4638 6.47852Z" fill="#23A25D"/>
</svg>
