<svg width="81" height="80" viewBox="0 0 81 80" fill="none" xmlns="http://www.w3.org/2000/svg">
<path fill-rule="evenodd" clip-rule="evenodd" d="M46.7035 1.53552C49.0483 0.565034 52.5357 -0.785379 56.0001 0.577777C56.4776 0.765662 56.9509 0.96196 57.4197 1.16649C60.8294 2.65405 62.34 6.07256 63.3119 8.41593C63.4857 8.83486 63.6443 9.22857 63.7959 9.60467C64.1347 10.4458 64.4383 11.1991 64.7959 11.9489C65.2949 12.9952 65.7673 13.7313 66.2671 14.2311C66.7669 14.731 67.5031 15.2033 68.5494 15.7023C69.2993 16.06 70.0525 16.3634 70.8938 16.7023C71.2697 16.8537 71.6639 17.0125 72.0825 17.1861C74.426 18.158 77.8448 19.6684 79.3326 23.0782C79.5375 23.5477 79.7341 24.0217 79.9222 24.4999C81.2854 27.9643 79.935 31.4517 78.9645 33.7965C78.791 34.2157 78.6246 34.6063 78.4657 34.9795C78.1104 35.8138 77.7917 36.562 77.5142 37.3452C77.1269 38.4382 76.9402 39.293 76.9402 40C76.9402 40.707 77.1269 41.5618 77.5142 42.6548C77.7917 43.4379 78.1098 44.1848 78.4651 45.0191C78.624 45.3922 78.791 45.7844 78.9645 46.2035C79.935 48.5483 81.2854 52.0357 79.9222 55.5001C79.7346 55.9771 79.5385 56.4498 79.3342 56.9181C77.8466 60.3284 74.4272 61.839 72.0834 62.8108C71.665 62.9843 71.2717 63.1428 70.8961 63.2941C70.0546 63.633 69.2997 63.9371 68.5497 64.2948C67.5032 64.7938 66.7669 65.2662 66.2671 65.766C65.7672 66.2659 65.2949 67.0022 64.7958 68.0487C64.4383 68.7984 64.135 69.5515 63.7962 70.3926C63.6447 70.7687 63.4857 71.1636 63.312 71.5825C62.3401 73.9264 60.8297 77.3459 57.4193 78.8337C56.9506 79.0381 56.4775 79.2344 56.0002 79.4222C52.5357 80.7853 49.0484 79.4349 46.7036 78.4645C46.2841 78.2908 45.8932 78.1244 45.5199 77.9654C44.6857 77.6101 43.9379 77.2917 43.1549 77.0142C42.0618 76.6269 41.2071 76.4402 40.5001 76.4402C39.793 76.4402 38.9383 76.6269 37.8452 77.0142C37.0624 77.2916 36.3158 77.6095 35.482 77.9647C35.1084 78.1238 34.7163 78.2907 34.2965 78.4645C31.9517 79.435 28.4644 80.7854 24.9999 79.4222C24.5225 79.2344 24.0493 79.0381 23.5805 78.8336C20.1703 77.3459 18.6598 73.9268 17.688 71.5831C17.5142 71.1641 17.3556 70.7703 17.2041 70.3942C16.8652 69.5528 16.5618 68.7995 16.2041 68.0496C15.7051 67.0031 15.2327 66.2669 14.7329 65.7671C14.233 65.2672 13.4968 64.7949 12.4504 64.2958C11.7006 63.9383 10.9476 63.6349 10.1065 63.2961C9.73103 63.1448 9.33506 62.9853 8.91685 62.8119C6.57317 61.8401 3.15405 60.3295 1.66635 56.9194C1.46188 56.4507 1.26562 55.9775 1.07778 55.5001C-0.285379 52.0357 1.06503 48.5483 2.03552 46.2035C2.20917 45.7839 2.37566 45.393 2.5347 45.0195C2.88998 44.1853 3.20827 43.4379 3.48576 42.6548C3.87309 41.5618 4.05981 40.707 4.05981 40C4.05981 39.293 3.87309 38.4382 3.48576 37.3451C3.20827 36.562 2.8902 35.8152 2.53492 34.9809C2.37582 34.6073 2.20925 34.2162 2.03552 33.7965C1.06503 31.4517 -0.285371 27.9643 1.07779 24.4998C1.26579 24.022 1.46222 23.5485 1.66689 23.0794C3.15464 19.6694 6.57357 18.1589 8.91715 17.1871C9.33602 17.0134 9.72969 16.8548 10.1057 16.7033C10.9471 16.3644 11.7006 16.0609 12.4505 15.7032C13.4968 15.2042 14.233 14.7318 14.7329 14.232C15.2327 13.7322 15.7051 12.996 16.2041 11.9497C16.5617 11.1998 16.8651 10.4467 17.204 9.60543C17.3556 9.22928 17.5143 8.8354 17.688 8.41641C18.6599 6.07289 20.1705 2.65408 23.5804 1.16645C24.0492 0.961946 24.5224 0.765672 24.9998 0.57781C28.4642 -0.785352 31.9516 0.56505 34.2964 1.53553C34.7162 1.70926 35.1073 1.87583 35.4809 2.03493C36.3152 2.39021 37.062 2.70828 37.8451 2.98577C38.9382 3.3731 39.7929 3.55982 40.5 3.55982C41.207 3.55982 42.0617 3.3731 43.1548 2.98577C43.9379 2.70827 44.6847 2.39021 45.519 2.03492C45.8926 1.87583 46.2838 1.70924 46.7035 1.53552Z" fill="#23A25D" fill-opacity="0.16"/>
<path fill-rule="evenodd" clip-rule="evenodd" d="M44.9765 10.4153C46.7691 9.67332 49.4354 8.64088 52.084 9.68306C52.4491 9.82671 52.8109 9.97678 53.1694 10.1332C55.7762 11.2704 56.9311 13.884 57.6742 15.6756C57.807 15.9959 57.9283 16.2969 58.0442 16.5844C58.3032 17.2275 58.5353 17.8035 58.8087 18.3767C59.1902 19.1766 59.5514 19.7394 59.9335 20.1215C60.3156 20.5037 60.8785 20.8648 61.6784 21.2463C62.2517 21.5197 62.8276 21.7517 63.4708 22.0108C63.7582 22.1266 64.0595 22.248 64.3796 22.3807C66.1713 23.1237 68.785 24.2785 69.9225 26.8854C70.0791 27.2443 70.2294 27.6067 70.3733 27.9723C71.4155 30.621 70.383 33.2872 69.6411 35.0799C69.5084 35.4004 69.3812 35.6991 69.2597 35.9843C68.9881 36.6222 68.7445 37.1943 68.5323 37.793C68.2362 38.6286 68.0934 39.2821 68.0934 39.8227C68.0934 40.3632 68.2362 41.0167 68.5323 41.8524C68.7445 42.4511 68.9876 43.0221 69.2593 43.66C69.3807 43.9452 69.5085 44.2451 69.6411 44.5655C70.383 46.3581 71.4155 49.0244 70.3733 51.673C70.2298 52.0377 70.0799 52.3991 69.9238 52.7571C68.7864 55.3644 66.1722 56.5193 64.3803 57.2623C64.0604 57.395 63.7597 57.5161 63.4725 57.6318C62.8292 57.8909 62.252 58.1234 61.6786 58.3968C60.8785 58.7784 60.3156 59.1395 59.9335 59.5217C59.5513 59.9038 59.1902 60.4667 58.8087 61.2668C58.5353 61.8401 58.3034 62.4158 58.0444 63.0588C57.9286 63.3464 57.807 63.6483 57.6742 63.9686C56.9312 65.7605 55.7764 68.3749 53.1691 69.5123C52.8108 69.6686 52.449 69.8187 52.0841 69.9623C49.4354 71.0045 46.7692 69.972 44.9765 69.2301C44.6558 69.0973 44.357 68.9701 44.0715 68.8485C43.4338 68.5769 42.8621 68.3334 42.2634 68.1213C41.4278 67.8252 40.7743 67.6824 40.2337 67.6824C39.6932 67.6824 39.0397 67.8252 38.204 68.1213C37.6055 68.3334 37.0348 68.5764 36.3972 68.8479C36.1116 68.9696 35.8119 69.0972 35.4909 69.2301C33.6983 69.972 31.032 71.0045 28.3834 69.9623C28.0183 69.8187 27.6565 69.6686 27.2982 69.5123C24.691 68.3749 23.5361 65.7608 22.7931 63.969C22.6603 63.6487 22.539 63.3476 22.4232 63.0601C22.1641 62.4168 21.9321 61.8409 21.6587 61.2675C21.2771 60.4675 20.916 59.9046 20.5338 59.5225C20.1517 59.1403 19.5888 58.7792 18.7888 58.3977C18.2156 58.1243 17.6399 57.8924 16.9969 57.6333C16.7098 57.5177 16.407 57.3958 16.0873 57.2632C14.2955 56.5201 11.6815 55.3653 10.5441 52.7581C10.3877 52.3998 10.2377 52.038 10.0941 51.6731C9.0519 49.0244 10.0843 46.3582 10.8263 44.5655C10.9591 44.2447 11.0864 43.9458 11.2079 43.6603C11.4796 43.0225 11.7229 42.4511 11.9351 41.8524C12.2312 41.0167 12.3739 40.3632 12.3739 39.8227C12.3739 39.2821 12.2312 38.6286 11.9351 37.7929C11.7229 37.1942 11.4797 36.6233 11.2081 35.9854C11.0865 35.6998 10.9591 35.4008 10.8263 35.0799C10.0843 33.2872 9.0519 30.621 10.0941 27.9723C10.2378 27.607 10.388 27.2449 10.5445 26.8863C11.6819 24.2793 14.2958 23.1244 16.0875 22.3814C16.4078 22.2486 16.7088 22.1274 16.9963 22.0116C17.6395 21.7525 18.2156 21.5204 18.7889 21.247C19.5889 20.8655 20.1517 20.5043 20.5339 20.1222C20.916 19.7401 21.2771 19.1772 21.6587 18.3772C21.9321 17.8039 22.164 17.2282 22.4231 16.585C22.539 16.2974 22.6603 15.9963 22.7932 15.676C23.5362 13.8843 24.6911 11.2705 27.2981 10.1331C27.6565 9.97677 28.0182 9.82672 28.3833 9.68309C31.0319 8.6409 33.6982 9.67333 35.4908 10.4153C35.8118 10.5481 36.1108 10.6755 36.3964 10.7971C37.0342 11.0687 37.6052 11.3119 38.2039 11.5241C39.0396 11.8202 39.6931 11.9629 40.2337 11.9629C40.7742 11.9629 41.4277 11.8202 42.2634 11.5241C42.8621 11.3119 43.4331 11.0687 44.0709 10.7971C44.3565 10.6755 44.6556 10.5481 44.9765 10.4153Z" stroke="#23A25D" stroke-width="4.5872"/>
<path fill-rule="evenodd" clip-rule="evenodd" d="M45.289 10.6383C47.0816 9.89628 49.7479 8.86385 52.3965 9.90602C52.7616 10.0497 53.1234 10.1997 53.4819 10.3561C56.0887 11.4934 57.2436 14.107 57.9867 15.8986C58.1195 16.2188 58.2408 16.5199 58.3567 16.8074C58.6157 17.4504 58.8478 18.0264 59.1212 18.5996C59.5027 19.3995 59.8639 19.9624 60.246 20.3445C60.6281 20.7266 61.191 21.0877 61.9909 21.4692C62.5642 21.7427 63.1401 21.9746 63.7833 22.2338C64.0707 22.3495 64.372 22.4709 64.6921 22.6037C66.4838 23.3467 69.0975 24.5014 70.235 27.1083C70.3916 27.4673 70.5419 27.8297 70.6858 28.1953C71.728 30.8439 70.6955 33.5102 69.9536 35.3028C69.8209 35.6233 69.6937 35.922 69.5722 36.2073C69.3006 36.8451 69.057 37.4172 68.8448 38.0159C68.5487 38.8516 68.4059 39.5051 68.4059 40.0456C68.4059 40.5862 68.5487 41.2397 68.8448 42.0754C69.057 42.6741 69.3001 43.2451 69.5718 43.8829C69.6932 44.1681 69.821 44.468 69.9536 44.7884C70.6955 46.5811 71.728 49.2473 70.6858 51.896C70.5423 52.2606 70.3924 52.622 70.2363 52.9801C69.0989 55.5874 66.4847 56.7423 64.6928 57.4853C64.3729 57.6179 64.0722 57.7391 63.785 57.8548C63.1417 58.1139 62.5645 58.3464 61.9911 58.6198C61.191 59.0014 60.6281 59.3625 60.246 59.7447C59.8638 60.1268 59.5027 60.6897 59.1212 61.4898C58.8478 62.063 58.6159 62.6387 58.3569 63.2818C58.2411 63.5694 58.1195 63.8712 57.9867 64.1915C57.2437 65.9835 56.0889 68.5978 53.4816 69.7353C53.1233 69.8916 52.7615 70.0416 52.3966 70.1852C49.7479 71.2274 47.0817 70.195 45.289 69.453C44.9683 69.3203 44.6695 69.193 44.384 69.0715C43.7463 68.7999 43.1746 68.5564 42.5759 68.3443C41.7403 68.0481 41.0868 67.9054 40.5462 67.9054C40.0057 67.9054 39.3522 68.0481 38.5165 68.3443C37.918 68.5563 37.3473 68.7994 36.7097 69.0709C36.4241 69.1925 36.1244 69.3202 35.8034 69.453C34.0108 70.195 31.3445 71.2274 28.6959 70.1853C28.3308 70.0416 27.969 69.8916 27.6107 69.7352C25.0035 68.5978 23.8486 65.9838 23.1056 64.192C22.9728 63.8716 22.8515 63.5706 22.7357 63.283C22.4766 62.6397 22.2446 62.0639 21.9712 61.4905C21.5896 60.6905 21.2285 60.1276 20.8463 59.7454C20.4642 59.3633 19.9013 59.0021 19.1013 58.6206C18.5281 58.3473 17.9524 58.1154 17.3094 57.8563C17.0223 57.7407 16.7195 57.6187 16.3998 57.4861C14.608 56.7431 11.994 55.5883 10.8566 52.9811C10.7002 52.6227 10.5502 52.261 10.4066 51.896C9.3644 49.2473 10.3968 46.5811 11.1388 44.7884C11.2716 44.4677 11.3989 44.1688 11.5204 43.8833C11.7921 43.2454 12.0354 42.674 12.2476 42.0754C12.5437 41.2397 12.6864 40.5862 12.6864 40.0456C12.6864 39.5051 12.5437 38.8516 12.2476 38.0159C12.0354 37.4172 11.7922 36.8462 11.5206 36.2084C11.399 35.9228 11.2716 35.6237 11.1388 35.3028C10.3968 33.5101 9.3644 30.8439 10.4066 28.1952C10.5503 27.8299 10.7005 27.4679 10.857 27.1093C11.9944 24.5022 14.6083 23.3474 16.4 22.6044C16.7203 22.4716 17.0213 22.3504 17.3088 22.2345C17.952 21.9754 18.5281 21.7434 19.1014 21.4699C19.9014 21.0884 20.4642 20.7273 20.8464 20.3452C21.2285 19.963 21.5896 19.4002 21.9712 18.6002C22.2446 18.0269 22.4765 17.4511 22.7356 16.808C22.8515 16.5204 22.9728 16.2193 23.1057 15.8989C23.8487 14.1072 25.0036 11.4934 27.6106 10.3561C27.969 10.1997 28.3307 10.0497 28.6958 9.90605C31.3444 8.86387 34.0107 9.89629 35.8033 10.6383C36.1243 10.7711 36.4233 10.8984 36.7089 11.0201C37.3467 11.2917 37.9177 11.5349 38.5164 11.747C39.3521 12.0431 40.0056 12.1859 40.5462 12.1859C41.0867 12.1859 41.7402 12.0431 42.5759 11.747C43.1746 11.5349 43.7456 11.2917 44.3834 11.0201C44.669 10.8984 44.9681 10.7711 45.289 10.6383Z" stroke="#23A25D" stroke-width="4.64286"/>
<path fill-rule="evenodd" clip-rule="evenodd" d="M35.8632 47.757C36.7589 48.6527 38.2111 48.6527 39.1068 47.757L51.3413 35.5225C52.237 34.6268 52.237 33.1746 51.3413 32.2789C50.4456 31.3833 48.9934 31.3833 48.0978 32.2789L37.485 42.8917L32.9895 38.3962C32.0938 37.5005 30.6417 37.5005 29.746 38.3962C28.8503 39.2919 28.8503 40.7441 29.746 41.6397L35.8632 47.757Z" fill="#23A25D"/>
</svg>
