<svg width="24" height="24" viewBox="0 0 24 24" fill="none" xmlns="http://www.w3.org/2000/svg">
<path fill-rule="evenodd" clip-rule="evenodd" d="M11.8787 2.92582C11.9542 2.88387 12.046 2.88387 12.1215 2.92582L19.1217 6.81481C19.2011 6.8589 19.2503 6.94255 19.2503 7.03334V11.6724C19.2503 15.0316 17.4291 18.1268 14.4926 19.7581L12.1215 21.0754C12.046 21.1174 11.9542 21.1174 11.8787 21.0754L9.5076 19.7581C6.57114 18.1268 4.74995 15.0316 4.74995 11.6724V7.03334C4.74995 6.94255 4.79917 6.8589 4.87854 6.81481L11.8787 2.92582ZM12.85 1.61463C12.3214 1.321 11.6788 1.321 11.1503 1.61463L4.1501 5.50361C3.59455 5.81225 3.25 6.39782 3.25 7.03334V11.6724C3.25 15.5763 5.36652 19.1734 8.77916 21.0693L11.1503 22.3866C11.6788 22.6802 12.3214 22.6802 12.85 22.3866L15.2211 21.0693C18.6337 19.1734 20.7502 15.5764 20.7502 11.6724V7.03334C20.7502 6.39782 20.4057 5.81225 19.8501 5.50361L12.85 1.61463ZM10.9692 14.5302C11.2621 14.8231 11.7369 14.8231 12.0298 14.5302L16.0304 10.5295C16.3233 10.2367 16.3233 9.7618 16.0304 9.46892C15.7376 9.17604 15.2627 9.17604 14.9698 9.46892L11.4995 12.9393L10.0295 11.4692C9.73659 11.1764 9.26173 11.1764 8.96885 11.4692C8.67597 11.7621 8.67597 12.237 8.96885 12.5299L10.9692 14.5302Z" fill="#262B39"/>
</svg>
