<svg width="24" height="24" viewBox="0 0 24 24" fill="none" xmlns="http://www.w3.org/2000/svg">
<path fill-rule="evenodd" clip-rule="evenodd" d="M14.8665 8.40448C14.8665 6.93852 13.6782 5.75013 12.2122 5.75013C10.7463 5.75013 9.55786 6.93852 9.55786 8.40448C9.55786 9.87043 10.7463 11.0588 12.2122 11.0588C13.6782 11.0588 14.8665 9.87043 14.8665 8.40448ZM12.2122 4.25018C14.5066 4.25018 16.3665 6.11012 16.3665 8.40448C16.3665 10.6988 14.5066 12.5588 12.2122 12.5588C9.91785 12.5588 8.05791 10.6988 8.05791 8.40448C8.05791 6.11012 9.91785 4.25018 12.2122 4.25018ZM7.65727 15.9341C10.6031 14.882 13.8223 14.882 16.7681 15.9341C17.1592 16.0738 17.4203 16.4442 17.4203 16.8595V17.9791C17.4203 18.5333 16.9294 18.959 16.3808 18.8807L16.0472 18.833C13.5038 18.4697 10.9216 18.4697 8.37817 18.833L8.04461 18.8807C7.49597 18.959 7.00512 18.5333 7.00512 17.9791V16.8595C7.00512 16.4442 7.26618 16.0738 7.65727 15.9341ZM17.2726 14.5215C14.0005 13.3529 10.4248 13.3529 7.15278 14.5215C6.16472 14.8744 5.50516 15.8103 5.50516 16.8595V17.9791C5.50516 19.4461 6.80448 20.573 8.25673 20.3655L8.59029 20.3179C10.993 19.9746 13.4324 19.9746 15.8351 20.3179L16.1687 20.3655C17.6209 20.573 18.9202 19.4461 18.9202 17.9791V16.8595C18.9202 15.8103 18.2607 14.8744 17.2726 14.5215ZM17.3181 7.30338C18.3814 7.30338 19.2434 8.16533 19.2434 9.22861C19.2434 10.2919 18.3814 11.1538 17.3181 11.1538C16.9039 11.1538 16.5682 11.4896 16.5682 11.9038C16.5682 12.318 16.9039 12.6538 17.3181 12.6538C19.2098 12.6538 20.7433 11.1203 20.7433 9.22861C20.7433 7.33693 19.2098 5.80343 17.3181 5.80343C16.9039 5.80343 16.5682 6.1392 16.5682 6.5534C16.5682 6.9676 16.9039 7.30338 17.3181 7.30338ZM19.5883 13.4017C19.1816 13.3233 18.7883 13.5893 18.7098 13.996C18.6314 14.4027 18.8975 14.796 19.3042 14.8745C19.8247 14.9749 20.3395 15.1152 20.844 15.2954C21.0874 15.3823 21.2498 15.6129 21.2498 15.8713V16.7511C21.2498 17.0889 20.9507 17.3483 20.6163 17.3006L20.3542 17.2631C19.9442 17.2045 19.5643 17.4895 19.5057 17.8995C19.4471 18.3095 19.7321 18.6894 20.1421 18.748L20.4042 18.7854C21.6422 18.9623 22.7498 18.0017 22.7498 16.7511V15.8713C22.7498 14.979 22.1888 14.183 21.3485 13.8828C20.7719 13.6769 20.1834 13.5165 19.5883 13.4017ZM6.68118 7.30338C5.6179 7.30338 4.75595 8.16533 4.75595 9.22861C4.75595 10.2919 5.6179 11.1538 6.68118 11.1538C7.09538 11.1538 7.43116 11.4896 7.43116 11.9038C7.43116 12.318 7.09538 12.6538 6.68118 12.6538C4.7895 12.6538 3.256 11.1203 3.256 9.22861C3.256 7.33693 4.7895 5.80343 6.68118 5.80343C7.09538 5.80343 7.43116 6.1392 7.43116 6.5534C7.43116 6.9676 7.09538 7.30338 6.68118 7.30338ZM4.41097 13.4017C4.81767 13.3233 5.21098 13.5893 5.28945 13.996C5.36791 14.4027 5.10183 14.796 4.69513 14.8745C4.17458 14.9749 3.65979 15.1152 3.15533 15.2954C2.91194 15.3823 2.74946 15.6129 2.74946 15.8713V16.7511C2.74946 17.0889 3.04861 17.3483 3.38296 17.3006L3.64507 17.2631C4.05511 17.2045 4.435 17.4895 4.49358 17.8995C4.55215 18.3095 4.26724 18.6894 3.8572 18.748L3.59509 18.7854C2.35711 18.9623 1.24951 18.0017 1.24951 16.7511V15.8713C1.24951 14.979 1.81048 14.183 2.65084 13.8828C3.22744 13.6769 3.8159 13.5165 4.41097 13.4017Z" fill="#262B39"/>
</svg>
