<svg width="24" height="24" viewBox="0 0 24 24" fill="none" xmlns="http://www.w3.org/2000/svg">
<path fill-rule="evenodd" clip-rule="evenodd" d="M4.99998 2.74997H4.25V2.75007H2.99998C2.58578 2.75007 2.25 3.08585 2.25 3.50005C2.25 3.91425 2.58578 4.25002 2.99998 4.25002H4.25V19.4659C4.25 20.9189 5.91836 21.739 7.06882 20.8515L8.39978 19.8248C8.48348 19.7602 8.59874 19.7553 8.68766 19.8124L10.5131 20.9859C11.4189 21.5682 12.5813 21.5682 13.4871 20.9859L15.3125 19.8124C15.4015 19.7553 15.5167 19.7602 15.6004 19.8248L16.9314 20.8515C18.0819 21.739 19.7502 20.9189 19.7502 19.4659V4.25002H21.0003C21.4145 4.25002 21.7503 3.91425 21.7503 3.50005C21.7503 3.08585 21.4145 2.75007 21.0003 2.75007H19.7502V2.74997H19.0002H4.99998ZM5.74995 19.4659V4.25002H18.2503V19.4659C18.2503 19.6735 18.0119 19.7907 17.8476 19.6639L16.5166 18.6371C15.9307 18.1852 15.1239 18.1506 14.5014 18.5507L12.676 19.7242C12.2643 19.9889 11.7359 19.9889 11.3242 19.7242L9.49877 18.5507C8.87633 18.1506 8.06949 18.1852 7.48361 18.6371L6.15264 19.6639C5.98829 19.7907 5.74995 19.6735 5.74995 19.4659ZM8.99973 8.74987C8.58553 8.74987 8.24976 9.08564 8.24976 9.49984C8.24976 9.91404 8.58553 10.2498 8.99973 10.2498H12.0008C12.415 10.2498 12.7507 9.91404 12.7507 9.49984C12.7507 9.08564 12.415 8.74987 12.0008 8.74987H8.99973ZM8.99973 12.7497C8.58553 12.7497 8.24976 13.0855 8.24976 13.4997C8.24976 13.9139 8.58553 14.2497 8.99973 14.2497H12.0008C12.415 14.2497 12.7507 13.9139 12.7507 13.4997C12.7507 13.0855 12.415 12.7497 12.0008 12.7497H8.99973ZM14.2495 9.49977C14.2495 9.08557 14.5853 8.74979 14.9995 8.74979H15.4996C15.9138 8.74979 16.2496 9.08557 16.2496 9.49977C16.2496 9.91397 15.9138 10.2497 15.4996 10.2497H14.9995C14.5853 10.2497 14.2495 9.91397 14.2495 9.49977ZM14.9995 12.7497C14.5853 12.7497 14.2495 13.0854 14.2495 13.4996C14.2495 13.9138 14.5853 14.2496 14.9995 14.2496H15.4996C15.9138 14.2496 16.2496 13.9138 16.2496 13.4996C16.2496 13.0854 15.9138 12.7497 15.4996 12.7497H14.9995Z" fill="#262B39"/>
</svg>
