<svg width="22" height="22" viewBox="0 0 22 22" fill="none" xmlns="http://www.w3.org/2000/svg">
<path fill-rule="evenodd" clip-rule="evenodd" d="M10.999 8.7501C12.242 8.7501 13.2496 9.75769 13.2496 11.0006C13.2496 12.2435 12.242 13.2511 10.999 13.2511C9.75613 13.2511 8.74854 12.2435 8.74854 11.0006C8.74854 9.75769 9.75613 8.7501 10.999 8.7501ZM14.7495 11.0006C14.7495 8.92929 13.0704 7.25015 10.999 7.25015C8.92773 7.25015 7.24859 8.92929 7.24859 11.0006C7.24859 13.0719 8.92773 14.7511 10.999 14.7511C13.0704 14.7511 14.7495 13.0719 14.7495 11.0006Z" fill="#262B39"/>
<path fill-rule="evenodd" clip-rule="evenodd" d="M8.35464 0.578121C9.2014 0.363895 10.0875 0.250275 10.999 0.250275C11.9107 0.250275 12.7968 0.363922 13.6437 0.578197C14.3348 0.753058 14.6917 1.34984 14.8065 1.84599C14.9426 2.4338 15.3115 2.96332 15.874 3.28803C16.3911 3.5866 16.9758 3.65676 17.515 3.52965C18.0105 3.41285 18.7023 3.46855 19.1652 4.00881C20.026 5.01335 20.7051 6.17918 21.1507 7.45533C21.4168 8.21746 21.0045 8.90374 20.5691 9.26227C20.0665 9.67623 19.7481 10.3009 19.7481 11.0006C19.7481 11.7003 20.0665 12.325 20.5691 12.7389C21.0044 13.0975 21.4167 13.7838 21.1506 14.5459C20.7052 15.8211 20.0268 16.9861 19.1669 17.9901C18.7037 18.5309 18.0113 18.5864 17.5155 18.4693C16.976 18.3418 16.3908 18.4118 15.8733 18.7106C15.3104 19.0356 14.9414 19.5657 14.8055 20.1541C14.6909 20.6506 14.3339 21.2481 13.6423 21.423C12.7958 21.6371 11.9102 21.7506 10.999 21.7506C10.0879 21.7506 9.20231 21.6371 8.35595 21.4231C7.66415 21.2481 7.30717 20.6505 7.1926 20.1539C7.05685 19.5653 6.68776 19.0351 6.12478 18.7101C5.60719 18.4112 5.02195 18.3412 4.48231 18.4688C3.98647 18.586 3.29393 18.5305 2.83067 17.9896C1.97094 16.9857 1.29266 15.8208 0.847416 14.5458C0.581279 13.7837 0.993558 13.0974 1.42887 12.7389C1.93146 12.3249 2.24984 11.7003 2.24984 11.0006C2.24984 10.301 1.93143 9.67627 1.42881 9.2623C0.993484 8.90377 0.58118 8.21752 0.84729 7.45541C1.29284 6.17941 1.97178 5.0137 2.83242 4.00924C3.29543 3.46886 3.98733 3.41319 4.48288 3.53007C5.0222 3.65726 5.60697 3.58713 6.12419 3.28851C6.68672 2.96374 7.05566 2.4341 7.19169 1.84616C7.3065 1.34992 7.66343 0.752993 8.35464 0.578121ZM8.72839 2.03077C8.72584 2.03292 8.72155 2.03704 8.71561 2.04426C8.69509 2.06922 8.66864 2.1168 8.65304 2.18426C8.42722 3.16029 7.81153 4.04632 6.87417 4.58751C6.01305 5.08468 5.03502 5.20139 4.13857 4.98997C4.07136 4.97412 4.0171 4.97672 3.98565 4.98404C3.97637 4.98621 3.97071 4.98827 3.96765 4.98963C3.2296 5.8521 2.64788 6.85135 2.26562 7.94352C2.26632 7.94732 2.26801 7.95386 2.27188 7.96375C2.28609 8.00006 2.32149 8.05433 2.38238 8.10449C3.21613 8.79115 3.74979 9.83389 3.74979 11.0006C3.74979 12.1673 3.21617 13.21 2.38249 13.8967C2.32159 13.9468 2.28619 14.0011 2.27199 14.0374C2.26812 14.0473 2.26643 14.0539 2.26573 14.0577C2.64773 15.149 3.22888 16.1475 3.96614 17.0095C3.9692 17.0108 3.97487 17.0129 3.98416 17.0151C4.01565 17.0224 4.06996 17.025 4.13723 17.0091C5.03419 16.797 6.01301 16.9135 6.87475 17.4111C7.81288 17.9527 8.42881 18.8397 8.65417 19.8167C8.66975 19.8842 8.6962 19.9319 8.71674 19.9569C8.72268 19.9641 8.72697 19.9682 8.72953 19.9704C9.4549 20.1533 10.215 20.2506 10.999 20.2506C11.783 20.2506 12.5432 20.1533 13.2687 19.9703C13.2712 19.9682 13.2755 19.9641 13.2815 19.9568C13.302 19.9318 13.3284 19.8842 13.344 19.8167C13.5695 18.8399 14.1854 17.9531 15.1233 17.4116C15.9849 16.9142 16.9636 16.7976 17.8604 17.0095C17.9277 17.0254 17.982 17.0228 18.0135 17.0155C18.0228 17.0133 18.0284 17.0113 18.0315 17.0099C18.7689 16.1478 19.3502 15.1492 19.7323 14.0577C19.7316 14.0539 19.7299 14.0474 19.726 14.0375C19.7118 14.0012 19.6764 13.9469 19.6155 13.8968C18.7818 13.2101 18.2481 12.1674 18.2481 11.0006C18.2481 9.83385 18.7818 8.79109 19.6156 8.10442C19.6765 8.05427 19.7119 7.99999 19.7261 7.96369C19.73 7.9538 19.7317 7.94725 19.7324 7.94345C19.35 6.85115 18.7682 5.8518 18.03 4.98926C18.027 4.98791 18.0213 4.98584 18.012 4.98368C17.9806 4.97635 17.9264 4.97375 17.8592 4.98959C16.9628 5.20087 15.985 5.08412 15.124 4.58703C14.1868 4.04594 13.5711 3.16012 13.3452 2.18428C13.3296 2.11684 13.3032 2.06927 13.2827 2.04432C13.2767 2.0371 13.2724 2.03299 13.2699 2.03084C12.5441 1.84771 11.7835 1.75023 10.999 1.75023C10.2146 1.75023 9.45411 1.84768 8.72839 2.03077ZM13.2671 2.02883C13.2671 2.02879 13.2675 2.02901 13.2683 2.02962L13.2671 2.02883ZM18.033 4.99083C18.033 4.99087 18.0325 4.99063 18.0317 4.99006L18.033 4.99083ZM19.7328 7.93924C19.7328 7.9392 19.7329 7.93986 19.7327 7.94133C19.7326 7.94001 19.7327 7.93928 19.7328 7.93924ZM19.7326 14.0619C19.7326 14.0618 19.7325 14.0611 19.7326 14.0599C19.7328 14.0614 19.7327 14.0621 19.7326 14.0619ZM18.0345 17.0083C18.0345 17.0084 18.0341 17.0087 18.0332 17.0091L18.0345 17.0083ZM13.2659 19.9723C13.2658 19.9723 13.2663 19.972 13.2672 19.9715L13.2659 19.9723ZM8.73231 19.9724C8.7323 19.9724 8.73188 19.9722 8.73105 19.9716L8.73231 19.9724ZM3.96318 17.0079C3.96322 17.0079 3.96369 17.0081 3.96446 17.0087L3.96318 17.0079ZM2.26533 14.0619C2.26526 14.0619 2.26522 14.0612 2.2654 14.0598C2.26549 14.0611 2.2654 14.0618 2.26533 14.0619ZM2.26522 7.93931C2.26529 7.93935 2.26538 7.94008 2.26529 7.9414C2.26511 7.93993 2.26515 7.93927 2.26522 7.93931ZM3.96469 4.9912C3.96466 4.99118 3.96504 4.9909 3.96597 4.99042L3.96469 4.9912ZM8.72992 2.02956C8.73075 2.02894 8.73117 2.02872 8.73117 2.02877L8.72992 2.02956Z" fill="#262B39"/>
</svg>
