<svg width="24" height="24" viewBox="0 0 24 24" fill="none" xmlns="http://www.w3.org/2000/svg">
<path fill-rule="evenodd" clip-rule="evenodd" d="M12.7498 5.99999C12.7498 4.20512 14.2048 2.75009 15.9996 2.75009H17.9999C19.7948 2.75009 21.2498 4.20512 21.2498 5.99999V8.00027C21.2498 9.79514 19.7948 11.2502 17.9999 11.2502H15.9997C14.2048 11.2502 12.7498 9.79514 12.7498 8.00028V5.99999ZM15.9996 4.25004C15.0332 4.25004 14.2497 5.03352 14.2497 5.99999V8.00028C14.2497 8.96674 15.0332 9.75022 15.9997 9.75022H17.9999C18.9664 9.75022 19.7499 8.96674 19.7499 8.00027V5.99999C19.7499 5.03352 18.9664 4.25004 17.9999 4.25004H15.9996ZM6.00014 2.75034C4.20527 2.75034 2.75024 4.20537 2.75024 6.00023V8.00052C2.75024 9.79539 4.20527 11.2504 6.00014 11.2504H8.00043C9.7953 11.2504 11.2503 9.79538 11.2503 8.00052V6.00023C11.2503 4.20536 9.79529 2.75034 8.00043 2.75034H6.00014ZM4.2502 6.00023C4.2502 5.03376 5.03367 4.25029 6.00014 4.25029H8.00043C8.96689 4.25029 9.75037 5.03376 9.75037 6.00023V8.00052C9.75037 8.96699 8.9669 9.75046 8.00043 9.75046H6.00014C5.03367 9.75046 4.2502 8.96699 4.2502 8.00052V6.00023ZM5.99989 12.7498C4.20503 12.7498 2.75 14.2048 2.75 15.9997V18C2.75 19.7949 4.20503 21.2499 5.9999 21.2499H8.00019C9.79505 21.2499 11.2501 19.7949 11.2501 18V15.9997C11.2501 14.2048 9.79505 12.7498 8.00018 12.7498H5.99989ZM4.24995 15.9997C4.24995 15.0332 5.03343 14.2498 5.99989 14.2498H8.00018C8.96665 14.2498 9.75013 15.0332 9.75013 15.9997V18C9.75013 18.9665 8.96665 19.7499 8.00019 19.7499H5.9999C5.03343 19.7499 4.24995 18.9665 4.24995 18V15.9997ZM15.9996 12.7498C14.2048 12.7498 12.7498 14.2048 12.7498 15.9997V18C12.7498 19.7949 14.2048 21.2499 15.9997 21.2499H17.9999C19.7948 21.2499 21.2498 19.7949 21.2498 18V15.9997C21.2498 14.2048 19.7948 12.7498 17.9999 12.7498H15.9996ZM14.2497 15.9997C14.2497 15.0332 15.0332 14.2498 15.9996 14.2498H17.9999C18.9664 14.2498 19.7499 15.0332 19.7499 15.9997V18C19.7499 18.9665 18.9664 19.7499 17.9999 19.7499H15.9997C15.0332 19.7499 14.2497 18.9665 14.2497 18V15.9997Z" fill="#262B39"/>
</svg>
