<svg width="27" height="24" viewBox="0 0 27 24" fill="none" xmlns="http://www.w3.org/2000/svg">
<circle cx="15" cy="12" r="12" fill="#7E1870"/>
<path d="M9.23398 16.74C8.87798 16.74 8.54598 16.704 8.23798 16.632C7.93398 16.56 7.66798 16.46 7.43998 16.332C7.21598 16.204 7.01398 16.052 6.83398 15.876C6.65398 15.7 6.50798 15.506 6.39598 15.294C6.28798 15.082 6.20198 14.858 6.13798 14.622C6.07398 14.386 6.03998 14.144 6.03598 13.896C6.03198 13.644 6.04998 13.392 6.08998 13.14C6.12998 12.888 6.19398 12.64 6.28198 12.396C6.37398 12.148 6.48598 11.912 6.61798 11.688H7.60798C7.43198 12.04 7.32998 12.358 7.30198 12.642C7.27398 12.922 7.30598 13.15 7.39798 13.326C7.49398 13.502 7.63398 13.648 7.81798 13.764C8.00198 13.88 8.20198 13.962 8.41798 14.01C8.63398 14.058 8.86598 14.082 9.11398 14.082C9.28998 14.082 9.44998 14.062 9.59398 14.022C9.74198 13.978 9.86598 13.918 9.96598 13.842C10.066 13.766 10.152 13.678 10.224 13.578C10.3 13.474 10.352 13.362 10.38 13.242C10.412 13.122 10.432 12.996 10.44 12.864C10.448 12.728 10.434 12.59 10.398 12.45L9.73198 8.652C9.70798 8.504 9.72198 8.36 9.77398 8.22C9.82998 8.08 9.91598 7.964 10.032 7.872L11.766 6.408L12.396 8.604L11.796 9.042C11.804 9.826 11.816 10.648 11.832 11.508L11.874 13.86C11.874 14.008 11.868 14.154 11.856 14.298C11.844 14.438 11.816 14.608 11.772 14.808C11.728 15.004 11.668 15.186 11.592 15.354C11.52 15.526 11.416 15.7 11.28 15.876C11.148 16.052 10.992 16.2 10.812 16.32C10.632 16.444 10.406 16.544 10.134 16.62C9.86598 16.7 9.56598 16.74 9.23398 16.74ZM15.5588 15C15.0588 15 14.6328 14.824 14.2808 14.472C13.9288 14.12 13.7528 13.694 13.7528 13.194V8.376L15.7508 6.828L15.7448 12.126C15.7448 12.154 15.7488 12.184 15.7568 12.216C15.7968 12.328 15.8668 12.384 15.9668 12.384H17.2868V15H15.5588ZM16.3381 17.244H16.1581L15.3661 16.452V16.284L16.1581 15.498H16.3381L17.0581 16.188L17.7541 15.498H17.9341L18.7561 16.284V16.452L17.9341 17.244H17.7541L17.0581 16.548L16.3381 17.244ZM16.4521 15V12.384H18.3601C18.3601 12.22 18.3241 12.048 18.2521 11.868C18.1801 11.684 18.1001 11.528 18.0121 11.4C17.9281 11.272 17.8281 11.144 17.7121 11.016C17.6001 10.884 17.5221 10.798 17.4781 10.758C17.4341 10.718 17.3981 10.686 17.3701 10.662L18.7381 9.588C18.7381 9.588 18.7561 9.616 18.7921 9.672C18.8321 9.728 18.8801 9.808 18.9361 9.912C18.9961 10.016 19.0541 10.132 19.1101 10.26C19.1661 10.388 19.2141 10.538 19.2541 10.71C19.2941 10.878 19.3141 11.04 19.3141 11.196L19.3201 13.398C19.3201 13.838 19.1621 14.216 18.8461 14.532C18.5341 14.844 18.1581 15 17.7181 15H16.4521ZM21.8013 18.408C21.4693 18.408 20.8113 18.224 19.8273 17.856C19.1153 17.576 18.7593 17.436 18.7593 17.436V17.094C19.2473 16.998 19.8033 16.8 20.4273 16.5C21.0513 16.204 21.5853 15.882 22.0293 15.534C22.4733 15.186 22.6953 14.902 22.6953 14.682C22.6953 14.398 22.4133 13.966 21.8493 13.386C21.5893 13.138 21.4593 13.014 21.4593 13.014L22.6233 11.106L22.6953 11.16C22.7473 11.196 22.8113 11.256 22.8873 11.34C22.9673 11.42 23.0553 11.518 23.1513 11.634C23.2473 11.75 23.3433 11.896 23.4393 12.072C23.5353 12.248 23.6213 12.438 23.6973 12.642C23.7773 12.846 23.8413 13.088 23.8893 13.368C23.9413 13.648 23.9673 13.94 23.9673 14.244C23.9673 14.496 23.9353 14.796 23.8713 15.144C23.8073 15.492 23.7113 15.856 23.5833 16.236C23.4553 16.616 23.3073 16.968 23.1393 17.292C22.9713 17.616 22.7693 17.882 22.5333 18.09C22.2973 18.302 22.0533 18.408 21.8013 18.408Z" fill="white"/>
</svg>
