<svg width="43" height="43" viewBox="0 0 43 43" fill="none" xmlns="http://www.w3.org/2000/svg">
<rect x="0.5" y="-0.5" width="42.0001" height="42" rx="11.5" transform="matrix(1 0 0 -1 0 42)" fill="white"/>
<rect x="0.5" y="-0.5" width="42.0001" height="42" rx="11.5" transform="matrix(1 0 0 -1 0 42)" stroke="#D1D8E1"/>
<path d="M33 33H10V10H33V33Z" fill="white"/>
<path d="M10.7931 33H10V32.2069H10.7931V33Z" fill="black"/>
<path d="M11.5861 33H10.793V32.2069H11.5861V33Z" fill="black"/>
<path d="M12.379 33H11.5859V32.2069H12.379V33Z" fill="black"/>
<path d="M13.172 33H12.3789V32.2069H13.172V33Z" fill="black"/>
<path d="M13.965 33H13.1719V32.2069H13.965V33Z" fill="black"/>
<path d="M14.7579 33H13.9648V32.2069H14.7579V33Z" fill="black"/>
<path d="M15.5509 33H14.7578V32.2069H15.5509V33Z" fill="black"/>
<path d="M19.5158 33H18.7227V32.2069H19.5158V33Z" fill="black"/>
<path d="M21.8947 33H21.1016V32.2069H21.8947V33Z" fill="black"/>
<path d="M22.6915 33H21.8984V32.2069H22.6915V33Z" fill="black"/>
<path d="M23.4845 33H22.6914V32.2069H23.4845V33Z" fill="black"/>
<path d="M24.2775 33H23.4844V32.2069H24.2775V33Z" fill="black"/>
<path d="M25.0704 33H24.2773V32.2069H25.0704V33Z" fill="black"/>
<path d="M25.8634 33H25.0703V32.2069H25.8634V33Z" fill="black"/>
<path d="M28.2423 33H27.4492V32.2069H28.2423V33Z" fill="black"/>
<path d="M29.0353 33H28.2422V32.2069H29.0353V33Z" fill="black"/>
<path d="M29.8283 33H29.0352V32.2069H29.8283V33Z" fill="black"/>
<path d="M30.6212 33H29.8281V32.2069H30.6212V33Z" fill="black"/>
<path d="M31.4142 33H30.6211V32.2069H31.4142V33Z" fill="black"/>
<path d="M32.2072 33H31.4141V32.2069H32.2072V33Z" fill="black"/>
<path d="M33.0001 33H32.207V32.2069H33.0001V33Z" fill="black"/>
<path d="M10.7931 32.207H10V31.4139H10.7931V32.207Z" fill="black"/>
<path d="M15.5509 32.207H14.7578V31.4139H15.5509V32.207Z" fill="black"/>
<path d="M17.9298 32.207H17.1367V31.4139H17.9298V32.207Z" fill="black"/>
<path d="M19.5158 32.207H18.7227V31.4139H19.5158V32.207Z" fill="black"/>
<path d="M20.3087 32.207H19.5156V31.4139H20.3087V32.207Z" fill="black"/>
<path d="M21.8947 32.207H21.1016V31.4139H21.8947V32.207Z" fill="black"/>
<path d="M22.6915 32.207H21.8984V31.4139H22.6915V32.207Z" fill="black"/>
<path d="M23.4845 32.207H22.6914V31.4139H23.4845V32.207Z" fill="black"/>
<path d="M24.2775 32.207H23.4844V31.4139H24.2775V32.207Z" fill="black"/>
<path d="M25.0704 32.207H24.2773V31.4139H25.0704V32.207Z" fill="black"/>
<path d="M26.6564 32.207H25.8633V31.4139H26.6564V32.207Z" fill="black"/>
<path d="M28.2423 32.207H27.4492V31.4139H28.2423V32.207Z" fill="black"/>
<path d="M33.0001 32.207H32.207V31.4139H33.0001V32.207Z" fill="black"/>
<path d="M10.7931 31.4141H10V30.621H10.7931V31.4141Z" fill="black"/>
<path d="M12.379 31.4141H11.5859V30.621H12.379V31.4141Z" fill="black"/>
<path d="M13.172 31.4141H12.3789V30.621H13.172V31.4141Z" fill="black"/>
<path d="M13.965 31.4141H13.1719V30.621H13.965V31.4141Z" fill="black"/>
<path d="M15.5509 31.4141H14.7578V30.621H15.5509V31.4141Z" fill="black"/>
<path d="M17.1369 31.4141H16.3438V30.621H17.1369V31.4141Z" fill="black"/>
<path d="M18.7228 31.4141H17.9297V30.621H18.7228V31.4141Z" fill="black"/>
<path d="M19.5158 31.4141H18.7227V30.621H19.5158V31.4141Z" fill="black"/>
<path d="M21.1017 31.4141H20.3086V30.621H21.1017V31.4141Z" fill="black"/>
<path d="M24.2775 31.4141H23.4844V30.621H24.2775V31.4141Z" fill="black"/>
<path d="M26.6564 31.4141H25.8633V30.621H26.6564V31.4141Z" fill="black"/>
<path d="M28.2423 31.4141H27.4492V30.621H28.2423V31.4141Z" fill="black"/>
<path d="M29.8283 31.4141H29.0352V30.621H29.8283V31.4141Z" fill="black"/>
<path d="M30.6212 31.4141H29.8281V30.621H30.6212V31.4141Z" fill="black"/>
<path d="M31.4142 31.4141H30.6211V30.621H31.4142V31.4141Z" fill="black"/>
<path d="M33.0001 31.4141H32.207V30.621H33.0001V31.4141Z" fill="black"/>
<path d="M10.7931 30.6206H10V29.8275H10.7931V30.6206Z" fill="black"/>
<path d="M12.379 30.6206H11.5859V29.8275H12.379V30.6206Z" fill="black"/>
<path d="M13.172 30.6206H12.3789V29.8275H13.172V30.6206Z" fill="black"/>
<path d="M13.965 30.6206H13.1719V29.8275H13.965V30.6206Z" fill="black"/>
<path d="M15.5509 30.6206H14.7578V29.8275H15.5509V30.6206Z" fill="black"/>
<path d="M17.1369 30.6206H16.3438V29.8275H17.1369V30.6206Z" fill="black"/>
<path d="M18.7228 30.6206H17.9297V29.8275H18.7228V30.6206Z" fill="black"/>
<path d="M19.5158 30.6206H18.7227V29.8275H19.5158V30.6206Z" fill="black"/>
<path d="M21.1017 30.6206H20.3086V29.8275H21.1017V30.6206Z" fill="black"/>
<path d="M21.8947 30.6206H21.1016V29.8275H21.8947V30.6206Z" fill="black"/>
<path d="M25.0704 30.6206H24.2773V29.8275H25.0704V30.6206Z" fill="black"/>
<path d="M25.8634 30.6206H25.0703V29.8275H25.8634V30.6206Z" fill="black"/>
<path d="M28.2423 30.6206H27.4492V29.8275H28.2423V30.6206Z" fill="black"/>
<path d="M29.8283 30.6206H29.0352V29.8275H29.8283V30.6206Z" fill="black"/>
<path d="M30.6212 30.6206H29.8281V29.8275H30.6212V30.6206Z" fill="black"/>
<path d="M31.4142 30.6206H30.6211V29.8275H31.4142V30.6206Z" fill="black"/>
<path d="M33.0001 30.6206H32.207V29.8275H33.0001V30.6206Z" fill="black"/>
<path d="M10.7931 29.8276H10V29.0345H10.7931V29.8276Z" fill="black"/>
<path d="M12.379 29.8276H11.5859V29.0345H12.379V29.8276Z" fill="black"/>
<path d="M13.172 29.8276H12.3789V29.0345H13.172V29.8276Z" fill="black"/>
<path d="M13.965 29.8276H13.1719V29.0345H13.965V29.8276Z" fill="black"/>
<path d="M15.5509 29.8276H14.7578V29.0345H15.5509V29.8276Z" fill="black"/>
<path d="M18.7228 29.8276H17.9297V29.0345H18.7228V29.8276Z" fill="black"/>
<path d="M20.3087 29.8276H19.5156V29.0345H20.3087V29.8276Z" fill="black"/>
<path d="M21.8947 29.8276H21.1016V29.0345H21.8947V29.8276Z" fill="black"/>
<path d="M22.6915 29.8276H21.8984V29.0345H22.6915V29.8276Z" fill="black"/>
<path d="M23.4845 29.8276H22.6914V29.0345H23.4845V29.8276Z" fill="black"/>
<path d="M24.2775 29.8276H23.4844V29.0345H24.2775V29.8276Z" fill="black"/>
<path d="M25.0704 29.8276H24.2773V29.0345H25.0704V29.8276Z" fill="black"/>
<path d="M26.6564 29.8276H25.8633V29.0345H26.6564V29.8276Z" fill="black"/>
<path d="M28.2423 29.8276H27.4492V29.0345H28.2423V29.8276Z" fill="black"/>
<path d="M29.8283 29.8276H29.0352V29.0345H29.8283V29.8276Z" fill="black"/>
<path d="M30.6212 29.8276H29.8281V29.0345H30.6212V29.8276Z" fill="black"/>
<path d="M31.4142 29.8276H30.6211V29.0345H31.4142V29.8276Z" fill="black"/>
<path d="M33.0001 29.8276H32.207V29.0345H33.0001V29.8276Z" fill="black"/>
<path d="M10.7931 29.0342H10V28.2411H10.7931V29.0342Z" fill="black"/>
<path d="M15.5509 29.0342H14.7578V28.2411H15.5509V29.0342Z" fill="black"/>
<path d="M17.9298 29.0342H17.1367V28.2411H17.9298V29.0342Z" fill="black"/>
<path d="M20.3087 29.0342H19.5156V28.2411H20.3087V29.0342Z" fill="black"/>
<path d="M21.8947 29.0342H21.1016V28.2411H21.8947V29.0342Z" fill="black"/>
<path d="M24.2775 29.0342H23.4844V28.2411H24.2775V29.0342Z" fill="black"/>
<path d="M25.0704 29.0342H24.2773V28.2411H25.0704V29.0342Z" fill="black"/>
<path d="M25.8634 29.0342H25.0703V28.2411H25.8634V29.0342Z" fill="black"/>
<path d="M26.6564 29.0342H25.8633V28.2411H26.6564V29.0342Z" fill="black"/>
<path d="M28.2423 29.0342H27.4492V28.2411H28.2423V29.0342Z" fill="black"/>
<path d="M33.0001 29.0342H32.207V28.2411H33.0001V29.0342Z" fill="black"/>
<path d="M10.7931 28.2412H10V27.4481H10.7931V28.2412Z" fill="black"/>
<path d="M11.5861 28.2412H10.793V27.4481H11.5861V28.2412Z" fill="black"/>
<path d="M12.379 28.2412H11.5859V27.4481H12.379V28.2412Z" fill="black"/>
<path d="M13.172 28.2412H12.3789V27.4481H13.172V28.2412Z" fill="black"/>
<path d="M13.965 28.2412H13.1719V27.4481H13.965V28.2412Z" fill="black"/>
<path d="M14.7579 28.2412H13.9648V27.4481H14.7579V28.2412Z" fill="black"/>
<path d="M15.5509 28.2412H14.7578V27.4481H15.5509V28.2412Z" fill="black"/>
<path d="M17.1369 28.2412H16.3438V27.4481H17.1369V28.2412Z" fill="black"/>
<path d="M18.7228 28.2412H17.9297V27.4481H18.7228V28.2412Z" fill="black"/>
<path d="M20.3087 28.2412H19.5156V27.4481H20.3087V28.2412Z" fill="black"/>
<path d="M21.8947 28.2412H21.1016V27.4481H21.8947V28.2412Z" fill="black"/>
<path d="M23.4845 28.2412H22.6914V27.4481H23.4845V28.2412Z" fill="black"/>
<path d="M25.0704 28.2412H24.2773V27.4481H25.0704V28.2412Z" fill="black"/>
<path d="M26.6564 28.2412H25.8633V27.4481H26.6564V28.2412Z" fill="black"/>
<path d="M28.2423 28.2412H27.4492V27.4481H28.2423V28.2412Z" fill="black"/>
<path d="M29.0353 28.2412H28.2422V27.4481H29.0353V28.2412Z" fill="black"/>
<path d="M29.8283 28.2412H29.0352V27.4481H29.8283V28.2412Z" fill="black"/>
<path d="M30.6212 28.2412H29.8281V27.4481H30.6212V28.2412Z" fill="black"/>
<path d="M31.4142 28.2412H30.6211V27.4481H31.4142V28.2412Z" fill="black"/>
<path d="M32.2072 28.2412H31.4141V27.4481H32.2072V28.2412Z" fill="black"/>
<path d="M33.0001 28.2412H32.207V27.4481H33.0001V28.2412Z" fill="black"/>
<path d="M18.7228 27.4482H17.9297V26.6551H18.7228V27.4482Z" fill="black"/>
<path d="M20.3087 27.4482H19.5156V26.6551H20.3087V27.4482Z" fill="black"/>
<path d="M21.1017 27.4482H20.3086V26.6551H21.1017V27.4482Z" fill="black"/>
<path d="M23.4845 27.4482H22.6914V26.6551H23.4845V27.4482Z" fill="black"/>
<path d="M26.6564 27.4482H25.8633V26.6551H26.6564V27.4482Z" fill="black"/>
<path d="M13.172 26.6553H12.3789V25.8622H13.172V26.6553Z" fill="black"/>
<path d="M13.965 26.6553H13.1719V25.8622H13.965V26.6553Z" fill="black"/>
<path d="M15.5509 26.6553H14.7578V25.8622H15.5509V26.6553Z" fill="black"/>
<path d="M16.3439 26.6553H15.5508V25.8622H16.3439V26.6553Z" fill="black"/>
<path d="M18.7228 26.6553H17.9297V25.8622H18.7228V26.6553Z" fill="black"/>
<path d="M22.6915 26.6553H21.8984V25.8622H22.6915V26.6553Z" fill="black"/>
<path d="M25.0704 26.6553H24.2773V25.8622H25.0704V26.6553Z" fill="black"/>
<path d="M25.8634 26.6553H25.0703V25.8622H25.8634V26.6553Z" fill="black"/>
<path d="M26.6564 26.6553H25.8633V25.8622H26.6564V26.6553Z" fill="black"/>
<path d="M30.6212 26.6553H29.8281V25.8622H30.6212V26.6553Z" fill="black"/>
<path d="M31.4142 26.6553H30.6211V25.8622H31.4142V26.6553Z" fill="black"/>
<path d="M10.7931 25.8623H10V25.0692H10.7931V25.8623Z" fill="black"/>
<path d="M11.5861 25.8623H10.793V25.0692H11.5861V25.8623Z" fill="black"/>
<path d="M13.965 25.8623H13.1719V25.0692H13.965V25.8623Z" fill="black"/>
<path d="M16.3439 25.8623H15.5508V25.0692H16.3439V25.8623Z" fill="black"/>
<path d="M17.9298 25.8623H17.1367V25.0692H17.9298V25.8623Z" fill="black"/>
<path d="M18.7228 25.8623H17.9297V25.0692H18.7228V25.8623Z" fill="black"/>
<path d="M20.3087 25.8623H19.5156V25.0692H20.3087V25.8623Z" fill="black"/>
<path d="M21.1017 25.8623H20.3086V25.0692H21.1017V25.8623Z" fill="black"/>
<path d="M22.6915 25.8623H21.8984V25.0692H22.6915V25.8623Z" fill="black"/>
<path d="M23.4845 25.8623H22.6914V25.0692H23.4845V25.8623Z" fill="black"/>
<path d="M24.2775 25.8623H23.4844V25.0692H24.2775V25.8623Z" fill="black"/>
<path d="M26.6564 25.8623H25.8633V25.0692H26.6564V25.8623Z" fill="black"/>
<path d="M28.2423 25.8623H27.4492V25.0692H28.2423V25.8623Z" fill="black"/>
<path d="M29.8283 25.8623H29.0352V25.0692H29.8283V25.8623Z" fill="black"/>
<path d="M31.4142 25.8623H30.6211V25.0692H31.4142V25.8623Z" fill="black"/>
<path d="M33.0001 25.8623H32.207V25.0692H33.0001V25.8623Z" fill="black"/>
<path d="M12.379 25.0688H11.5859V24.2757H12.379V25.0688Z" fill="black"/>
<path d="M13.172 25.0688H12.3789V24.2757H13.172V25.0688Z" fill="black"/>
<path d="M13.965 25.0688H13.1719V24.2757H13.965V25.0688Z" fill="black"/>
<path d="M15.5509 25.0688H14.7578V24.2757H15.5509V25.0688Z" fill="black"/>
<path d="M16.3439 25.0688H15.5508V24.2757H16.3439V25.0688Z" fill="black"/>
<path d="M18.7228 25.0688H17.9297V24.2757H18.7228V25.0688Z" fill="black"/>
<path d="M20.3087 25.0688H19.5156V24.2757H20.3087V25.0688Z" fill="black"/>
<path d="M23.4845 25.0688H22.6914V24.2757H23.4845V25.0688Z" fill="black"/>
<path d="M25.0704 25.0688H24.2773V24.2757H25.0704V25.0688Z" fill="black"/>
<path d="M27.4494 25.0688H26.6562V24.2757H27.4494V25.0688Z" fill="black"/>
<path d="M29.0353 25.0688H28.2422V24.2757H29.0353V25.0688Z" fill="black"/>
<path d="M29.8283 25.0688H29.0352V24.2757H29.8283V25.0688Z" fill="black"/>
<path d="M30.6212 25.0688H29.8281V24.2757H30.6212V25.0688Z" fill="black"/>
<path d="M32.2072 25.0688H31.4141V24.2757H32.2072V25.0688Z" fill="black"/>
<path d="M10.7931 24.2759H10V23.4828H10.7931V24.2759Z" fill="black"/>
<path d="M12.379 24.2759H11.5859V23.4828H12.379V24.2759Z" fill="black"/>
<path d="M13.172 24.2759H12.3789V23.4828H13.172V24.2759Z" fill="black"/>
<path d="M13.965 24.2759H13.1719V23.4828H13.965V24.2759Z" fill="black"/>
<path d="M17.1369 24.2759H16.3438V23.4828H17.1369V24.2759Z" fill="black"/>
<path d="M18.7228 24.2759H17.9297V23.4828H18.7228V24.2759Z" fill="black"/>
<path d="M20.3087 24.2759H19.5156V23.4828H20.3087V24.2759Z" fill="black"/>
<path d="M21.8947 24.2759H21.1016V23.4828H21.8947V24.2759Z" fill="black"/>
<path d="M25.0704 24.2759H24.2773V23.4828H25.0704V24.2759Z" fill="black"/>
<path d="M29.0353 24.2759H28.2422V23.4828H29.0353V24.2759Z" fill="black"/>
<path d="M29.8283 24.2759H29.0352V23.4828H29.8283V24.2759Z" fill="black"/>
<path d="M30.6212 24.2759H29.8281V23.4828H30.6212V24.2759Z" fill="black"/>
<path d="M32.2072 24.2759H31.4141V23.4828H32.2072V24.2759Z" fill="black"/>
<path d="M33.0001 24.2759H32.207V23.4828H33.0001V24.2759Z" fill="black"/>
<path d="M10.7931 23.4829H10V22.6898H10.7931V23.4829Z" fill="black"/>
<path d="M11.5861 23.4829H10.793V22.6898H11.5861V23.4829Z" fill="black"/>
<path d="M12.379 23.4829H11.5859V22.6898H12.379V23.4829Z" fill="black"/>
<path d="M13.172 23.4829H12.3789V22.6898H13.172V23.4829Z" fill="black"/>
<path d="M13.965 23.4829H13.1719V22.6898H13.965V23.4829Z" fill="black"/>
<path d="M15.5509 23.4829H14.7578V22.6898H15.5509V23.4829Z" fill="black"/>
<path d="M17.1369 23.4829H16.3438V22.6898H17.1369V23.4829Z" fill="black"/>
<path d="M17.9298 23.4829H17.1367V22.6898H17.9298V23.4829Z" fill="black"/>
<path d="M18.7228 23.4829H17.9297V22.6898H18.7228V23.4829Z" fill="black"/>
<path d="M20.3087 23.4829H19.5156V22.6898H20.3087V23.4829Z" fill="black"/>
<path d="M21.1017 23.4829H20.3086V22.6898H21.1017V23.4829Z" fill="black"/>
<path d="M21.8947 23.4829H21.1016V22.6898H21.8947V23.4829Z" fill="black"/>
<path d="M22.6915 23.4829H21.8984V22.6898H22.6915V23.4829Z" fill="black"/>
<path d="M24.2775 23.4829H23.4844V22.6898H24.2775V23.4829Z" fill="black"/>
<path d="M25.8634 23.4829H25.0703V22.6898H25.8634V23.4829Z" fill="black"/>
<path d="M27.4494 23.4829H26.6562V22.6898H27.4494V23.4829Z" fill="black"/>
<path d="M29.0353 23.4829H28.2422V22.6898H29.0353V23.4829Z" fill="black"/>
<path d="M32.2072 23.4829H31.4141V22.6898H32.2072V23.4829Z" fill="black"/>
<path d="M33.0001 23.4829H32.207V22.6898H33.0001V23.4829Z" fill="black"/>
<path d="M10.7931 22.6895H10V21.8963H10.7931V22.6895Z" fill="black"/>
<path d="M11.5861 22.6895H10.793V21.8963H11.5861V22.6895Z" fill="black"/>
<path d="M13.965 22.6895H13.1719V21.8963H13.965V22.6895Z" fill="black"/>
<path d="M14.7579 22.6895H13.9648V21.8963H14.7579V22.6895Z" fill="black"/>
<path d="M16.3439 22.6895H15.5508V21.8963H16.3439V22.6895Z" fill="black"/>
<path d="M17.1369 22.6895H16.3438V21.8963H17.1369V22.6895Z" fill="black"/>
<path d="M17.9298 22.6895H17.1367V21.8963H17.9298V22.6895Z" fill="black"/>
<path d="M18.7228 22.6895H17.9297V21.8963H18.7228V22.6895Z" fill="black"/>
<path d="M20.3087 22.6895H19.5156V21.8963H20.3087V22.6895Z" fill="black"/>
<path d="M21.8947 22.6895H21.1016V21.8963H21.8947V22.6895Z" fill="black"/>
<path d="M23.4845 22.6895H22.6914V21.8963H23.4845V22.6895Z" fill="black"/>
<path d="M25.8634 22.6895H25.0703V21.8963H25.8634V22.6895Z" fill="black"/>
<path d="M26.6564 22.6895H25.8633V21.8963H26.6564V22.6895Z" fill="black"/>
<path d="M27.4494 22.6895H26.6562V21.8963H27.4494V22.6895Z" fill="black"/>
<path d="M28.2423 22.6895H27.4492V21.8963H28.2423V22.6895Z" fill="black"/>
<path d="M31.4142 22.6895H30.6211V21.8963H31.4142V22.6895Z" fill="black"/>
<path d="M10.7931 21.8965H10V21.1034H10.7931V21.8965Z" fill="black"/>
<path d="M12.379 21.8965H11.5859V21.1034H12.379V21.8965Z" fill="black"/>
<path d="M13.172 21.8965H12.3789V21.1034H13.172V21.8965Z" fill="black"/>
<path d="M14.7579 21.8965H13.9648V21.1034H14.7579V21.8965Z" fill="black"/>
<path d="M15.5509 21.8965H14.7578V21.1034H15.5509V21.8965Z" fill="black"/>
<path d="M16.3439 21.8965H15.5508V21.1034H16.3439V21.8965Z" fill="black"/>
<path d="M17.1369 21.8965H16.3438V21.1034H17.1369V21.8965Z" fill="black"/>
<path d="M17.9298 21.8965H17.1367V21.1034H17.9298V21.8965Z" fill="black"/>
<path d="M19.5158 21.8965H18.7227V21.1034H19.5158V21.8965Z" fill="black"/>
<path d="M21.8947 21.8965H21.1016V21.1034H21.8947V21.8965Z" fill="black"/>
<path d="M22.6915 21.8965H21.8984V21.1034H22.6915V21.8965Z" fill="black"/>
<path d="M23.4845 21.8965H22.6914V21.1034H23.4845V21.8965Z" fill="black"/>
<path d="M24.2775 21.8965H23.4844V21.1034H24.2775V21.8965Z" fill="black"/>
<path d="M25.0704 21.8965H24.2773V21.1034H25.0704V21.8965Z" fill="black"/>
<path d="M26.6564 21.8965H25.8633V21.1034H26.6564V21.8965Z" fill="black"/>
<path d="M29.0353 21.8965H28.2422V21.1034H29.0353V21.8965Z" fill="black"/>
<path d="M31.4142 21.8965H30.6211V21.1034H31.4142V21.8965Z" fill="black"/>
<path d="M32.2072 21.8965H31.4141V21.1034H32.2072V21.8965Z" fill="black"/>
<path d="M12.379 21.1035H11.5859V20.3104H12.379V21.1035Z" fill="black"/>
<path d="M14.7579 21.1035H13.9648V20.3104H14.7579V21.1035Z" fill="black"/>
<path d="M17.9298 21.1035H17.1367V20.3104H17.9298V21.1035Z" fill="black"/>
<path d="M19.5158 21.1035H18.7227V20.3104H19.5158V21.1035Z" fill="black"/>
<path d="M21.1017 21.1035H20.3086V20.3104H21.1017V21.1035Z" fill="black"/>
<path d="M23.4845 21.1035H22.6914V20.3104H23.4845V21.1035Z" fill="black"/>
<path d="M25.0704 21.1035H24.2773V20.3104H25.0704V21.1035Z" fill="black"/>
<path d="M25.8634 21.1035H25.0703V20.3104H25.8634V21.1035Z" fill="black"/>
<path d="M26.6564 21.1035H25.8633V20.3104H26.6564V21.1035Z" fill="black"/>
<path d="M29.8283 21.1035H29.0352V20.3104H29.8283V21.1035Z" fill="black"/>
<path d="M30.6212 21.1035H29.8281V20.3104H30.6212V21.1035Z" fill="black"/>
<path d="M31.4142 21.1035H30.6211V20.3104H31.4142V21.1035Z" fill="black"/>
<path d="M32.2072 21.1035H31.4141V20.3104H32.2072V21.1035Z" fill="black"/>
<path d="M10.7931 20.3105H10V19.5174H10.7931V20.3105Z" fill="black"/>
<path d="M14.7579 20.3105H13.9648V19.5174H14.7579V20.3105Z" fill="black"/>
<path d="M15.5509 20.3105H14.7578V19.5174H15.5509V20.3105Z" fill="black"/>
<path d="M19.5158 20.3105H18.7227V19.5174H19.5158V20.3105Z" fill="black"/>
<path d="M21.8947 20.3105H21.1016V19.5174H21.8947V20.3105Z" fill="black"/>
<path d="M22.6915 20.3105H21.8984V19.5174H22.6915V20.3105Z" fill="black"/>
<path d="M24.2775 20.3105H23.4844V19.5174H24.2775V20.3105Z" fill="black"/>
<path d="M26.6564 20.3105H25.8633V19.5174H26.6564V20.3105Z" fill="black"/>
<path d="M28.2423 20.3105H27.4492V19.5174H28.2423V20.3105Z" fill="black"/>
<path d="M29.0353 20.3105H28.2422V19.5174H29.0353V20.3105Z" fill="black"/>
<path d="M31.4142 20.3105H30.6211V19.5174H31.4142V20.3105Z" fill="black"/>
<path d="M32.2072 20.3105H31.4141V19.5174H32.2072V20.3105Z" fill="black"/>
<path d="M10.7931 19.5171H10V18.724H10.7931V19.5171Z" fill="black"/>
<path d="M13.172 19.5171H12.3789V18.724H13.172V19.5171Z" fill="black"/>
<path d="M13.965 19.5171H13.1719V18.724H13.965V19.5171Z" fill="black"/>
<path d="M17.1369 19.5171H16.3438V18.724H17.1369V19.5171Z" fill="black"/>
<path d="M20.3087 19.5171H19.5156V18.724H20.3087V19.5171Z" fill="black"/>
<path d="M21.8947 19.5171H21.1016V18.724H21.8947V19.5171Z" fill="black"/>
<path d="M24.2775 19.5171H23.4844V18.724H24.2775V19.5171Z" fill="black"/>
<path d="M25.0704 19.5171H24.2773V18.724H25.0704V19.5171Z" fill="black"/>
<path d="M26.6564 19.5171H25.8633V18.724H26.6564V19.5171Z" fill="black"/>
<path d="M28.2423 19.5171H27.4492V18.724H28.2423V19.5171Z" fill="black"/>
<path d="M29.8283 19.5171H29.0352V18.724H29.8283V19.5171Z" fill="black"/>
<path d="M33.0001 19.5171H32.207V18.724H33.0001V19.5171Z" fill="black"/>
<path d="M10.7931 18.7241H10V17.931H10.7931V18.7241Z" fill="black"/>
<path d="M11.5861 18.7241H10.793V17.931H11.5861V18.7241Z" fill="black"/>
<path d="M13.172 18.7241H12.3789V17.931H13.172V18.7241Z" fill="black"/>
<path d="M13.965 18.7241H13.1719V17.931H13.965V18.7241Z" fill="black"/>
<path d="M15.5509 18.7241H14.7578V17.931H15.5509V18.7241Z" fill="black"/>
<path d="M17.1369 18.7241H16.3438V17.931H17.1369V18.7241Z" fill="black"/>
<path d="M17.9298 18.7241H17.1367V17.931H17.9298V18.7241Z" fill="black"/>
<path d="M19.5158 18.7241H18.7227V17.931H19.5158V18.7241Z" fill="black"/>
<path d="M20.3087 18.7241H19.5156V17.931H20.3087V18.7241Z" fill="black"/>
<path d="M21.1017 18.7241H20.3086V17.931H21.1017V18.7241Z" fill="black"/>
<path d="M21.8947 18.7241H21.1016V17.931H21.8947V18.7241Z" fill="black"/>
<path d="M22.6915 18.7241H21.8984V17.931H22.6915V18.7241Z" fill="black"/>
<path d="M23.4845 18.7241H22.6914V17.931H23.4845V18.7241Z" fill="black"/>
<path d="M25.0704 18.7241H24.2773V17.931H25.0704V18.7241Z" fill="black"/>
<path d="M26.6564 18.7241H25.8633V17.931H26.6564V18.7241Z" fill="black"/>
<path d="M27.4494 18.7241H26.6562V17.931H27.4494V18.7241Z" fill="black"/>
<path d="M28.2423 18.7241H27.4492V17.931H28.2423V18.7241Z" fill="black"/>
<path d="M33.0001 18.7241H32.207V17.931H33.0001V18.7241Z" fill="black"/>
<path d="M10.7931 17.9312H10V17.138H10.7931V17.9312Z" fill="black"/>
<path d="M11.5861 17.9312H10.793V17.138H11.5861V17.9312Z" fill="black"/>
<path d="M12.379 17.9312H11.5859V17.138H12.379V17.9312Z" fill="black"/>
<path d="M13.172 17.9312H12.3789V17.138H13.172V17.9312Z" fill="black"/>
<path d="M16.3439 17.9312H15.5508V17.138H16.3439V17.9312Z" fill="black"/>
<path d="M17.1369 17.9312H16.3438V17.138H17.1369V17.9312Z" fill="black"/>
<path d="M19.5158 17.9312H18.7227V17.138H19.5158V17.9312Z" fill="black"/>
<path d="M20.3087 17.9312H19.5156V17.138H20.3087V17.9312Z" fill="black"/>
<path d="M21.1017 17.9312H20.3086V17.138H21.1017V17.9312Z" fill="black"/>
<path d="M21.8947 17.9312H21.1016V17.138H21.8947V17.9312Z" fill="black"/>
<path d="M23.4845 17.9312H22.6914V17.138H23.4845V17.9312Z" fill="black"/>
<path d="M24.2775 17.9312H23.4844V17.138H24.2775V17.9312Z" fill="black"/>
<path d="M27.4494 17.9312H26.6562V17.138H27.4494V17.9312Z" fill="black"/>
<path d="M28.2423 17.9312H27.4492V17.138H28.2423V17.9312Z" fill="black"/>
<path d="M29.8283 17.9312H29.0352V17.138H29.8283V17.9312Z" fill="black"/>
<path d="M31.4142 17.9312H30.6211V17.138H31.4142V17.9312Z" fill="black"/>
<path d="M33.0001 17.9312H32.207V17.138H33.0001V17.9312Z" fill="black"/>
<path d="M10.7931 17.1377H10V16.3446H10.7931V17.1377Z" fill="black"/>
<path d="M11.5861 17.1377H10.793V16.3446H11.5861V17.1377Z" fill="black"/>
<path d="M15.5509 17.1377H14.7578V16.3446H15.5509V17.1377Z" fill="black"/>
<path d="M17.9298 17.1377H17.1367V16.3446H17.9298V17.1377Z" fill="black"/>
<path d="M18.7228 17.1377H17.9297V16.3446H18.7228V17.1377Z" fill="black"/>
<path d="M20.3087 17.1377H19.5156V16.3446H20.3087V17.1377Z" fill="black"/>
<path d="M21.1017 17.1377H20.3086V16.3446H21.1017V17.1377Z" fill="black"/>
<path d="M22.6915 17.1377H21.8984V16.3446H22.6915V17.1377Z" fill="black"/>
<path d="M25.0704 17.1377H24.2773V16.3446H25.0704V17.1377Z" fill="black"/>
<path d="M26.6564 17.1377H25.8633V16.3446H26.6564V17.1377Z" fill="black"/>
<path d="M27.4494 17.1377H26.6562V16.3446H27.4494V17.1377Z" fill="black"/>
<path d="M28.2423 17.1377H27.4492V16.3446H28.2423V17.1377Z" fill="black"/>
<path d="M29.0353 17.1377H28.2422V16.3446H29.0353V17.1377Z" fill="black"/>
<path d="M29.8283 17.1377H29.0352V16.3446H29.8283V17.1377Z" fill="black"/>
<path d="M31.4142 17.1377H30.6211V16.3446H31.4142V17.1377Z" fill="black"/>
<path d="M32.2072 17.1377H31.4141V16.3446H32.2072V17.1377Z" fill="black"/>
<path d="M17.1369 16.3447H16.3438V15.5516H17.1369V16.3447Z" fill="black"/>
<path d="M17.9298 16.3447H17.1367V15.5516H17.9298V16.3447Z" fill="black"/>
<path d="M18.7228 16.3447H17.9297V15.5516H18.7228V16.3447Z" fill="black"/>
<path d="M20.3087 16.3447H19.5156V15.5516H20.3087V16.3447Z" fill="black"/>
<path d="M24.2775 16.3447H23.4844V15.5516H24.2775V16.3447Z" fill="black"/>
<path d="M25.8634 16.3447H25.0703V15.5516H25.8634V16.3447Z" fill="black"/>
<path d="M26.6564 16.3447H25.8633V15.5516H26.6564V16.3447Z" fill="black"/>
<path d="M29.8283 16.3447H29.0352V15.5516H29.8283V16.3447Z" fill="black"/>
<path d="M30.6212 16.3447H29.8281V15.5516H30.6212V16.3447Z" fill="black"/>
<path d="M31.4142 16.3447H30.6211V15.5516H31.4142V16.3447Z" fill="black"/>
<path d="M33.0001 16.3447H32.207V15.5516H33.0001V16.3447Z" fill="black"/>
<path d="M10.7931 15.5518H10V14.7587H10.7931V15.5518Z" fill="black"/>
<path d="M11.5861 15.5518H10.793V14.7587H11.5861V15.5518Z" fill="black"/>
<path d="M12.379 15.5518H11.5859V14.7587H12.379V15.5518Z" fill="black"/>
<path d="M13.172 15.5518H12.3789V14.7587H13.172V15.5518Z" fill="black"/>
<path d="M13.965 15.5518H13.1719V14.7587H13.965V15.5518Z" fill="black"/>
<path d="M14.7579 15.5518H13.9648V14.7587H14.7579V15.5518Z" fill="black"/>
<path d="M15.5509 15.5518H14.7578V14.7587H15.5509V15.5518Z" fill="black"/>
<path d="M17.1369 15.5518H16.3438V14.7587H17.1369V15.5518Z" fill="black"/>
<path d="M26.6564 15.5518H25.8633V14.7587H26.6564V15.5518Z" fill="black"/>
<path d="M28.2423 15.5518H27.4492V14.7587H28.2423V15.5518Z" fill="black"/>
<path d="M29.8283 15.5518H29.0352V14.7587H29.8283V15.5518Z" fill="black"/>
<path d="M32.2072 15.5518H31.4141V14.7587H32.2072V15.5518Z" fill="black"/>
<path d="M33.0001 15.5518H32.207V14.7587H33.0001V15.5518Z" fill="black"/>
<path d="M10.7931 14.7588H10V13.9657H10.7931V14.7588Z" fill="black"/>
<path d="M15.5509 14.7588H14.7578V13.9657H15.5509V14.7588Z" fill="black"/>
<path d="M19.5158 14.7588H18.7227V13.9657H19.5158V14.7588Z" fill="black"/>
<path d="M20.3087 14.7588H19.5156V13.9657H20.3087V14.7588Z" fill="black"/>
<path d="M22.6915 14.7588H21.8984V13.9657H22.6915V14.7588Z" fill="black"/>
<path d="M23.4845 14.7588H22.6914V13.9657H23.4845V14.7588Z" fill="black"/>
<path d="M25.0704 14.7588H24.2773V13.9657H25.0704V14.7588Z" fill="black"/>
<path d="M26.6564 14.7588H25.8633V13.9657H26.6564V14.7588Z" fill="black"/>
<path d="M29.8283 14.7588H29.0352V13.9657H29.8283V14.7588Z" fill="black"/>
<path d="M30.6212 14.7588H29.8281V13.9657H30.6212V14.7588Z" fill="black"/>
<path d="M32.2072 14.7588H31.4141V13.9657H32.2072V14.7588Z" fill="black"/>
<path d="M10.7931 13.9658H10V13.1727H10.7931V13.9658Z" fill="black"/>
<path d="M12.379 13.9658H11.5859V13.1727H12.379V13.9658Z" fill="black"/>
<path d="M13.172 13.9658H12.3789V13.1727H13.172V13.9658Z" fill="black"/>
<path d="M13.965 13.9658H13.1719V13.1727H13.965V13.9658Z" fill="black"/>
<path d="M15.5509 13.9658H14.7578V13.1727H15.5509V13.9658Z" fill="black"/>
<path d="M17.1369 13.9658H16.3438V13.1727H17.1369V13.9658Z" fill="black"/>
<path d="M18.7228 13.9658H17.9297V13.1727H18.7228V13.9658Z" fill="black"/>
<path d="M19.5158 13.9658H18.7227V13.1727H19.5158V13.9658Z" fill="black"/>
<path d="M21.8947 13.9658H21.1016V13.1727H21.8947V13.9658Z" fill="black"/>
<path d="M22.6915 13.9658H21.8984V13.1727H22.6915V13.9658Z" fill="black"/>
<path d="M23.4845 13.9658H22.6914V13.1727H23.4845V13.9658Z" fill="black"/>
<path d="M24.2775 13.9658H23.4844V13.1727H24.2775V13.9658Z" fill="black"/>
<path d="M26.6564 13.9658H25.8633V13.1727H26.6564V13.9658Z" fill="black"/>
<path d="M27.4494 13.9658H26.6562V13.1727H27.4494V13.9658Z" fill="black"/>
<path d="M28.2423 13.9658H27.4492V13.1727H28.2423V13.9658Z" fill="black"/>
<path d="M29.0353 13.9658H28.2422V13.1727H29.0353V13.9658Z" fill="black"/>
<path d="M29.8283 13.9658H29.0352V13.1727H29.8283V13.9658Z" fill="black"/>
<path d="M31.4142 13.9658H30.6211V13.1727H31.4142V13.9658Z" fill="black"/>
<path d="M32.2072 13.9658H31.4141V13.1727H32.2072V13.9658Z" fill="black"/>
<path d="M33.0001 13.9658H32.207V13.1727H33.0001V13.9658Z" fill="black"/>
<path d="M10.7931 13.1724H10V12.3793H10.7931V13.1724Z" fill="black"/>
<path d="M12.379 13.1724H11.5859V12.3793H12.379V13.1724Z" fill="black"/>
<path d="M13.172 13.1724H12.3789V12.3793H13.172V13.1724Z" fill="black"/>
<path d="M13.965 13.1724H13.1719V12.3793H13.965V13.1724Z" fill="black"/>
<path d="M15.5509 13.1724H14.7578V12.3793H15.5509V13.1724Z" fill="black"/>
<path d="M17.1369 13.1724H16.3438V12.3793H17.1369V13.1724Z" fill="black"/>
<path d="M17.9298 13.1724H17.1367V12.3793H17.9298V13.1724Z" fill="black"/>
<path d="M18.7228 13.1724H17.9297V12.3793H18.7228V13.1724Z" fill="black"/>
<path d="M19.5158 13.1724H18.7227V12.3793H19.5158V13.1724Z" fill="black"/>
<path d="M21.1017 13.1724H20.3086V12.3793H21.1017V13.1724Z" fill="black"/>
<path d="M23.4845 13.1724H22.6914V12.3793H23.4845V13.1724Z" fill="black"/>
<path d="M27.4494 13.1724H26.6562V12.3793H27.4494V13.1724Z" fill="black"/>
<path d="M29.8283 13.1724H29.0352V12.3793H29.8283V13.1724Z" fill="black"/>
<path d="M30.6212 13.1724H29.8281V12.3793H30.6212V13.1724Z" fill="black"/>
<path d="M31.4142 13.1724H30.6211V12.3793H31.4142V13.1724Z" fill="black"/>
<path d="M32.2072 13.1724H31.4141V12.3793H32.2072V13.1724Z" fill="black"/>
<path d="M10.7931 12.3794H10V11.5863H10.7931V12.3794Z" fill="black"/>
<path d="M12.379 12.3794H11.5859V11.5863H12.379V12.3794Z" fill="black"/>
<path d="M13.172 12.3794H12.3789V11.5863H13.172V12.3794Z" fill="black"/>
<path d="M13.965 12.3794H13.1719V11.5863H13.965V12.3794Z" fill="black"/>
<path d="M15.5509 12.3794H14.7578V11.5863H15.5509V12.3794Z" fill="black"/>
<path d="M19.5158 12.3794H18.7227V11.5863H19.5158V12.3794Z" fill="black"/>
<path d="M21.1017 12.3794H20.3086V11.5863H21.1017V12.3794Z" fill="black"/>
<path d="M21.8947 12.3794H21.1016V11.5863H21.8947V12.3794Z" fill="black"/>
<path d="M22.6915 12.3794H21.8984V11.5863H22.6915V12.3794Z" fill="black"/>
<path d="M25.0704 12.3794H24.2773V11.5863H25.0704V12.3794Z" fill="black"/>
<path d="M25.8634 12.3794H25.0703V11.5863H25.8634V12.3794Z" fill="black"/>
<path d="M29.0353 12.3794H28.2422V11.5863H29.0353V12.3794Z" fill="black"/>
<path d="M31.4142 12.3794H30.6211V11.5863H31.4142V12.3794Z" fill="black"/>
<path d="M32.2072 12.3794H31.4141V11.5863H32.2072V12.3794Z" fill="black"/>
<path d="M33.0001 12.3794H32.207V11.5863H33.0001V12.3794Z" fill="black"/>
<path d="M10.7931 11.5859H10V10.7928H10.7931V11.5859Z" fill="black"/>
<path d="M15.5509 11.5859H14.7578V10.7928H15.5509V11.5859Z" fill="black"/>
<path d="M17.9298 11.5859H17.1367V10.7928H17.9298V11.5859Z" fill="black"/>
<path d="M18.7228 11.5859H17.9297V10.7928H18.7228V11.5859Z" fill="black"/>
<path d="M25.8634 11.5859H25.0703V10.7928H25.8634V11.5859Z" fill="black"/>
<path d="M26.6564 11.5859H25.8633V10.7928H26.6564V11.5859Z" fill="black"/>
<path d="M28.2423 11.5859H27.4492V10.7928H28.2423V11.5859Z" fill="black"/>
<path d="M30.6212 11.5859H29.8281V10.7928H30.6212V11.5859Z" fill="black"/>
<path d="M31.4142 11.5859H30.6211V10.7928H31.4142V11.5859Z" fill="black"/>
<path d="M32.2072 11.5859H31.4141V10.7928H32.2072V11.5859Z" fill="black"/>
<path d="M10.7931 10.793H10V9.99987H10.7931V10.793Z" fill="black"/>
<path d="M11.5861 10.793H10.793V9.99987H11.5861V10.793Z" fill="black"/>
<path d="M12.379 10.793H11.5859V9.99987H12.379V10.793Z" fill="black"/>
<path d="M13.172 10.793H12.3789V9.99987H13.172V10.793Z" fill="black"/>
<path d="M13.965 10.793H13.1719V9.99987H13.965V10.793Z" fill="black"/>
<path d="M14.7579 10.793H13.9648V9.99987H14.7579V10.793Z" fill="black"/>
<path d="M15.5509 10.793H14.7578V9.99987H15.5509V10.793Z" fill="black"/>
<path d="M19.5158 10.793H18.7227V9.99987H19.5158V10.793Z" fill="black"/>
<path d="M23.4845 10.793H22.6914V9.99987H23.4845V10.793Z" fill="black"/>
<path d="M24.2775 10.793H23.4844V9.99987H24.2775V10.793Z" fill="black"/>
<path d="M26.6564 10.793H25.8633V9.99987H26.6564V10.793Z" fill="black"/>
<path d="M29.8283 10.793H29.0352V9.99987H29.8283V10.793Z" fill="black"/>
</svg>
