<svg width="20" height="20" viewBox="0 0 20 20" fill="none" xmlns="http://www.w3.org/2000/svg">
<path d="M4.20846 7.27842C3.50437 6.33963 4.17422 4.99994 5.3477 4.99994H14.6515C15.825 4.99994 16.4948 6.33963 15.7907 7.27842V7.27842C15.2772 7.96314 14.9996 8.79594 14.9996 9.65184V14.9999C14.9996 16.8409 13.5072 18.3333 11.6663 18.3333H8.33294C6.49199 18.3333 4.9996 16.8409 4.9996 14.9999V9.65184C4.9996 8.79594 4.722 7.96314 4.20846 7.27842V7.27842Z" stroke="#F0616D" stroke-width="1.5"/>
<path d="M11.6666 14.1663L11.6666 9.16626" stroke="#F0616D" stroke-width="1.5" stroke-linecap="round" stroke-linejoin="round"/>
<path d="M8.33379 14.1663L8.33379 9.16632" stroke="#F0616D" stroke-width="1.5" stroke-linecap="round" stroke-linejoin="round"/>
<path d="M13.3326 4.99963L12.8791 3.63925C12.6523 2.95868 12.0154 2.49963 11.298 2.49963H8.70054C7.98315 2.49963 7.34626 2.95868 7.1194 3.63925L6.66594 4.99963" stroke="#F0616D" stroke-width="1.5" stroke-linecap="round"/>
</svg>
