<svg width="24" height="24" viewBox="0 0 24 24" fill="none" xmlns="http://www.w3.org/2000/svg">
<path fill-rule="evenodd" clip-rule="evenodd" d="M14.867 8.40419C14.867 6.93829 13.6787 5.74994 12.2128 5.74994C10.7469 5.74994 9.55851 6.93829 9.55851 8.40419C9.55851 9.8701 10.7469 11.0584 12.2128 11.0584C13.6787 11.0584 14.867 9.8701 14.867 8.40419ZM12.2128 4.24994C14.5071 4.24994 16.367 6.10986 16.367 8.40419C16.367 10.6985 14.5071 12.5584 12.2128 12.5584C9.91843 12.5584 8.05851 10.6985 8.05851 8.40419C8.05851 6.10986 9.91843 4.24994 12.2128 4.24994ZM7.65744 15.934C10.6032 14.882 13.8223 14.882 16.7681 15.934C17.1592 16.0737 17.4202 16.4441 17.4202 16.8594V17.979C17.4202 18.5331 16.9294 18.9588 16.3808 18.8804L16.0472 18.8328C13.5038 18.4694 10.9217 18.4694 8.37831 18.8328L8.04475 18.8804C7.49615 18.9588 7.00532 18.5331 7.00532 17.9789V16.8594C7.00532 16.4441 7.26637 16.0737 7.65744 15.934ZM17.2726 14.5214C14.0006 13.3528 10.425 13.3528 7.15294 14.5214C6.16488 14.8743 5.50532 15.8102 5.50532 16.8594V17.9789C5.50532 19.4459 6.80463 20.5728 8.25689 20.3654L8.59044 20.3177C10.9931 19.9745 13.4324 19.9745 15.8351 20.3177L16.1687 20.3654C17.6209 20.5728 18.9202 19.4459 18.9202 17.979V16.8594C18.9202 15.8102 18.2607 14.8743 17.2726 14.5214ZM17.3192 7.30313C18.3822 7.30313 19.2439 8.16488 19.2439 9.2279C19.2439 10.2909 18.3822 11.1527 17.3192 11.1527C16.9049 11.1527 16.5692 11.4885 16.5692 11.9027C16.5692 12.3169 16.9049 12.6527 17.3192 12.6527C19.2106 12.6527 20.7439 11.1194 20.7439 9.2279C20.7439 7.33645 19.2106 5.80313 17.3192 5.80313C16.9049 5.80313 16.5692 6.13892 16.5692 6.55313C16.5692 6.96734 16.9049 7.30313 17.3192 7.30313ZM19.5889 13.4017C19.1822 13.3232 18.7889 13.5893 18.7104 13.996C18.6319 14.4028 18.898 14.7961 19.3047 14.8745C19.8252 14.975 20.3399 15.1152 20.8443 15.2954C21.0876 15.3823 21.25 15.6127 21.25 15.8711V16.7508C21.25 17.0884 20.951 17.3477 20.6167 17.3L20.3547 17.2625C19.9446 17.204 19.5647 17.4889 19.5061 17.8989C19.4476 18.309 19.7325 18.6889 20.1425 18.7475L20.4046 18.7849C21.6425 18.9617 22.75 18.0012 22.75 16.7508V15.8711C22.75 14.9788 22.1891 14.1829 21.3488 13.8828C20.7723 13.6769 20.1839 13.5165 19.5889 13.4017ZM6.68086 7.30313C5.61784 7.30313 4.75609 8.16488 4.75609 9.2279C4.75609 10.2909 5.61784 11.1527 6.68086 11.1527C7.09507 11.1527 7.43086 11.4885 7.43086 11.9027C7.43086 12.3169 7.09507 12.6527 6.68086 12.6527C4.78941 12.6527 3.25609 11.1194 3.25609 9.2279C3.25609 7.33645 4.78941 5.80313 6.68086 5.80313C7.09507 5.80313 7.43086 6.13892 7.43086 6.55313C7.43086 6.96734 7.09507 7.30313 6.68086 7.30313ZM4.41111 13.4017C4.81782 13.3232 5.21114 13.5893 5.28961 13.996C5.36808 14.4028 5.10199 14.7961 4.69527 14.8745C4.1748 14.975 3.6601 15.1152 3.15572 15.2954C2.91241 15.3823 2.75 15.6127 2.75 15.8711V16.7508C2.75 17.0884 3.04903 17.3477 3.38325 17.3L3.64533 17.2625C4.05538 17.204 4.43528 17.4889 4.49386 17.8989C4.55244 18.309 4.26751 18.6889 3.85746 18.7475L3.59539 18.7849C2.35751 18.9617 1.25 18.0012 1.25 16.7508V15.8711C1.25 14.9788 1.81092 14.1829 2.65121 13.8828C3.22773 13.6769 3.81612 13.5165 4.41111 13.4017Z" fill="#262B39"/>
</svg>
