<svg width="24" height="24" viewBox="0 0 24 24" fill="none" xmlns="http://www.w3.org/2000/svg">
<path fill-rule="evenodd" clip-rule="evenodd" d="M14.867 8.40426C14.867 6.93835 13.6787 5.75 12.2128 5.75C10.7469 5.75 9.55851 6.93835 9.55851 8.40426C9.55851 9.87016 10.7469 11.0585 12.2128 11.0585C13.6787 11.0585 14.867 9.87016 14.867 8.40426ZM12.2128 4.25C14.5071 4.25 16.367 6.10992 16.367 8.40426C16.367 10.6986 14.5071 12.5585 12.2128 12.5585C9.91843 12.5585 8.05851 10.6986 8.05851 8.40426C8.05851 6.10992 9.91843 4.25 12.2128 4.25ZM7.65744 15.9341C10.6032 14.882 13.8223 14.882 16.7681 15.9341C17.1592 16.0737 17.4202 16.4442 17.4202 16.8594V17.979C17.4202 18.5332 16.9294 18.9589 16.3808 18.8805L16.0472 18.8329C13.5038 18.4695 10.9217 18.4695 8.37831 18.8329L8.04475 18.8805C7.49615 18.9589 7.00532 18.5332 7.00532 17.979V16.8594C7.00532 16.4442 7.26637 16.0737 7.65744 15.9341ZM17.2726 14.5215C14.0006 13.3529 10.425 13.3529 7.15294 14.5215C6.16488 14.8743 5.50532 15.8102 5.50532 16.8594V17.979C5.50532 19.446 6.80463 20.5729 8.25689 20.3654L8.59044 20.3178C10.9931 19.9745 13.4324 19.9745 15.8351 20.3178L16.1687 20.3654C17.6209 20.5729 18.9202 19.446 18.9202 17.979V16.8594C18.9202 15.8102 18.2607 14.8743 17.2726 14.5215ZM17.3192 7.30319C18.3822 7.30319 19.2439 8.16494 19.2439 9.22796C19.2439 10.291 18.3822 11.1527 17.3192 11.1527C16.9049 11.1527 16.5692 11.4885 16.5692 11.9027C16.5692 12.3169 16.9049 12.6527 17.3192 12.6527C19.2106 12.6527 20.7439 11.1194 20.7439 9.22796C20.7439 7.33651 19.2106 5.80319 17.3192 5.80319C16.9049 5.80319 16.5692 6.13898 16.5692 6.55319C16.5692 6.96741 16.9049 7.30319 17.3192 7.30319ZM19.5889 13.4018C19.1822 13.3233 18.7889 13.5894 18.7104 13.9961C18.6319 14.4028 18.898 14.7961 19.3047 14.8746C19.8252 14.975 20.3399 15.1153 20.8443 15.2954C21.0876 15.3823 21.25 15.6128 21.25 15.8711V16.7508C21.25 17.0884 20.951 17.3478 20.6167 17.3L20.3547 17.2626C19.9446 17.204 19.5647 17.4889 19.5061 17.899C19.4476 18.309 19.7325 18.6889 20.1425 18.7475L20.4046 18.785C21.6425 18.9618 22.75 18.0013 22.75 16.7508V15.8711C22.75 14.9789 22.1891 14.1829 21.3488 13.8828C20.7723 13.6769 20.1839 13.5166 19.5889 13.4018ZM6.68086 7.30319C5.61784 7.30319 4.75609 8.16494 4.75609 9.22796C4.75609 10.291 5.61784 11.1527 6.68086 11.1527C7.09507 11.1527 7.43086 11.4885 7.43086 11.9027C7.43086 12.3169 7.09507 12.6527 6.68086 12.6527C4.78941 12.6527 3.25609 11.1194 3.25609 9.22796C3.25609 7.33651 4.78941 5.80319 6.68086 5.80319C7.09507 5.80319 7.43086 6.13898 7.43086 6.55319C7.43086 6.96741 7.09507 7.30319 6.68086 7.30319ZM4.41111 13.4018C4.81782 13.3233 5.21114 13.5894 5.28961 13.9961C5.36808 14.4028 5.10199 14.7961 4.69527 14.8746C4.1748 14.975 3.6601 15.1153 3.15572 15.2954C2.91241 15.3823 2.75 15.6128 2.75 15.8711V16.7508C2.75 17.0884 3.04903 17.3478 3.38325 17.3L3.64533 17.2626C4.05538 17.204 4.43528 17.4889 4.49386 17.899C4.55244 18.309 4.26751 18.6889 3.85746 18.7475L3.59539 18.785C2.35751 18.9618 1.25 18.0013 1.25 16.7508V15.8711C1.25 14.9789 1.81092 14.1829 2.65121 13.8828C3.22773 13.6769 3.81612 13.5166 4.41111 13.4018Z" fill="#23A25D"/>
</svg>
