<svg width="14" height="12" viewBox="0 0 14 12" fill="none" xmlns="http://www.w3.org/2000/svg">
<path d="M6.08398 0.829346L6.69102 0.222314C6.94805 -0.0347168 7.36367 -0.0347168 7.61797 0.222314L12.9336 5.53521C13.1906 5.79224 13.1906 6.20786 12.9336 6.46216L7.61797 11.7778C7.36094 12.0348 6.94531 12.0348 6.69102 11.7778L6.08398 11.1708C5.82422 10.911 5.82969 10.4872 6.09492 10.2329L9.38984 7.0938H1.53125C1.16758 7.0938 0.875 6.80122 0.875 6.43755V5.56255C0.875 5.19888 1.16758 4.9063 1.53125 4.9063H9.38984L6.09492 1.76724C5.82695 1.51294 5.82148 1.08911 6.08398 0.829346Z" fill="#F4F6FD"/>
</svg>
