<svg width="24" height="24" viewBox="0 0 24 24" fill="none" xmlns="http://www.w3.org/2000/svg">
<path fill-rule="evenodd" clip-rule="evenodd" d="M12 24C18.6274 24 24 18.6274 24 12C24 5.37258 18.6274 0 12 0C5.37258 0 0 5.37258 0 12C0 18.6274 5.37258 24 12 24ZM10.7651 13.6081H13.3203C14.3161 13.6081 15.1636 13.4386 15.8628 13.0996C16.562 12.7564 17.0959 12.2839 17.4646 11.6822C17.8333 11.0762 18.0176 10.3749 18.0176 9.57825C18.0176 8.81126 17.8354 8.12054 17.471 7.5061C17.1108 6.88742 16.5811 6.39798 15.8819 6.03779C15.1827 5.67336 14.3288 5.49115 13.3203 5.49115H8.41325V11.6695H6.5V13.6081H8.41325V14.5743H6.5V16.513H8.41325V18.5089H10.7651V16.513H13.6191V14.5743H10.7651V13.6081ZM10.7651 11.6695H13.2695C13.8161 11.6695 14.2653 11.5826 14.617 11.4089C14.9729 11.2351 15.2357 10.9936 15.4052 10.6842C15.5789 10.3749 15.6637 10.0126 15.6594 9.59732C15.6637 9.19052 15.5789 8.82609 15.4052 8.50404C15.2357 8.17775 14.9772 7.92138 14.6297 7.73492C14.2865 7.54423 13.85 7.44889 13.3203 7.44889H10.7651V11.6695Z" fill="#5258EB"/>
</svg>
