<svg width="31" height="30" viewBox="0 0 31 30" fill="none" xmlns="http://www.w3.org/2000/svg">
<path d="M2.69198 27.8301C4.82056 29.9289 8.24647 29.9289 15.0983 29.9289H16.3095C23.1613 29.9289 26.5872 29.9289 28.7158 27.8301C30.8443 25.7314 30.8443 22.3534 30.8443 15.5974V14.4032C30.8443 7.64722 30.8443 4.26929 28.7158 2.17049C26.5872 0.0717773 23.1613 0.0717773 16.3095 0.0717773H15.0983C8.24647 0.0717773 4.82056 0.0717773 2.69198 2.17049C0.563477 4.26929 0.563477 7.64722 0.563477 14.4032V15.5974C0.563477 22.3534 0.563477 25.7314 2.69198 27.8301Z" fill="#0077FF"/>
<path fill-rule="evenodd" clip-rule="evenodd" d="M23.941 19.9165L21.895 19.4125C21.6486 19.3428 21.4747 19.1243 21.4659 18.8702L21.2106 11.4452C21.1367 10.4624 20.3968 9.68076 19.6237 9.45061C19.5803 9.43766 19.5339 9.45509 19.5082 9.4919C19.482 9.52938 19.4922 9.58117 19.5286 9.60892C19.7196 9.75471 20.245 10.2303 20.245 11.0505L20.2435 20.7586C20.2435 21.696 19.3451 22.3835 18.4185 22.1553L16.3409 21.6435C16.1105 21.5641 15.9505 21.3525 15.9421 21.1085L15.6868 13.6829C15.6129 12.7002 14.873 11.9186 14.0999 11.6883C14.0565 11.6755 14.0101 11.6928 13.9844 11.7296C13.9584 11.7671 13.9684 11.8189 14.0048 11.8467C14.1958 11.9925 14.7212 12.468 14.7212 13.2883L14.7197 21.3804L14.7209 21.3806V22.9973C14.7209 23.9347 13.8225 24.6222 12.8958 24.3939L7.02751 22.9485C6.21165 22.7476 5.63965 22.028 5.63965 21.2027V11.4794C5.63965 10.5421 6.53801 9.85456 7.46463 10.0828L11.1623 10.9936V9.24076C11.1623 8.30339 12.0607 7.61581 12.9873 7.8441L16.6847 8.75481V7.00201C16.6847 6.06464 17.5831 5.37705 18.5098 5.60534L24.3782 7.05074C25.194 7.25171 25.766 7.97128 25.766 8.79661V18.5199C25.766 19.4572 24.8676 20.1447 23.941 19.9165Z" fill="white"/>
</svg>
