<svg width="24" height="24" viewBox="0 0 24 24" fill="none" xmlns="http://www.w3.org/2000/svg">
<path d="M2 12C2 7.286 2 4.929 3.464 3.464C4.93 2 7.286 2 12 2C16.714 2 19.071 2 20.535 3.464C22 4.93 22 7.286 22 12C22 16.714 22 19.071 20.535 20.535C19.072 22 16.714 22 12 22C7.286 22 4.929 22 3.464 20.535C2 19.072 2 16.714 2 12Z" stroke="#262B39" stroke-width="1.5"/>
<path d="M6 7V17" stroke="#262B39" stroke-width="1.5" stroke-linecap="round"/>
<path d="M11 12C11 11.606 11.0776 11.2159 11.2284 10.8519C11.3791 10.488 11.6001 10.1573 11.8787 9.87868C12.1573 9.6001 12.488 9.37913 12.8519 9.22836C13.2159 9.0776 13.606 9 14 9C14.394 9 14.7841 9.0776 15.1481 9.22836C15.512 9.37913 15.8427 9.6001 16.1213 9.87868C16.3999 10.1573 16.6209 10.488 16.7716 10.8519C16.9224 11.2159 17 11.606 17 12C17 12.7956 16.6839 13.5587 16.1213 14.1213C15.5587 14.6839 14.7956 15 14 15C13.2044 15 12.4413 14.6839 11.8787 14.1213C11.3161 13.5587 11 12.7956 11 12Z" stroke="#262B39" stroke-width="1.5"/>
<path d="M16.5 9.5L18 8M10 16L11.5 14.5M11.5 9.5L10 8M18 16L16.5 14.5" stroke="#262B39" stroke-width="1.5" stroke-linecap="round"/>
</svg>
