<svg width="24" height="24" viewBox="0 0 24 24" fill="none" xmlns="http://www.w3.org/2000/svg">
<circle cx="12" cy="12" r="12" fill="#183C7E"/>
<path d="M3.65823 9.772H3.47823L2.68623 8.98V8.812L3.47823 8.026H3.65823L4.37823 8.716L5.07423 8.026H5.25423L6.07623 8.812V8.98L5.25423 9.772H5.07423L4.37823 9.076L3.65823 9.772ZM3.81423 13.234C3.83023 13.382 3.88623 13.502 3.98223 13.594C4.08223 13.682 4.18623 13.74 4.29423 13.768C4.40223 13.796 4.52423 13.812 4.66023 13.816C4.79623 13.816 4.89023 13.812 4.94223 13.804C4.99423 13.796 5.03623 13.788 5.06823 13.78L4.85823 12.508C4.83423 12.36 4.73823 12.296 4.57023 12.316C4.33823 12.348 4.14623 12.442 3.99423 12.598C3.84223 12.754 3.78223 12.966 3.81423 13.234ZM6.95823 16C6.71023 16 6.48823 15.964 6.29223 15.892C6.09623 15.82 5.93623 15.728 5.81223 15.616C5.68823 15.504 5.57823 15.364 5.48223 15.196C5.38623 15.024 5.31423 14.86 5.26623 14.704C5.21823 14.548 5.17423 14.37 5.13423 14.17L4.21623 15.676H4.16223C4.13023 15.676 4.08423 15.672 4.02423 15.664C3.96423 15.652 3.89623 15.638 3.82023 15.622C3.74423 15.606 3.66423 15.58 3.58023 15.544C3.49623 15.504 3.41223 15.458 3.32823 15.406C3.24423 15.354 3.16423 15.286 3.08823 15.202C3.01223 15.114 2.94423 15.016 2.88423 14.908C2.82423 14.8 2.77623 14.668 2.74023 14.512C2.70823 14.356 2.69223 14.186 2.69223 14.002L2.69823 13.12C2.69823 12.972 2.71223 12.836 2.74023 12.712C2.77223 12.588 2.81823 12.48 2.87823 12.388C2.94223 12.292 3.01023 12.206 3.08223 12.13C3.15423 12.054 3.24423 11.988 3.35223 11.932C3.46023 11.876 3.56023 11.828 3.65223 11.788C3.74823 11.748 3.86223 11.714 3.99423 11.686C4.12623 11.654 4.24023 11.628 4.33623 11.608C4.43223 11.588 4.55023 11.568 4.69023 11.548L4.58223 10.888L5.94423 9.862L6.47223 13.006C6.48023 13.058 6.49823 13.11 6.52623 13.162C6.61823 13.31 6.74823 13.384 6.91623 13.384H8.05623V16H6.95823ZM8.62965 16H7.21965V13.384H8.53365C8.73765 13.368 8.86765 13.314 8.92365 13.222C8.98365 13.13 8.98165 12.998 8.91765 12.826L8.05965 10.216C7.94765 9.872 8.01565 9.6 8.26365 9.4L10.1356 7.828L10.7656 10.018L10.1596 10.456L10.1656 13.168C10.1656 13.192 10.1696 13.216 10.1776 13.24C10.2096 13.336 10.2676 13.384 10.3516 13.384H12.3916V16H11.5096C11.1496 16 10.8276 15.892 10.5436 15.676C10.2636 15.456 10.0756 15.176 9.97965 14.836C9.90765 15.164 9.75965 15.44 9.53565 15.664C9.31565 15.888 9.01365 16 8.62965 16ZM12.9539 16H11.5439V13.384H12.8579C13.0619 13.368 13.1919 13.314 13.2479 13.222C13.3079 13.13 13.3059 12.998 13.2419 12.826L12.3839 10.216C12.2719 9.872 12.3399 9.6 12.5879 9.4L14.4599 7.828L15.0899 10.018L14.4839 10.456L14.4899 13.168C14.4899 13.192 14.4939 13.216 14.5019 13.24C14.5339 13.336 14.5919 13.384 14.6759 13.384H16.7159V16H15.8339C15.4739 16 15.1519 15.892 14.8679 15.676C14.5879 15.456 14.3999 15.176 14.3039 14.836C14.2319 15.164 14.0839 15.44 13.8599 15.664C13.6399 15.888 13.3379 16 12.9539 16ZM17.5181 16H15.8681V13.384H16.9781C16.9541 13.224 16.9541 13.036 16.9781 12.82C17.0581 12.1 17.3901 11.598 17.9741 11.314L17.4821 10.918L18.3281 9.85C18.4281 9.726 18.5581 9.656 18.7181 9.64C18.8781 9.62 19.0201 9.662 19.1441 9.766C19.3201 9.91 19.4941 10.052 19.6661 10.192C19.8381 10.328 19.9741 10.438 20.0741 10.522C20.1781 10.606 20.2341 10.65 20.2421 10.654C20.4141 10.794 20.5801 10.938 20.7401 11.086C21.5241 11.814 22.0261 12.496 22.2461 13.132C22.2901 13.296 22.3121 13.378 22.3121 13.378L21.0641 15.814C20.3681 15.814 19.7901 15.546 19.3301 15.01C19.1981 15.302 18.9721 15.54 18.6521 15.724C18.3361 15.908 17.9581 16 17.5181 16ZM19.8461 13.816L20.6621 14.224C20.8141 13.96 20.8201 13.688 20.6801 13.408C20.5401 13.128 20.2921 12.882 19.9361 12.67C20.0201 12.978 19.9901 13.36 19.8461 13.816ZM18.9641 12.97C18.9641 12.874 18.9221 12.76 18.8381 12.628C18.7581 12.496 18.6941 12.404 18.6461 12.352C18.5981 12.296 18.5581 12.252 18.5261 12.22C18.2701 12.22 18.0661 12.326 17.9141 12.538C17.7621 12.75 17.7021 13.032 17.7341 13.384H18.5981C18.7261 13.384 18.8181 13.352 18.8741 13.288C18.9341 13.22 18.9641 13.114 18.9641 12.97Z" fill="white"/>
</svg>
