<svg width="118" height="32" viewBox="0 0 118 32" fill="none" xmlns="http://www.w3.org/2000/svg">
<circle cx="12" cy="16" r="12" fill="#21A038"/>
<path d="M37.6077 14.0814C37.5426 13.8402 37.4469 13.6278 37.3205 13.444C37.1942 13.2564 37.0392 13.0976 36.8554 12.9674C36.6717 12.8373 36.4611 12.7396 36.2238 12.6746C35.9864 12.6057 35.7261 12.5712 35.4428 12.5712C34.8724 12.5712 34.3786 12.709 33.9613 12.9846C33.5479 13.2603 33.2282 13.6622 33.0024 14.1905C32.7765 14.715 32.6636 15.3524 32.6636 16.1027C32.6636 16.8568 32.7727 17.5 32.9909 18.0321C33.2091 18.5642 33.5249 18.97 33.9383 19.2495C34.3518 19.5289 34.8533 19.6686 35.4428 19.6686C35.9635 19.6686 36.4037 19.5844 36.7635 19.416C37.1272 19.2437 37.4028 19.0006 37.5904 18.6867C37.778 18.3728 37.8718 18.0034 37.8718 17.5785L38.4001 17.6416H35.5404V15.5687H40.6109V17.1248C40.6109 18.1776 40.3869 19.0791 39.939 19.8294C39.4949 20.5797 38.8824 21.1559 38.1015 21.5578C37.3244 21.9598 36.4305 22.1608 35.4198 22.1608C34.2982 22.1608 33.3124 21.9177 32.4626 21.4315C31.6127 20.9453 30.9505 20.2524 30.4758 19.3528C30.0011 18.4494 29.7637 17.3775 29.7637 16.1371C29.7637 15.1724 29.9073 14.3169 30.1944 13.5704C30.4815 12.82 30.8815 12.1846 31.3945 11.6639C31.9113 11.1433 32.5085 10.749 33.1861 10.481C33.8675 10.213 34.6006 10.0791 35.3854 10.0791C36.0668 10.0791 36.7004 10.1767 37.2861 10.3719C37.8756 10.5672 38.3963 10.8428 38.848 11.1988C39.3035 11.5548 39.673 11.9778 39.9562 12.4678C40.2395 12.9579 40.4156 13.4957 40.4845 14.0814H37.6077ZM42.2862 22V13.1799H45.0137V14.7877H45.1056C45.2664 14.2058 45.5286 13.7733 45.8923 13.49C46.256 13.2029 46.679 13.0593 47.1613 13.0593C47.2915 13.0593 47.4255 13.0689 47.5633 13.088C47.7011 13.1033 47.8294 13.1282 47.948 13.1627V15.6031C47.814 15.5572 47.6379 15.5208 47.4197 15.494C47.2054 15.4672 47.014 15.4538 46.8455 15.4538C46.5125 15.4538 46.212 15.5285 45.944 15.6778C45.6798 15.8232 45.4712 16.028 45.3181 16.2922C45.1688 16.5525 45.0941 16.8588 45.0941 17.211V22H42.2862ZM52.7572 22.1665C51.8346 22.1665 51.0383 21.9847 50.3684 21.621C49.7023 21.2535 49.1893 20.731 48.8295 20.0534C48.4734 19.372 48.2954 18.5623 48.2954 17.6244C48.2954 16.7133 48.4754 15.917 48.8352 15.2356C49.1951 14.5504 49.7023 14.0183 50.3569 13.6393C51.0115 13.2564 51.7829 13.065 52.671 13.065C53.2989 13.065 53.8731 13.1627 54.3937 13.3579C54.9144 13.5531 55.3642 13.8422 55.7432 14.225C56.1221 14.6078 56.4169 15.0806 56.6275 15.6433C56.838 16.2022 56.9433 16.8434 56.9433 17.567V18.2675H49.2774V16.6367H54.3306C54.3267 16.3381 54.2559 16.0721 54.1181 15.8386C53.9803 15.605 53.7908 15.4232 53.5496 15.293C53.3123 15.1591 53.0385 15.0921 52.7285 15.0921C52.4146 15.0921 52.1332 15.1629 51.8844 15.3045C51.6355 15.4423 51.4384 15.6318 51.2929 15.873C51.1474 16.1104 51.0709 16.3802 51.0632 16.6827V18.3422C51.0632 18.702 51.134 19.0179 51.2757 19.2897C51.4173 19.5576 51.6183 19.7663 51.8786 19.9156C52.1389 20.0649 52.449 20.1395 52.8089 20.1395C53.0577 20.1395 53.2836 20.1051 53.4864 20.0361C53.6893 19.9672 53.8635 19.8658 54.009 19.7318C54.1545 19.5978 54.2636 19.4332 54.3363 19.238L56.9146 19.3126C56.8074 19.8907 56.572 20.3941 56.2083 20.8228C55.8484 21.2478 55.3756 21.5789 54.7899 21.8162C54.2042 22.0498 53.5266 22.1665 52.7572 22.1665ZM62.5004 22.1665C61.5778 22.1665 60.7815 21.9847 60.1116 21.621C59.4455 21.2535 58.9325 20.731 58.5727 20.0534C58.2166 19.372 58.0386 18.5623 58.0386 17.6244C58.0386 16.7133 58.2185 15.917 58.5784 15.2356C58.9382 14.5504 59.4455 14.0183 60.1001 13.6393C60.7547 13.2564 61.5261 13.065 62.4142 13.065C63.042 13.065 63.6163 13.1627 64.1369 13.3579C64.6575 13.5531 65.1073 13.8422 65.4863 14.225C65.8653 14.6078 66.1601 15.0806 66.3706 15.6433C66.5812 16.2022 66.6865 16.8434 66.6865 17.567V18.2675H59.0205V16.6367H64.0737C64.0699 16.3381 63.9991 16.0721 63.8613 15.8386C63.7235 15.605 63.534 15.4232 63.2928 15.293C63.0554 15.1591 62.7817 15.0921 62.4717 15.0921C62.1577 15.0921 61.8764 15.1629 61.6275 15.3045C61.3787 15.4423 61.1816 15.6318 61.0361 15.873C60.8906 16.1104 60.8141 16.3802 60.8064 16.6827V18.3422C60.8064 18.702 60.8772 19.0179 61.0189 19.2897C61.1605 19.5576 61.3615 19.7663 61.6218 19.9156C61.8821 20.0649 62.1922 20.1395 62.552 20.1395C62.8009 20.1395 63.0267 20.1051 63.2296 20.0361C63.4325 19.9672 63.6067 19.8658 63.7522 19.7318C63.8976 19.5978 64.0067 19.4332 64.0795 19.238L66.6578 19.3126C66.5506 19.8907 66.3151 20.3941 65.9515 20.8228C65.5916 21.2478 65.1188 21.5789 64.5331 21.8162C63.9474 22.0498 63.2698 22.1665 62.5004 22.1665ZM70.9286 16.9698V22H68.1206V13.1799H70.7908V14.7992H70.8884C71.0836 14.2594 71.4167 13.8364 71.8875 13.5302C72.3584 13.2201 72.9192 13.065 73.57 13.065C74.1902 13.065 74.728 13.2048 75.1836 13.4842C75.643 13.7599 75.999 14.1465 76.2516 14.6442C76.5081 15.138 76.6345 15.7161 76.6306 16.3783V22H73.8227V16.9296C73.8265 16.4396 73.7021 16.0568 73.4494 15.7811C73.2006 15.5055 72.8541 15.3677 72.4101 15.3677C72.1153 15.3677 71.855 15.4328 71.6291 15.5629C71.4071 15.6893 71.2348 15.8711 71.1123 16.1084C70.9936 16.3458 70.9324 16.6329 70.9286 16.9698ZM78.3691 22V10.2398H83.273C84.1535 10.2398 84.8904 10.3643 85.4838 10.6131C86.081 10.8619 86.5289 11.2103 86.8275 11.6582C87.1299 12.1061 87.2811 12.6248 87.2811 13.2143C87.2811 13.6622 87.1873 14.0623 86.9997 14.4145C86.8121 14.7628 86.5537 15.0519 86.2245 15.2816C85.8953 15.5112 85.5144 15.672 85.0818 15.7639V15.8787C85.5565 15.9017 85.9948 16.03 86.3968 16.2635C86.8026 16.497 87.128 16.8224 87.373 17.2397C87.618 17.6531 87.7405 18.1431 87.7405 18.7097C87.7405 19.3413 87.5797 19.906 87.2581 20.4037C86.9366 20.8975 86.4714 21.288 85.8628 21.5751C85.2541 21.8584 84.5152 22 83.6462 22H78.3691ZM81.2115 19.7088H82.9687C83.585 19.7088 84.0386 19.5921 84.3296 19.3586C84.6243 19.125 84.7717 18.7996 84.7717 18.3824C84.7717 18.0799 84.7009 17.8196 84.5593 17.6014C84.4176 17.3794 84.2166 17.209 83.9563 17.0904C83.696 16.9679 83.384 16.9066 83.0203 16.9066H81.2115V19.7088ZM81.2115 15.0748H82.7849C83.095 15.0748 83.3706 15.0232 83.6118 14.9198C83.853 14.8164 84.0405 14.6671 84.1745 14.4719C84.3123 14.2767 84.3813 14.0412 84.3813 13.7656C84.3813 13.3713 84.2415 13.0612 83.9621 12.8353C83.6826 12.6095 83.3055 12.4966 82.8308 12.4966H81.2115V15.0748ZM91.5935 22.1493C91.0308 22.1493 90.5312 22.0555 90.0948 21.8679C89.6622 21.6765 89.3196 21.3894 89.0669 21.0066C88.8181 20.6199 88.6937 20.1357 88.6937 19.5538C88.6937 19.0638 88.7798 18.6503 88.9521 18.3135C89.1244 17.9766 89.3617 17.7029 89.6641 17.4923C89.9666 17.2818 90.3149 17.1229 90.7092 17.0157C91.1035 16.9047 91.5246 16.83 91.9725 16.7918C92.474 16.7458 92.8779 16.698 93.1841 16.6482C93.4904 16.5946 93.7124 16.52 93.8502 16.4243C93.9919 16.3247 94.0627 16.185 94.0627 16.0051V15.9764C94.0627 15.6816 93.9613 15.4538 93.7584 15.293C93.5555 15.1323 93.2818 15.0519 92.9372 15.0519C92.5659 15.0519 92.2673 15.1323 92.0414 15.293C91.8156 15.4538 91.672 15.6759 91.6108 15.9591L89.021 15.8673C89.0976 15.3313 89.2947 14.8528 89.6125 14.4317C89.934 14.0068 90.3743 13.6737 90.9332 13.4325C91.4959 13.1875 92.1716 13.065 92.9602 13.065C93.5229 13.065 94.0417 13.132 94.5163 13.266C94.991 13.3962 95.4045 13.5876 95.7567 13.8402C96.1089 14.0891 96.3807 14.3953 96.5721 14.759C96.7673 15.1227 96.8649 15.538 96.8649 16.0051V22H94.2235V20.7712H94.1546C93.9976 21.0698 93.7966 21.3224 93.5516 21.5291C93.3105 21.7359 93.0253 21.8909 92.696 21.9943C92.3707 22.0976 92.0031 22.1493 91.5935 22.1493ZM92.4606 20.3118C92.763 20.3118 93.0348 20.2505 93.276 20.128C93.521 20.0055 93.7163 19.8371 93.8617 19.6227C94.0072 19.4045 94.0799 19.1518 94.0799 18.8647V18.0264C93.9995 18.0685 93.9019 18.1067 93.7871 18.1412C93.6761 18.1757 93.5536 18.2082 93.4196 18.2388C93.2856 18.2694 93.1478 18.2962 93.0061 18.3192C92.8645 18.3422 92.7286 18.3632 92.5984 18.3824C92.3343 18.4245 92.1084 18.4896 91.9208 18.5776C91.7371 18.6657 91.5954 18.7805 91.4959 18.9221C91.4002 19.06 91.3524 19.2246 91.3524 19.416C91.3524 19.7069 91.4557 19.929 91.6624 20.0821C91.873 20.2352 92.139 20.3118 92.4606 20.3118ZM101.39 16.9698V22H98.5819V13.1799H101.252V14.7992H101.35C101.545 14.2594 101.878 13.8364 102.349 13.5302C102.82 13.2201 103.38 13.065 104.031 13.065C104.651 13.065 105.189 13.2048 105.645 13.4842C106.104 13.7599 106.46 14.1465 106.713 14.6442C106.969 15.138 107.096 15.7161 107.092 16.3783V22H104.284V16.9296C104.288 16.4396 104.163 16.0568 103.911 15.7811C103.662 15.5055 103.315 15.3677 102.871 15.3677C102.577 15.3677 102.316 15.4328 102.09 15.5629C101.868 15.6893 101.696 15.8711 101.574 16.1084C101.455 16.3458 101.394 16.6329 101.39 16.9698ZM111.363 19.6859L111.374 16.3381H111.765L114.245 13.1799H117.427L113.74 17.7048H112.999L111.363 19.6859ZM108.83 22V10.2398H111.638V22H108.83ZM114.308 22L112 18.3364L113.849 16.3439L117.553 22H114.308Z" fill="#262B39"/>
</svg>
