<svg width="28" height="28" viewBox="0 0 28 28" fill="none" xmlns="http://www.w3.org/2000/svg">
<path d="M12.9244 12.175H10.7723L7.63094 6.73378C7.11619 5.84273 7.42149 4.70231 8.31342 4.188C8.60674 4.0185 8.92715 3.93817 9.24355 3.93817C9.88737 3.93817 10.514 4.27232 10.8592 4.87048L14.0005 10.3108L12.9244 12.175Z" fill="#FCBC05"/>
<path d="M19.6872 23.8894C18.7961 24.4042 17.6557 24.0985 17.1405 23.207L13.9993 17.7666L10.8579 23.207C10.3432 24.098 9.20323 24.4042 8.31219 23.8894C7.71446 23.5443 7.37988 22.9177 7.37988 22.2738C7.37988 21.9574 7.4602 21.637 7.62971 21.3428L10.771 15.9025H17.2284L20.3696 21.3428C20.8844 22.2347 20.5782 23.3748 19.6872 23.8894Z" fill="#E94335"/>
<path d="M25.375 14.0383C25.375 15.0678 24.5403 15.9025 23.5108 15.9025H17.2287L16.1522 14.0383L15.0765 12.1746L14 10.3104L17.1413 4.87006C17.656 3.97813 18.7965 3.67283 19.6879 4.18758C20.5789 4.70188 20.8852 5.8423 20.3704 6.73335L17.2287 12.175H23.5108C24.5408 12.175 25.375 13.0092 25.375 14.0383Z" fill="#1973E8"/>
<path d="M12.9239 12.175L11.8474 14.0387L10.7718 15.9029H4.48873C3.45969 15.9029 2.625 15.0683 2.625 14.0387C2.625 13.5244 2.83312 13.0585 3.17081 12.7208C3.5085 12.384 3.97355 12.175 4.48873 12.175H12.9239Z" fill="#34A853"/>
<path d="M17.2285 15.9025H10.7715L11.8472 14.0383L12.9237 12.175L13.9998 10.3104L15.0763 12.175L16.1519 14.0383L17.2285 15.9025Z" fill="#174FA7"/>
</svg>
