<svg width="28" height="28" viewBox="0 0 28 28" fill="none" xmlns="http://www.w3.org/2000/svg">
<path d="M4.01333 4.88833C4.34121 4.56005 4.78603 4.37541 5.25 4.375H22.75C23.2141 4.375 23.6592 4.55937 23.9874 4.88756C24.3156 5.21575 24.5 5.66087 24.5 6.125V12.5533C24.5 22.3767 16.163 25.62 14.5483 26.1567C14.1928 26.2778 13.8072 26.2778 13.4517 26.1567C11.8358 25.6223 3.5 22.3813 3.5 12.5568V6.125C3.5 5.66067 3.68433 5.215 4.01333 4.88833ZM22.75 6.125H5.25V12.5557C5.25 21.1307 12.4798 23.9913 14 24.4953C15.5237 23.9878 22.75 21.1237 22.75 12.5533V6.125Z" fill="#4A5056"/>
<path d="M8.75 13.125C8.75 12.8929 8.84219 12.6704 9.00628 12.5063C9.17038 12.3422 9.39294 12.25 9.625 12.25H18.375C18.6071 12.25 18.8296 12.3422 18.9937 12.5063C19.1578 12.6704 19.25 12.8929 19.25 13.125C19.25 13.3571 19.1578 13.5796 18.9937 13.7437C18.8296 13.9078 18.6071 14 18.375 14H9.625C9.39294 14 9.17038 13.9078 9.00628 13.7437C8.84219 13.5796 8.75 13.3571 8.75 13.125ZM8.75 16.625C8.75 16.3929 8.84219 16.1704 9.00628 16.0063C9.17038 15.8422 9.39294 15.75 9.625 15.75H18.375C18.6071 15.75 18.8296 15.8422 18.9937 16.0063C19.1578 16.1704 19.25 16.3929 19.25 16.625C19.25 16.8571 19.1578 17.0796 18.9937 17.2437C18.8296 17.4078 18.6071 17.5 18.375 17.5H9.625C9.39294 17.5 9.17038 17.4078 9.00628 17.2437C8.84219 17.0796 8.75 16.8571 8.75 16.625Z" fill="#4A5056"/>
<path d="M18.1187 9.00666C18.2825 9.17072 18.3746 9.39312 18.3746 9.62499C18.3746 9.85687 18.2825 10.0793 18.1187 10.2433L14.6187 13.7433C14.5386 13.8293 14.442 13.8982 14.3346 13.9461C14.2273 13.9939 14.1114 14.0196 13.994 14.0217C13.8765 14.0238 13.7598 14.0021 13.6508 13.9581C13.5419 13.9141 13.4429 13.8486 13.3598 13.7655C13.2767 13.6824 13.2112 13.5835 13.1672 13.4745C13.1232 13.3656 13.1016 13.2489 13.1037 13.1314C13.1057 13.0139 13.1314 12.898 13.1793 12.7907C13.2271 12.6834 13.296 12.5868 13.382 12.5067L16.882 9.00666C17.0461 8.8428 17.2685 8.75076 17.5003 8.75076C17.7322 8.75076 17.9546 8.8428 18.1187 9.00666Z" fill="black"/>
<path d="M9.88187 9.00666C10.0459 8.8428 10.2683 8.75076 10.5002 8.75076C10.7321 8.75076 10.9545 8.8428 11.1185 9.00666L14.6185 12.5067C14.7045 12.5868 14.7735 12.6834 14.8213 12.7907C14.8691 12.898 14.8948 13.0139 14.8969 13.1314C14.899 13.2489 14.8774 13.3656 14.8334 13.4745C14.7893 13.5835 14.7238 13.6824 14.6408 13.7655C14.5577 13.8486 14.4587 13.9141 14.3497 13.9581C14.2408 14.0021 14.1241 14.0238 14.0066 14.0217C13.8891 14.0196 13.7732 13.9939 13.6659 13.9461C13.5586 13.8982 13.462 13.8293 13.3819 13.7433L9.88187 10.2433C9.71801 10.0793 9.62598 9.85687 9.62598 9.62499C9.62598 9.39312 9.71801 9.17072 9.88187 9.00666Z" fill="black"/>
<path d="M14 12.25C14.2321 12.25 14.4546 12.3422 14.6187 12.5063C14.7828 12.6704 14.875 12.8929 14.875 13.125V20.125C14.875 20.3571 14.7828 20.5796 14.6187 20.7437C14.4546 20.9078 14.2321 21 14 21C13.7679 21 13.5454 20.9078 13.3813 20.7437C13.2172 20.5796 13.125 20.3571 13.125 20.125V13.125C13.125 12.8929 13.2172 12.6704 13.3813 12.5063C13.5454 12.3422 13.7679 12.25 14 12.25Z" fill="black"/>
</svg>
