<svg width="60" height="60" viewBox="0 0 60 60" fill="none" xmlns="http://www.w3.org/2000/svg">
<path d="M11.6092 42.7165C10.6111 43.3524 10.3101 44.6839 11.0326 45.6213C13.0487 48.2367 15.5891 50.4133 18.4992 52.0066C22.0375 53.9437 26.0077 54.9557 30.0415 54.9487C34.0754 54.9416 38.0421 53.9158 41.5735 51.9663C44.4781 50.3629 47.0108 48.1774 49.0178 45.555C49.7371 44.6151 49.4314 43.2846 48.4311 42.6522L48.0051 42.3829C47.0048 41.7505 45.6901 42.0579 44.95 42.9814C43.3885 44.9298 41.4567 46.5598 39.2588 47.7731C36.4336 49.3327 33.2602 50.1534 30.0332 50.159C26.8061 50.1647 23.6299 49.3551 20.7993 47.8053C18.5971 46.5997 16.6597 44.9765 15.0914 43.0336C14.3481 42.1126 13.0324 41.8098 12.0342 42.4457L11.6092 42.7165Z" fill="#23A25D"/>
<path d="M29.239 9.20813C29.1977 8.02539 28.2031 7.09019 27.0288 7.23701C23.752 7.64672 20.5872 8.73084 17.7374 10.4297C14.2725 12.4952 11.3855 15.4024 9.34425 18.8817C7.303 22.3609 6.17365 26.2994 6.06102 30.3316C5.96838 33.6481 6.56599 36.9396 7.80697 39.9999C8.25171 41.0966 9.55327 41.5085 10.6059 40.9675L11.0541 40.7372C12.1067 40.1962 12.5091 38.9074 12.089 37.801C11.2027 35.4668 10.7787 32.975 10.8488 30.4654C10.9389 27.2396 11.8424 24.0888 13.4754 21.3054C15.1084 18.522 17.418 16.1962 20.19 14.5438C22.3465 13.2583 24.7284 12.4127 27.1984 12.0476C28.3692 11.8745 29.2979 10.8945 29.2566 9.71177L29.239 9.20813Z" fill="#23A25D"/>
<path d="M49.2534 41.2375C50.2983 41.7931 51.6055 41.3994 52.0655 40.3089C53.3491 37.2663 53.9926 33.9835 53.9463 30.6661C53.89 26.6326 52.8157 22.6787 50.8232 19.1713C48.8307 15.6639 45.9846 12.7167 42.5489 10.603C39.7231 8.86455 36.5737 7.73634 33.303 7.28093C32.1308 7.11772 31.1233 8.03894 31.0655 9.22099L31.0409 9.72434C30.983 10.9064 31.898 11.8993 33.0662 12.0887C35.5309 12.4882 37.9008 13.367 40.0392 14.6825C42.7877 16.3734 45.0647 18.7312 46.6586 21.5372C48.2526 24.3431 49.112 27.5062 49.1571 30.7329C49.1921 33.2433 48.7334 35.7289 47.8146 38.0505C47.3791 39.151 47.7635 40.4453 48.8084 41.0009L49.2534 41.2375Z" fill="#23A25D"/>
</svg>
