<svg width="28" height="28" viewBox="0 0 28 28" fill="none" xmlns="http://www.w3.org/2000/svg">
<path d="M5.25 6.125V21.875C5.25 22.107 5.15781 22.3297 4.99372 22.4937C4.82962 22.6578 4.60707 22.75 4.375 22.75C4.14293 22.75 3.92038 22.6578 3.75628 22.4937C3.59219 22.3297 3.5 22.107 3.5 21.875V6.125C3.5 5.89293 3.59219 5.67038 3.75628 5.50628C3.92038 5.34219 4.14293 5.25 4.375 5.25C4.60707 5.25 4.82962 5.34219 4.99372 5.50628C5.15781 5.67038 5.25 5.89293 5.25 6.125ZM14.4375 12.0859L12.25 12.7969V10.5C12.25 10.268 12.1578 10.0454 11.9937 9.88129C11.8296 9.71723 11.607 9.625 11.375 9.625C11.143 9.625 10.9204 9.71723 10.7563 9.88129C10.5922 10.0454 10.5 10.268 10.5 10.5V12.7969L8.3125 12.0859C8.09175 12.0134 7.85123 12.0316 7.64386 12.1363C7.43648 12.2412 7.27924 12.4241 7.20672 12.6449C7.1342 12.8656 7.15235 13.1061 7.25715 13.3135C7.36197 13.5209 7.54487 13.6781 7.76562 13.7506L9.95312 14.4605L8.60344 16.3199C8.53211 16.4125 8.48009 16.5185 8.45044 16.6317C8.42079 16.7448 8.41411 16.8627 8.43082 16.9785C8.44752 17.0943 8.48726 17.2055 8.54767 17.3056C8.60809 17.4057 8.68797 17.4927 8.78255 17.5614C8.87722 17.6302 8.98467 17.6792 9.09851 17.7057C9.21244 17.7322 9.33048 17.7356 9.44571 17.7158C9.56095 17.6958 9.67111 17.653 9.76946 17.5899C9.8679 17.5267 9.95269 17.4444 10.0187 17.348L11.3684 15.4886L12.7181 17.348C12.7842 17.4444 12.869 17.5267 12.9674 17.5899C13.0658 17.653 13.1759 17.6958 13.2912 17.7158C13.4064 17.7356 13.5244 17.7322 13.6384 17.7057C13.7522 17.6792 13.8596 17.6302 13.9543 17.5614C14.0489 17.4927 14.1288 17.4057 14.1892 17.3056C14.2496 17.2055 14.2894 17.0943 14.3061 16.9785C14.3228 16.8627 14.3161 16.7448 14.2865 16.6317C14.2568 16.5185 14.2048 16.4125 14.1334 16.3199L12.7837 14.4605L14.9713 13.7506C15.1822 13.6721 15.3548 13.5153 15.4533 13.3129C15.5516 13.1104 15.5682 12.8777 15.4994 12.6633C15.4307 12.449 15.282 12.2693 15.0842 12.1618C14.8864 12.0543 14.6548 12.0271 14.4375 12.0859ZM26.0312 12.6481C25.9595 12.4294 25.8045 12.2477 25.5998 12.1425C25.395 12.0373 25.1571 12.0169 24.9375 12.0859L22.75 12.7969V10.5C22.75 10.268 22.6578 10.0454 22.4937 9.88129C22.3297 9.71723 22.107 9.625 21.875 9.625C21.643 9.625 21.4203 9.71723 21.2563 9.88129C21.0922 10.0454 21 10.268 21 10.5V12.7969L18.8125 12.0871C18.7032 12.0515 18.588 12.0378 18.4734 12.0468C18.3588 12.0558 18.2471 12.0873 18.1447 12.1394C18.0422 12.1915 17.9511 12.2634 17.8764 12.3507C17.8017 12.4381 17.745 12.5394 17.7095 12.6486C17.6739 12.7579 17.6602 12.8732 17.6692 12.9878C17.6782 13.1024 17.7097 13.2141 17.7618 13.3165C17.8139 13.4189 17.8858 13.5101 17.9732 13.5847C18.0605 13.6595 18.1618 13.7162 18.2711 13.7518L20.4586 14.4616L19.109 16.3209C19.0375 16.4136 18.9856 16.5196 18.9559 16.6328C18.9263 16.7459 18.9196 16.8638 18.9363 16.9795C18.953 17.0953 18.9927 17.2065 19.0531 17.3067C19.1136 17.4068 19.1935 17.4938 19.2881 17.5626C19.3827 17.6313 19.4901 17.6803 19.604 17.7069C19.718 17.7334 19.836 17.7368 19.9512 17.7168C20.0665 17.697 20.1765 17.6542 20.275 17.591C20.3734 17.5278 20.4581 17.4456 20.5242 17.3491L21.874 15.4897L23.2236 17.3491C23.2897 17.4456 23.3744 17.5278 23.4728 17.591C23.5713 17.6542 23.6814 17.697 23.7966 17.7168C23.9118 17.7368 24.0299 17.7334 24.1438 17.7069C24.2577 17.6803 24.3652 17.6313 24.4598 17.5626C24.5543 17.4938 24.6342 17.4068 24.6947 17.3067C24.7551 17.2065 24.7948 17.0953 24.8115 16.9795C24.8282 16.8638 24.8216 16.7459 24.7919 16.6328C24.7622 16.5196 24.7103 16.4136 24.639 16.3209L23.2892 14.4616L25.4767 13.7518C25.6963 13.6785 25.878 13.5213 25.9819 13.3144C26.0858 13.1076 26.1036 12.868 26.0312 12.6481Z" fill="#4A5056"/>
</svg>
