<svg width="28" height="28" viewBox="0 0 28 28" fill="none" xmlns="http://www.w3.org/2000/svg">
<path d="M19.25 1.75H8.75C8.05381 1.75 7.38613 2.02656 6.89384 2.51884C6.40156 3.01113 6.125 3.67881 6.125 4.375V23.625C6.125 24.3212 6.40156 24.9889 6.89384 25.4812C7.38613 25.9734 8.05381 26.25 8.75 26.25H19.25C19.9462 26.25 20.6139 25.9734 21.1062 25.4812C21.5984 24.9889 21.875 24.3212 21.875 23.625V4.375C21.875 3.67881 21.5984 3.01113 21.1062 2.51884C20.6139 2.02656 19.9462 1.75 19.25 1.75ZM20.125 23.625C20.125 23.8571 20.0328 24.0796 19.8687 24.2437C19.7046 24.4078 19.4821 24.5 19.25 24.5H8.75C8.51794 24.5 8.29538 24.4078 8.13128 24.2437C7.96719 24.0796 7.875 23.8571 7.875 23.625V4.375C7.875 4.14294 7.96719 3.92038 8.13128 3.75628C8.29538 3.59219 8.51794 3.5 8.75 3.5H19.25C19.4821 3.5 19.7046 3.59219 19.8687 3.75628C20.0328 3.92038 20.125 4.14294 20.125 4.375V23.625Z" fill="#4A5056"/>
<path d="M11.375 22.1667C11.375 21.9346 11.4672 21.712 11.6313 21.5479C11.7954 21.3839 12.0179 21.2917 12.25 21.2917H15.75C15.9821 21.2917 16.2046 21.3839 16.3687 21.5479C16.5328 21.712 16.625 21.9346 16.625 22.1667C16.625 22.3987 16.5328 22.6213 16.3687 22.7854C16.2046 22.9495 15.9821 23.0417 15.75 23.0417H12.25C12.0179 23.0417 11.7954 22.9495 11.6313 22.7854C11.4672 22.6213 11.375 22.3987 11.375 22.1667ZM11.375 2.625V4.375C11.375 4.858 11.767 5.25 12.25 5.25H15.75C15.9821 5.25 16.2046 5.15781 16.3687 4.99372C16.5328 4.82962 16.625 4.60706 16.625 4.375V2.625C16.625 2.39294 16.5328 2.17038 16.3687 2.00628C16.2046 1.84219 15.9821 1.75 15.75 1.75H12.25C12.0179 1.75 11.7954 1.84219 11.6313 2.00628C11.4672 2.17038 11.375 2.39294 11.375 2.625Z" fill="#4A5056"/>
</svg>
