<svg width="20" height="20" viewBox="0 0 20 20" fill="none" xmlns="http://www.w3.org/2000/svg">
<g clip-path="url(#clip0_653_1185)">
<path d="M17.5834 10.5104V9.48291L18.9077 8.35472C19.1518 8.14523 19.312 7.85846 19.3599 7.5451C19.4079 7.23174 19.3405 6.91196 19.1698 6.64228L17.542 3.9561C17.4211 3.75213 17.2471 3.58271 17.0377 3.46484C16.8283 3.34698 16.5907 3.2848 16.3488 3.28456C16.1989 3.28344 16.0498 3.30612 15.9074 3.35172L14.2313 3.90238C13.942 3.71516 13.6401 3.5469 13.3278 3.39872L12.976 1.70643C12.913 1.39726 12.7402 1.11953 12.488 0.921869C12.2358 0.724208 11.9203 0.619207 11.5966 0.625247H8.36866C8.04497 0.619207 7.72941 0.724208 7.47722 0.921869C7.22503 1.11953 7.05228 1.39726 6.98921 1.70643L6.63745 3.39872C6.32289 3.54687 6.01875 3.71512 5.72701 3.90238L4.08547 3.32485C3.94152 3.28834 3.79245 3.27473 3.64404 3.28456C3.40214 3.2848 3.16455 3.34698 2.95512 3.46484C2.74569 3.58271 2.57177 3.75213 2.45082 3.9561L0.823066 6.64228C0.662075 6.91156 0.602252 7.22696 0.653841 7.53447C0.705431 7.84197 0.865224 8.12245 1.10585 8.32786L2.40943 9.48963V10.5171L1.10585 11.6453C0.858427 11.8521 0.694264 12.1376 0.642495 12.4511C0.590726 12.7646 0.654701 13.0858 0.823066 13.3577L2.45082 16.0439C2.57177 16.2479 2.74569 16.4173 2.95512 16.5352C3.16455 16.653 3.40214 16.7152 3.64404 16.7154C3.79396 16.7166 3.94305 16.6939 4.08547 16.6483L5.7615 16.0976C6.05087 16.2848 6.35272 16.4531 6.66504 16.6013L7.0168 18.2936C7.07987 18.6027 7.25262 18.8805 7.50481 19.0781C7.757 19.2758 8.07256 19.3808 8.39625 19.3748H11.6518C11.9754 19.3808 12.291 19.2758 12.5432 19.0781C12.7954 18.8805 12.9681 18.6027 13.0312 18.2936L13.383 16.6013C13.6975 16.4531 14.0017 16.2849 14.2934 16.0976L15.9625 16.6483C16.105 16.6939 16.2541 16.7166 16.404 16.7154C16.6459 16.7152 16.8835 16.653 17.0929 16.5352C17.3023 16.4173 17.4762 16.2479 17.5972 16.0439L19.1698 13.3577C19.3308 13.0884 19.3906 12.773 19.339 12.4655C19.2874 12.158 19.1276 11.8776 18.887 11.6721L17.5834 10.5104ZM16.3488 15.3724L13.983 14.5934C13.4292 15.0501 12.7963 15.4071 12.1139 15.6477L11.6242 18.0585H8.36866L7.87896 15.6745C7.20194 15.4271 6.57242 15.0707 6.0167 14.6202L3.64404 15.3724L2.01629 12.6862L3.89234 11.0745C3.76481 10.3793 3.76481 9.66768 3.89234 8.97254L2.01629 7.31382L3.64404 4.62765L6.0098 5.40664C6.56361 4.94992 7.19655 4.5929 7.87896 4.35232L8.36866 1.94147H11.6242L12.1139 4.32545C12.7909 4.57287 13.4204 4.92927 13.9761 5.37978L16.3488 4.62765L17.9765 7.31382L16.1005 8.92553C16.228 9.62067 16.228 10.3323 16.1005 11.0275L17.9765 12.6862L16.3488 15.3724Z" fill="#4A5056"/>
<path d="M9.99989 14.3748C9.13462 14.3748 8.28878 14.1182 7.56933 13.6375C6.84989 13.1568 6.28915 12.4735 5.95802 11.6741C5.6269 10.8747 5.54026 9.99504 5.70906 9.14639C5.87787 8.29775 6.29454 7.51822 6.90638 6.90638C7.51822 6.29454 8.29775 5.87787 9.14639 5.70906C9.99504 5.54026 10.8747 5.6269 11.6741 5.95802C12.4735 6.28915 13.1568 6.84989 13.6375 7.56933C14.1182 8.28878 14.3748 9.13462 14.3748 9.99989C14.3806 10.576 14.2715 11.1476 14.0537 11.681C13.8359 12.2144 13.5139 12.699 13.1064 13.1064C12.699 13.5139 12.2144 13.8359 11.681 14.0537C11.1476 14.2715 10.576 14.3806 9.99989 14.3748ZM9.99989 7.0833C9.61442 7.07432 9.23114 7.14362 8.87322 7.28701C8.51531 7.43041 8.19019 7.64491 7.91755 7.91755C7.64491 8.19019 7.43041 8.51531 7.28701 8.87322C7.14362 9.23114 7.07432 9.61442 7.0833 9.99989C7.07432 10.3854 7.14362 10.7686 7.28701 11.1266C7.43041 11.4845 7.64491 11.8096 7.91755 12.0822C8.19019 12.3549 8.51531 12.5694 8.87322 12.7128C9.23114 12.8562 9.61442 12.9255 9.99989 12.9165C10.3854 12.9255 10.7686 12.8562 11.1266 12.7128C11.4845 12.5694 11.8096 12.3549 12.0822 12.0822C12.3549 11.8096 12.5694 11.4845 12.7128 11.1266C12.8562 10.7686 12.9255 10.3854 12.9165 9.99989C12.9255 9.61442 12.8562 9.23114 12.7128 8.87322C12.5694 8.51531 12.3549 8.19019 12.0822 7.91755C11.8096 7.64491 11.4845 7.43041 11.1266 7.28701C10.7686 7.14362 10.3854 7.07432 9.99989 7.0833Z" fill="#4A5056"/>
</g>
<defs>
<clipPath id="clip0_653_1185">
<rect width="20" height="20" fill="white"/>
</clipPath>
</defs>
</svg>
