<svg width="24" height="24" viewBox="0 0 24 24" fill="none" xmlns="http://www.w3.org/2000/svg">
<path fill-rule="evenodd" clip-rule="evenodd" d="M11.8787 2.92545C11.9542 2.88351 12.0461 2.88351 12.1216 2.92545L19.1217 6.81444C19.2011 6.85853 19.2503 6.94219 19.2503 7.03297V11.6721C19.2503 15.0313 17.4291 18.1264 14.4927 19.7578L12.1216 21.075C12.0461 21.117 11.9542 21.117 11.8787 21.075L9.50763 19.7578C6.57117 18.1264 4.74998 15.0312 4.74998 11.6721V7.03297C4.74998 6.94219 4.7992 6.85853 4.87857 6.81444L11.8787 2.92545ZM12.85 1.61426C12.3215 1.32064 11.6788 1.32064 11.1503 1.61426L4.15013 5.50325C3.59458 5.81189 3.25003 6.39745 3.25003 7.03297V11.6721C3.25003 15.576 5.36655 19.173 8.77919 21.0689L11.1503 22.3862C11.6788 22.6799 12.3215 22.6799 12.85 22.3862L15.2211 21.0689C18.6338 19.173 20.7503 15.576 20.7503 11.6721V7.03297C20.7503 6.39745 20.4057 5.81188 19.8502 5.50325L12.85 1.61426ZM10.9692 14.5298C11.2621 14.8227 11.7369 14.8227 12.0298 14.5298L16.0305 10.5292C16.3234 10.2363 16.3234 9.76144 16.0305 9.46855C15.7376 9.17567 15.2627 9.17567 14.9699 9.46855L11.4995 12.9389L10.0295 11.4689C9.73662 11.176 9.26176 11.176 8.96888 11.4689C8.676 11.7618 8.676 12.2366 8.96888 12.5295L10.9692 14.5298Z" fill="#23A25D"/>
</svg>
