<svg width="32" height="32" viewBox="0 0 32 32" fill="none" xmlns="http://www.w3.org/2000/svg">
<path fill-rule="evenodd" clip-rule="evenodd" d="M16 26.5C21.799 26.5 26.5 21.799 26.5 16C26.5 10.201 21.799 5.5 16 5.5C10.201 5.5 5.5 10.201 5.5 16C5.5 21.799 10.201 26.5 16 26.5ZM16.1911 18.8636C17.7726 18.8636 19.0547 17.5815 19.0547 16C19.0547 14.4185 17.7726 13.1364 16.1911 13.1364C14.6096 13.1364 13.3275 14.4185 13.3275 16C13.3275 17.5815 14.6096 18.8636 16.1911 18.8636Z" fill="#0CB450"/>
<path fill-rule="evenodd" clip-rule="evenodd" d="M3 16C3.55228 16 3.99565 16.4493 4.04105 16.9997C4.52187 22.8297 9.17026 27.4781 15.0003 27.959C15.5507 28.0043 16 28.4477 16 29C16 29.5523 15.5508 30.0037 14.9999 29.9648C8.065 29.4753 2.52467 23.935 2.03517 17.0001C1.99629 16.4492 2.44772 16 3 16Z" fill="#0CB450" fill-opacity="0.3"/>
<path fill-rule="evenodd" clip-rule="evenodd" d="M29 16C28.4477 16 28.0043 15.5507 27.959 15.0003C27.4781 9.17026 22.8297 4.52187 16.9997 4.04105C16.4493 3.99565 16 3.55229 16 3C16 2.44771 16.4492 1.99629 17.0001 2.03517C23.935 2.52467 29.4753 8.065 29.9648 14.9999C30.0037 15.5508 29.5523 16 29 16Z" fill="#0CB450"/>
</svg>
