<svg width="20" height="20" viewBox="0 0 20 20" fill="none" xmlns="http://www.w3.org/2000/svg">
<path d="M14.1328 5.1416C15.7995 6.29993 16.9495 8.1416 17.1828 10.2666" stroke="#121212" stroke-width="1.5" stroke-linecap="round" stroke-linejoin="round"/>
<path d="M2.9082 10.3086C3.12487 8.19193 4.2582 6.35026 5.9082 5.18359" stroke="#121212" stroke-width="1.5" stroke-linecap="round" stroke-linejoin="round"/>
<path d="M6.82422 17.4502C7.79089 17.9419 8.89089 18.2169 10.0492 18.2169C11.1659 18.2169 12.2159 17.9669 13.1576 17.5085" stroke="#121212" stroke-width="1.5" stroke-linecap="round" stroke-linejoin="round"/>
<path d="M10.0491 6.41654C11.3285 6.41654 12.3658 5.37933 12.3658 4.09987C12.3658 2.82041 11.3285 1.7832 10.0491 1.7832C8.76963 1.7832 7.73242 2.82041 7.73242 4.09987C7.73242 5.37933 8.76963 6.41654 10.0491 6.41654Z" stroke="#121212" stroke-width="1.5" stroke-linecap="round" stroke-linejoin="round"/>
<path d="M4.02565 16.6001C5.30511 16.6001 6.34232 15.5629 6.34232 14.2835C6.34232 13.004 5.30511 11.9668 4.02565 11.9668C2.74619 11.9668 1.70898 13.004 1.70898 14.2835C1.70898 15.5629 2.74619 16.6001 4.02565 16.6001Z" stroke="#121212" stroke-width="1.5" stroke-linecap="round" stroke-linejoin="round"/>
<path d="M15.9749 16.6001C17.2543 16.6001 18.2915 15.5629 18.2915 14.2835C18.2915 13.004 17.2543 11.9668 15.9749 11.9668C14.6954 11.9668 13.6582 13.004 13.6582 14.2835C13.6582 15.5629 14.6954 16.6001 15.9749 16.6001Z" stroke="#121212" stroke-width="1.5" stroke-linecap="round" stroke-linejoin="round"/>
</svg>
