<svg width="60" height="60" viewBox="0 0 60 60" fill="none" xmlns="http://www.w3.org/2000/svg">
<g clip-path="url(#clip0_803_3734)">
<path d="M30 60C46.5685 60 60 46.5685 60 30C60 13.4315 46.5685 0 30 0C13.4315 0 0 13.4315 0 30C0 46.5685 13.4315 60 30 60Z" fill="url(#paint0_linear_803_3734)"/>
<path d="M22.3359 43.533L37.7618 58.9589C50.5378 55.5519 60.0016 43.9116 60.0016 29.9999C60.0016 29.716 60.0016 29.4321 60.0016 29.1481L47.888 17.981L22.3359 43.533Z" fill="#1B9057"/>
<path d="M30.7564 36.7193C32.0813 38.0442 32.0813 40.3155 30.7564 41.6405L28.0119 44.3849C26.687 45.7099 24.4157 45.7099 23.0907 44.3849L11.0718 32.2714C9.74689 30.9464 9.74689 28.6752 11.0718 27.3502L13.8163 24.6058C15.1412 23.2808 17.4125 23.2808 18.7374 24.6058L30.7564 36.7193Z" fill="white"/>
<path d="M41.2592 15.8045C42.5841 14.4796 44.8554 14.4796 46.1803 15.8045L48.9248 18.549C50.2497 19.8739 50.2497 22.1452 48.9248 23.4701L28.1046 44.1957C26.7797 45.5206 24.5084 45.5206 23.1835 44.1957L20.439 41.4512C19.1141 40.1262 19.1141 37.855 20.439 36.53L41.2592 15.8045Z" fill="white"/>
</g>
<defs>
<linearGradient id="paint0_linear_803_3734" x1="30" y1="0" x2="30" y2="60" gradientUnits="userSpaceOnUse">
<stop stop-color="#2BC6AA"/>
<stop offset="1" stop-color="#23A461"/>
</linearGradient>
<clipPath id="clip0_803_3734">
<rect width="60" height="60" fill="white"/>
</clipPath>
</defs>
</svg>
