<svg width="24" height="24" viewBox="0 0 24 24" fill="none" xmlns="http://www.w3.org/2000/svg">
<g clip-path="url(#clip0_370_19)">
<path fill-rule="evenodd" clip-rule="evenodd" d="M12 0.225006C12.428 0.225006 12.775 0.571985 12.775 1.00001V3.00001C12.775 3.42803 12.428 3.77501 12 3.77501C11.572 3.77501 11.225 3.42803 11.225 3.00001V1.00001C11.225 0.571985 11.572 0.225006 12 0.225006ZM12 7.77501C9.66657 7.77501 7.77498 9.6666 7.77498 12C7.77498 14.3334 9.66657 16.225 12 16.225C14.3334 16.225 16.225 14.3334 16.225 12C16.225 9.6666 14.3334 7.77501 12 7.77501ZM6.22498 12C6.22498 8.81056 8.81053 6.22501 12 6.22501C15.1894 6.22501 17.775 8.81056 17.775 12C17.775 15.1895 15.1894 17.775 12 17.775C8.81053 17.775 6.22498 15.1895 6.22498 12ZM12.775 21C12.775 20.572 12.428 20.225 12 20.225C11.572 20.225 11.225 20.572 11.225 21V23C11.225 23.428 11.572 23.775 12 23.775C12.428 23.775 12.775 23.428 12.775 23V21ZM3.67197 3.672C3.97463 3.36934 4.46533 3.36934 4.76798 3.672L6.18798 5.092C6.49064 5.39466 6.49064 5.88536 6.18798 6.18801C5.88533 6.49067 5.39463 6.49067 5.09197 6.18801L3.67197 4.76801C3.36931 4.46536 3.36931 3.97466 3.67197 3.672ZM18.908 17.812C18.6053 17.5093 18.1146 17.5093 17.812 17.812C17.5093 18.1147 17.5093 18.6054 17.812 18.908L19.232 20.328C19.5346 20.6307 20.0253 20.6307 20.328 20.328C20.6306 20.0254 20.6306 19.5347 20.328 19.232L18.908 17.812ZM0.224976 12C0.224976 11.572 0.571955 11.225 0.999976 11.225H2.99998C3.428 11.225 3.77498 11.572 3.77498 12C3.77498 12.428 3.428 12.775 2.99998 12.775H0.999976C0.571955 12.775 0.224976 12.428 0.224976 12ZM21 11.225C20.572 11.225 20.225 11.572 20.225 12C20.225 12.428 20.572 12.775 21 12.775H23C23.428 12.775 23.775 12.428 23.775 12C23.775 11.572 23.428 11.225 23 11.225H21ZM6.18798 17.812C6.49064 18.1147 6.49064 18.6054 6.18798 18.908L4.76798 20.328C4.46533 20.6307 3.97463 20.6307 3.67197 20.328C3.36931 20.0254 3.36931 19.5347 3.67197 19.232L5.09197 17.812C5.39463 17.5093 5.88533 17.5093 6.18798 17.812ZM20.328 4.76801C20.6306 4.46536 20.6306 3.97466 20.328 3.672C20.0253 3.36934 19.5346 3.36934 19.232 3.672L17.812 5.092C17.5093 5.39466 17.5093 5.88536 17.812 6.18801C18.1146 6.49067 18.6053 6.49067 18.908 6.18801L20.328 4.76801Z" fill="#262B39"/>
</g>
<defs>
<clipPath id="clip0_370_19">
<rect width="24" height="24" fill="white"/>
</clipPath>
</defs>
</svg>
