<svg width="24" height="24" viewBox="0 0 24 24" fill="none" xmlns="http://www.w3.org/2000/svg">
<path d="M12 4C9.25156 4 6.82539 5.38588 5.38448 7.5H6.5C7.05228 7.5 7.5 7.94772 7.5 8.5C7.5 9.05228 7.05228 9.5 6.5 9.5H3C2.44772 9.5 2 9.05228 2 8.5V5C2 4.44772 2.44772 4 3 4C3.55228 4 4 4.44772 4 5V5.9993C5.82361 3.57195 8.7276 2 12 2C15.9278 2 19.3249 4.26468 20.96 7.55497C21.2058 8.04955 21.0041 8.64973 20.5095 8.89551C20.0149 9.1413 19.4148 8.93961 19.169 8.44503C17.8587 5.80844 15.1396 4 12 4Z" fill="#23A25D"/>
<path d="M3.49049 15.1045C3.98507 14.8587 4.58525 15.0604 4.83104 15.555C6.14131 18.1916 8.86038 20 12 20C14.5254 20 16.7787 18.8299 18.2456 17H17C16.4477 17 16 16.5523 16 16C16 15.4477 16.4477 15 17 15H20.0443C20.0582 14.9997 20.0722 14.9997 20.0862 15H20.5C21.0523 15 21.5 15.4477 21.5 16V19.5C21.5 20.0523 21.0523 20.5 20.5 20.5C19.9477 20.5 19.5 20.0523 19.5 19.5V18.6143C17.6683 20.6897 14.9877 22 12 22C8.07218 22 4.67514 19.7353 3.04001 16.445C2.79422 15.9505 2.99591 15.3503 3.49049 15.1045Z" fill="#23A25D"/>
</svg>
