<svg width="25" height="24" viewBox="0 0 25 24" fill="none" xmlns="http://www.w3.org/2000/svg">
<path fill-rule="evenodd" clip-rule="evenodd" d="M17.1589 2.5L22.9683 10.1442H19.378V17.5919H19.3513C19.2449 18.363 18.8611 19.3655 18.0159 20.1646C17.0635 21.0651 15.5547 21.6796 13.2821 21.4523L12.3336 21.3575L13.1862 20.9311C13.621 20.7138 14.2826 20.2774 14.8315 19.6867C15.3822 19.0942 15.7921 18.3768 15.7921 17.5919V10.1442H11.9609L17.1589 2.5Z" fill="#0CB450"/>
<path fill-rule="evenodd" clip-rule="evenodd" d="M7.83919 21.5L2.02976 13.8558H5.62006V6.40809H5.64674C5.75315 5.637 6.13694 4.63451 6.98213 3.8354C7.9346 2.93487 9.44332 2.3204 11.7159 2.54766L12.6645 2.64252L11.8118 3.06886C11.3771 3.28623 10.7155 3.7226 10.1665 4.31328C9.61584 4.90584 9.20593 5.6232 9.20593 6.40809V13.8558H13.0371L7.83919 21.5Z" fill="#0C31B4"/>
</svg>
