<svg width="24" height="24" viewBox="0 0 24 24" fill="none" xmlns="http://www.w3.org/2000/svg">
<path d="M18.9276 8.00012C18.1899 6.72241 17.1133 5.67358 15.8167 4.96959C14.5201 4.2656 13.0541 3.93387 11.5807 4.01109C10.1074 4.0883 8.68405 4.57145 7.46815 5.40712C6.25225 6.24278 5.29113 7.39841 4.69104 8.74623M20.7676 5.51549L20.0382 8.67502C19.9139 9.21316 19.377 9.54869 18.8388 9.42445L15.6793 8.69504M5.07116 16C5.80885 17.2777 6.8855 18.3266 8.18209 19.0306C9.47868 19.7345 10.9447 20.0663 12.418 19.9891C13.8914 19.9118 15.3147 19.4287 16.5306 18.593C17.7465 17.7574 18.7076 16.6017 19.3077 15.2539M3.23118 18.4847L3.96059 15.3251C4.08483 14.787 4.62178 14.4515 5.15991 14.5757L8.31945 15.3051" stroke="#262B39" stroke-width="1.5" stroke-linecap="round"/>
</svg>
