<svg width="20" height="20" viewBox="0 0 20 20" fill="none" xmlns="http://www.w3.org/2000/svg">
<path fill-rule="evenodd" clip-rule="evenodd" d="M3.21967 13.2196C2.92678 13.5125 2.92678 13.9874 3.21967 14.2803L5.13041 16.191C5.74875 16.8094 6.75126 16.8094 7.36959 16.191L9.28033 14.2803C9.57322 13.9874 9.57322 13.5125 9.28033 13.2196C8.98744 12.9267 8.51256 12.9267 8.21967 13.2196L7 14.4393L7 5.41663C7 5.00241 6.66421 4.66663 6.25 4.66663C5.83579 4.66663 5.5 5.00241 5.5 5.41663L5.5 14.4393L4.28033 13.2196C3.98744 12.9267 3.51256 12.9267 3.21967 13.2196ZM10.7197 6.78029C11.0126 7.07318 11.4874 7.07318 11.7803 6.78029L13 5.56062L13 14.5833C13 14.9975 13.3358 15.3333 13.75 15.3333C14.1642 15.3333 14.5 14.9975 14.5 14.5833L14.5 5.56062L15.7197 6.78029C16.0126 7.07318 16.4874 7.07318 16.7803 6.78029C17.0732 6.4874 17.0732 6.01252 16.7803 5.71963L14.8696 3.80889C14.2513 3.19056 13.2487 3.19056 12.6304 3.80889L10.7197 5.71963C10.4268 6.01252 10.4268 6.4874 10.7197 6.78029Z" fill="#23A25D"/>
</svg>
