<svg width="28" height="28" viewBox="0 0 28 28" fill="none" xmlns="http://www.w3.org/2000/svg">
<path d="M6.125 7.875C5.66087 7.875 5.21575 7.69063 4.88756 7.36244C4.55937 7.03425 4.375 6.58913 4.375 6.125C4.375 5.66087 4.55937 5.21575 4.88756 4.88756C5.21575 4.55937 5.66087 4.375 6.125 4.375C6.58913 4.375 7.03425 4.55937 7.36244 4.88756C7.69063 5.21575 7.875 5.66087 7.875 6.125C7.875 6.58913 7.69063 7.03425 7.36244 7.36244C7.03425 7.69063 6.58913 7.875 6.125 7.875ZM6.125 9.625C7.05326 9.625 7.9435 9.25625 8.59987 8.59987C9.25625 7.9435 9.625 7.05326 9.625 6.125C9.625 5.19674 9.25625 4.3065 8.59987 3.65013C7.9435 2.99375 7.05326 2.625 6.125 2.625C5.19674 2.625 4.3065 2.99375 3.65013 3.65013C2.99375 4.3065 2.625 5.19674 2.625 6.125C2.625 7.05326 2.99375 7.9435 3.65013 8.59987C4.3065 9.25625 5.19674 9.625 6.125 9.625ZM6.125 23.625C5.66087 23.625 5.21575 23.4406 4.88756 23.1124C4.55937 22.7842 4.375 22.3391 4.375 21.875C4.375 21.4109 4.55937 20.9658 4.88756 20.6376C5.21575 20.3094 5.66087 20.125 6.125 20.125C6.58913 20.125 7.03425 20.3094 7.36244 20.6376C7.69063 20.9658 7.875 21.4109 7.875 21.875C7.875 22.3391 7.69063 22.7842 7.36244 23.1124C7.03425 23.4406 6.58913 23.625 6.125 23.625ZM6.125 25.375C7.05326 25.375 7.9435 25.0063 8.59987 24.3499C9.25625 23.6935 9.625 22.8033 9.625 21.875C9.625 20.9467 9.25625 20.0565 8.59987 19.4001C7.9435 18.7437 7.05326 18.375 6.125 18.375C5.19674 18.375 4.3065 18.7437 3.65013 19.4001C2.99375 20.0565 2.625 20.9467 2.625 21.875C2.625 22.8033 2.99375 23.6935 3.65013 24.3499C4.3065 25.0063 5.19674 25.375 6.125 25.375Z" fill="#4A5056"/>
<path d="M11.9935 17.2433L8.4935 20.7433L7.25684 19.5067L10.7568 16.0067L11.9935 17.2433ZM11.9935 10.7567L8.4935 7.25667L7.25684 8.49334L10.7568 11.9933L11.9935 10.7567ZM16.0068 17.2433L19.5068 20.7433L20.7435 19.5067L17.2435 16.0067L16.0068 17.2433ZM16.0068 10.7567L19.5068 7.25667L20.7435 8.49334L17.2435 11.9933L16.0068 10.7567Z" fill="#4A5056"/>
<path d="M21.875 7.875C21.4109 7.875 20.9658 7.69063 20.6376 7.36244C20.3094 7.03425 20.125 6.58913 20.125 6.125C20.125 5.66087 20.3094 5.21575 20.6376 4.88756C20.9658 4.55937 21.4109 4.375 21.875 4.375C22.3391 4.375 22.7842 4.55937 23.1124 4.88756C23.4406 5.21575 23.625 5.66087 23.625 6.125C23.625 6.58913 23.4406 7.03425 23.1124 7.36244C22.7842 7.69063 22.3391 7.875 21.875 7.875ZM21.875 9.625C22.8033 9.625 23.6935 9.25625 24.3499 8.59987C25.0063 7.9435 25.375 7.05326 25.375 6.125C25.375 5.19674 25.0063 4.3065 24.3499 3.65013C23.6935 2.99375 22.8033 2.625 21.875 2.625C20.9467 2.625 20.0565 2.99375 19.4001 3.65013C18.7437 4.3065 18.375 5.19674 18.375 6.125C18.375 7.05326 18.7437 7.9435 19.4001 8.59987C20.0565 9.25625 20.9467 9.625 21.875 9.625ZM21.875 23.625C21.4109 23.625 20.9658 23.4406 20.6376 23.1124C20.3094 22.7842 20.125 22.3391 20.125 21.875C20.125 21.4109 20.3094 20.9658 20.6376 20.6376C20.9658 20.3094 21.4109 20.125 21.875 20.125C22.3391 20.125 22.7842 20.3094 23.1124 20.6376C23.4406 20.9658 23.625 21.4109 23.625 21.875C23.625 22.3391 23.4406 22.7842 23.1124 23.1124C22.7842 23.4406 22.3391 23.625 21.875 23.625ZM21.875 25.375C22.8033 25.375 23.6935 25.0063 24.3499 24.3499C25.0063 23.6935 25.375 22.8033 25.375 21.875C25.375 20.9467 25.0063 20.0565 24.3499 19.4001C23.6935 18.7437 22.8033 18.375 21.875 18.375C20.9467 18.375 20.0565 18.7437 19.4001 19.4001C18.7437 20.0565 18.375 20.9467 18.375 21.875C18.375 22.8033 18.7437 23.6935 19.4001 24.3499C20.0565 25.0063 20.9467 25.375 21.875 25.375ZM14 16.625C13.3038 16.625 12.6361 16.3484 12.1438 15.8562C11.6516 15.3639 11.375 14.6962 11.375 14C11.375 13.3038 11.6516 12.6361 12.1438 12.1438C12.6361 11.6516 13.3038 11.375 14 11.375C14.6962 11.375 15.3639 11.6516 15.8562 12.1438C16.3484 12.6361 16.625 13.3038 16.625 14C16.625 14.6962 16.3484 15.3639 15.8562 15.8562C15.3639 16.3484 14.6962 16.625 14 16.625ZM14 18.375C15.1603 18.375 16.2731 17.9141 17.0936 17.0936C17.9141 16.2731 18.375 15.1603 18.375 14C18.375 12.8397 17.9141 11.7269 17.0936 10.9064C16.2731 10.0859 15.1603 9.625 14 9.625C12.8397 9.625 11.7269 10.0859 10.9064 10.9064C10.0859 11.7269 9.625 12.8397 9.625 14C9.625 15.1603 10.0859 16.2731 10.9064 17.0936C11.7269 17.9141 12.8397 18.375 14 18.375Z" fill="black"/>
</svg>
