<svg width="124" height="32" viewBox="0 0 124 32" fill="none" xmlns="http://www.w3.org/2000/svg">
<g clip-path="url(#clip0_1557_4803)">
<circle cx="12.5" cy="16" r="12" fill="#FFDD2D"/>
<path d="M30.8043 10.2432H33.9788L36.4645 15.1629H36.5678L39.0535 10.2432H42.2281L37.9284 18.0734V22H35.104V18.0734L30.8043 10.2432ZM45.5046 22.1665C44.5822 22.1665 43.7862 21.9847 43.1165 21.6211C42.4505 21.2537 41.9377 20.7313 41.578 20.0539C41.222 19.3727 41.0441 18.5633 41.0441 17.6256C41.0441 16.7148 41.224 15.9188 41.5837 15.2375C41.9435 14.5525 42.4505 14.0205 43.105 13.6417C43.7594 13.2589 44.5306 13.0676 45.4184 13.0676C46.0461 13.0676 46.6201 13.1652 47.1406 13.3604C47.6611 13.5555 48.1108 13.8445 48.4897 14.2272C48.8686 14.6099 49.1632 15.0826 49.3737 15.6451C49.5842 16.2039 49.6895 16.8449 49.6895 17.5682V18.2686H42.0257V16.6383H47.0775C47.0737 16.3397 47.0029 16.0738 46.8651 15.8403C46.7273 15.6069 46.5379 15.4251 46.2968 15.295C46.0595 15.161 45.7858 15.094 45.4758 15.094C45.162 15.094 44.8807 15.1648 44.632 15.3064C44.3832 15.4442 44.1861 15.6336 44.0407 15.8748C43.8953 16.112 43.8187 16.3818 43.8111 16.6842V18.3432C43.8111 18.703 43.8819 19.0187 44.0235 19.2904C44.1651 19.5583 44.366 19.7669 44.6262 19.9162C44.8865 20.0654 45.1965 20.14 45.5562 20.14C45.805 20.14 46.0308 20.1056 46.2336 20.0367C46.4364 19.9678 46.6106 19.8664 46.756 19.7325C46.9014 19.5985 47.0105 19.4339 47.0832 19.2388L49.6608 19.3134C49.5536 19.8913 49.3182 20.3945 48.9547 20.8232C48.5949 21.248 48.1223 21.579 47.5367 21.8163C46.9512 22.0498 46.2738 22.1665 45.5046 22.1665ZM53.9303 10.2432V22H51.1232V10.2432H53.9303ZM58.5243 10.2432V22H55.7171V10.2432H58.5243ZM64.4271 22.1665C63.5009 22.1665 62.7049 21.977 62.039 21.5982C61.3769 21.2154 60.866 20.6835 60.5062 20.0023C60.1503 19.3172 59.9724 18.5231 59.9724 17.6199C59.9724 16.7129 60.1503 15.9188 60.5062 15.2375C60.866 14.5525 61.3769 14.0205 62.039 13.6417C62.7049 13.2589 63.5009 13.0676 64.4271 13.0676C65.3532 13.0676 66.1474 13.2589 66.8094 13.6417C67.4753 14.0205 67.9863 14.5525 68.3422 15.2375C68.7019 15.9188 68.8818 16.7129 68.8818 17.6199C68.8818 18.5231 68.7019 19.3172 68.3422 20.0023C67.9863 20.6835 67.4753 21.2154 66.8094 21.5982C66.1474 21.977 65.3532 22.1665 64.4271 22.1665ZM64.4443 20.0482C64.7811 20.0482 65.0662 19.9449 65.2997 19.7382C65.5331 19.5315 65.7111 19.2445 65.8335 18.8771C65.9598 18.5097 66.023 18.0849 66.023 17.6027C66.023 17.1128 65.9598 16.6842 65.8335 16.3168C65.7111 15.9494 65.5331 15.6624 65.2997 15.4557C65.0662 15.249 64.7811 15.1457 64.4443 15.1457C64.096 15.1457 63.8013 15.249 63.5602 15.4557C63.323 15.6624 63.1412 15.9494 63.0149 16.3168C62.8924 16.6842 62.8312 17.1128 62.8312 17.6027C62.8312 18.0849 62.8924 18.5097 63.0149 18.8771C63.1412 19.2445 63.323 19.5315 63.5602 19.7382C63.8013 19.9449 64.096 20.0482 64.4443 20.0482ZM71.7779 22L69.4817 13.1824H72.3003L73.4886 18.8312H73.5633L74.8377 13.1824H77.5875L78.8963 18.791H78.9709L80.1248 13.1824H82.9435L80.6415 22H77.6391L76.2614 16.8621H76.1638L74.786 22H71.7779ZM84.0701 22V10.2432H88.9725C89.8528 10.2432 90.5895 10.3676 91.1827 10.6163C91.7797 10.8651 92.2275 11.2134 92.526 11.6611C92.8283 12.1089 92.9795 12.6275 92.9795 13.2168C92.9795 13.6646 92.8857 14.0645 92.6982 14.4166C92.5107 14.7649 92.2524 15.0538 91.9232 15.2835C91.5941 15.5131 91.2133 15.6738 90.7808 15.7657V15.8805C91.2554 15.9035 91.6936 16.0317 92.0954 16.2651C92.5011 16.4986 92.8264 16.8239 93.0713 17.241C93.3163 17.6543 93.4387 18.1442 93.4387 18.7106C93.4387 19.3421 93.278 19.9066 92.9565 20.4041C92.6351 20.8978 92.1701 21.2882 91.5616 21.5752C90.9531 21.8584 90.2144 22 89.3457 22H84.0701ZM86.9117 19.7095H88.6683C89.2845 19.7095 89.738 19.5928 90.0288 19.3593C90.3235 19.1259 90.4708 18.8006 90.4708 18.3834C90.4708 18.0811 90.4 17.8208 90.2584 17.6027C90.1168 17.3807 89.9159 17.2104 89.6557 17.0918C89.3954 16.9693 89.0835 16.9081 88.72 16.9081H86.9117V19.7095ZM86.9117 15.0768H88.4846C88.7946 15.0768 89.0701 15.0251 89.3112 14.9218C89.5523 14.8185 89.7399 14.6692 89.8738 14.474C90.0116 14.2789 90.0805 14.0435 90.0805 13.7679C90.0805 13.3738 89.9408 13.0638 89.6614 12.838C89.382 12.6122 89.0051 12.4993 88.5305 12.4993H86.9117V15.0768ZM97.2907 22.1493C96.7281 22.1493 96.2287 22.0555 95.7924 21.868C95.3599 21.6766 95.0174 21.3896 94.7648 21.0069C94.5161 20.6203 94.3917 20.1362 94.3917 19.5545C94.3917 19.0646 94.4778 18.6513 94.65 18.3145C94.8222 17.9777 95.0595 17.7041 95.3619 17.4936C95.6642 17.2831 96.0125 17.1243 96.4066 17.0171C96.8008 16.9062 97.2218 16.8315 97.6696 16.7933C98.1709 16.7473 98.5747 16.6995 98.8809 16.6497C99.187 16.5962 99.409 16.5215 99.5468 16.4259C99.6884 16.3264 99.7592 16.1867 99.7592 16.0068V15.9781C99.7592 15.6834 99.6578 15.4557 99.4549 15.295C99.2521 15.1342 98.9784 15.0538 98.634 15.0538C98.2628 15.0538 97.9643 15.1342 97.7385 15.295C97.5127 15.4557 97.3692 15.6777 97.3079 15.9609L94.7189 15.869C94.7954 15.3332 94.9925 14.8548 95.3102 14.4339C95.6317 14.0091 96.0718 13.6761 96.6305 13.435C97.1931 13.1901 97.8686 13.0676 98.657 13.0676C99.2196 13.0676 99.7381 13.1346 100.213 13.2685C100.687 13.3986 101.101 13.59 101.453 13.8426C101.805 14.0913 102.076 14.3975 102.268 14.7611C102.463 15.1246 102.561 15.5399 102.561 16.0068V22H99.9199V20.7715H99.851C99.6941 21.07 99.4932 21.3226 99.2483 21.5293C99.0072 21.7359 98.722 21.8909 98.3929 21.9943C98.0676 22.0976 97.7002 22.1493 97.2907 22.1493ZM98.1575 20.3123C98.4599 20.3123 98.7316 20.251 98.9727 20.1286C99.2176 20.0061 99.4128 19.8377 99.5583 19.6234C99.7037 19.4052 99.7764 19.1527 99.7764 18.8656V18.0275C99.696 18.0696 99.5984 18.1079 99.4836 18.1423C99.3726 18.1767 99.2502 18.2093 99.1162 18.2399C98.9823 18.2705 98.8445 18.2973 98.7029 18.3203C98.5613 18.3432 98.4254 18.3643 98.2953 18.3834C98.0312 18.4255 97.8054 18.4906 97.6179 18.5786C97.4342 18.6666 97.2926 18.7814 97.1931 18.923C97.0974 19.0608 97.0496 19.2254 97.0496 19.4167C97.0496 19.7076 97.1529 19.9295 97.3596 20.0826C97.5701 20.2357 97.8361 20.3123 98.1575 20.3123ZM107.084 16.9712V22H104.277V13.1824H106.946V14.8013H107.044C107.239 14.2616 107.572 13.8387 108.043 13.5326C108.514 13.2226 109.074 13.0676 109.725 13.0676C110.345 13.0676 110.883 13.2073 111.338 13.4867C111.797 13.7622 112.153 14.1487 112.406 14.6463C112.662 15.14 112.788 15.7178 112.785 16.3799V22H109.977V16.931C109.981 16.4412 109.857 16.0585 109.604 15.7829C109.356 15.5074 109.009 15.3696 108.565 15.3696C108.271 15.3696 108.01 15.4346 107.785 15.5648C107.563 15.6911 107.39 15.8728 107.268 16.1101C107.149 16.3474 107.088 16.6344 107.084 16.9712ZM117.054 19.6865L117.066 16.3397H117.456L119.936 13.1824H123.116L119.431 17.706H118.69L117.054 19.6865ZM114.523 22V10.2432H117.33V22H114.523ZM119.999 22L117.691 18.3375L119.54 16.3455L123.243 22H119.999Z" fill="#262B39"/>
</g>
<defs>
<clipPath id="clip0_1557_4803">
<rect width="123" height="32" fill="white" transform="translate(0.5)"/>
</clipPath>
</defs>
</svg>
