<svg width="6" height="10" viewBox="0 0 6 10" fill="none" xmlns="http://www.w3.org/2000/svg">
<g clip-path="url(#clip0_1738_1593)">
<path d="M0.600004 6C0.369362 6 0.159135 6.12591 0.0592236 6.32389C-0.0406882 6.52187 -0.0125972 6.75687 0.131484 6.9284L2.53148 9.78554C2.64534 9.92109 2.81773 10 3 10C3.18227 10 3.35466 9.92109 3.46852 9.78554L5.86852 6.9284C6.0126 6.75687 6.04069 6.52187 5.94078 6.32389C5.84086 6.12591 5.63064 6 5.4 6L0.600004 6Z" fill="#484848"/>
<path d="M5.4 4C5.63064 4 5.84086 3.87409 5.94078 3.67611C6.04069 3.47813 6.0126 3.24313 5.86852 3.0716L3.46852 0.21446C3.35466 0.0789084 3.18227 0 3 0C2.81773 0 2.64534 0.0789084 2.53148 0.21446L0.131485 3.0716C-0.0125966 3.24313 -0.040688 3.47813 0.0592237 3.67611C0.159136 3.87409 0.369362 4 0.600005 4L5.4 4Z" fill="#484848"/>
</g>
<defs>
<clipPath id="clip0_1738_1593">
<rect width="6" height="10" fill="white"/>
</clipPath>
</defs>
</svg>
