<svg width="66" height="66" viewBox="0 0 66 66" fill="none" xmlns="http://www.w3.org/2000/svg">
<path d="M38.5901 14.1L49.2655 14.1C50.7201 14.1 51.8992 15.2791 51.8992 16.7335V27.3346M50.0369 15.9622L35.6992 30.3" stroke="#19E576" stroke-width="4.05" stroke-linecap="round"/>
<path fill-rule="evenodd" clip-rule="evenodd" d="M51.6225 44.9427C52.2646 45.8415 53.5137 46.0497 54.4125 45.4077C55.3113 44.7657 55.5195 43.5166 54.8775 42.6178L48.1275 33.1678C47.7225 32.6008 47.0761 32.3087 46.4284 32.3313C45.8949 32.3139 45.3558 32.5089 44.9486 32.9161L33.2552 44.6108L27.8775 37.082C27.4725 36.5151 26.8261 36.2229 26.1784 36.2455C25.6449 36.2281 25.1058 36.4231 24.6986 36.8303L11.3357 50.1946C10.5547 50.9757 10.5548 52.2421 11.3359 53.0231C12.117 53.8041 13.3833 53.804 14.1643 53.0229L25.9377 41.2482L31.3484 48.8232C31.394 48.8896 31.4439 48.954 31.4984 49.0157C31.625 49.1599 31.7688 49.2821 31.9245 49.3813C32.2418 49.584 32.6037 49.6883 32.967 49.6943C33.4513 49.7022 33.938 49.5353 34.3241 49.1935C34.3635 49.1589 34.4012 49.1229 34.4372 49.0857L46.1877 37.334L51.6225 44.9427Z" fill="#19E576"/>
</svg>
