<svg width="40" height="40" viewBox="0 0 40 40" fill="none" xmlns="http://www.w3.org/2000/svg">
<path d="M39.2167 20.0833C38.7334 19.6 37.9334 19.6 37.4501 20.0833L36.6834 20.85V20C36.6834 10.8 29.2001 3.31665 20.0001 3.31665C14.9167 3.31665 10.1667 5.59998 6.98342 9.56665C6.55008 10.1 6.63342 10.9 7.18342 11.3333C7.71675 11.75 8.50008 11.6666 8.93342 11.1333C11.6501 7.74998 15.6834 5.81665 20.0001 5.81665C27.8167 5.81665 34.1834 12.1833 34.1834 20V20.8333L33.4167 20.0667C32.9334 19.5833 32.1334 19.5833 31.6501 20.0667C31.1667 20.55 31.1667 21.35 31.6501 21.8333L34.5501 24.7333C34.6667 24.85 34.8001 24.9333 34.9501 25C35.1001 25.0667 35.2667 25.1 35.4334 25.1C35.6001 25.1 35.7501 25.0667 35.9167 25C36.0667 24.9333 36.2001 24.85 36.3167 24.7333L39.2167 21.8333C39.7001 21.3667 39.7001 20.5667 39.2167 20.0833Z" fill="url(#paint0_linear_1691_710)"/>
<path d="M32.8167 28.6666C32.2834 28.2333 31.4834 28.3166 31.0667 28.8666C28.3501 32.25 24.3167 34.1833 20.0001 34.1833C12.1834 34.1833 5.81673 27.8166 5.81673 20V19.1666L6.5834 19.9333C6.8334 20.1833 7.15006 20.3 7.46673 20.3C7.7834 20.3 8.10006 20.1666 8.3334 19.9166C8.81673 19.4333 8.81673 18.6333 8.3334 18.15L5.45006 15.25C5.3334 15.15 5.1834 15.05 5.0334 14.9833C4.7334 14.85 4.3834 14.85 4.0834 14.9833C3.9334 15.05 3.80007 15.15 3.6834 15.25L0.783398 18.15C0.300065 18.6333 0.300065 19.4333 0.783398 19.9166C1.26673 20.4 2.06673 20.4 2.55006 19.9166L3.31673 19.15V20C3.31673 29.2 10.8001 36.6833 20.0001 36.6833C25.0834 36.6833 29.8334 34.4 33.0167 30.4333C33.4501 29.9 33.3667 29.1 32.8167 28.6666Z" fill="url(#paint1_linear_1691_710)"/>
<path d="M25.75 19.4C26.2 18.7333 26.45 17.95 26.45 17.0833C26.45 14.8667 24.5 12.9167 22.2833 12.9167H20.9167V11.25C20.9167 10.5667 20.35 10 19.6667 10C18.9833 10 18.4167 10.5667 18.4167 11.25V12.9167H15C14.3167 12.9167 13.75 13.4833 13.75 14.1667V20V25.8333C13.75 26.5167 14.3167 27.0833 15 27.0833H18.4167V28.75C18.4167 29.4333 18.9833 30 19.6667 30C20.35 30 20.9167 29.4333 20.9167 28.75V27.0833H23.3333C25.8667 27.0833 27.9167 25.2167 27.9167 22.9167C27.9167 21.4333 27.05 20.1333 25.75 19.4ZM16.25 15.4167H22.2833C23.2 15.4167 23.95 16.3333 23.95 17.0833C23.95 18 23.2 18.75 22.2833 18.75H16.25V15.4167ZM23.3333 24.5833H16.25V21.25H22.2833H23.3333C24.4833 21.25 25.4167 22 25.4167 22.9167C25.4167 23.8333 24.4833 24.5833 23.3333 24.5833Z" fill="url(#paint2_linear_1691_710)"/>
<defs>
<linearGradient id="paint0_linear_1691_710" x1="6.10652" y1="21.9273" x2="42.12" y2="25.667" gradientUnits="userSpaceOnUse">
<stop stop-color="#2CC8AE"/>
<stop offset="1" stop-color="#23A25D"/>
</linearGradient>
<linearGradient id="paint1_linear_1691_710" x1="-0.179609" y1="33.5082" x2="35.8345" y2="37.2451" gradientUnits="userSpaceOnUse">
<stop stop-color="#2CC8AE"/>
<stop offset="1" stop-color="#23A25D"/>
</linearGradient>
<linearGradient id="paint2_linear_1691_710" x1="13.4912" y1="27.0871" x2="29.1418" y2="27.8499" gradientUnits="userSpaceOnUse">
<stop stop-color="#2CC8AE"/>
<stop offset="1" stop-color="#23A25D"/>
</linearGradient>
</defs>
</svg>
