<svg width="21" height="20" viewBox="0 0 21 20" fill="none" xmlns="http://www.w3.org/2000/svg">
<path d="M16.2736 6.66677C15.6588 5.60201 14.7616 4.72798 13.6811 4.14132C12.6006 3.55466 11.379 3.27823 10.1512 3.34257C8.92337 3.40692 7.73728 3.80954 6.72403 4.50593C5.71078 5.20232 4.90984 6.16534 4.40977 7.28853M17.8069 4.59624L17.199 7.22919C17.0955 7.67763 16.6481 7.95724 16.1996 7.85371L13.5667 7.24587M4.72653 13.3333C5.34128 14.3981 6.23849 15.2721 7.31898 15.8588C8.39947 16.4455 9.62115 16.7219 10.8489 16.6575C12.0767 16.5932 13.2628 16.1906 14.2761 15.4942C15.2893 14.7978 16.0903 13.8348 16.5903 12.7116M3.19322 15.4039L3.80106 12.7709C3.90459 12.3225 4.35205 12.0429 4.80049 12.1464L7.43344 12.7543" stroke="#23A25D" stroke-width="1.5" stroke-linecap="round"/>
</svg>
