<svg width="24" height="24" viewBox="0 0 24 24" fill="none" xmlns="http://www.w3.org/2000/svg">
<path d="M10.9239 3.18038C11.3641 2.28849 12.6359 2.28849 13.0761 3.18038L14.9536 6.98468C15.1284 7.33885 15.4663 7.58433 15.8571 7.64113L20.0554 8.25117C21.0397 8.39419 21.4327 9.60376 20.7205 10.298L17.6826 13.2592C17.3997 13.5349 17.2707 13.9321 17.3375 14.3214L18.0546 18.5027C18.2227 19.483 17.1938 20.2306 16.3135 19.7677L12.5584 17.7936C12.2088 17.6098 11.7912 17.6098 11.4416 17.7936L7.68653 19.7677C6.80618 20.2306 5.77726 19.483 5.94539 18.5027L6.66254 14.3214C6.72931 13.9321 6.60025 13.5349 6.31743 13.2592L3.27952 10.298C2.5673 9.60376 2.96031 8.39419 3.94457 8.25117L8.14286 7.64113C8.53371 7.58433 8.87159 7.33885 9.04639 6.98468L10.9239 3.18038Z" fill="#23A25D"/>
</svg>
