<svg width="24" height="24" viewBox="0 0 24 24" fill="none" xmlns="http://www.w3.org/2000/svg">
<path fill-rule="evenodd" clip-rule="evenodd" d="M7 2.75C4.65279 2.75 2.75 4.65279 2.75 7V17C2.75 19.3472 4.65279 21.25 7 21.25H17C19.3472 21.25 21.25 19.3472 21.25 17V9C21.25 8.58579 21.5858 8.25 22 8.25C22.4142 8.25 22.75 8.58579 22.75 9V17C22.75 20.1756 20.1756 22.75 17 22.75H7C3.82436 22.75 1.25 20.1756 1.25 17V7C1.25 3.82436 3.82436 1.25 7 1.25H16C16.4142 1.25 16.75 1.58579 16.75 2C16.75 2.41421 16.4142 2.75 16 2.75H7ZM21 2.75C21.6904 2.75 22.25 3.30964 22.25 4C22.25 4.69036 21.6904 5.25 21 5.25C20.3096 5.25 19.75 4.69036 19.75 4C19.75 3.30964 20.3096 2.75 21 2.75ZM23.75 4C23.75 2.48122 22.5188 1.25 21 1.25C19.4812 1.25 18.25 2.48122 18.25 4C18.25 5.51878 19.4812 6.75 21 6.75C22.5188 6.75 23.75 5.51878 23.75 4ZM6.43557 14.2561C6.16281 14.5678 6.19439 15.0417 6.50612 15.3144C6.81785 15.5872 7.29167 15.5556 7.56443 15.2439L10.5823 11.7949L13.0199 13.8262C13.3327 14.0868 13.7963 14.0503 14.0644 13.7439L17.5644 9.74388C17.8372 9.43215 17.8056 8.95833 17.4939 8.68557C17.1822 8.41281 16.7083 8.44439 16.4356 8.75612L13.4177 12.2051L10.9801 10.1738C10.6673 9.91317 10.2037 9.94969 9.93557 10.2561L6.43557 14.2561Z" fill="#23A25D"/>
</svg>
