<svg width="20" height="20" viewBox="0 0 20 20" fill="none" xmlns="http://www.w3.org/2000/svg">
<path fill-rule="evenodd" clip-rule="evenodd" d="M9.77061 0.866687C9.92315 0.822167 10.0852 0.822189 10.2378 0.866749L17.734 3.05675C18.0894 3.16057 18.3337 3.48641 18.3337 3.85665V8.3475C18.3336 10.824 17.5543 13.2376 16.1062 15.2465C14.658 17.2554 12.6145 18.7577 10.265 19.5406C10.094 19.5975 9.90922 19.5976 9.73825 19.5406C7.38809 18.7579 5.34386 17.2554 3.89523 15.2461C2.4466 13.2367 1.66703 10.8225 1.66699 8.3454V3.85665C1.66699 3.48633 1.91137 3.16044 2.26685 3.05669L9.77061 0.866687ZM3.33366 4.48153V8.3454C3.33369 10.4726 4.00315 12.5458 5.24717 14.2714C6.43677 15.9214 8.09405 17.1734 10.0015 17.8676C11.9083 17.1734 13.565 15.9215 14.7542 14.2719C15.9977 12.5468 16.667 10.4741 16.667 8.34748V4.48136L10.004 2.53478L3.33366 4.48153Z" fill="root-red"/>
<path fill-rule="evenodd" clip-rule="evenodd" d="M14.7562 6.9107C15.0817 7.23614 15.0817 7.76378 14.7562 8.08921L9.75625 13.0892C9.43081 13.4147 8.90317 13.4147 8.57774 13.0892L5.66107 10.1725C5.33563 9.84711 5.33563 9.31947 5.66107 8.99404C5.98651 8.6686 6.51414 8.6686 6.83958 8.99404L9.16699 11.3214L13.5777 6.9107C13.9032 6.58527 14.4308 6.58527 14.7562 6.9107Z" fill="root-red"/>
</svg>
