<svg width="24" height="24" viewBox="0 0 24 24" fill="none" xmlns="http://www.w3.org/2000/svg">
<path fill-rule="evenodd" clip-rule="evenodd" d="M12 24C18.6274 24 24 18.6274 24 12C24 5.37258 18.6274 0 12 0C5.37258 0 0 5.37258 0 12C0 18.6274 5.37258 24 12 24ZM11.7841 17.6635V18.9546H12.7159V17.6632C13.4468 17.622 14.0832 17.4824 14.625 17.2443C15.2841 16.9527 15.7879 16.5493 16.1364 16.0341C16.4849 15.5152 16.6591 14.9148 16.6591 14.233C16.6591 13.7292 16.5644 13.2898 16.375 12.9148C16.1856 12.5398 15.9281 12.2197 15.6023 11.9546C15.2803 11.6894 14.9148 11.4697 14.5057 11.2955C14.1004 11.1212 13.6781 10.983 13.2387 10.8807L12.7159 10.75V7.51347C13.1447 7.56456 13.5064 7.69455 13.8012 7.90344C14.1951 8.17995 14.4186 8.56632 14.4716 9.06253H16.5C16.4887 8.40723 16.3049 7.82768 15.9489 7.32389C15.5928 6.81632 15.1023 6.42048 14.4773 6.13639C13.9609 5.89707 13.3737 5.75722 12.7159 5.71686V4.40912H11.7841V5.72528C11.1772 5.77451 10.6223 5.91155 10.1193 6.13639C9.4754 6.42048 8.96593 6.8201 8.59093 7.33526C8.21972 7.85041 8.03411 8.45079 8.03411 9.13639C8.03411 9.96973 8.31063 10.6383 8.86366 11.1421C9.42048 11.6421 10.1781 12.0152 11.1364 12.2614L11.7841 12.4282V15.851C11.5164 15.8209 11.2664 15.7626 11.0341 15.6762C10.6818 15.5436 10.3959 15.3428 10.1762 15.0739C9.95646 14.805 9.83146 14.4678 9.80116 14.0625H7.72729C7.7576 14.8353 7.95836 15.4906 8.32957 16.0284C8.70457 16.5663 9.22351 16.9754 9.88639 17.2557C10.4374 17.4874 11.07 17.6233 11.7841 17.6635ZM12.7159 15.8466C12.9769 15.8148 13.2156 15.756 13.4318 15.6705C13.7803 15.5303 14.0531 15.3371 14.25 15.0909C14.447 14.8409 14.5474 14.5493 14.5512 14.2159C14.5474 13.9129 14.4584 13.6629 14.2841 13.4659C14.1099 13.2652 13.8656 13.0985 13.5512 12.9659C13.3058 12.8582 13.0274 12.76 12.7159 12.6712V15.8466ZM11.7841 10.5107V7.52008C11.5493 7.55183 11.3372 7.60765 11.1477 7.68753C10.8334 7.8201 10.5928 8.00003 10.4262 8.2273C10.2595 8.45457 10.1743 8.71404 10.1705 9.00571C10.1705 9.24813 10.2254 9.45836 10.3352 9.63639C10.4489 9.81442 10.6023 9.96594 10.7955 10.0909C10.9887 10.2121 11.2027 10.3144 11.4375 10.3978C11.5526 10.4386 11.6681 10.4762 11.7841 10.5107Z" fill="#4BAE4F"/>
</svg>
