<svg width="60" height="60" viewBox="0 0 60 60" fill="none" xmlns="http://www.w3.org/2000/svg">
<rect width="60" height="60" rx="30" fill="white"/>
<path d="M60 30C60 31.78 59.845 33.5236 59.5479 35.2182C57.0782 49.2993 44.7886 60 30 60C29.5457 60 29.0939 59.99 28.6446 59.97C12.705 59.2611 0 46.1143 0 30C0 13.8857 13.4314 0 30 0C46.5686 0 60 13.4314 60 30Z" fill="#23A25D" fill-opacity="0.08"/>
<path d="M42.6246 48.31C40.4046 49.2182 36.4275 50.2857 30.001 50.2857C23.5746 50.2857 19.5975 49.2178 17.3775 48.31C15.9014 47.7064 15.0075 46.1978 15.1818 44.6125C15.4728 41.9621 16.3132 39.3239 18.2332 38.1293C21.7714 35.9275 25.2835 34.9893 25.2835 34.9893C25.4071 34.6043 25.5464 33.33 25.6193 32.0257C25.171 31.5603 24.7271 31.0746 24.2585 30.6143C23.3668 29.7378 23.2668 28.4857 22.9482 26.87C22.3632 27.0361 22.1782 26.7578 22.0232 26.5211C21.9175 26.3593 21.8757 26.165 21.836 25.9757C21.6935 25.295 21.5514 24.6139 21.4089 23.9332C21.3018 23.4218 21.1943 22.8978 21.2671 22.3803C21.3018 22.1357 21.3889 21.8793 21.5896 21.7353C21.7907 21.5918 22.126 21.6264 22.2268 21.8521C22.2268 21.8521 21.901 18.6475 21.901 18.9175C21.6289 18.6153 21.4135 17.9575 21.5039 17.4489C21.5939 16.9407 21.7553 16.4461 21.836 15.9364C21.9243 15.3768 21.915 14.7989 22.0757 14.2553C22.3025 13.4893 22.8443 12.8614 23.3953 12.2832C23.786 11.8739 24.19 11.4761 24.6303 11.1214C25.5128 10.4121 26.5646 9.87856 27.6896 9.75249C28.0507 9.71213 28.415 9.71392 28.7782 9.7157C29.1857 9.71784 29.5932 9.71963 30.0007 9.72177C30.4082 9.71963 30.816 9.71784 31.2232 9.7157C31.5864 9.71392 31.9507 9.71213 32.3118 9.75249C33.4371 9.87856 34.4889 10.4121 35.371 11.1214C35.8118 11.4761 36.2157 11.8739 36.606 12.2832C37.1575 12.8611 37.6993 13.4889 37.9257 14.2553C38.0864 14.7989 38.0771 15.3764 38.1653 15.9364C38.246 16.4461 38.4075 16.9407 38.4975 17.4489C38.5878 17.9575 38.3721 18.6153 38.1003 18.9175C38.1003 18.6478 37.7746 21.8521 37.7746 21.8521C37.8753 21.6264 38.211 21.5918 38.4118 21.7353C38.6128 21.8793 38.6996 22.1357 38.7343 22.3803C38.8068 22.8978 38.6993 23.4218 38.5925 23.9332C38.4503 24.6139 38.3078 25.295 38.1653 25.9757C38.1257 26.165 38.0843 26.3589 37.9782 26.5211C37.8228 26.7578 37.6378 27.0364 37.0532 26.87C36.735 28.4857 36.6346 29.7378 35.7428 30.6143C35.2746 31.0746 34.8303 31.5603 34.3821 32.0257C34.455 33.3303 34.5939 34.6043 34.7178 34.9893C34.7178 34.9893 38.23 35.9275 41.7682 38.1293C43.6882 39.3243 44.5282 41.9625 44.8196 44.6125C44.9935 46.1978 44.0996 47.7064 42.6239 48.31H42.6246Z" fill="#23A25D" fill-opacity="0.8"/>
<rect x="38" y="38" width="20" height="20" rx="10" fill="#23A25D" stroke="white" stroke-width="1.5"/>
<path d="M45.5 48L47.5 50L51.5 46" stroke="white" stroke-width="1.5" stroke-linecap="round" stroke-linejoin="round"/>
</svg>
