<svg width="24" height="24" viewBox="0 0 24 24" fill="none" xmlns="http://www.w3.org/2000/svg">
<path d="M2.69077 15.66L1.99285 15.9346L2.69077 15.66ZM8.00604 21.1707L7.70623 21.8582L8.00604 21.1707ZM15.9937 21.1706L16.2936 21.8581L15.9937 21.1706ZM21.1702 15.9945L20.4827 15.6946L21.1702 15.9945ZM21.3089 15.66L20.6109 15.3854L21.3089 15.66ZM21.1697 8.00456L21.8571 7.70462L21.1697 8.00456ZM15.6598 2.69101L15.3851 3.38893L15.6598 2.69101ZM21.3089 8.34011L20.6109 8.61472L21.3089 8.34011ZM15.6598 21.3091L15.3852 20.6112L15.6598 21.3091ZM16.294 2.14221C16.1752 2.09041 16.0553 2.04069 15.9344 1.99309L15.3851 3.38893C15.4891 3.42984 15.5922 3.47258 15.6943 3.51711L16.294 2.14221ZM22.0068 8.06549C21.959 7.9441 21.9091 7.8238 21.8571 7.70462L20.4823 8.3045C20.527 8.40695 20.5699 8.51037 20.6109 8.61472L22.0068 8.06549ZM21.8576 16.2944C21.9094 16.1755 21.9592 16.0556 22.0068 15.9346L20.6109 15.3854C20.57 15.4894 20.5273 15.5925 20.4827 15.6946L21.8576 16.2944ZM15.9344 22.007C16.0552 21.9595 16.1749 21.9098 16.2936 21.8581L15.6939 20.4832C15.5919 20.5276 15.489 20.5703 15.3852 20.6112L15.9344 22.007ZM7.70623 21.8582C7.82481 21.9099 7.9445 21.9595 8.06526 22.007L8.61448 20.6112C8.51068 20.5703 8.40779 20.5277 8.30585 20.4832L7.70623 21.8582ZM1.99285 15.9346C2.0405 16.0557 2.09029 16.1758 2.14216 16.2947L3.51704 15.6949C3.47244 15.5927 3.42965 15.4895 3.38869 15.3854L1.99285 15.9346ZM2.14238 7.70495C2.09043 7.82401 2.04057 7.94421 1.99285 8.06549L3.38869 8.61471C3.4297 8.51047 3.47256 8.40714 3.51722 8.30478L2.14238 7.70495ZM8.06523 1.9931C7.94436 2.04066 7.82456 2.09035 7.70589 2.14211L8.30555 3.51702C8.40758 3.47253 8.51056 3.42982 8.61446 3.38894L8.06523 1.9931ZM6.52045 6.5197C6.82175 6.2184 7.02912 5.85675 7.18719 5.5253C7.34056 5.20371 7.48024 4.83529 7.59557 4.55718C7.86504 3.90736 8.06118 3.62361 8.30555 3.51702L7.70589 2.14211C6.84017 2.51968 6.45669 3.38766 6.20998 3.9826C6.06721 4.32688 5.96466 4.60411 5.83327 4.87961C5.70659 5.14526 5.58668 5.33216 5.45979 5.45904L6.52045 6.5197ZM3.51722 8.30478C3.62385 8.06037 3.90769 7.86425 4.55764 7.59481C4.8358 7.4795 5.20427 7.33984 5.52591 7.18647C5.85742 7.02841 6.21912 6.82104 6.52045 6.5197L5.45979 5.45904C5.33291 5.58592 5.146 5.70583 4.88033 5.83251C4.6048 5.96388 4.32753 6.06642 3.98321 6.20916C3.38819 6.45582 2.52009 6.83922 2.14238 7.70495L3.51722 8.30478ZM4.24981 12.0001C4.24981 11.5738 4.14063 11.1713 4.01795 10.8251C3.89893 10.4893 3.73707 10.1299 3.62194 9.85171C3.35288 9.20162 3.29115 8.8626 3.38869 8.61471L1.99285 8.06549C1.64683 8.9449 1.98962 9.83014 2.23596 10.4253C2.37854 10.7698 2.50211 11.0383 2.60409 11.3261C2.70241 11.6036 2.74981 11.8206 2.74981 12.0001H4.24981ZM3.38869 15.3854C3.29115 15.1375 3.35288 14.7985 3.62194 14.1484C3.73707 13.8702 3.89893 13.5108 4.01795 13.175C4.14063 12.8288 4.24981 12.4263 4.24981 12.0001H2.74981C2.74981 12.1795 2.70241 12.3965 2.60409 12.674C2.50211 12.9618 2.37854 13.2303 2.23596 13.5748C1.98961 14.17 1.64683 15.0552 1.99285 15.9346L3.38869 15.3854ZM6.52068 17.4801C6.21931 17.1787 5.85756 16.9713 5.52601 16.8133C5.20431 16.6599 4.83579 16.5202 4.55758 16.4049C3.90751 16.1355 3.62366 15.9393 3.51704 15.6949L2.14216 16.2947C2.51987 17.1605 3.38813 17.5439 3.98322 17.7906C4.32759 17.9333 4.60492 18.0359 4.88048 18.1672C5.1462 18.2939 5.33313 18.4138 5.46002 18.5407L6.52068 17.4801ZM8.30585 20.4832C8.06147 20.3766 7.86532 20.0929 7.59584 19.4429C7.48052 19.1647 7.34083 18.7963 7.18746 18.4746C7.02939 18.1431 6.82201 17.7814 6.52068 17.4801L5.46002 18.5407C5.5869 18.6676 5.70682 18.8545 5.83351 19.1202C5.9649 19.3958 6.06745 19.6731 6.21022 20.0174C6.45692 20.6124 6.8404 21.4806 7.70623 21.8582L8.30585 20.4832ZM17.4791 17.4798C17.1777 17.7812 16.9704 18.1429 16.8123 18.4744C16.6589 18.7961 16.5192 19.1646 16.4039 19.4428C16.1344 20.0928 15.9383 20.3766 15.6939 20.4832L16.2936 21.8581C17.1594 21.4805 17.5429 20.6123 17.7896 20.0172C17.9323 19.6729 18.0349 19.3956 18.1663 19.12C18.2929 18.8543 18.4129 18.6674 18.5398 18.5405L17.4791 17.4798ZM20.4827 15.6946C20.3761 15.939 20.0923 16.1352 19.4422 16.4046C19.164 16.52 18.7955 16.6596 18.4738 16.813C18.1422 16.9711 17.7805 17.1784 17.4791 17.4798L18.5398 18.5405C18.6666 18.4136 18.8536 18.2937 19.1193 18.167C19.3949 18.0356 19.6722 17.9331 20.0166 17.7903C20.6117 17.5436 21.4799 17.1602 21.8576 16.2944L20.4827 15.6946ZM19.7498 12.0001C19.7498 12.4263 19.859 12.8288 19.9817 13.175C20.1007 13.5109 20.2626 13.8702 20.3777 14.1484C20.6467 14.7985 20.7085 15.1375 20.6109 15.3854L22.0068 15.9346C22.3528 15.0552 22.01 14.17 21.7637 13.5748C21.6211 13.2303 21.4975 12.9618 21.3955 12.674C21.2972 12.3965 21.2498 12.1795 21.2498 12.0001H19.7498ZM17.4793 6.51948C17.7806 6.82079 18.1423 7.02816 18.4738 7.18622C18.7954 7.33958 19.1638 7.47924 19.442 7.59455C20.0918 7.86397 20.3756 8.06009 20.4823 8.3045L21.8571 7.70462C21.4794 6.83897 20.6114 6.45558 20.0164 6.20891C19.6721 6.06617 19.3949 5.96364 19.1194 5.83227C18.8538 5.7056 18.6669 5.5857 18.54 5.45882L17.4793 6.51948ZM11.9998 19.7501C11.5736 19.7501 11.1711 19.8592 10.8249 19.9819C10.489 20.1009 10.1296 20.2628 9.85148 20.3779C9.20139 20.647 8.86237 20.7087 8.61448 20.6112L8.06526 22.007C8.94467 22.353 9.82992 22.0103 10.4251 21.7639C10.7696 21.6213 11.0381 21.4978 11.3259 21.3958C11.6034 21.2975 11.8204 21.2501 11.9998 21.2501V19.7501ZM15.6943 3.51711C15.9386 3.6237 16.1348 3.90743 16.4042 4.55717C16.5196 4.83524 16.6593 5.20362 16.8126 5.52518C16.9707 5.85659 17.1781 6.2182 17.4793 6.51948L18.54 5.45882C18.4131 5.33194 18.2932 5.14505 18.1665 4.87944C18.0351 4.60396 17.9326 4.32678 17.7898 3.98253C17.5431 3.38764 17.1596 2.51978 16.294 2.14221L15.6943 3.51711ZM11.9998 4.25006C12.426 4.25006 12.8285 4.14088 13.1747 4.0182C13.5106 3.89918 13.87 3.73732 14.1481 3.62219C14.7982 3.35312 15.1373 3.29139 15.3851 3.38893L15.9344 1.99309C15.055 1.64707 14.1697 1.98986 13.5745 2.23621C13.23 2.37879 12.9615 2.50236 12.6737 2.60434C12.3962 2.70266 12.1793 2.75006 11.9998 2.75006V4.25006ZM20.6109 8.61472C20.7085 8.86261 20.6467 9.20163 20.3777 9.85171C20.2626 10.1299 20.1007 10.4893 19.9817 10.8251C19.859 11.1713 19.7498 11.5738 19.7498 12.0001H21.2498C21.2498 11.8206 21.2972 11.6036 21.3955 11.3262C21.4975 11.0384 21.6211 10.7698 21.7637 10.4254C22.01 9.83015 22.3528 8.94491 22.0068 8.06549L20.6109 8.61472ZM15.3852 20.6112C15.1373 20.7087 14.7983 20.647 14.1482 20.3779C13.87 20.2628 13.5106 20.1009 13.1747 19.9819C12.8285 19.8592 12.4261 19.7501 11.9998 19.7501V21.2501C12.1793 21.2501 12.3963 21.2975 12.6737 21.3958C12.9615 21.4978 13.23 21.6213 13.5745 21.7639C14.1697 22.0103 15.055 22.353 15.9344 22.007L15.3852 20.6112ZM11.9998 2.75006C11.8203 2.75006 11.6034 2.70266 11.3259 2.60434C11.0381 2.50236 10.7696 2.37879 10.4251 2.23621C9.82988 1.98986 8.94464 1.64708 8.06523 1.9931L8.61446 3.38894C8.86235 3.2914 9.20137 3.35313 9.85145 3.62219C10.1296 3.73732 10.489 3.89918 10.8249 4.0182C11.1711 4.14088 11.5736 4.25006 11.9998 4.25006V2.75006Z" fill="#23A25D"/>
<path fill-rule="evenodd" clip-rule="evenodd" d="M10.72 14.1358C11.0129 14.4287 11.4877 14.4287 11.7806 14.1358L15.7813 10.1351C16.0741 9.84226 16.0741 9.36741 15.7813 9.07452C15.4884 8.78164 15.0135 8.78164 14.7206 9.07452L11.2503 12.5449L9.78029 11.0748C9.4874 10.782 9.01255 10.782 8.71966 11.0748C8.42678 11.3677 8.42678 11.8426 8.71966 12.1355L10.72 14.1358Z" fill="#23A25D"/>
</svg>
