<svg width="48" height="16" viewBox="0 0 48 16" fill="none" xmlns="http://www.w3.org/2000/svg">
<path d="M13.9301 15.5032L16.539 0.625441H20.7118L18.101 15.5032H13.9301ZM33.1772 0.946161C32.3506 0.644745 31.0551 0.321289 29.4373 0.321289C25.3139 0.321289 22.4096 2.33917 22.3847 5.23119C22.3615 7.369 24.4583 8.56166 26.0411 9.27325C27.6655 10.0027 28.2115 10.4677 28.2036 11.1188C28.1932 12.1161 26.9065 12.5715 25.707 12.5715C24.037 12.5715 23.1496 12.346 21.7792 11.7908L21.2413 11.5543L20.6558 14.8848C21.6304 15.3003 23.4327 15.6599 25.3041 15.6786C29.6906 15.6786 32.5382 13.6838 32.5706 10.5953C32.5862 8.90283 31.4745 7.61501 29.067 6.55306C27.6084 5.8648 26.7152 5.40554 26.7246 4.70862C26.7246 4.0902 27.4807 3.42893 29.1146 3.42893C30.479 3.40833 31.4676 3.69751 32.2378 3.99893L32.6117 4.17061L33.1772 0.946161ZM43.9155 0.625213H40.6911C39.6923 0.625213 38.9447 0.890149 38.5061 1.859L32.3087 15.4934H36.6906C36.6906 15.4934 37.4069 13.6602 37.5689 13.2576C38.0478 13.2576 42.3047 13.264 42.9132 13.264C43.038 13.7849 43.4209 15.4934 43.4209 15.4934H47.293L43.9155 0.624757V0.625213ZM38.7996 10.2324C39.1448 9.37517 40.4622 6.07335 40.4622 6.07335C40.4377 6.11294 40.8048 5.21196 41.0154 4.65336L41.2975 5.93609C41.2975 5.93609 42.0965 9.4875 42.2635 10.2321H38.7996V10.2324ZM10.3877 0.625213L6.3023 10.7712L5.86709 8.70941C5.10647 6.33259 2.73693 3.75748 0.0878906 2.46829L3.82352 15.4795L8.23859 15.4747L14.8081 0.625061L10.3877 0.624985" fill="#0E4595"/>
</svg>
