<svg width="24" height="24" viewBox="0 0 24 24" fill="none" xmlns="http://www.w3.org/2000/svg">
<path fill-rule="evenodd" clip-rule="evenodd" d="M5.81395 2.5C3.98371 2.5 2.5 3.98371 2.5 5.81395V18.186C2.5 20.0163 3.98371 21.5 5.81395 21.5H7.5814H9.34884H18.186C20.0163 21.5 21.5 20.0163 21.5 18.186V14.6512C21.5 13.3587 20.7601 12.239 19.6808 11.6926C20.9139 10.3943 20.8936 8.34193 19.62 7.06832L17.1205 4.56878C15.8263 3.2746 13.728 3.2746 12.4338 4.56878L12.4246 4.57799C11.9347 3.35991 10.7422 2.5 9.34884 2.5H5.81395ZM11.3372 18.186C11.3372 19.2842 10.447 20.1744 9.34884 20.1744H7.5814H5.81395C4.71581 20.1744 3.82558 19.2842 3.82558 18.186V5.81395C3.82558 4.71581 4.71581 3.82558 5.81395 3.82558H9.34884C10.447 3.82558 11.3372 4.71581 11.3372 5.81395V18.186ZM18.186 20.1744H12.0002C12.3067 19.7664 12.5212 19.2854 12.6129 18.7621L18.6563 12.7187C19.5275 12.93 20.1744 13.715 20.1744 14.6512V18.186C20.1744 19.2842 19.2842 20.1744 18.186 20.1744ZM12.6628 6.21449V16.8375L18.6827 10.8176C19.4592 10.0411 19.4592 8.78216 18.6827 8.00565L16.1832 5.50611C15.4066 4.7296 14.1477 4.7296 13.3712 5.50611L12.6628 6.21449ZM7.5814 18.186C8.06946 18.186 8.46512 17.7904 8.46512 17.3023C8.46512 16.8143 8.06946 16.4186 7.5814 16.4186C7.09333 16.4186 6.69767 16.8143 6.69767 17.3023C6.69767 17.7904 7.09333 18.186 7.5814 18.186Z" fill="#262B39"/>
</svg>
