<svg width="20" height="20" viewBox="0 0 20 20" fill="none" xmlns="http://www.w3.org/2000/svg">
<path d="M9.10318 2.6503C9.47 1.90705 10.5298 1.90705 10.8967 2.6503L12.4613 5.82054C12.6069 6.11569 12.8885 6.32026 13.2142 6.36758L16.7128 6.87596C17.533 6.99514 17.8605 8.00311 17.267 8.58165L14.7354 11.0493C14.4997 11.2791 14.3922 11.6101 14.4478 11.9345L15.0454 15.4189C15.1855 16.2358 14.3281 16.8588 13.5945 16.4731L10.4653 14.828C10.1739 14.6748 9.8259 14.6748 9.53458 14.828L6.40536 16.4731C5.67173 16.8588 4.8143 16.2358 4.95441 15.4189L5.55204 11.9345C5.60768 11.6101 5.50013 11.2791 5.26444 11.0493L2.73285 8.58165C2.13933 8.00311 2.46684 6.99514 3.28706 6.87596L6.78564 6.36758C7.11135 6.32026 7.39291 6.11569 7.53857 5.82054L9.10318 2.6503Z" fill="#23A25D"/>
</svg>
