<svg width="20" height="20" viewBox="0 0 20 20" fill="none" xmlns="http://www.w3.org/2000/svg">
<path d="M9.10318 2.65032C9.47 1.90707 10.5298 1.90707 10.8967 2.65031L12.4613 5.82056C12.6069 6.1157 12.8885 6.32027 13.2142 6.3676L16.7128 6.87597C17.533 6.99516 17.8605 8.00313 17.267 8.58167L14.7354 11.0494C14.4997 11.2791 14.3922 11.6101 14.4478 11.9345L15.0454 15.4189C15.1855 16.2358 14.3281 16.8588 13.5945 16.4731L10.4653 14.828C10.1739 14.6748 9.8259 14.6748 9.53458 14.828L6.40536 16.4731C5.67173 16.8588 4.8143 16.2358 4.95441 15.4189L5.55204 11.9345C5.60768 11.6101 5.50013 11.2791 5.26444 11.0494L2.73285 8.58167C2.13933 8.00313 2.46684 6.99516 3.28706 6.87597L6.78564 6.3676C7.11135 6.32027 7.39291 6.1157 7.53857 5.82056L9.10318 2.65032Z" stroke="#23A25D" stroke-opacity="0.8" stroke-width="1.5"/>
</svg>
