<svg width="20" height="20" viewBox="0 0 20 20" fill="none" xmlns="http://www.w3.org/2000/svg">
<path d="M10 1.875C8.39303 1.875 6.82214 2.35152 5.486 3.24431C4.14985 4.1371 3.10844 5.40605 2.49348 6.8907C1.87852 8.37535 1.71762 10.009 2.03112 11.5851C2.34463 13.1612 3.11846 14.6089 4.25476 15.7452C5.39106 16.8815 6.8388 17.6554 8.41489 17.9689C9.99099 18.2824 11.6247 18.1215 13.1093 17.5065C14.594 16.8916 15.8629 15.8502 16.7557 14.514C17.6485 13.1779 18.125 11.607 18.125 10C18.1228 7.84579 17.2661 5.78045 15.7428 4.25719C14.2196 2.73394 12.1542 1.87721 10 1.875ZM16.8458 9.375H13.7342C13.6242 7.15167 12.9317 5.04167 11.7717 3.35917C13.1306 3.72375 14.3454 4.49566 15.2527 5.57112C16.16 6.64658 16.7154 7.97403 16.8458 9.375ZM10 16.8667C8.53667 15.2833 7.65 13.0383 7.51834 10.625H12.4817C12.3508 13.0367 11.4633 15.2833 10 16.8667ZM7.51834 9.375C7.64917 6.96333 8.53334 4.71667 10 3.13333C11.4633 4.71667 12.35 6.96167 12.4817 9.375H7.51834ZM8.22834 3.35917C7.06834 5.04167 6.375 7.15083 6.26584 9.375H3.15417C3.28469 7.97417 3.84086 6.64686 4.74795 5.57144C5.65504 4.49601 6.86957 3.72401 8.22834 3.35917ZM3.15334 10.625H6.26667C6.37667 12.8483 7.06917 14.9583 8.22917 16.6408C6.87031 16.276 5.65566 15.5041 4.74843 14.4286C3.8412 13.3532 3.28486 12.0259 3.15417 10.625H3.15334ZM11.7717 16.6408C12.9317 14.9567 13.6242 12.8458 13.7342 10.625H16.8458C16.7153 12.0258 16.1591 13.3531 15.2521 14.4286C14.345 15.504 13.1304 16.276 11.7717 16.6408Z" fill="#262B39"/>
</svg>
