
<svg width="20" height="20" viewBox="0 0 20 20" fill="none" xmlns="http://www.w3.org/2000/svg">
<path d="M15.6683 4.32804C14.9312 3.58718 14.0532 2.99978 13.0855 2.60009C12.1179 2.20039 11.0799 1.99642 10.0322 2.00005C5.64221 2.00005 2.06432 5.56004 2.06432 9.92802C2.06432 11.328 2.43417 12.688 3.12563 13.888L2 18L6.22111 16.896C7.38693 17.528 8.69749 17.864 10.0322 17.864C14.4221 17.864 18 14.304 18 9.93602C18 7.81603 17.1719 5.82404 15.6683 4.32804ZM10.0322 16.52C8.84221 16.52 7.67638 16.2 6.65528 15.6L6.41407 15.456L3.90553 16.112L4.57286 13.68L4.41206 13.432C3.75095 12.3816 3.39991 11.1674 3.39899 9.92802C3.39899 6.29603 6.37387 3.33604 10.0241 3.33604C11.793 3.33604 13.4573 4.02404 14.7035 5.27204C15.3206 5.88321 15.8096 6.61016 16.1422 7.41077C16.4748 8.21138 16.6444 9.06971 16.6412 9.93602C16.6573 13.568 13.6824 16.52 10.0322 16.52ZM13.6663 11.592C13.4653 11.496 12.4844 11.016 12.3075 10.944C12.1226 10.88 11.994 10.848 11.8573 11.04C11.7206 11.24 11.3427 11.688 11.2302 11.816C11.1176 11.952 10.997 11.968 10.796 11.864C10.595 11.768 9.95176 11.552 9.19598 10.88C8.601 10.352 8.20703 9.70402 8.08643 9.50402C7.97387 9.30403 8.07035 9.20003 8.17487 9.09603C8.26332 9.00803 8.37588 8.86403 8.47236 8.75203C8.56884 8.64003 8.60905 8.55203 8.67337 8.42403C8.73769 8.28803 8.70553 8.17603 8.65729 8.08003C8.60904 7.98403 8.20703 7.00803 8.04623 6.60803C7.88543 6.22404 7.71658 6.27204 7.59598 6.26403H7.21005C7.07337 6.26403 6.86432 6.31203 6.6794 6.51203C6.50251 6.71203 5.98794 7.19203 5.98794 8.16803C5.98794 9.14403 6.70352 10.088 6.8 10.216C6.89648 10.352 8.20703 12.352 10.201 13.208C10.6754 13.416 11.0452 13.536 11.3347 13.624C11.809 13.776 12.2432 13.752 12.5889 13.704C12.9749 13.648 13.7709 13.224 13.9317 12.76C14.1005 12.296 14.1005 11.904 14.0442 11.816C13.9879 11.728 13.8673 11.688 13.6663 11.592Z" fill="#23A25D"/>
</svg>
