<svg width="24" height="28" viewBox="0 0 24 28" fill="none" xmlns="http://www.w3.org/2000/svg">
<path d="M19.7323 14.8906C19.6994 11.3532 22.7256 9.63227 22.864 9.55214C21.1501 7.13426 18.4937 6.8039 17.5601 6.77756C15.329 6.55037 13.1648 8.06937 12.0283 8.06937C10.869 8.06937 9.11886 6.79951 7.23256 6.83683C4.80521 6.87305 2.53438 8.2329 1.28895 10.3446C-1.28132 14.6502 0.635606 20.9775 3.09812 24.4579C4.32995 26.1623 5.76934 28.0655 7.65337 27.9985C9.49657 27.925 10.1851 26.8615 12.4094 26.8615C14.6133 26.8615 15.2598 27.9985 17.1813 27.9557C19.1595 27.925 20.4049 26.2436 21.5936 24.5237C23.0171 22.5701 23.5888 20.6461 23.6115 20.5473C23.565 20.5319 19.7697 19.1304 19.7323 14.8906Z" fill="white"/>
<path d="M16.1026 4.48809C17.094 3.28848 17.7723 1.65643 17.584 0.000244141C16.1491 0.0617064 14.3547 0.960593 13.3214 2.13386C12.4071 3.16775 11.5904 4.86235 11.8014 6.45598C13.4132 6.57232 15.0681 5.66904 16.1026 4.48809Z" fill="white"/>
</svg>
