<svg width="28" height="28" viewBox="0 0 28 28" fill="none" xmlns="http://www.w3.org/2000/svg">
<path d="M21.875 5.25233V14.0047C21.875 14.2367 21.9672 14.4593 22.1313 14.6234C22.2954 14.7875 22.5179 14.8797 22.75 14.8797C22.9821 14.8797 23.2046 14.7875 23.3687 14.6234C23.5328 14.4593 23.625 14.2367 23.625 14.0047V5.25233C23.625 4.81367 23.4675 4.37733 23.1642 4.04483C23.0116 3.87496 22.8251 3.73893 22.6167 3.6455C22.4083 3.55206 22.1827 3.5033 21.9543 3.50233H6.04568C5.57434 3.50233 5.14151 3.70883 4.83584 4.04483C4.53777 4.37624 4.37352 4.80661 4.37501 5.25233V22.7523C4.37501 23.191 4.53251 23.6262 4.83584 23.9598C5.14151 24.2958 5.57434 24.5023 6.04568 24.5023H12.7797C13.0117 24.5023 13.2343 24.4101 13.3984 24.246C13.5625 24.082 13.6547 23.8594 13.6547 23.6273C13.6547 23.3953 13.5625 23.1727 13.3984 23.0086C13.2343 22.8445 13.0117 22.7523 12.7797 22.7523H6.12501V5.25233H21.875Z" fill="#4A5056"/>
<path d="M24.7727 16.8817C24.9365 17.0457 25.0286 17.2681 25.0286 17.5C25.0286 17.7319 24.9365 17.9543 24.7727 18.1183L18.6477 24.2433C18.4836 24.4072 18.2612 24.4992 18.0293 24.4992C17.7975 24.4992 17.5751 24.4072 17.411 24.2433L14.786 21.6183C14.7 21.5382 14.6311 21.4416 14.5833 21.3343C14.5354 21.227 14.5097 21.1111 14.5077 20.9936C14.5056 20.8761 14.5272 20.7594 14.5712 20.6505C14.6152 20.5415 14.6807 20.4425 14.7638 20.3595C14.8469 20.2764 14.9459 20.2109 15.0548 20.1669C15.1638 20.1228 15.2805 20.1012 15.398 20.1033C15.5154 20.1054 15.6313 20.1311 15.7386 20.1789C15.846 20.2267 15.9426 20.2957 16.0227 20.3817L18.0293 22.3883L23.536 16.8817C23.7001 16.7178 23.9225 16.6258 24.1543 16.6258C24.3862 16.6258 24.6086 16.7178 24.7727 16.8817ZM8.45801 14.8773C8.45801 14.6453 8.55019 14.4227 8.71429 14.2586C8.87838 14.0945 9.10094 14.0023 9.33301 14.0023H18.6663C18.8984 14.0023 19.121 14.0945 19.2851 14.2586C19.4492 14.4227 19.5413 14.6453 19.5413 14.8773C19.5413 15.1094 19.4492 15.332 19.2851 15.4961C19.121 15.6601 18.8984 15.7523 18.6663 15.7523H9.33301C9.10094 15.7523 8.87838 15.6601 8.71429 15.4961C8.55019 15.332 8.45801 15.1094 8.45801 14.8773ZM8.45801 10.5C8.45801 10.2679 8.55019 10.0454 8.71429 9.88128C8.87838 9.71719 9.10094 9.625 9.33301 9.625H18.6663C18.8984 9.625 19.121 9.71719 19.2851 9.88128C19.4492 10.0454 19.5413 10.2679 19.5413 10.5C19.5413 10.7321 19.4492 10.9546 19.2851 11.1187C19.121 11.2828 18.8984 11.375 18.6663 11.375H9.33301C9.10094 11.375 8.87838 11.2828 8.71429 11.1187C8.55019 10.9546 8.45801 10.7321 8.45801 10.5Z" fill="#4A5056"/>
</svg>
