<svg width="20" height="20" viewBox="0 0 20 20" fill="none" xmlns="http://www.w3.org/2000/svg">
<path fill-rule="evenodd" clip-rule="evenodd" d="M15 2.67261C15.4142 2.67261 15.75 3.00839 15.75 3.42261C15.75 3.83682 15.4142 4.17261 15 4.17261L5 4.17261C4.58579 4.17261 4.25 3.83682 4.25 3.42261C4.25 3.00839 4.58579 2.67261 5 2.67261L15 2.67261ZM10.7501 16.5775C10.7501 16.9917 10.4143 17.3275 10.0001 17.3275C9.58587 17.3275 9.25008 16.9917 9.25008 16.5775V7.88811L7.19708 9.94112C6.90419 10.234 6.42931 10.234 6.13642 9.94112C5.84352 9.64822 5.84352 9.17335 6.13642 8.88046L8.8805 6.13638C9.49883 5.51805 10.5013 5.51805 11.1197 6.13638L13.8637 8.88045C14.1566 9.17335 14.1566 9.64822 13.8637 9.94111C13.5709 10.234 13.096 10.234 12.8031 9.94111L10.7501 7.88811L10.7501 16.5775Z" fill="#EDA411"/>
</svg>
