<svg width="24" height="24" viewBox="0 0 24 24" fill="none" xmlns="http://www.w3.org/2000/svg">
<path fill-rule="evenodd" clip-rule="evenodd" d="M12 24C18.6274 24 24 18.6274 24 12C24 5.37258 18.6274 0 12 0C5.37258 0 0 5.37258 0 12C0 18.6274 5.37258 24 12 24ZM12.203 6H7.19995V18H9.88107V13.7461H11.8382L14.2402 18H17.2L14.5094 13.3381C14.5481 13.3222 14.5863 13.3059 14.6241 13.2891C15.3135 12.9844 15.8398 12.5469 16.203 11.9766C16.5663 11.4023 16.7479 10.7168 16.7479 9.91992C16.7479 9.12695 16.5684 8.4375 16.2092 7.85156C15.8542 7.26172 15.3362 6.80664 14.6551 6.48633C13.9781 6.16211 13.1607 6 12.203 6ZM9.88107 11.707H11.7015C12.2134 11.707 12.6385 11.6406 12.977 11.5078C13.3155 11.375 13.5673 11.1758 13.7325 10.9102C13.9017 10.6445 13.9863 10.3145 13.9863 9.91992C13.9863 9.52148 13.9017 9.18555 13.7325 8.91211C13.5673 8.63867 13.3135 8.43164 12.9708 8.29102C12.6324 8.14648 12.2051 8.07422 11.6891 8.07422H9.88107V11.707Z" fill="#0069CD"/>
</svg>
